<svg width="100" height="100" viewBox="0 0 100 100" fill="none" xmlns="http://www.w3.org/2000/svg"><path d="M0 24C0 10.745 10.745 0 24 0h52c13.255 0 24 10.745 24 24v52c0 13.255-10.745 24-24 24H24C10.745 100 0 89.255 0 76V24z" fill="#6E49CB"/><path fill-rule="evenodd" clip-rule="evenodd" d="M65.516 21.838l21.61 12.028c1.37.773 1.073 2.564-.497 2.991l-13.546 3.5c-6.162 1.594-12.837.592-17.991-2.711l-1.917-1.233a.95.95 0 00-1.47.773l-.397 15.727.083-.05c1.041-.658 2.049-1.332 2.924-2.038a9.397 9.397 0 001.173-1.085c.33-.362.595-.74.76-1.068.165-.345.215-.625.215-.887 0-.066-.033-2.038-.033-2.038l-2.94-1.758a.704.704 0 01-.364-.625v-.986c0-.312.231-.591.562-.64l2.626-.379a.713.713 0 01.446.066c.265.132.694.345.942.493.38.247.76.526 1.123.855.71.657 1.322 1.544 1.636 2.448.182.46.28.904.347 1.348l.008.055c.03.193.06.378.075.618a5.53 5.53 0 010 .74c-.05 1.002-.38 1.955-.826 2.727-.447.79-.992 1.414-1.537 1.956a13.237 13.237 0 01-1.685 1.413c-1.041.765-2.096 1.394-3.152 1.985.384.241.769.488 1.153.743 1.107.74 2.214 1.544 3.255 2.58.512.525 1.007 1.1 1.437 1.79.413.691.76 1.513.859 2.4.05.444.05.887 0 1.331a7.459 7.459 0 01-.298 1.232 7.92 7.92 0 01-1.123 2.054c-.892 1.184-1.95 2.087-3.023 2.909-1.295.97-2.626 1.81-3.95 2.612.902.62 1.808 1.266 2.678 2.005.512.428 1.024.904 1.487 1.48.23.279.446.607.627.969a4.926 4.926 0 01.25.654c.026.09.05.172.064.266a.58.58 0 01.033.164l.017.132c.066.706.066 1.479-.165 2.235-.215.755-.678 1.446-1.223 1.955-.545.51-1.156.871-1.751 1.183-.611.296-1.223.559-1.817.789a.715.715 0 01-.942-.526.652.652 0 01.38-.657 78.9 78.9 0 01.307-.152c.458-.225.91-.447 1.329-.703.512-.312.99-.657 1.338-1.035.347-.394.578-.805.677-1.282.1-.46.083-.986-.017-1.528l-.016-.098-.017-.066a1.113 1.113 0 01-.05-.132 3.954 3.954 0 00-.131-.279 3.47 3.47 0 00-.446-.591 9.55 9.55 0 00-1.272-1.134c-.815-.615-1.7-1.181-2.607-1.741l-.35 13.9c-.017.247-.199.46-.447.477a.451.451 0 01-.479-.444l-.356-14.091c-.968.595-1.916 1.195-2.783 1.85-.479.36-.908.739-1.272 1.133-.181.197-.33.395-.446.592-.05.098-.099.197-.132.28-.017.048-.033.098-.05.13l-.016.066-.017.099c-.099.542-.115 1.068-.016 1.528.1.477.33.887.677 1.282.347.378.826.723 1.339 1.035.418.255.87.478 1.328.703l.307.151a.652.652 0 01.38.658.693.693 0 01-.925.575 24.385 24.385 0 01-1.818-.789c-.594-.312-1.206-.674-1.75-1.183-.546-.51-1.008-1.2-1.223-1.955-.231-.756-.231-1.529-.165-2.235l.016-.132a.58.58 0 01.033-.164c.014-.094.038-.176.065-.266l.018-.063c.066-.213.148-.41.231-.591.182-.362.397-.69.628-.97.462-.575.975-1.051 1.487-1.479.855-.727 1.745-1.362 2.631-1.973-1.314-.797-2.635-1.631-3.92-2.595-1.074-.821-2.131-1.725-3.023-2.908a7.92 7.92 0 01-1.123-2.054 7.459 7.459 0 01-.298-1.233 5.972 5.972 0 010-1.33c.1-.888.446-1.71.86-2.4.429-.69.924-1.265 1.436-1.791 1.041-1.035 2.148-1.84 3.255-2.58.4-.265.802-.523 1.203-.773-1.068-.597-2.134-1.23-3.185-2.004-.579-.41-1.14-.87-1.686-1.413-.545-.542-1.09-1.167-1.536-1.956-.446-.772-.776-1.725-.826-2.727a5.53 5.53 0 010-.74c.015-.24.044-.425.074-.618l.009-.056c.066-.443.165-.887.346-1.347.314-.904.926-1.791 1.636-2.448a8.819 8.819 0 011.123-.855c.248-.148.678-.361.942-.493a.713.713 0 01.446-.066l2.627.378c.33.05.562.329.562.641v.986a.704.704 0 01-.364.625l-2.957 1.709s-.033 1.971-.033 2.037c0 .263.05.543.215.888.165.328.43.706.76 1.068.33.361.727.74 1.173 1.084.875.707 1.883 1.38 2.924 2.038l.264.163-.396-15.692c-.017-.74-.843-1.166-1.47-.772l-1.752 1.117c-5.154 3.303-11.829 4.306-17.99 2.712l-13.548-3.5c-1.57-.411-1.883-2.202-.495-2.975l21.576-12.028a9.247 9.247 0 014.51-1.15c3.519 0 6.36 2.432 6.36 5.422 0 0 .1.871.942 1.643.628.576 1.619.116 1.602-.723l-.099-4.124c0-.394-.149-.772-.43-1.052a3.468 3.468 0 01-.974-2.399c0-1.972 1.669-3.55 3.651-3.45a3.474 3.474 0 013.271 3.286c.05.92-.28 1.758-.826 2.399a1.65 1.65 0 00-.413 1.019l-.116 4.453c-.016.789.909 1.265 1.537.772 1.057-.805 1.173-1.824 1.173-1.824 0-2.99 2.841-5.422 6.36-5.422 1.603 0 3.172.41 4.51 1.15zM48.68 58.718c-.668.358-1.324.72-1.963 1.095-1.04.608-2.032 1.265-2.842 1.988a6.92 6.92 0 00-1.007 1.118c-.265.378-.43.74-.496 1.117-.033.197-.05.378-.033.575.016.197.05.411.116.625.115.427.33.87.627 1.314.595.871 1.438 1.71 2.346 2.481.909.773 1.917 1.512 2.94 2.219l.64.439-.328-12.97zm2.158 12.857l.472-.325c1.024-.707 2.032-1.446 2.94-2.219.909-.772 1.751-1.61 2.346-2.48.297-.445.512-.888.628-1.315.066-.214.1-.428.116-.625s0-.378-.033-.575c-.066-.378-.232-.74-.496-1.117a6.92 6.92 0 00-1.008-1.118c-.81-.723-1.8-1.38-2.841-1.988a54.459 54.459 0 00-1.802-1.008l-.322 12.77z" fill="#fff"/></svg>