<svg width="64" height="64" fill="none" xmlns="http://www.w3.org/2000/svg"><path d="M44.05 22.54l-10.1-6a3.796 3.796 0 00-3.9 0l-10.1 6c-1.206.712-1.95 2.037-1.95 3.468v11.994c0 1.43.744 2.756 1.95 3.468l10.1 5.994c.6.356 1.275.538 1.95.538s1.344-.182 1.95-.538l10.1-5.994A4.03 4.03 0 0046 38.002V26.008c0-1.431-.744-2.756-1.95-3.469z" fill="#fff"/><path d="M44.05 22.54l-10.1-6a3.82 3.82 0 00-1.95-.538 3.83 3.83 0 00-1.95.537l-10.1 6c-1.206.713-1.95 2.038-1.95 3.469v11.994c0 1.43.744 2.756 1.95 3.468l10.1 5.994c.6.356 1.275.538 1.95.538s1.344-.182 1.95-.538l10.1-5.994A4.03 4.03 0 0046 38.002V26.008c0-1.431-.744-2.756-1.95-3.469zM30.406 46.851l-10.1-5.994a3.327 3.327 0 01-1.6-2.856V26.008c0-1.175.613-2.269 1.6-2.856l10.1-5.994a3.12 3.12 0 013.188 0l10.1 5.994a3.298 3.298 0 011.55 2.312c-.338-.712-1.088-.912-1.969-.394l-9.556 5.907c-1.194.693-2.069 1.48-2.069 2.912v11.775c0 .863.344 1.419.881 1.581a2.93 2.93 0 01-.531.05 3.189 3.189 0 01-1.594-.443z" fill="#283037"/><path d="M41.406 39.158l-2.518 1.506c-.07.038-.12.081-.12.163v.656c0 .081.057.112.12.075l2.556-1.55c.069-.038.075-.113.075-.194v-.581c.006-.081-.05-.113-.113-.075z" fill="#4DA825"/><path d="M36.05 33.62c.081-.043.15.013.15.12l.006.868c.363-.144.681-.181.969-.119.063.019.088.1.063.2l-.194.769a.35.35 0 01-.088.156c-.019.019-.031.031-.05.038a.111.111 0 01-.075.012c-.131-.031-.444-.1-.931.15-.512.263-.694.706-.688 1.038.007.393.207.518.907.525.931.012 1.337.425 1.343 1.362.013.925-.48 1.913-1.237 2.525l.019.863c0 .106-.069.225-.15.262l-.513.294c-.081.044-.15-.006-.15-.113l-.006-.85c-.438.182-.881.225-1.162.113-.057-.019-.075-.1-.057-.188l.188-.78a.304.304 0 01.093-.163c.02-.013.032-.025.05-.038.032-.012.057-.019.082-.006.306.1.694.056 1.069-.138.474-.243.793-.725.787-1.212-.006-.438-.244-.619-.819-.625-.731 0-1.419-.144-1.431-1.225-.006-.888.456-1.813 1.188-2.4l-.007-.869c0-.106.063-.225.15-.269l.494-.3z" fill="#fff"/></svg>