<svg width="64" height="64" fill="none" xmlns="http://www.w3.org/2000/svg"><path d="M26.04 35.715l.113.883c-.527.17-1.185.245-1.993.245-.978 0-1.655-.245-2.05-.752-.394-.508-.601-1.373-.601-2.595 0-1.222.188-2.106.601-2.595.395-.507 1.072-.752 2.05-.752.714 0 1.335.076 1.861.207l-.113.903a25.485 25.485 0 00-1.748-.057c-.545 0-.903.17-1.11.49-.188.338-.3.94-.3 1.823 0 .884.094 1.504.3 1.824.207.338.565.489 1.11.489.79-.02 1.429-.057 1.88-.113zm5.396-1.016l.583 2.03h-1.26l-.526-2.01c-.113-.396-.376-.584-.752-.584h-1.166v2.595h-1.166v-6.487c.564-.056 1.354-.075 2.37-.075.827 0 1.41.132 1.748.414.338.282.507.77.507 1.485 0 .508-.094.884-.282 1.147-.188.263-.507.433-.94.489v.056c.188.038.358.15.527.301.188.132.3.357.357.64zm-1.072-1.767c.15-.15.226-.414.226-.808 0-.395-.075-.659-.226-.809-.15-.132-.432-.207-.865-.207h-1.165v2.05h1.165c.433 0 .715-.075.865-.226zm18.087-2.689h-5.17v.997h1.974v5.49h1.184v-5.49h2.012v-.997zm3.648.301l1.955 6.167h-1.222l-.526-1.842h-2.407l-.526 1.842h-1.204l1.937-6.167c.056-.207.207-.32.432-.32h1.147c.207.02.357.113.414.32zm-.075 3.384l-.659-2.237c-.093-.338-.131-.526-.15-.545h-.244l-.15.545-.64 2.238h1.843zm6.75 1.824h-2.257c-.207 0-.357-.037-.432-.113-.076-.075-.132-.225-.132-.413v-4.983h-1.184v5.152c0 .902.488 1.354 1.466 1.354 1.11 0 1.955-.038 2.576-.076l-.038-.92zm-23.465-2.99a11.67 11.67 0 00-.263.79h-.075c-.132-.413-.226-.676-.264-.79l-1.184-2.519h-1.241l2.125 4.287v2.219h1.184V34.53l2.125-4.287h-1.222l-1.185 2.52zm6.017.377l-1.241-.395c-.282-.094-.47-.188-.564-.3-.113-.114-.15-.302-.15-.565 0-.32.074-.526.225-.62.15-.076.432-.132.865-.132.564 0 1.222.019 1.936.038l.075-.828c-.564-.15-1.24-.225-2.03-.225-.827 0-1.41.113-1.73.338-.338.226-.489.696-.489 1.41 0 .49.094.903.301 1.204.207.3.527.526.997.676l1.316.414c.263.075.45.17.545.282.094.113.15.301.15.583 0 .32-.075.545-.206.64-.15.093-.433.15-.865.15-.282 0-.96-.02-2.05-.038l-.075.865c.696.131 1.391.207 2.106.207.865 0 1.466-.132 1.786-.376.338-.245.508-.733.508-1.448 0-.489-.094-.902-.301-1.203-.263-.301-.602-.527-1.11-.677zm-23.201.526l-1.711-6.392c0-.019-.02-.038-.057-.057l-6.411-1.71c-.019 0-.056 0-.075.018l-4.7 4.682c-.02.019-.02.037-.02.075l1.712 6.392c0 .02.018.038.056.057l6.411 1.71c.019 0 .057 0 .075-.018l4.7-4.681c.02-.038.038-.057.02-.076zm-6.28-5.02l-1.692 6.28c0 .019-.019.019-.038 0l-4.587-4.587c-.02-.02 0-.02 0-.038l6.298-1.692c0 .018.019.018.019.037z" fill="#000"/></svg>