<svg width="64" height="64" fill="none" xmlns="http://www.w3.org/2000/svg"><path opacity=".54" d="M30.63 26.162h3.038c1.031 0 1.931.213 2.7.64a4.41 4.41 0 011.773 1.779c.413.76.619 1.63.619 2.616 0 .985-.206 1.856-.619 2.616a4.403 4.403 0 01-1.772 1.778c-.769.427-1.669.64-2.701.64H30.63V26.162zm3.038 8.932c1.191 0 2.135-.342 2.834-1.027.698-.684 1.048-1.64 1.048-2.87 0-1.228-.35-2.184-1.048-2.869-.698-.685-1.643-1.026-2.834-1.026h-1.856v7.79h1.856v.002zm6.932 1.054a2.312 2.312 0 01-.956-.851 2.277 2.277 0 01-.337-1.23c0-.76.285-1.353.858-1.78.57-.426 1.293-.64 2.166-.64.43 0 .831.048 1.202.142.37.094.654.202.851.323v-.436c0-.534-.187-.963-.562-1.287-.375-.323-.85-.485-1.42-.485-.404 0-.774.087-1.112.26a2.028 2.028 0 00-.802.725l-.9-.675a2.876 2.876 0 011.16-1.012 3.642 3.642 0 011.639-.366c.975 0 1.741.255 2.3.766.557.512.836 1.208.836 2.089v4.542h-1.139v-1.026h-.056c-.206.347-.516.641-.929.885a2.686 2.686 0 01-1.393.366c-.523 0-.992-.103-1.406-.31zm2.645-1.054c.346-.206.623-.483.83-.83.205-.346.31-.726.31-1.139a2.955 2.955 0 00-.83-.366 3.771 3.771 0 00-1.041-.14c-.657 0-1.152.135-1.484.407a1.3 1.3 0 00-.5 1.055c0 .393.15.712.45.956.3.243.68.366 1.14.366.403 0 .779-.103 1.125-.309zm3.54-5.921h1.14v1.14h.055a1.95 1.95 0 01.858-.986 2.588 2.588 0 011.323-.352c.206 0 .379.015.52.042v1.224a2.951 2.951 0 00-.647-.056c-.61 0-1.104.202-1.483.605-.38.403-.57.928-.57 1.574v3.98h-1.196v-7.171zm7.424 7.142a1.766 1.766 0 01-1.049-1.017 2.392 2.392 0 01-.14-.873v-4.282h-1.253V29.06h1.252v-2.024h1.196v2.024h1.743v1.083h-1.743v3.997c0 .402.074.7.224.891.178.21.436.317.774.317.27 0 .534-.08.787-.24v1.168a1.9 1.9 0 01-.429.141 2.97 2.97 0 01-.556.042 2.273 2.273 0 01-.806-.144z" fill="#000"/><path d="M11.061 35.949l-2.567-2.567A1.746 1.746 0 018 32.196c0-.2.112-.512.197-.691l2.37-4.938.494 9.382z" fill="#01579B"/><path d="M19.85 27.061l-2.567-2.567c-.223-.225-.69-.494-1.086-.494-.34 0-.672.068-.889.197l-4.74 2.37 9.283.494zM14.123 39.01h6.222v-2.666l-4.642-1.482-4.246 1.481 2.666 2.667z" fill="#40C4FF"/><path d="M10.569 34.567c0 .792.099.987.493 1.383l.395.395h8.888L16 31.408l-5.431-4.84v8z" fill="#29B6F6"/><path d="M18.468 26.567h-7.9l9.776 9.777h2.666V30.22l-3.16-3.16c-.443-.445-.837-.494-1.382-.494z" fill="#01579B"/><path opacity=".2" d="M11.16 36.048c-.394-.397-.493-.787-.493-1.48v-7.901l-.1-.1v8c.002.694.002.886.594 1.481l.296.297-.296-.297z" fill="#fff"/><path opacity=".2" d="M22.912 30.123v6.122h-2.666l.099.099h2.667v-6.122l-.1-.1z" fill="#263238"/><path opacity=".2" d="M19.85 27.061c-.489-.49-.89-.494-1.48-.494h-7.802l.1.1h7.703c.293 0 1.038-.05 1.48.394z" fill="#fff"/><path opacity=".2" d="M22.912 30.123L19.85 27.06l-2.568-2.567c-.224-.225-.691-.494-1.086-.494-.34 0-.673.068-.889.197l-4.74 2.37-2.37 4.938c-.085.18-.197.491-.197.691 0 .431.19.872.494 1.186l2.366 2.349c.057.069.123.14.202.218l.1.1.296.296 2.568 2.567.099.1h6.222v-2.667h2.666v-6.122l-.102-.1z" fill="url(#a)"/><defs><radialGradient id="a" cx="0" cy="0" r="1" gradientUnits="userSpaceOnUse" gradientTransform="translate(15.507 31.505) scale(7.50631)"><stop stop-color="#fff" stop-opacity=".1"/><stop offset="1" stop-color="#fff" stop-opacity="0"/></radialGradient></defs></svg>