<svg width="64" height="64" fill="none" xmlns="http://www.w3.org/2000/svg"><g clip-path="url(#a)"><path d="M49.505 33.28l.004 2.704-.018-7.536.014 4.831zm0 0l2.722-2.75m-2.722 2.75l2.736 2.713M34 33.315a2.762 2.762 0 00-.497-1.652c-.492-.691-1.288-1.163-2.162-1.173-.059 0-.116 0-.175.004-.346.021-.68.07-.976.193-1.948.81-2.293 3.514-.65 4.737 1.423 1.06 3.493.627 4.21-.99a2.97 2.97 0 00.25-1.119zm0 0v-4.89m13.14 2.387c-.404-.26-.874-.355-1.34-.354-.05 0-.102.003-.147.005-1.346.058-2.593 1.008-2.593 2.852 0 2.18 2.337 3.357 4.084 2.329m7.845-.237l4.134-3.543s-.1-.19-.166-.277c-.556-.747-1.406-1.12-2.302-1.12-2.212 0-3.871 2.861-1.666 4.94zm0 0c.153.143.363.256.596.353.81.338 1.917.31 2.517-.134l-3.113-.22zM64 30.53c-.68.002-1.341.24-1.832.698-.773.639-.94 1.445-.931 2.463l.022 2.316m-22.735-5.53c-.063 0-.125.007-.188.008-1.678.03-2.888 1.774-2.521 3.39.357 1.575 2.078 2.508 3.564 1.993 1.732-.454 2.438-2.634 1.487-4.107-.52-.805-1.401-1.303-2.342-1.285z" stroke="#394D54" stroke-linecap="round" stroke-linejoin="round"/><path d="M15.608 28.84h2.42v2.474h1.224c.565 0 1.146-.101 1.681-.282.263-.09.558-.214.818-.37-.342-.446-.516-1.009-.568-1.564-.07-.755.083-1.738.594-2.329l.254-.294.303.244c.764.613 1.405 1.47 1.519 2.446.918-.27 1.997-.206 2.807.261l.333.192-.175.341c-.685 1.338-2.117 1.752-3.517 1.678-2.096 5.219-6.657 7.69-12.187 7.69-2.858 0-5.48-1.069-6.972-3.604-.088-.157-.163-.322-.242-.484-.505-1.116-.672-2.338-.559-3.56l.035-.365h2.069V28.84h2.42v-2.42h4.84V24h2.903v4.84" fill="#394D54"/><mask id="a" maskUnits="userSpaceOnUse" x="3" y="24" width="24" height="15"><path d="M8.043 24.212v4.868H5.715v2.434h-1.95c-.008.07-.014.14-.021.211-.122 1.327.11 2.55.641 3.595l.179.321c.107.192.232.373.364.55.131.175.178.272.261.39 1.406 1.58 3.503 2.34 5.923 2.34 5.36 0 9.91-2.374 11.923-7.708 1.428.146 2.798-.22 3.422-1.439-.994-.574-2.273-.39-3.01-.02l1.952-5.543-7.62 4.869h-2.434v-4.868H8.043z" fill="#fff"/></mask><g mask="url(#a)"><path d="M13.108 24.403h2.097v2.098h-2.097v-2.098z" fill="#20C2EF"/><path d="M13.366 26.326v-1.748 1.748zm.314 0v-1.748 1.748zm.318 0v-1.748 1.748zm.318 0v-1.748 1.748zm.317 0v-1.748 1.748zm.315 0v-1.748 1.748z" fill="#000"/><path d="M14.948 26.326v-1.748m-1.582 1.748v-1.748 1.748zm.314 0v-1.748 1.748zm.318 0v-1.748 1.748zm.318 0v-1.748 1.748zm.317 0v-1.748 1.748z" stroke="#394D54" stroke-width="1.56"/><path d="M15.528 26.5h2.097v-2.097h-2.097v2.098z" fill="#00ACD3"/><path d="M15.785 24.578v1.748-1.748zm.315 0v1.748-1.748zm.318 0v1.748-1.748zm.317 0v1.748-1.748zm.318 0v1.748-1.748zm.315 0v1.748-1.748z" fill="#000"/><path d="M17.368 24.578v1.748m-1.583-1.748v1.748-1.748zm.315 0v1.748-1.748zm.318 0v1.748-1.748zm.317 0v1.748-1.748zm.318 0v1.748-1.748z" stroke="#394D54" stroke-width="1.56"/><path d="M3.428 26.824h2.098v2.097H3.428v-2.097z" fill="#00ACD3"/><path d="M3.428 29.243h2.098v2.098H3.428v-2.098z" fill="#20C2EF"/><path d="M3.686 28.746v-1.748 1.748zm.314 0v-1.748 1.748zm.318 0v-1.748 1.748zm.318 0v-1.748 1.748zm.318 0v-1.748 1.748zm.314 0v-1.748 1.748z" fill="#000"/><path d="M5.268 28.746v-1.748m-1.582 1.748v-1.748 1.748zm.314 0v-1.748 1.748zm.318 0v-1.748 1.748zm.318 0v-1.748 1.748zm.318 0v-1.748 1.748z" stroke="#394D54" stroke-width="1.56"/><path d="M3.686 31.166v-1.748 1.748zm.314 0v-1.748 1.748zm.318 0v-1.748 1.748zm.318 0v-1.748 1.748zm.318 0v-1.748 1.748zm.314 0v-1.748 1.748z" fill="#000"/><path d="M5.268 31.166v-1.748m-1.582 1.748v-1.748 1.748zm.314 0v-1.748 1.748zm.318 0v-1.748 1.748zm.318 0v-1.748 1.748zm.318 0v-1.748 1.748z" stroke="#394D54" stroke-width="1.56"/><path d="M5.848 31.34h2.098v-2.097H5.848v2.097z" fill="#00ACD3"/><path d="M5.848 28.92h2.098v-2.097H5.848v2.097z" fill="#20C2EF"/><path d="M6.106 29.418v1.748-1.748zm.314 0v1.748-1.748zm.318 0v1.748-1.748zm.318 0v1.748-1.748zm.318 0v1.748-1.748zm.314 0v1.748-1.748z" fill="#000"/><path d="M7.688 29.418v1.748m-1.582-1.748v1.748-1.748zm.314 0v1.748-1.748zm.318 0v1.748-1.748zm.318 0v1.748-1.748zm.318 0v1.748-1.748z" stroke="#394D54" stroke-width="1.56"/><path d="M6.106 26.998v1.748-1.748zm.314 0v1.748-1.748zm.318 0v1.748-1.748zm.318 0v1.748-1.748zm.318 0v1.748-1.748zm.314 0v1.748-1.748z" fill="#000"/><path d="M7.688 26.998v1.748m-1.582-1.748v1.748-1.748zm.314 0v1.748-1.748zm.318 0v1.748-1.748zm.318 0v1.748-1.748zm.318 0v1.748-1.748z" stroke="#394D54" stroke-width="1.56"/><path d="M8.268 26.824h2.098v2.097H8.268v-2.097z" fill="#00ACD3"/><path d="M8.268 29.243h2.097v2.098H8.268v-2.098z" fill="#20C2EF"/><path d="M8.526 28.746v-1.748 1.748zm.314 0v-1.748 1.748zm.318 0v-1.748 1.748zm.318 0v-1.748 1.748zm.318 0v-1.748 1.748zm.314 0v-1.748 1.748z" fill="#000"/><path d="M10.108 28.746v-1.748m-1.582 1.748v-1.748 1.748zm.314 0v-1.748 1.748zm.318 0v-1.748 1.748zm.318 0v-1.748 1.748zm.318 0v-1.748 1.748z" stroke="#394D54" stroke-width="1.56"/><path d="M8.526 31.166v-1.748 1.748zm.314 0v-1.748 1.748zm.318 0v-1.748 1.748zm.318 0v-1.748 1.748zm.318 0v-1.748 1.748zm.314 0v-1.748 1.748z" fill="#000"/><path d="M10.108 31.166v-1.748m-1.582 1.748v-1.748 1.748zm.314 0v-1.748 1.748zm.318 0v-1.748 1.748zm.318 0v-1.748 1.748zm.318 0v-1.748 1.748z" stroke="#394D54" stroke-width="1.56"/><path d="M10.688 31.34h2.097v-2.097h-2.097v2.097z" fill="#00ACD3"/><path d="M10.688 28.92h2.097v-2.097h-2.097v2.097z" fill="#20C2EF"/><path d="M10.946 29.418v1.748-1.748zm.314 0v1.748-1.748zm.318 0v1.748-1.748zm.318 0v1.748-1.748zm.317 0v1.748-1.748zm.315 0v1.748-1.748z" fill="#000"/><path d="M12.528 29.418v1.748m-1.582-1.748v1.748-1.748zm.314 0v1.748-1.748zm.318 0v1.748-1.748zm.318 0v1.748-1.748zm.317 0v1.748-1.748z" stroke="#394D54" stroke-width="1.56"/><path d="M10.946 26.998v1.748-1.748zm.314 0v1.748-1.748zm.318 0v1.748-1.748zm.318 0v1.748-1.748zm.317 0v1.748-1.748zm.315 0v1.748-1.748z" fill="#000"/><path d="M12.528 26.998v1.748m-1.582-1.748v1.748-1.748zm.314 0v1.748-1.748zm.318 0v1.748-1.748zm.318 0v1.748-1.748zm.317 0v1.748-1.748z" stroke="#394D54" stroke-width="1.56"/><path d="M13.108 26.824h2.097v2.097h-2.097v-2.097z" fill="#00ACD3"/><path d="M13.108 29.243h2.097v2.098h-2.097v-2.098z" fill="#20C2EF"/><path d="M13.366 28.746v-1.748 1.748zm.314 0v-1.748 1.748zm.318 0v-1.748 1.748zm.318 0v-1.748 1.748zm.317 0v-1.748 1.748zm.315 0v-1.748 1.748z" fill="#000"/><path d="M14.948 28.746v-1.748m-1.582 1.748v-1.748 1.748zm.314 0v-1.748 1.748zm.318 0v-1.748 1.748zm.318 0v-1.748 1.748zm.317 0v-1.748 1.748z" stroke="#394D54" stroke-width="1.56"/><path d="M13.366 31.166v-1.748 1.748zm.314 0v-1.748 1.748zm.318 0v-1.748 1.748zm.318 0v-1.748 1.748zm.317 0v-1.748 1.748zm.315 0v-1.748 1.748z" fill="#000"/><path d="M14.948 31.166v-1.748m-1.582 1.748v-1.748 1.748zm.314 0v-1.748 1.748zm.318 0v-1.748 1.748zm.318 0v-1.748 1.748zm.317 0v-1.748 1.748z" stroke="#394D54" stroke-width="1.56"/><path d="M15.528 31.34h2.097v-2.097h-2.097v2.097z" fill="#00ACD3"/><path d="M15.528 28.92h2.097v-2.097h-2.097v2.097z" fill="#20C2EF"/><path d="M15.785 29.418v1.748-1.748zm.315 0v1.748-1.748zm.318 0v1.748-1.748zm.317 0v1.748-1.748zm.318 0v1.748-1.748zm.315 0v1.748-1.748z" fill="#000"/><path d="M17.368 29.418v1.748m-1.583-1.748v1.748-1.748zm.315 0v1.748-1.748zm.318 0v1.748-1.748zm.317 0v1.748-1.748zm.318 0v1.748-1.748z" stroke="#394D54" stroke-width="1.56"/><path d="M15.785 26.998v1.748-1.748zm.315 0v1.748-1.748zm.318 0v1.748-1.748zm.317 0v1.748-1.748zm.318 0v1.748-1.748zm.315 0v1.748-1.748z" fill="#000"/><path d="M17.368 26.998v1.748m-1.583-1.748v1.748-1.748zm.315 0v1.748-1.748zm.318 0v1.748-1.748zm.317 0v1.748-1.748zm.318 0v1.748-1.748z" stroke="#394D54" stroke-width="1.56"/></g><mask id="b" maskUnits="userSpaceOnUse" x="3" y="24" width="24" height="15"><path d="M8.043 24.212v4.868H5.715v2.434h-1.95c-.008.07-.014.14-.021.211-.122 1.327.11 2.55.641 3.595l.179.321c.107.192.232.373.364.55.131.175.178.272.261.39 1.406 1.58 3.503 2.34 5.923 2.34 5.36 0 9.91-2.374 11.923-7.708 1.428.146 2.798-.22 3.422-1.439-.994-.574-2.273-.39-3.01-.02l1.952-5.543-7.62 4.869h-2.434v-4.868H8.043z" fill="#fff"/></mask><g mask="url(#b)"><path d="M23.449 29.755c.162-1.261-.782-2.252-1.367-2.722-.674.78-.78 2.823.279 3.684-.59.524-1.835 1-3.109 1H3.598c-.124 1.33 0 7.734 0 7.734h22.965l-.104-9.675c-.995-.574-2.274-.391-3.01-.021" fill="#17B5EB"/></g><mask id="c" maskUnits="userSpaceOnUse" x="3" y="24" width="24" height="15"><path d="M8.043 24.212v4.868H5.715v2.434h-1.95c-.008.07-.014.14-.021.211-.122 1.327.11 2.55.641 3.595l.179.321c.107.192.232.373.364.55.131.175.178.272.261.39 1.406 1.58 3.503 2.34 5.923 2.34 5.36 0 9.91-2.374 11.923-7.708 1.428.146 2.798-.22 3.422-1.439-.994-.574-2.273-.39-3.01-.02l1.952-5.543-7.62 4.869h-2.434v-4.868H8.043z" fill="#fff"/></mask><g mask="url(#c)"><path d="M3.598 33.419v6.032h22.965v-6.032" fill="#000" fill-opacity=".17"/></g><mask id="d" maskUnits="userSpaceOnUse" x="3" y="24" width="24" height="15"><path d="M8.043 24.212v4.868H5.715v2.434h-1.95c-.008.07-.014.14-.021.211-.122 1.327.11 2.55.641 3.595l.179.321c.107.192.232.373.364.55.131.175.178.272.261.39 1.406 1.58 3.503 2.34 5.923 2.34 5.36 0 9.91-2.374 11.923-7.708 1.428.146 2.798-.22 3.422-1.439-.994-.574-2.273-.39-3.01-.02l1.952-5.543-7.62 4.869h-2.434v-4.868H8.043z" fill="#fff"/></mask><g mask="url(#d)"><path d="M11.772 38.91c-1.433-.68-2.22-1.604-2.657-2.613l-4.353.19 2.223 2.964 4.787-.54z" fill="#D4EDF1"/></g><mask id="e" maskUnits="userSpaceOnUse" x="3" y="24" width="24" height="15"><path d="M8.043 24.212v4.868H5.715v2.434h-1.95c-.008.07-.014.14-.021.211-.122 1.327.11 2.55.641 3.595l.179.321c.107.192.232.373.364.55.131.175.178.272.261.39 1.406 1.58 3.503 2.34 5.923 2.34 5.36 0 9.91-2.374 11.923-7.708 1.428.146 2.798-.22 3.422-1.439-.994-.574-2.273-.39-3.01-.02l1.952-5.543-7.62 4.869h-2.434v-4.868H8.043z" fill="#fff"/></mask><g mask="url(#e)"><path d="M23.547 29.708v.003c-2.208 2.846-5.374 5.332-8.774 6.638-3.032 1.165-5.676 1.17-7.5.235-.197-.111-.39-.235-.583-.351-1.337-.935-2.09-2.48-2.027-4.518H3.598v7.736h22.965V29.29h-2.645l-.37.417z" fill="#000" fill-opacity=".085"/></g><path d="M4.828 36.385c1.5.082 3.1.097 4.495-.34" stroke="#394D54" stroke-width=".5" stroke-linecap="round"/><path d="M10.813 35.32a.578.578 0 11-1.157 0 .578.578 0 011.157 0z" fill="#D4EDF1"/><path d="M10.384 34.933a.169.169 0 10.233.227.414.414 0 11-.233-.227zM0 33.542h26.915c-.586-.149-1.854-.35-1.645-1.118-1.065 1.233-3.635.865-4.284.257-.722 1.048-4.927.65-5.22-.166-.905 1.062-3.711 1.062-4.617 0-.293.816-4.497 1.214-5.22.166-.648.608-3.218.976-4.284-.257.21.768-1.059.97-1.645 1.118z" fill="#394D54"/></g><defs><clipPath id="a"><path fill="#fff" d="M0 0h64v64H0z"/></clipPath></defs></svg>