<svg width="64" height="64" fill="none" xmlns="http://www.w3.org/2000/svg"><path d="M43.054 25.246c-1.338 0-2.55.532-3.44 1.395l-5.646-4.043a1.979 1.979 0 10-.881 1.22l6.91 5.03c.54-1.124 1.727-1.999 3.057-1.999a3.343 3.343 0 011.061 6.514l.454 1.539a4.948 4.948 0 00-1.515-9.656z" fill="#0A7BFF"/><path d="M27.196 20.441a4.917 4.917 0 00.286 3.692l-5.547 4.146a1.973 1.973 0 10.894 1.207l6.868-5.051c-.906-.852-1.379-2.246-.978-3.51a3.335 3.335 0 016.514.959l1.6.033a4.936 4.936 0 00-9.637-1.476z" fill="#EB3D00"/><path d="M18.033 33.811a4.93 4.93 0 003.58.907l2.189 6.54c-.114.098-.22.208-.312.335a1.963 1.963 0 00.44 2.74 1.962 1.962 0 002.744-.417 1.963 1.963 0 00-.44-2.74 1.97 1.97 0 00-1.012-.374l-2.632-8.07c-1.088.58-2.554.58-3.624-.2-1.485-1.084-1.818-3.157-.743-4.631a3.307 3.307 0 013.683-1.191l.53-1.494c-1.974-.659-4.22-.015-5.503 1.744-1.59 2.18-1.098 5.247 1.1 6.851z" fill="#00BCD4"/><path d="M43.356 41.498a4.872 4.872 0 00-2.37-2.818l2.112-6.561a1.966 1.966 0 001.725-2.56 1.966 1.966 0 00-2.478-1.26 1.966 1.966 0 00-1.273 2.472c.117.36.33.663.6.89l-2.661 8.057c1.23.164 2.42 1.017 2.826 2.27a3.322 3.322 0 01-2.15 4.177 3.33 3.33 0 01-3.702-1.181l-1.32.899a4.927 4.927 0 005.51 1.793c2.589-.836 4.013-3.602 3.181-6.178z" fill="#86C351"/><path d="M28.034 46.79a4.9 4.9 0 001.942-3.138l6.901-.07a1.967 1.967 0 10-.01-1.497l-8.495.022c.227 1.218-.212 2.617-1.279 3.397a3.323 3.323 0 01-4.675-4.603l-1.267-.968a4.919 4.919 0 006.883 6.857z" fill="#9032E9"/></svg>