<svg xmlns="http://www.w3.org/2000/svg" width="81.784" height="94.461"><defs><style>.a{fill:#0087be}.b{fill:#1aa6e4}</style></defs><path d="M40.869 84.942L8.1 66.177V28.329h.046L0 23.615v47.231l40.869 23.615z" class="a"/><path d="M40.87 47.231L16.385 33.089h-.046v28.329l24.531 14.05z" class="a"/><path d="M81.784 23.615L40.869 0 0 23.615l8.146 4.714 32.723-18.9 32.814 18.854 8.1-4.668z" class="b"/><path d="M65.445 33.043l-24.53-14.142-24.531 14.187L40.869 47.23z" class="b"/><path d="M40.869 47.23l24.576-14.187zm32.814-18.947l8.1-4.668zm8.101-4.668l-8.1 4.668-8.238 4.76L40.869 47.23v28.238l24.576-14.1v-9.332l-16.476 9.379v-9.517l24.714-14.05v28.329L40.869 84.942v9.519l40.915-23.615z" fill="#0092cf"/></svg>