<svg viewBox="0 0 140 124" xmlns="http://www.w3.org/2000/svg"><defs><radialGradient cx="14.378%" cy="6.753%" r="86.427%" gradientTransform="matrix(.89063 0 0 1 .016 0)" id="a"><stop stop-color="#fff" stop-opacity=".1" offset="0%"/><stop stop-color="#fff" stop-opacity="0" offset="100%"/></radialGradient></defs><g fill="none"><path d="M91.36 99.19l-14.237 24.796h-37.29a9.275 9.275 0 01-8.05-4.675L1.623 66.629a9.321 9.321 0 010-9.248L13.1 37.341l14.166 24.661 21.356 37.19h42.736" fill="#fbbc05"/><path d="M138.37 66.63l-30.16 52.69a9.267 9.267 0 01-8.05 4.675H77.12l14.237-24.796 21.372-37.2-21.372-37.19h28.364l18.643 32.57a9.26 9.26 0 01.008 9.248" fill="#ea4335"/><path d="M119.73 24.81h-71.1L27.274 62 13.108 37.331 31.791 4.69a9.27 9.27 0 018.05-4.676h60.33a9.286 9.286 0 018.05 4.675l11.508 20.12" fill="#4285f4"/><path fill="#e0e0e0" d="M91.36 24.81L112.72 62 91.36 99.19H48.636L27.27 62l21.358-37.19H91.36"/><g fill="#fff"><ellipse cx="70" cy="62" rx="18.564" ry="18.599"/><path d="M31.789 5.458a9.267 9.267 0 018.05-4.675h60.33a9.286 9.286 0 018.05 4.675l11.07 19.352h.443L108.216 4.69a9.267 9.267 0 00-8.05-4.675h-60.33a9.275 9.275 0 00-8.05 4.675L13.103 37.331l.222.388 18.461-32.26" opacity=".2"/></g><path fill-opacity=".2" fill="#1a237e" d="M27.27 62l21.359-37.19h71.1l-.45-.78h-70.65L27.27 61.22"/><path d="M1.629 58.15L13.106 38.1l14.166 24.669 21.356 37.19h42.28l.451-.777H48.623l-21.356-37.18-14.166-24.669-11.477 20.04a9.373 9.373 0 00-1.21 5.02 9.359 9.359 0 011.21-4.24" fill="#fff" opacity=".2"/><path d="M77.57 123.211H39.841a9.275 9.275 0 01-8.05-4.675L1.631 65.854a9.334 9.334 0 01-1.21-4.24 9.267 9.267 0 001.21 5.02l30.16 52.69a9.267 9.267 0 008.05 4.675h37.29l.443-.785" opacity=".2" fill="#bf360c"/><g opacity=".2" fill="#3e2723"><path d="M113.16 62.002l-21.352-37.19h-.442l21.363 37.19zM138.37 65.851l-30.16 52.69a9.267 9.267 0 01-8.05 4.675H77.57l-.451.777h23.04a9.286 9.286 0 008.05-4.675l30.16-52.69a9.324 9.324 0 001.21-5.02 9.359 9.359 0 01-1.21 4.24"/></g><g opacity=".2" fill="#fff"><path d="M119.729 25.579l18.643 32.57a9.334 9.334 0 011.21 4.24 9.267 9.267 0 00-1.21-5.02l-18.643-32.57H91.365l.451.777M91.366 99.962l21.794-37.96h-.431l-21.363 37.19-14.238 24.79h.443z"/></g><path d="M138.37 57.37L119.727 24.8 108.211 4.68a9.267 9.267 0 00-8.05-4.675h-60.32a9.275 9.275 0 00-8.05 4.675L1.631 57.37a9.321 9.321 0 000 9.248l30.16 52.69a9.267 9.267 0 008.05 4.675h60.33a9.286 9.286 0 008.05-4.675l30.16-52.69a9.3 9.3 0 00-.008-9.248" fill="url(#a)"/></g></svg>