<svg xmlns="http://www.w3.org/2000/svg" xmlns:xlink="http://www.w3.org/1999/xlink" viewBox="0 0 128 128"><defs><linearGradient id="b" gradientUnits="userSpaceOnUse" y1="7.03" x2="0" y2="120.79"><stop stop-color="#4387fd"/><stop offset="1" stop-color="#4683ea"/></linearGradient><clipPath id="c"><use xlink:href="#a"/></clipPath><path id="a" d="M27.791 115.22L1.541 69.75a11.5 11.5 0 010-11.499l26.25-45.47a11.499 11.499 0 019.959-5.75h52.5c4.108 0 7.904 2.192 9.959 5.75l26.25 45.47a11.5 11.5 0 010 11.499l-26.25 45.47a11.498 11.498 0 01-9.959 5.749h-52.5a11.5 11.5 0 01-9.958-5.749"/></defs><path d="M27.791 115.22L1.541 69.75a11.5 11.5 0 010-11.499l26.25-45.47a11.499 11.499 0 019.959-5.75h52.5c4.108 0 7.904 2.192 9.959 5.75l26.25 45.47a11.5 11.5 0 010 11.499l-26.25 45.47a11.498 11.498 0 01-9.959 5.749h-52.5a11.5 11.5 0 01-9.958-5.749" fill="url(#b)"/><path opacity=".07" clip-path="url(#c)" d="M124.05 82.86L89.63 48.44 64 37 39.5 50.31l-1.027 29.34 42.547 42.54 16.65-.15z"/><path d="M89.03 47.993l-23.676-13.67a2.7 2.7 0 00-2.699 0l-23.676 13.67a2.698 2.698 0 00-1.349 2.337v27.339c0 .964.514 1.855 1.349 2.337l23.676 13.67a2.7 2.7 0 002.699 0l23.676-13.67a2.698 2.698 0 001.349-2.337V50.33c0-.964-.514-1.855-1.349-2.337m-3.248 27.06l-8.26-4.769V57.721l-12.198 7.04v14.09l10.879-6.281 8.26 4.769-20.459 11.812-20.459-11.812 8.26-4.769 10.88 6.281v-14.09l-12.198-7.04v12.563l-8.26 4.769V51.429l20.459-11.812v9.538l-10.88 6.281 12.198 7.04 12.198-7.04-10.879-6.281v-9.538l20.459 11.812v23.624" fill="#fff"/></svg>