<svg width="64" height="64" fill="none" xmlns="http://www.w3.org/2000/svg"><path d="M18.174 33.767v2.025a2.69 2.69 0 01-.812.41 3.2 3.2 0 01-.922.13 3.075 3.075 0 01-1.109-.19 2.479 2.479 0 01-.848-.53 2.318 2.318 0 01-.542-.81 2.714 2.714 0 01-.19-1.028 2.823 2.823 0 01.184-1.035 2.34 2.34 0 01.52-.81 2.3 2.3 0 01.818-.525c.345-.13.712-.194 1.08-.189.192 0 .382.016.57.05.168.03.332.074.492.133a2.243 2.243 0 01.757.472l-.267.423a.257.257 0 01-.164.122.292.292 0 01-.217-.05l-.229-.132a1.46 1.46 0 00-.255-.114 2.246 2.246 0 00-.315-.08 2.357 2.357 0 00-.402-.03 1.704 1.704 0 00-.67.125c-.195.08-.369.201-.511.356a1.621 1.621 0 00-.325.556 2.197 2.197 0 00-.114.73c-.004.26.038.52.123.766.074.213.191.407.345.572.152.157.336.278.54.356.224.084.463.126.702.122a1.9 1.9 0 00.494-.058c.147-.04.29-.093.426-.16v-.907h-.63a.19.19 0 01-.145-.051.167.167 0 01-.051-.123v-.526h1.667zm1.52-.426a1.56 1.56 0 01.395-.506.84.84 0 01.54-.175.66.66 0 01.394.107l-.055.64a.167.167 0 01-.05.089.145.145 0 01-.089.026 1.004 1.004 0 01-.154-.018 1.177 1.177 0 00-.198-.017.644.644 0 00-.452.16.84.84 0 00-.156.19 1.56 1.56 0 00-.126.252v2.187h-.856v-3.55h.502a.208.208 0 01.237.12c.013.03.019.062.017.094l.05.401zm1.647-.121c.4-.37.929-.57 1.474-.56.19-.003.38.031.557.1a1.2 1.2 0 01.416.285c.115.127.202.276.258.438.06.178.089.365.087.553v2.241h-.385a.405.405 0 01-.188-.036.262.262 0 01-.104-.146l-.075-.256a3.171 3.171 0 01-.264.212c-.083.06-.172.112-.265.155a1.494 1.494 0 01-.64.127 1.348 1.348 0 01-.416-.06.9.9 0 01-.328-.182.806.806 0 01-.216-.3 1.065 1.065 0 01-.076-.42c0-.09.016-.182.046-.269a.77.77 0 01.145-.253c.077-.089.166-.166.264-.23.125-.076.259-.136.398-.18.18-.058.364-.102.551-.13.239-.036.48-.056.72-.06v-.215a.78.78 0 00-.145-.528.558.558 0 00-.438-.172 1.048 1.048 0 00-.344.05 1.433 1.433 0 00-.24.107l-.188.11a.379.379 0 01-.19.048.238.238 0 01-.146-.047.37.37 0 01-.1-.108l-.168-.274zm1.96 1.541a4.562 4.562 0 00-.623.064 1.66 1.66 0 00-.405.118.538.538 0 00-.218.17.357.357 0 00-.067.212.37.37 0 00.134.321c.102.07.224.104.348.098a1.02 1.02 0 00.456-.095 1.4 1.4 0 00.375-.292v-.596zm4.722-3.629v5.145h-.524a.201.201 0 01-.214-.156l-.073-.342c-.14.16-.306.295-.493.398-.2.102-.423.152-.648.145a1.157 1.157 0 01-.951-.472 1.662 1.662 0 01-.27-.569 2.859 2.859 0 01-.096-.775 2.424 2.424 0 01.108-.729c.065-.212.17-.41.308-.583a1.44 1.44 0 01.48-.39 1.39 1.39 0 01.63-.145c.175-.005.348.027.51.093.14.06.267.146.377.252v-1.872h.856zm-.856 2.5a.834.834 0 00-.685-.322.8.8 0 00-.35.073.694.694 0 00-.266.219 1.06 1.06 0 00-.17.375 2.147 2.147 0 00-.058.535c-.004.177.013.354.05.527.026.126.075.246.145.353a.542.542 0 00.227.197.73.73 0 00.302.061.875.875 0 00.454-.11c.135-.084.254-.19.352-.315l-.001-1.592zm2.564-2.5v5.145h-.854v-5.145h.854zm1.514 3.476c.01.161.042.32.096.472a.981.981 0 00.201.33.81.81 0 00.292.194c.121.044.25.065.379.064a1.14 1.14 0 00.358-.05 1.6 1.6 0 00.263-.106c.076-.04.146-.076.198-.108a.328.328 0 01.164-.048.178.178 0 01.16.08l.248.315a1.434 1.434 0 01-.318.279c-.116.074-.24.134-.369.18a2.035 2.035 0 01-.39.095 2.739 2.739 0 01-.381.03c-.236.001-.47-.04-.69-.123a1.55 1.55 0 01-.554-.363 1.733 1.733 0 01-.37-.597 2.333 2.333 0 01-.136-.828 1.963 1.963 0 01.118-.684 1.584 1.584 0 01.874-.931c.426-.173.9-.184 1.334-.032a1.362 1.362 0 01.808.819c.081.219.12.45.116.684a.558.558 0 01-.042.26.172.172 0 01-.16.068h-2.2zm1.63-.516a1.05 1.05 0 00-.047-.314.72.72 0 00-.383-.431.907.907 0 00-.917.146 1.035 1.035 0 00-.272.597l1.619.002zm4.8-2.715a2.85 2.85 0 01.73.083c.184.046.357.129.508.244.129.105.23.24.292.393.067.168.1.347.096.527 0 .127-.022.254-.067.373a1.168 1.168 0 01-.504.598 1.539 1.539 0 01-.424.17c.33.03.642.164.892.382a1.048 1.048 0 01.309.788c.003.192-.035.383-.111.56a1.131 1.131 0 01-.322.422 1.466 1.466 0 01-.513.271 2.448 2.448 0 01-.699.092h-1.589v-4.903h1.403zm-1.052.28v2.012h1.063c.198.005.395-.025.583-.087a1.12 1.12 0 00.394-.228.874.874 0 00.227-.322.984.984 0 00.073-.37.91.91 0 00-.313-.75c-.21-.17-.533-.256-.968-.255h-1.059zm1.23 4.335c.43 0 .753-.094.974-.279a1.077 1.077 0 00.242-1.201.876.876 0 00-.255-.315 1.174 1.174 0 00-.408-.2 2.038 2.038 0 00-.55-.068h-1.233v2.064l1.23-.001zm5.227-3.157v3.442h-.183a.092.092 0 01-.075-.02.093.093 0 01-.033-.069l-.031-.513c-.152.193-.34.355-.553.477-.21.121-.45.184-.694.182a1.303 1.303 0 01-.503-.089.927.927 0 01-.355-.26 1.146 1.146 0 01-.215-.407 1.823 1.823 0 01-.072-.541v-2.202h.332v2.202c-.017.27.062.54.222.76a.812.812 0 00.675.275c.221 0 .438-.061.628-.175a1.8 1.8 0 00.52-.477v-2.585h.337zm1.64-1.187a.317.317 0 01-.19.277.31.31 0 01-.235 0 .314.314 0 01-.187-.277.31.31 0 01.187-.284.31.31 0 01.236 0 .32.32 0 01.153.159c.02.038.03.08.032.122l.004.003zm-.145 1.187v3.442h-.328v-3.442h.328zm1.536-1.592v5.034h-.332V31.24l.332.003zm3.846 0v5.034h-.18a.094.094 0 01-.104-.09l-.032-.544a1.841 1.841 0 01-.532.496 1.312 1.312 0 01-.686.182 1.195 1.195 0 01-.99-.437c-.236-.292-.354-.732-.354-1.32a2.442 2.442 0 01.1-.704c.06-.206.159-.398.291-.567.126-.16.287-.29.47-.38a1.41 1.41 0 01.641-.145c.21-.005.417.039.606.128.177.09.33.22.447.38v-2.04l.323.007zm-.33 2.333a1.167 1.167 0 00-.437-.419 1.215 1.215 0 00-.55-.12 1.199 1.199 0 00-.531.11c-.152.072-.283.18-.384.314a1.425 1.425 0 00-.232.484 2.357 2.357 0 00-.077.62c0 .514.093.89.283 1.13a.97.97 0 00.815.364c.22.001.434-.06.62-.178.197-.128.366-.297.494-.495v-1.81zm6.477-1.896h-1.72v4.597h-.356V31.68h-1.73v-.303h3.806v.303zm1.166 1.097c.227-.004.453.04.662.127.19.08.359.203.494.358.139.164.243.354.306.559.14.476.14.982 0 1.458a1.606 1.606 0 01-.306.557 1.34 1.34 0 01-.494.357 1.834 1.834 0 01-1.325 0 1.34 1.34 0 01-.494-.357 1.558 1.558 0 01-.31-.557 2.6 2.6 0 010-1.458 1.56 1.56 0 01.31-.559c.135-.155.304-.278.494-.358.211-.088.439-.132.668-.127h-.005zm0 3.285c.185.004.368-.032.538-.105a1.02 1.02 0 00.384-.304c.108-.14.187-.303.23-.475.103-.41.103-.838 0-1.248a1.322 1.322 0 00-.23-.48 1.021 1.021 0 00-.384-.306 1.396 1.396 0 00-1.076 0c-.151.07-.283.175-.385.306a1.4 1.4 0 00-.232.48c-.102.41-.102.838 0 1.248.046.172.125.333.232.475.102.132.234.236.385.304.171.074.356.11.543.105h-.005zm3.867-3.285c.227-.004.453.04.663.127.19.08.358.203.493.358.139.163.243.354.306.559.141.475.141.982 0 1.458a1.573 1.573 0 01-.306.557 1.335 1.335 0 01-.493.357 1.834 1.834 0 01-1.325 0c-.19-.08-.36-.202-.496-.357a1.576 1.576 0 01-.308-.557 2.565 2.565 0 010-1.458c.064-.206.168-.396.308-.559.136-.155.306-.277.496-.358.21-.088.435-.131.662-.127zm0 3.285c.185.004.369-.032.54-.105.15-.069.281-.173.383-.304.107-.141.185-.303.23-.475.101-.41.101-.838 0-1.248a1.372 1.372 0 00-.23-.48 1.021 1.021 0 00-.384-.306 1.4 1.4 0 00-1.077 0c-.151.07-.283.175-.384.306a1.348 1.348 0 00-.232.48c-.105.41-.105.839 0 1.248.045.172.124.334.232.475.102.131.233.235.384.304.17.073.353.109.538.105zM64 31.24v5.037h-.332V31.24H64zm-52.061-3.653a2.002 2.002 0 00-2.782-.049.196.196 0 00-.061.137.2.2 0 00.057.139l.25.258a.19.19 0 00.248.018 1.146 1.146 0 011.5 1.73c-1.588 1.588-3.71-2.865-8.524-.574a.654.654 0 00-.291.917l.825 1.427a.655.655 0 00.885.244l.02-.012-.016.012.366-.206a8.389 8.389 0 001.152-.86.203.203 0 01.264 0 .187.187 0 01.071.146.193.193 0 01-.063.145 8.638 8.638 0 01-1.214.901h-.012l-.366.204a1.052 1.052 0 01-1.416-.388l-.78-1.348C.555 31.487-.355 33.526.133 36.114a.192.192 0 00.187.155h.89a.19.19 0 00.188-.167 1.302 1.302 0 012.583 0 .191.191 0 00.19.167h.866a.19.19 0 00.188-.167 1.304 1.304 0 012.585 0 .19.19 0 00.188.167h.855a.19.19 0 00.19-.187c.02-1.206.346-2.59 1.273-3.285 3.212-2.402 2.367-4.462 1.624-5.21zM8.663 31.22l-.612-.307a.384.384 0 11.612.309v-.002z" fill="#02303A"/></svg>