<svg xmlns="http://www.w3.org/2000/svg" width="512" height="512"><path fill="#333" d="M0 0h512v512H0z"/><path opacity=".3" d="M269.02 59.151c-.184.737-.188 1.529-.033 2.365 0 0 2.507 16.642-.339 24.048L147.643 400.197l.009.004c-8.636 23.11 2.937 48.911 26.014 57.787 23.077 8.875 48.955-2.524 58.03-25.464l.011.005 121.005-314.634c2.366-6.155 15.86-18.079 15.86-18.079.677-.516 1.202-1.108 1.56-1.778l.059-.122c.065-.132.141-.258.193-.395 3.12-8.113-17.005-23.405-44.952-34.152-27.948-10.748-53.133-12.884-56.253-4.771-.053.137-.083.281-.122.422l-.037.131z"/><linearGradient id="a" gradientUnits="userSpaceOnUse" x1="206.458" y1="215.263" x2="283.13" y2="291.934" gradientTransform="rotate(-23.964 255.81 252.823)"><stop offset="0" stop-color="#919191"/><stop offset="1" stop-color="#fff"/></linearGradient><path fill="url(#a)" d="M265.523 56.477c-.185.737-.19 1.529-.033 2.365 0 0 2.508 16.642-.34 24.048L144.144 397.522l.011.004c-8.635 23.11 2.937 48.911 26.014 57.787 23.075 8.875 48.955-2.524 58.03-25.464l.011.005L349.215 115.22c2.365-6.155 15.86-18.079 15.86-18.079.677-.516 1.202-1.107 1.56-1.778l.058-.122c.065-.131.141-.258.193-.395 3.12-8.113-17.005-23.404-44.951-34.152-27.948-10.748-53.133-12.884-56.253-4.771-.053.137-.083.281-.122.422l-.037.132z"/><linearGradient id="b" gradientUnits="userSpaceOnUse" x1="177.629" y1="273.752" x2="224.046" y2="320.169" gradientTransform="rotate(-23.964 255.81 252.823)"><stop offset="0" stop-color="#900"/><stop offset="1" stop-color="#e80000"/></linearGradient><path fill="url(#b)" d="M303.48 198.814L216.218 425.71l.057.021c-6.436 16.262-25.166 24.723-41.781 18.333-16.615-6.39-25.608-25.512-19.488-41.897l55.758-144.982s6.964-11.233 20.637-19.225c13.673-7.991 24.949-6.305 40.132-13.053 15.182-6.748 31.947-26.093 31.947-26.093z"/><ellipse transform="rotate(21.038 315.94 76.192)" fill="#333" cx="315.97" cy="76.201" rx="33.648" ry="8.85"/><path opacity=".3" fill="#FFF" d="M265.489 58.841s2.471 16.737-.34 24.048L144.144 397.522l.011.004c-8.635 23.11 2.937 48.911 26.014 57.787a45.103 45.103 0 0012.164 2.822c-15.556-11.702-22.23-32.632-15.093-51.73l-.011-.004L285.833 98.009s-16.144-15.159-20.344-39.168z"/><g fill="#FFF"><circle opacity=".5" cx="226.531" cy="261.806" r="3.506"/><circle opacity=".5" cx="249.514" cy="287.227" r="5.285"/><circle opacity=".5" cx="214.429" cy="317.459" r="9.915"/><circle opacity=".5" cx="198.375" cy="335.795" r="5.286"/><circle opacity=".5" cx="219.43" cy="375.008" r="3.506"/></g></svg>