<svg width="64" height="64" fill="none" xmlns="http://www.w3.org/2000/svg"><path fill-rule="evenodd" clip-rule="evenodd" d="M47.982 23.453a.509.509 0 01.018.134v7.071a.516.516 0 01-.26.448l-5.934 3.417v6.772a.517.517 0 01-.258.447L29.16 48.874c-.029.016-.06.026-.09.037-.012.004-.023.011-.035.015a.519.519 0 01-.264 0c-.015-.004-.027-.012-.041-.017-.028-.01-.058-.02-.085-.035l-12.386-7.132a.517.517 0 01-.259-.447V20.082a.51.51 0 01.018-.135c.004-.015.013-.028.018-.043.01-.027.019-.055.033-.08.01-.017.024-.03.035-.046.015-.02.029-.042.046-.06.015-.015.034-.026.051-.039.019-.015.035-.032.057-.044l6.194-3.566a.517.517 0 01.515 0l6.194 3.566c.021.013.039.029.057.044.017.013.036.024.05.038.019.02.032.04.047.061.011.016.026.029.035.046.015.025.023.053.034.08.005.015.014.028.017.044a.52.52 0 01.019.134v13.25l5.16-2.972v-6.773a.52.52 0 01.019-.134c.004-.016.012-.03.018-.044.01-.027.019-.055.033-.08.01-.017.024-.03.035-.046.015-.02.028-.042.046-.06.015-.015.034-.025.05-.038.02-.016.037-.033.057-.045l6.195-3.566a.516.516 0 01.515 0l6.194 3.566c.022.013.038.03.058.044.016.013.034.024.05.039.017.018.03.04.046.06.011.016.025.03.034.046.015.025.024.053.034.08.006.015.014.028.018.044zm-1.014 6.907v-5.88L44.8 25.728l-2.994 1.724v5.88l5.162-2.972zm-6.194 10.637v-5.884l-2.945 1.682-8.41 4.8v5.94l11.355-6.538zM17.032 20.975v20.022l11.355 6.537v-5.938l-5.932-3.357-.002-.002-.003-.001c-.02-.012-.036-.028-.055-.043-.016-.012-.035-.023-.049-.037l-.001-.002c-.017-.016-.029-.036-.043-.054-.013-.017-.028-.032-.038-.05l-.001-.002c-.012-.02-.019-.043-.027-.065-.009-.019-.02-.037-.025-.058-.006-.025-.007-.05-.01-.076-.003-.02-.008-.038-.008-.058V23.946L19.2 22.222l-2.168-1.247zm5.678-3.863l-5.16 2.97 5.159 2.97 5.16-2.97-5.16-2.97h.001zm2.684 18.537l2.993-1.723V20.975l-2.167 1.247-2.994 1.724v12.951l2.168-1.248zM41.29 20.617l-5.16 2.97 5.16 2.97 5.158-2.97-5.158-2.97zm-.517 6.835l-2.994-1.724-2.167-1.248v5.88l2.993 1.723 2.168 1.249v-5.88zm-11.872 13.25l7.568-4.32 3.783-2.16-5.156-2.968-5.936 3.418-5.41 3.115 5.151 2.915z" fill="#FF2D20"/></svg>