<svg width="128" height="128" viewBox="0 0 128 128" fill="none" xmlns="http://www.w3.org/2000/svg"><path d="M115.2 0H12.8C5.73 0 0 5.73 0 12.8v102.4c0 7.069 5.73 12.8 12.8 12.8h102.4c7.069 0 12.8-5.731 12.8-12.8V12.8C128 5.73 122.269 0 115.2 0z" fill="#F1C761"/><path d="M59.769 89.068v-49.48l-12.033 1.69-9.202 17.833-8.744-15.709-10.116 1.599v38.998l9.522 1.621V60.938l9.315 17.558h.206l9.818-17.626V87.4l11.234 1.667zm-40.3-55.301v5.114l44.524-7.375v-6.53l-44.524 8.791zm0 60.484l44.524 8.768v-6.507l-44.524-7.398v5.137z" fill="#000" fill-opacity=".35"/><path d="M64 24.977v6.53l44.524 7.375v-5.115L64 24.977zm44.318 59.022V45.002l-10.114-1.598-8.745 15.709-9.202-17.832-12.032-1.69v49.479L79.458 87.4v-26.53l9.819 17.625h.205l9.316-17.557V85.62L108.319 84h-.001zM64 103.02l44.524-8.768v-5.138L64 96.512v6.507" fill="#fff"/></svg>