<svg width="64" height="64" fill="none" xmlns="http://www.w3.org/2000/svg"><path d="M12 26h40v13.333H32v2.223h-8.889v-2.223H12V26zm2.222 11.111h4.445v-6.667h2.222v6.667h2.222v-8.889h-8.889v8.89zm11.111-8.889v11.111h4.445v-2.222h4.444v-8.889h-8.889zm4.445 2.222H32v4.445h-2.222v-4.445zm6.666-2.222v8.89h4.445v-6.668h2.222v6.667h2.222v-6.667h2.223v6.667h2.222v-8.889H36.444z" fill="#CB3837"/><path d="M14.222 37.111h4.445v-6.667h2.222v6.667h2.222v-8.889h-8.889v8.89zm11.111-8.889v11.111h4.445v-2.222h4.444v-8.889h-8.889zM32 34.89h-2.222v-4.445H32v4.445zm4.444-6.668v8.89h4.445v-6.668h2.222v6.667h2.222v-6.667h2.223v6.667h2.222v-8.889H36.444z" fill="#fff"/></svg>