<svg width="64" height="64" fill="none" xmlns="http://www.w3.org/2000/svg"><path d="M46.025 21.637a12.913 12.913 0 00-1.11-1.883l-4.547 1.655c.529.541.973 1.15 1.337 1.8l4.32-1.572zm-20.1 5.029l-4.549 1.655c.058.73.184 1.45.36 2.156l4.322-1.574a8.457 8.457 0 01-.133-2.237z" fill="#C22133"/><path d="M36.019 20.349a8.416 8.416 0 012.457 1.75l4.547-1.656a12.928 12.928 0 00-5.077-4.225c-6.501-3.031-14.257-.209-17.287 6.291a12.911 12.911 0 00-1.175 6.501l4.548-1.655a8.411 8.411 0 01.756-2.92c1.97-4.223 7.008-6.055 11.23-4.086zm4.85 8.309a8.34 8.34 0 01-.764 2.92c-1.969 4.224-7.007 6.057-11.23 4.088a8.365 8.365 0 01-2.461-1.747l-4.538 1.651a12.897 12.897 0 005.073 4.227c6.501 3.03 14.256.208 17.287-6.293a12.875 12.875 0 001.17-6.497l-4.537 1.651z" fill="#DB212E"/><path d="M41.987 23.106l-4.32 1.573a8.477 8.477 0 011.057 4.759l4.538-1.65a13.105 13.105 0 00-1.275-4.682zM22.02 30.373l-4.32 1.574a13.155 13.155 0 002.031 4.404L24.27 34.7a8.494 8.494 0 01-2.25-4.326z" fill="#EB2126"/><path d="M45.366 20.439a12.323 12.323 0 00-.45-.685l-4.548 1.655c.2.205.384.422.56.645l4.438-1.615zm-19.459 7.14a8.072 8.072 0 01.017-.913l-4.548 1.655c.024.291.06.58.104.87l4.427-1.612z" fill="#AD213B"/><path d="M45.407 27.007l-4.538 1.651a8.305 8.305 0 01-.384 1.952l4.94-1.801a13.05 13.05 0 00-.018-1.802zm-23.53 8.564c.349.492.735.961 1.155 1.404l4.94-1.801a8.4 8.4 0 01-1.559-1.255l-4.537 1.652z" fill="#BA2133"/><path d="M45.173 45.193v.41h1.188v3.628h.45v-3.628H48v-.41h-2.827zm-2.729.41v1.338h1.107v.41h-1.107v1.88h-.45v-4.038h2.371v.41h-1.921zm-2.058-.41h.45v4.039h-.45v-4.038zm-1.608 4.038v-1.903H36.77v1.903h-.45v-4.038h.45v1.726h2.008v-1.726h.45v4.038h-.45zm-4.799.064a1.925 1.925 0 01-1.356-.56l.3-.334c.306.294.658.485 1.073.485.537 0 .872-.266.872-.693 0-.375-.225-.588-.964-.854-.871-.311-1.165-.594-1.165-1.176 0-.647.507-1.034 1.263-1.034.542 0 .889.162 1.229.434l-.289.351c-.294-.242-.565-.375-.968-.375-.555 0-.785.277-.785.594 0 .335.15.525.958.814.894.323 1.17.623 1.17 1.223 0 .635-.496 1.125-1.338 1.125zm-3.179-.064l-1.482-2.203a6.13 6.13 0 01-.284-.456c0 .15.012.657.012.882v1.777h-.796v-4.038h.773l1.431 2.135c.098.15.23.352.282.456 0-.15-.01-.658-.01-.883v-1.708h.795v4.038H30.8zm-6.368 0v-4.038h2.804v.79H25.24v.699h1.16v.784h-1.16v.975h2.082v.79h-2.89zm-2.295-1.43h-.888v1.43h-.808v-4.038h1.765c.762 0 1.391.422 1.391 1.28 0 .936-.623 1.328-1.46 1.328zm.041-1.823h-.93v1.038h.941c.375 0 .578-.173.578-.525 0-.352-.232-.513-.589-.513zm-4.4 3.317c-1.057 0-1.778-.773-1.778-2.077 0-1.304.733-2.089 1.79-2.089 1.049 0 1.77.774 1.77 2.078 0 1.304-.733 2.088-1.783 2.088zm-.006-3.364c-.566 0-.94.457-.94 1.276 0 .82.392 1.286.957 1.286.566 0 .94-.456.94-1.275 0-.82-.392-1.287-.957-1.287z" fill="#241F21"/></svg>