<svg width="64" height="64" fill="none" xmlns="http://www.w3.org/2000/svg"><path fill-rule="evenodd" clip-rule="evenodd" d="M8 25.972l5.216 3.018v11.128L8 37.1V25.971z" fill="#1DAEFF"/><path d="M15.795 27.274L10.13 24v2.275l3.854 2.23v6.81l1.812 1.04c1.124.65 2.041.269 2.041-.865v-4.993c0-1.125-.917-2.576-2.04-3.223z" fill="#1D94DD"/><path d="M23.223 27.787h3.347c1.984 0 2.716.806 2.716 2.323v1.174c0 1.496-.804 2.31-2.794 2.31h-1.646v2.785h-1.623v-8.592zm3.258 1.431h-1.635v2.955h1.635c.915 0 1.186-.336 1.186-1.045v-.892c0-.709-.298-1.018-1.186-1.018zm8.294 7.161h-1.3l-.115-.424a3.425 3.425 0 01-1.877.556c-1.146 0-1.636-.787-1.636-1.88 0-1.279.555-1.768 1.829-1.768h1.53v-.652c0-.696-.192-.943-1.198-.943a8.79 8.79 0 00-1.738.193l-.193-1.2a8.17 8.17 0 012.146-.296c1.97 0 2.55.696 2.55 2.27l.002 4.144zm-1.568-2.374h-1.161c-.515 0-.657.142-.657.62s.142.632.63.632a2.47 2.47 0 001.188-.323v-.93.001zm2.507.091V32.38c0-1.69.735-2.418 2.706-2.418a5.4 5.4 0 011.534.232l-.194 1.289a5.712 5.712 0 00-1.3-.167c-.901 0-1.172.269-1.172 1.045v1.74c0 .774.268 1.045 1.172 1.045a5.3 5.3 0 001.3-.166l.194 1.289a5.165 5.165 0 01-1.534.231c-1.971.008-2.706-.715-2.706-2.404zm5.229 2.283v-8.85l1.571-.22v9.07h-1.571zm5.334-6.282l-1.843 3.11 1.912 3.172H44.62l-1.893-3.175 1.791-3.11 1.76.003zm3.271 5.12a6.56 6.56 0 001.92-.296l.244 1.187c-.74.267-1.52.403-2.306.4-1.971 0-2.652-.916-2.652-2.417v-1.666c0-1.33.592-2.452 2.601-2.452 2.008 0 2.459 1.174 2.459 2.528v1.343h-3.486v.322c-.006.755.265 1.05 1.22 1.05zm-1.223-2.647h1.995v-.306c0-.593-.18-1.007-.952-1.007s-1.043.414-1.043 1.007v.307zM56 31.413c-.577.262-1.133.568-1.663.916v4.05h-1.555v-6.282h1.328l.101.695a7.028 7.028 0 011.65-.824L56 31.413z" fill="#000"/></svg>