<svg height="247" viewBox="0 0 414 247" width="414" xmlns="http://www.w3.org/2000/svg"><g fill="none" fill-rule="evenodd"><path d="M74.892 19.659c0-5.523 4.483-10 10.009-10h241.43c5.528 0 10.01 4.473 10.01 10v217.108c0 5.523-4.484 10-10.01 10H84.901c-5.528 0-10.01-4.473-10.01-10z" fill="#f9f9f9"/><g fill-rule="nonzero"><path d="M335.886 12v217.107c0 5.523-4.477 10-10 10H92.551c-5.523 0-10-4.477-10-10V12c0-5.523 4.477-10 10-10h233.335c5.523 0 10 4.477 10 10z" fill="#fff"/><path d="M333.886 12a8 8 0 00-8-8H92.551a8 8 0 00-8 8v217.107a8 8 0 008 8h233.335a8 8 0 008-8zm4 0v217.107c0 6.627-5.373 12-12 12H92.551c-6.627 0-12-5.373-12-12V12c0-6.627 5.373-12 12-12h233.335c6.627 0 12 5.373 12 12z" fill="#eee"/></g><g transform="rotate(-15 472.034 79.18)"><circle cx="19.88" cy="20.658" fill="#fef0e8" r="19.383"/><path d="M22.088 35.767c9.048 0 16.383-7.336 16.383-16.384S31.136 3 22.088 3 5.705 10.335 5.705 19.383c0 9.048 7.335 16.384 16.383 16.384zm0 3c-10.705 0-19.383-8.679-19.383-19.384S11.383 0 22.088 0 41.47 8.678 41.47 19.383c0 10.705-8.678 19.384-19.383 19.384z" fill="#fdc4a8" fill-rule="nonzero"/><path d="M20.087 12.1a2.25 2.25 0 012.331-2.177 2.256 2.256 0 012.174 2.334l-.283 8.103a2.25 2.25 0 01-2.331 2.177 2.256 2.256 0 01-2.174-2.334zm1.67 16.744a2.254 2.254 0 11.158-4.505 2.254 2.254 0 01-.157 4.505z" fill="#fc6d26"/></g><g transform="rotate(15 -151.264 1453.587)"><circle cx="25.069" cy="26.5" fill="#f4f2fa" r="24.5"/><path d="M25.074 45.137c11.636 0 21.07-9.432 21.07-21.068S36.71 3 25.073 3C13.44 3 4.006 12.433 4.006 24.069s9.433 21.068 21.068 21.068zm0 3c-13.292 0-24.068-10.775-24.068-24.068S11.782 0 25.074 0c13.293 0 24.07 10.776 24.07 24.069s-10.777 24.068-24.07 24.068z" fill="#b5a7dd" fill-rule="nonzero"/></g><path d="M390.605 124.185c-4.235 1.454-9.03-.291-11.277-4.344a9.412 9.412 0 0116.463-9.125c2.247 4.052 1.185 9.044-2.292 11.865.027.04.052.081.076.124l2.953 5.326c.444.802.16 1.81-.648 2.258-.802.445-1.81.16-2.258-.647l-2.952-5.327a1.696 1.696 0 01-.065-.13zm.444-2.612a7.197 7.197 0 10-6.979-12.59 7.197 7.197 0 006.979 12.59z" fill="#6b4fbb" fill-rule="nonzero"/><g><g fill="#fee8dc"><path d="M249.49 59.292l-2.038-1.296c-.934-.594-.935-1.556.001-2.152l2.04-1.3 1.3-2.04c.595-.934 1.557-.937 2.152-.002l1.296 2.039 2.039 1.296c.933.594.934 1.556-.002 2.152l-2.04 1.3-1.3 2.04c-.595.934-1.557.937-2.152.002zM254.8 88.35l-2.628-1.671c-1.121-.713-1.13-1.863.002-2.584l2.63-1.676 1.676-2.63c.714-1.122 1.872-1.123 2.584-.002l1.671 2.628 2.628 1.67c1.121.714 1.13 1.864-.002 2.585l-2.63 1.676-1.676 2.63c-.714 1.122-1.872 1.122-2.584.002zM278.22 114.514l-2.629-1.671c-1.12-.713-1.13-1.863.002-2.585l2.631-1.675 1.676-2.63c.714-1.123 1.871-1.123 2.584-.003l1.67 2.628 2.629 1.672c1.12.712 1.13 1.862-.002 2.584l-2.63 1.675-1.676 2.63c-.715 1.123-1.872 1.123-2.584.003zM313.349 131.656l-2.628-1.672c-1.121-.712-1.13-1.863.002-2.584l2.63-1.675 1.676-2.631c.714-1.122 1.872-1.122 2.584-.002l1.671 2.628 2.628 1.671c1.121.713 1.13 1.863-.002 2.584l-2.63 1.676-1.676 2.63c-.714 1.122-1.872 1.123-2.584.003zM346.677 135.264l-2.628-1.67c-1.121-.714-1.13-1.864.002-2.585l2.63-1.676 1.676-2.63c.714-1.122 1.872-1.123 2.584-.002l1.671 2.628L355.24 131c1.121.713 1.13 1.863-.002 2.584l-2.63 1.676-1.676 2.63c-.714 1.122-1.872 1.123-2.584.002z"/></g><path d="M103.383 183.85l5.137 2.02-4.01 3.804-2.025 5.143-3.796-4.007-5.137-2.019 4.01-3.804 2.025-5.143z" fill="#e1dcf1"/><path d="M171.28 162.804l4.11 1.615-3.208 3.043-1.62 4.114-3.036-3.205-4.11-1.615 3.208-3.043 1.62-4.114z" fill="#d2caea"/><path d="M63.75 160.394l5.136 2.018-4.01 3.805-2.024 5.143-3.796-4.007-5.137-2.019 4.01-3.804 2.025-5.143z" fill="#e1dcf1"/><path d="M142.115 186.557l5.137 2.02-4.01 3.803-2.025 5.143-3.796-4.006-5.136-2.02 4.01-3.803 2.024-5.143z" fill="#d2caea"/></g><g fill-rule="nonzero"><path d="M107.413 44.627h58.643a5.843 5.843 0 010 11.686h-58.643a5.843 5.843 0 010-11.686z" fill="#efedf8"/><path d="M107.413 61.707h58.643a5.843 5.843 0 110 11.687h-58.643a5.843 5.843 0 110-11.687zM228.236 149.807h28.888a5.843 5.843 0 110 11.686h-28.888a5.843 5.843 0 010-11.686z" fill="#fc6d26"/><path d="M155.201 79.687h24.38a5.843 5.843 0 010 11.686h-24.38a5.843 5.843 0 010-11.686zM242.662 166.887h14.462a5.843 5.843 0 010 11.687h-14.462a5.843 5.843 0 110-11.687z" fill="#fdc4a8"/><path d="M175.94 114.747h64.954a5.843 5.843 0 010 11.686h-64.955a5.843 5.843 0 110-11.686z" fill="#efedf8"/><g fill="#6b4fbb"><path d="M107.413 26.647h192.089a5.843 5.843 0 110 11.687H107.413a5.843 5.843 0 110-11.687zM275.122 201.947h37.905a5.843 5.843 0 010 11.687h-37.905a5.843 5.843 0 010-11.687zM175.94 131.827h81.184a5.843 5.843 0 110 11.687h-81.185a5.843 5.843 0 010-11.687z"/></g><path d="M169.628 96.767h10.855a5.843 5.843 0 110 11.687h-10.855a5.843 5.843 0 110-11.687zM254.384 184.866h58.643a5.843 5.843 0 010 11.687h-58.643a5.843 5.843 0 010-11.687z" fill="#fef0e8"/></g></g></svg>