<svg width="64" height="64" fill="none" xmlns="http://www.w3.org/2000/svg"><path d="M32 16c-8.822 0-16 7.178-16 16 0 8.823 7.178 16 16 16s16-7.177 16-16c0-8.822-7.178-16-16-16z" fill="#fff"/><path d="M31.415 32.288c-.144.311-.303.661-.467 1.034-.58 1.315-1.224 2.916-1.458 3.942a5.925 5.925 0 00-.136 1.32c0 .198.01.406.027.619a7.686 7.686 0 002.634.47 7.671 7.671 0 002.41-.394 4.543 4.543 0 01-.502-.532c-1.028-1.31-1.601-3.23-2.508-6.46zm-3.794-6.51a7.646 7.646 0 00-3.251 6.25 7.645 7.645 0 003.163 6.186c.47-1.955 1.646-3.745 3.41-7.332a28.855 28.855 0 00-.358-.934c-.489-1.226-1.194-2.649-1.823-3.294a5.074 5.074 0 00-1.14-.876z" fill="#91DC47"/><path d="M38.674 40.796c-1.012-.127-1.848-.28-2.579-.538a9.186 9.186 0 01-13.266-8.23 9.16 9.16 0 013.132-6.906 6.743 6.743 0 00-1.595-.195c-2.696.025-5.54 1.517-6.725 5.545-.111.586-.085 1.03-.085 1.555 0 7.986 6.474 14.46 14.46 14.46 4.89 0 9.21-2.43 11.826-6.146-1.415.352-2.776.521-3.941.525-.437 0-.847-.024-1.227-.07z" fill="#63B132"/><path d="M35.957 37.994a4.1 4.1 0 00.574.197 7.646 7.646 0 003.13-6.164 7.656 7.656 0 00-7.646-7.645c-.84.002-1.646.14-2.4.39 1.552 1.77 2.298 4.298 3.02 7.065l.002.003c.001.002.23.768.625 1.784.392 1.015.95 2.271 1.557 3.186.4.614.84 1.055 1.138 1.184z" fill="#90B4FE"/><path d="M32.015 17.568c-4.843 0-9.127 2.384-11.75 6.04 1.365-.856 2.76-1.164 3.976-1.153 1.68.005 3.002.526 3.636.882.153.088.299.183.441.281a9.188 9.188 0 0112.884 8.41 9.158 9.158 0 01-2.733 6.535c.414.047.855.076 1.306.073 1.601.001 3.332-.352 4.63-1.444.846-.712 1.555-1.756 1.948-3.32a14.59 14.59 0 00.121-1.845c0-7.985-6.473-14.46-14.459-14.46z" fill="#5881D8"/></svg>