<svg width="64" height="64" fill="none" xmlns="http://www.w3.org/2000/svg"><path fill-rule="evenodd" clip-rule="evenodd" d="M10.633 32.181c-.009 1.587 1.154 2.533 3.01 2.103v-4.205c-1.879-.572-3.003.586-3.01 2.102zM13.7 24h2.556v12.102c-2.45.4-4.798.655-6.477-.284-2.162-1.21-2.336-5.05-.625-6.761.868-.868 2.614-1.478 4.489-1.08v-3.806c-.005-.081-.01-.162.056-.171zm6.705 2.67h-2.557V24h2.557v2.67zm30.68 7.727c2.787 1.083 3.096-4.989.284-4.431-1.746.346-1.69 3.885-.284 4.431zm.114-6.534c2.128-.227 3.734.712 4.375 2.16 1.093 2.469-.06 5.302-1.819 6.135-.91.432-1.865.473-2.727.398-2.664-.232-4.344-2.947-3.409-5.965.147-.473.311-.762.398-.91.58-.984 1.557-1.644 3.182-1.818zm-27.272 5.568c-.707 1.189 1.07 1.474 2.216 1.137v-1.761c-.88.122-1.883.065-2.216.624zm4.489 2.784c-2.112.122-5.322.841-6.477-.568-.679-.828-.606-2.407 0-3.181.783-1.001 2.492-1.22 4.034-1.364.14-.345.045-.906-.114-1.136-1.41-.36-2.812.197-3.807.625v-1.989c1.503-.69 4.982-1.417 6.023.17.547.834.34 2.288.34 3.58v3.863zm8.977.115h-2.557v-3.296c0-1.085.175-2.461-.398-2.898-.449-.342-1.514-.17-2.159 0v6.193h-2.557v-7.897c2.614-.68 7.332-1.407 7.67 1.875.168 1.618-.123 4.045 0 6.022zm3.807-2.728c.43.696 1.594.957 2.556.511a81.771 81.771 0 01-.057-4.09c-2.21-.584-3.526 1.918-2.5 3.579zm6.42-5.398c-.228.682-.561 1.258-.853 1.875-.263.06-.492-.104-.625 0-.058 2.77.59 6.524-.511 8.523-.663 1.203-1.884 1.975-3.75 2.102a7.634 7.634 0 01-3.409-.511v-2.387c1.166.681 4.113 1.236 4.943-.17.244-.414.229-.842.34-1.477-.533.028-1.052.275-1.704.284-2.679.035-4.337-2.098-3.693-5.057.25-1.144.92-2.066 1.819-2.613 1.865-1.138 4.734-1.051 7.442-.569z" fill="#000"/><path fill-rule="evenodd" clip-rule="evenodd" d="M20.405 28.023c-.003 1.882-.003 3.235-.003 5.522-.108 2.248-.083 4.038-.906 5.113-.163.212-.507.522-.796.739-.242.182-.703.552-.965.568-.265.016-.943-.367-1.25-.511-.404-.19-.777-.442-1.194-.568.973-.603 1.896-1.055 2.273-2.273.328-1.06.284-2.595.284-4.09 0-1.478.007-3.196.007-4.5h2.55z" fill="#000"/></svg>