<svg width="64" height="64" fill="none" xmlns="http://www.w3.org/2000/svg"><path d="M16.782 51.112c-.297-.297-.297-.302-.297-2.832 0-2.38.015-2.554.251-2.854.38-.484.978-.39 1.287.2.108.207.13.205.427-.029.765-.601 2.166-.58 2.751.043l.276.294.542-.381c.456-.322.649-.381 1.23-.378.827.005 1.396.274 1.726.816.212.349.237.62.237 2.661 0 2.112-.017 2.29-.242 2.515a.755.755 0 01-1.075.017c-.197-.198-.233-.481-.281-2.24-.047-1.733-.086-2.047-.277-2.258-.25-.277-.521-.309-.954-.111-.489.222-.598.65-.675 2.633-.063 1.652-.098 1.877-.307 2.03-.302.22-.674.219-.993-.005-.234-.164-.258-.326-.317-2.212-.035-1.12-.103-2.132-.151-2.249-.105-.256-.554-.387-.969-.283-.596.15-.723.562-.79 2.57-.051 1.588-.091 1.877-.29 2.096-.308.339-.744.322-1.109-.043zm11.488.12c-1.274-.398-1.967-1.445-1.965-2.967 0-.712.066-1.056.294-1.545 1.05-2.258 4.745-2.052 5.578.311.241.683.24 1.76-.004 2.474-.503 1.474-2.244 2.245-3.903 1.727zm1.803-1.313c.534-.333.812-1.413.59-2.295-.19-.751-.668-1.197-1.295-1.206-.661-.009-.984.194-1.254.79-.47 1.034-.143 2.465.64 2.809a1.49 1.49 0 001.32-.098zm3.625 1.248c-.228-.228-.243-.404-.243-2.967v-2.724l.302-.198c.416-.273.9-.136 1.065.302l.128.342.501-.354c1.114-.784 2.625-.488 3.186.625.25.496.273.707.273 2.56 0 1.858-.02 2.043-.251 2.337-.302.384-.744.416-1.082.077-.217-.216-.243-.408-.248-1.788-.006-1.788-.125-2.557-.43-2.78-.298-.218-.908-.2-1.248.039-.496.347-.62.872-.62 2.626 0 1.535-.014 1.632-.28 1.882-.35.329-.738.337-1.053.021zm8.392.131c-.586-.15-1.319-.677-1.663-1.198-.623-.94-.65-2.65-.057-3.608.986-1.595 3.578-1.839 4.86-.457.613.66.77 1.113.77 2.223 0 1.11-.157 1.563-.77 2.223-.68.732-2.063 1.092-3.14.817zm1.711-1.447c.395-.348.583-.87.58-1.6-.006-1.167-.523-1.835-1.423-1.835-.555 0-1.034.346-1.223.884-.214.611-.19 1.562.054 2.05.39.778 1.41 1.032 2.012.501zm2.26-4.926c0-.404-.046-.546-.181-.546-.1 0-.182-.056-.182-.124 0-.073.28-.115.674-.102.631.02.684.046.83.397l.156.375.089-.394c.049-.217.16-.394.245-.394.142 0 .305.59.308 1.121.002.298-.23.265-.346-.05-.083-.224-.108-.233-.174-.06-.115.298-.291.244-.429-.132l-.122-.334-.01.394c-.014.609-.251.466-.251-.151 0-.404-.047-.546-.182-.546s-.182.142-.182.546c0 .3-.054.545-.12.545-.068 0-.122-.245-.122-.545zm-27.515-1.971c0-.188 6.272-7.726 6.404-7.697.076.016 2.878 1.207 6.226 2.645 5.72 2.457 6.099 2.602 6.253 2.395.234-.314 1.04-1.999 1.465-3.066l.362-.905-.609-.333c-.863-.472-2.129-1.523-2.921-2.426-.724-.824-2.028-2.811-2.028-3.09 0-.092.414.327.92.93 1.424 1.697 4.704 4.351 4.91 3.973.244-.448.402-1.771.394-3.304-.01-1.872-.255-3.33-.9-5.34l-.36-1.128-1.785-.561-2.187-.688c-.772-.242-.29-.229.84.023 1.35.302 2.721.556 3.57.663.748.094.913-.053.992-.885.102-1.06-.582-3.99-1.273-5.449-.276-.582-.4-.708-.952-.96-1.837-.841-7.587-1.63-10.03-1.374-1.055.11-2.139.367-2.477.586-.095.062.586.237 1.758.453 1.052.193 1.819.37 1.704.392-.115.023-1.769-.159-3.675-.403-3.345-.43-3.473-.437-3.706-.227-.486.44-1.185 1.642-1.329 2.285-.14.623-.13.695.18 1.329.529 1.08 1.511 1.865 3.747 2.996 1.058.535 1.897.998 1.866 1.03-.032.03-.934-.306-2.005-.749l-1.948-.806-2.859.8c-1.572.44-2.911.8-2.976.8-.073 0-.117-1.9-.117-5.113 0-4.924.01-5.133.251-5.632.147-.305.435-.633.697-.796l.446-.277 13.091-.037c7.2-.02 13.383-.002 13.74.04.801.096 1.525.683 1.717 1.394.082.306.113 4.968.092 13.836L46 41.652l-.277.446c-.163.262-.491.55-.796.697-.514.249-.619.25-13.45.25-7.113 0-12.932-.04-12.932-.091z" fill="#000"/></svg>