<svg width="64" height="64" fill="none" xmlns="http://www.w3.org/2000/svg"><path d="M23.216 34.298c.536 1.053 1.393 1.572 2.595 1.572 1.29 0 1.75-.683 1.75-1.35 0-.46-.164-.77-.593-1.053-.431-.297-.742-.43-1.513-.715-.95-.357-1.498-.625-2.09-1.097-.594-.49-.875-1.162-.875-2.032a2.526 2.526 0 01.919-2.017c.625-.518 1.379-.77 2.283-.77 1.409 0 2.476.563 3.188 1.675l-1.32.909c-.4-.609-1.008-.92-1.839-.92-.815 0-1.408.46-1.408 1.098 0 .43.178.637.43.893.163.119.578.296.771.4l.536.207.607.238c.983.4 1.676.83 2.106 1.29.43.459.653 1.082.653 1.853 0 1.824-1.26 3.055-3.619 3.055-1.912 0-3.32-.893-3.973-2.358l1.392-.878zm13.715-3.366l-1.094 1.141a2.513 2.513 0 00-1.897-.815 2.232 2.232 0 00-1.646.667 2.48 2.48 0 000 3.351 2.232 2.232 0 001.646.668 2.515 2.515 0 001.897-.816l1.098 1.142c-.804.86-1.794 1.29-2.995 1.29-1.142 0-2.106-.371-2.891-1.128-.785-.756-1.172-1.705-1.172-2.831 0-1.127.386-2.062 1.172-2.817.786-.756 1.749-1.142 2.891-1.142 1.197 0 2.19.43 2.991 1.29zm3.54 1.868c1.262-.118 1.708-.282 1.708-.86 0-.46-.414-.815-1.245-.815-.8 0-1.468.326-2.002.978l-1.097-.934c.727-1.023 1.75-1.527 3.07-1.527 1.853 0 3.01.893 3.01 2.416v3.305c0 .519.192.579.625.579h.045v1.378c-.18.105-.46.164-.831.164-.4 0-.715-.12-.949-.358a1.256 1.256 0 01-.268-.49c-.519.608-1.364.92-2.536.92-1.645 0-2.757-.905-2.757-2.269-.004-1.524 1.018-2.294 3.227-2.487zm-.207 3.25c1.186 0 1.912-.537 1.912-1.484v-.83a.87.87 0 01-.37.222c-.34.119-.563.148-1.275.222-1.038.12-1.557.447-1.557.964 0 .577.475.905 1.29.905zm4.759-9.033h1.78v7.889c0 .726.237 1.038.893 1.038.18.006.36-.015.535-.06v1.586a3.174 3.174 0 01-.845.09c-1.572 0-2.358-.804-2.358-2.417l-.005-8.126zM51.89 32.8c1.26-.118 1.705-.282 1.705-.86 0-.46-.415-.815-1.246-.815-.8 0-1.467.326-2.001.978l-1.097-.934c.726-1.023 1.749-1.527 3.069-1.527 1.853 0 3.01.893 3.01 2.416v3.305c0 .519.192.579.625.579H56v1.378c-.179.105-.46.164-.83.164-.4 0-.715-.12-.95-.358a1.246 1.246 0 01-.267-.49c-.52.608-1.364.92-2.536.92-1.645 0-2.758-.905-2.758-2.269-.001-1.524 1.023-2.294 3.23-2.487zm-.208 3.25c1.186 0 1.913-.537 1.913-1.484v-.83a.869.869 0 01-.371.222c-.34.119-.563.148-1.275.222-1.038.12-1.557.447-1.557.964.005.577.475.905 1.29.905z" fill="#380D09"/><path fill-rule="evenodd" clip-rule="evenodd" d="M8.018 30.05c.165.227 1.558.657 3.637 1.104 2.078.399 4.24 1.972 5.921 1.487 1.137-.33 2.37-3.258 2.37-3.693v-.045c0-.303-.227-.547-.614-.75-1.585-.81-1.886-1.108-2.473-.947-3.052.843-8.439.412-8.841 2.843zm0 5.946c.165.232 1.558.658 3.637 1.106 2.322.424 4.342 1.804 6.024 1.318 1.137-.33 2.268-3.09 2.268-3.525v-.043c0-.303-.228-.547-.615-.75-1.21-.642-2.807-1.35-3.394-1.19-3.057.841-7.142 1.026-7.92 3.084z" fill="#380D09"/><path fill-rule="evenodd" clip-rule="evenodd" d="M8 31.328v.043-.043z" fill="#555"/><path fill-rule="evenodd" clip-rule="evenodd" d="M17.674 24.15c-2.81.812-7.268 1.27-9.67 1.27v4.586a.074.074 0 00.017.043c1.64 0 6.7-.536 9.752-1.375a11.523 11.523 0 001.563-.52c.373-.167.614-.344.614-.528V23c-.003.436-1.139.822-2.276 1.15zm0 5.948c-1.682.485-3.951.846-6.02 1.056-1.387.142-2.684.216-3.65.216v4.584c.001.015.007.03.017.042 1.64 0 6.7-.535 9.752-1.374a11.66 11.66 0 001.563-.52c.373-.168.614-.344.614-.528v-4.626c-.003.435-1.139.82-2.276 1.15zm0 5.952c-1.682.484-3.951.844-6.02 1.056-1.389.142-2.688.216-3.653.216v4.623c1.622 0 6.708-.532 9.769-1.375 1.128-.31 2.177-.665 2.177-1.049v-4.626c0 .44-1.136.822-2.273 1.154z" fill="#DE3423"/></svg>