<svg xmlns="http://www.w3.org/2000/svg" width="94" height="150" viewBox="0 0 94 150"><path d="M88.778.701l2.693 2.375-.36 23.813-14.452 24.375 16.687-1.813.313 25.438-82.875 74.562v-28.437l19.812-33.313-29.125 4.688-.062-17.188S88.778.576 88.778.701zM88.437 57.3c.013.026-72.704 65.843-72.704 65.843l.047 15.25 72.813-65.562-.156-15.531zM41.521 70.754L8.88 75.738l-2.328 1.969s-.015 9.031-.031 9.031l28.031-4.593 6.969-11.391zm44.951-57.858S60.566 54.381 60.535 54.35l9.234-1.141 16.562-27.75.141-12.563z" fill="#FD5750"/></svg>