<svg width="478" height="286" viewBox="0 0 478 286" xmlns="http://www.w3.org/2000/svg" xmlns:xlink="http://www.w3.org/1999/xlink"><defs><path d="M18 5.991A5.995 5.995 0 0123.992 0h52.016A5.993 5.993 0 0182 5.991V78H18V5.991z" id="a"/></defs><g fill="none" fill-rule="evenodd"><path d="M271.288 254.478c35.084 1 72.117 3.502 109.712 7.112v4.018c-38.445-3.699-76.301-6.237-112.068-7.194a15.529 15.529 0 002.356-3.936zm-117.27 2.498a15.711 15.711 0 003.44 3.788c-25.877 1.626-52.417 3.914-79.124 6.725a2028.323 2028.323 0 00-54.93 6.525c-5.85.778-11.063 1.5-15.57 2.15a885.689 885.689 0 00-5.176.76c-1.447.22-2.468-.53-2.635-1.621a2 2 0 011.674-2.28 889.659 889.659 0 015.567-.82c4.521-.65 9.747-1.374 15.613-2.154a2035.73 2035.73 0 0155.039-6.538c25.664-2.702 51.177-4.921 76.103-6.535zM400 263.502l.084.009a2035.73 2035.73 0 0155.04 6.538c5.865.78 11.09 1.505 15.612 2.155a889.651 889.651 0 015.203.764c1.456.222 2.205 1.243 2.038 2.335a2 2 0 01-2.28 1.674c-.65-.099-1.003-.151-1.411-.212a885.707 885.707 0 00-4.12-.602c-4.507-.648-9.72-1.37-15.57-2.15A2031.013 2031.013 0 00400 267.525v-4.022z" fill="#EEE" fill-rule="nonzero"/><path d="M268.886 233h-24.184l4.755 27.108H257c6.125 0 11.256-4.987 11.43-11.105l.457-16.003zm.115-4l3.662-128.296c.226-3.492.337-6.867.337-10.264 0-.4-.002-.8-.007-1.198-.336-24.48-9.117-46.322-23.557-63.038C237.309 12.166 222.252 3.424 212 3.424c-10.252 0-25.309 8.742-37.436 22.78-14.44 16.716-23.221 38.558-23.554 62.798-.008.639-.01 1.038-.01 1.438 0 3.397.11 6.772.33 10.116L155 229h114zm-113.888 4l.457 16.003c.175 6.119 5.308 11.105 11.43 11.105h7.543L179.298 233h-24.185zm-4.001 0H151v-3.924l-2.09-73.187-68.186 87.669c-.388.499-.644.933-.782 1.275.356.102.856.167 1.489.167h69.993v-1.088L151.112 233zM273 229.076V233h-.112l-.343 12h69.448c.632 0 1.133-.065 1.488-.167-.138-.342-.393-.776-.781-1.275l-67.631-86.954L273 229.076zM183.36 233l-8.383 47.78c-.142.812.2 1.22 1.03 1.22h71.986c.834 0 1.173-.404 1.03-1.22L240.641 233h-57.282zm66.8 31.108l2.803 15.98c.573 3.265-1.65 5.912-4.97 5.912h-71.986c-3.317 0-5.541-2.654-4.97-5.912l2.804-15.98H167c-8.285 0-15.192-6.706-15.429-14.991l-.003-.117H81.43c-5.527 0-7.26-3.532-3.865-7.898l71.165-91.498-1.392-48.786a158.405 158.405 0 01-.332-11.622C147.764 34.023 189.997-.576 212-.576c22.002 0 64.236 34.599 64.99 89.523.008.663.01 1.077.01 1.493 0 3.504-.115 6.966-.339 10.378l-1.413 49.501 70.61 90.783c3.395 4.366 1.662 7.898-3.865 7.898H272.43l-.003.117c-.236 8.28-7.137 14.99-15.429 14.99h-6.84z" fill="#EEE" fill-rule="nonzero"/><path d="M199.807 132.485l-4.05 6.338h4.05v-6.338zm-.279-3.523h3.32v9.861h1.761v2.718h-1.762V145h-3.04v-3.459h-6.359v-3.072l6.08-9.507zm7.244 8.035c0-2.779.44-4.86 1.321-6.247.881-1.385 2.206-2.078 3.975-2.078 1.776 0 3.104.69 3.985 2.073.881 1.382 1.322 3.466 1.322 6.252 0 2.779-.44 4.86-1.322 6.241-.88 1.382-2.209 2.074-3.985 2.074-1.769 0-3.094-.693-3.975-2.08-.88-1.385-1.32-3.463-1.32-6.235zm3.695 4.286c.337.895.87 1.343 1.601 1.343.738 0 1.275-.448 1.611-1.343.337-.895.505-2.324.505-4.286 0-.745-.025-1.41-.075-1.998l-3.749 5.973c.036.114.072.218.107.311zm1.601-9.926c-.73 0-1.264.448-1.6 1.343-.337.895-.506 2.328-.506 4.297 0 .609.015 1.164.043 1.665l3.696-5.897-.022-.065c-.336-.895-.873-1.343-1.611-1.343zm12.379 6.467h-1.698v-2.793h1.698c.787 0 1.398-.156 1.831-.467.434-.312.65-.75.65-1.316 0-.594-.216-1.058-.65-1.391-.433-.333-1.044-.5-1.831-.5-.602 0-1.246.076-1.934.226-.687.15-1.4.369-2.138.655v-2.879a17.39 17.39 0 012.181-.51 12.674 12.674 0 012.063-.177c1.69 0 3.007.369 3.953 1.106.945.738 1.418 1.755 1.418 3.051 0 .953-.272 1.731-.817 2.337-.544.605-1.321 1-2.33 1.187 1.145.2 2.019.657 2.62 1.37.602.712.903 1.648.903 2.808 0 1.554-.498 2.74-1.494 3.556-.995.816-2.442 1.225-4.34 1.225a13.97 13.97 0 01-2.39-.205 13.388 13.388 0 01-2.25-.59v-2.944c.673.337 1.4.593 2.18.768.781.176 1.601.263 2.46.263.86 0 1.54-.198 2.042-.596.5-.397.752-.932.752-1.606 0-.823-.251-1.459-.752-1.906-.502-.448-1.21-.672-2.127-.672z" fill="#333"/><g transform="translate(162 154)"><use fill="#EFEDF8" xlink:href="#a"/><path stroke="#EEE" stroke-width="4" d="M20 76h60V5.991A3.993 3.993 0 0076.008 2H23.992A3.995 3.995 0 0020 5.991V76z"/></g><path d="M186 158h39v70h-41v-68a2 2 0 012-2z" fill="#FFF" opacity=".3"/><g transform="translate(162 194)"><path fill="#FC6D26" d="M12 6h74v4H12z"/><path d="M8 16A8 8 0 118 0a8 8 0 010 16zm0-4a4 4 0 100-8 4 4 0 000 8zm84 4a8 8 0 110-16 8 8 0 010 16zm0-4a4 4 0 100-8 4 4 0 000 8z" fill="#6B4FBB" fill-rule="nonzero"/><circle fill="#E1DBF1" cx="92" cy="8" r="2"/><circle fill="#E1DBF1" cx="8" cy="8" r="2"/></g><path d="M252 176v11h5v-11h-5zm-4-1a3 3 0 012.999-3H258a2.995 2.995 0 012.999 3v13a3 3 0 01-2.999 3h-7a2.995 2.995 0 01-2.999-3v-13z" fill="#FEE1D3" fill-rule="nonzero"/><g transform="translate(170 229)"><rect fill="#C3B8E3" x="18" y="14" width="48" height="4" rx="2"/><rect fill="#E1DBF1" x="18" y="27" width="48" height="4" rx="2"/><rect fill="#EFEDF8" x="18" y="40" width="48" height="4" rx="2"/></g><path d="M212.5 112c-16.292 0-29.5-13.208-29.5-29.5S196.208 53 212.5 53 242 66.208 242 82.5 228.792 112 212.5 112zm0-4c14.083 0 25.5-11.417 25.5-25.5S226.583 57 212.5 57 187 68.417 187 82.5s11.417 25.5 25.5 25.5zm0-6c-10.77 0-19.5-8.73-19.5-19.5S201.73 63 212.5 63 232 71.73 232 82.5s-8.73 19.5-19.5 19.5zm0-4c8.56 0 15.5-6.94 15.5-15.5 0-8.56-6.94-15.5-15.5-15.5-8.56 0-15.5 6.94-15.5 15.5 0 8.56 6.94 15.5 15.5 15.5z" fill="#EEE" fill-rule="nonzero"/><g fill-rule="nonzero"><path d="M428 211v-6.993a4.002 4.002 0 00-3.993-4.007h-66.014a3.999 3.999 0 00-3.993 4.007V214h8a2 2 0 110 4h-8v5h13a2 2 0 110 4h-13v8.993a4.002 4.002 0 003.993 4.007h66.014a3.999 3.999 0 003.993-4h-13a2 2 0 110-4h13v-10h-6a2 2 0 110-4h6v-3h-6a2 2 0 110-4h6zm-47 33h-23.007c-4.414 0-7.993-3.588-7.993-8.007v-31.986c0-4.422 3.576-8.007 7.993-8.007h66.014c4.414 0 7.993 3.588 7.993 8.007v31.986c0 4.422-3.576 8.007-7.993 8.007H400v25.01a5.992 5.992 0 01-5.999 5.99H387a5.999 5.999 0 01-5.999-5.99V244zm4 0v25.01a2 2 0 001.999 1.99H394c1.108 0 1.999-.89 1.999-1.99V244h-11zm5.5 24a2.5 2.5 0 110-5 2.5 2.5 0 010 5z" fill="#EEE"/><path d="M390 227a3 3 0 110-6 3 3 0 010 6zm0-2a1 1 0 100-2 1 1 0 000 2z" fill="#FC6D26"/><path d="M393 215a3 3 0 00-6 0v3h-3v-3a6 6 0 1112 0v3h-3v-3z" fill="#FDC4A8"/><path d="M384 216h12a4 4 0 014 4v8a4 4 0 01-4 4h-12a4 4 0 01-4-4v-8a4 4 0 014-4zm0 3a1 1 0 00-1 1v8a1 1 0 001 1h12a1 1 0 001-1v-8a1 1 0 00-1-1h-12z" fill="#FEE1D3"/></g></g></svg>