<svg xmlns="http://www.w3.org/2000/svg" xmlns:xlink="http://www.w3.org/1999/xlink" width="238" height="113" viewBox="0 0 238 113"><defs><circle id="a" cx="7" cy="7" r="7"/><circle id="c" cx="7" cy="7" r="7"/></defs><g fill="none" fill-rule="evenodd"><rect width="98" height="111" y="1" fill="#FFF" rx="6"/><path fill="#E5E5E5" fill-rule="nonzero" d="M4 7.01V106c0 1.11.897 2.01 2 2.01h85.998c1.105 0 2-.897 2-2.01V7.01c0-1.11-.897-2.01-2-2.01H6c-1.105 0-2 .897-2 2.01m-4 0A6.005 6.005 0 016 1h85.998c3.314 0 6 2.689 6 6.01V106a6.005 6.005 0 01-6 6.01H6c-3.314 0-6-2.689-6-6.01V7.01"/><rect width="76" height="85" x="11" y="13" fill="#F9F9F9" rx="3"/><g transform="translate(37 60)"><rect width="82" height="28" fill="#FFF" rx="3"/><path fill="#E5E5E5" fill-rule="nonzero" d="M4 24h74V4H4v20M0 3A2.993 2.993 0 012.991.004h76.02A2.999 2.999 0 0182.002 3v22.01a2.993 2.993 0 01-2.991 2.996H2.991A2.999 2.999 0 010 25.01V3"/><g transform="translate(9 7)"><mask id="b" fill="#fff"><use xlink:href="#a"/></mask><circle cx="7" cy="7" r="7" fill="#FFF" stroke="#6B4FBB" stroke-width="8" mask="url(#b)"/></g><path fill="#FC8A51" d="M68.926 12.09V9.68c0-.665-.437-.888-.975-.507l-6.552 4.631c-.542.383-.539.998 0 1.379l6.552 4.631c.542.383.975.154.975-.507v-2.41H73.8c.668 0 1.2-.538 1.2-1.201V13.29c0-.668-.537-1.201-1.2-1.201h-4.874"/></g><path fill="#FFF" d="M140 5h94v103h-94z"/><path fill="#E5E5E5" d="M140 75v30.993a6.006 6.006 0 006 6.01h85.998c3.316 0 6-2.69 6-6.01V7.003a6.006 6.006 0 00-6-6.01H146c-3.316 0-6 2.69-6 6.01v.993h4v-.993c0-1.11.896-2.01 2-2.01h85.998c1.105 0 2 .897 2 2.01v98.99c0 1.11-.896 2.01-2 2.01H146c-1.105 0-2-.897-2-2.01V75h-4"/><g fill="#F9F9F9" transform="translate(148 13)"><rect width="82" height="28" rx="3"/><rect width="82" height="28" y="31" rx="3"/></g><g fill-rule="nonzero"><path fill="#E5E5E5" d="M152 98h74V78h-74v20m-4-21a2.993 2.993 0 012.991-2.996h76.02A2.999 2.999 0 01230.002 77v22.01a2.993 2.993 0 01-2.991 2.996h-76.02A2.999 2.999 0 01148 99.01V77"/><path fill="#6B4FBB" d="M165 91a3 3 0 100-6 3 3 0 000 6m0 4a7 7 0 110-14 7 7 0 010 14"/></g><g transform="translate(25 25)"><rect width="82" height="28" fill="#FFF" rx="3"/><path fill="#E5E5E5" fill-rule="nonzero" d="M4 24h74V4H4v20M0 3A2.993 2.993 0 012.991.004h76.02A2.999 2.999 0 0182.002 3v22.01a2.993 2.993 0 01-2.991 2.996H2.991A2.999 2.999 0 010 25.01V3"/><g transform="translate(9 7)"><mask id="d" fill="#fff"><use xlink:href="#c"/></mask><circle cx="7" cy="7" r="7" fill="#FFF" stroke="#6B4FBB" stroke-width="8" mask="url(#d)"/></g><path fill="#FC8A51" d="M68.926 12.09V9.68c0-.665-.437-.888-.975-.507l-6.552 4.631c-.542.383-.539.998 0 1.379l6.552 4.631c.542.383.975.154.975-.507v-2.41H73.8c.668 0 1.2-.538 1.2-1.201V13.29c0-.668-.537-1.201-1.2-1.201h-4.874"/></g><g transform="translate(107 11)"><rect width="82" height="28" fill="#FFF" rx="3"/><path fill="#FC8A51" fill-opacity=".3" fill-rule="nonzero" d="M4 24h74V4H4v20M0 3A2.993 2.993 0 012.991.004h76.02A2.999 2.999 0 0182.002 3v22.01a2.993 2.993 0 01-2.991 2.996H2.991A2.999 2.999 0 010 25.01V3"/><path fill="#6B4FBB" fill-rule="nonzero" d="M16 17a3 3 0 100-6 3 3 0 000 6m0 4a7 7 0 110-14 7 7 0 010 14"/><path fill="#FC8A51" d="M68.926 12.09V9.68c0-.665-.437-.888-.975-.507l-6.552 4.631c-.542.383-.539.998 0 1.379l6.552 4.631c.542.383.975.154.975-.507v-2.41H73.8c.668 0 1.2-.538 1.2-1.201V13.29c0-.668-.537-1.201-1.2-1.201h-4.874"/></g><g transform="translate(128 42)"><rect width="82" height="28" fill="#FFF" rx="3"/><path fill="#FC8A51" fill-opacity=".3" fill-rule="nonzero" d="M4 24h74V4H4v20M0 3A2.993 2.993 0 012.991.004h76.02A2.999 2.999 0 0182.002 3v22.01a2.993 2.993 0 01-2.991 2.996H2.991A2.999 2.999 0 010 25.01V3"/><path fill="#6B4FBB" fill-rule="nonzero" d="M16 17a3 3 0 100-6 3 3 0 000 6m0 4a7 7 0 110-14 7 7 0 010 14"/><path fill="#FC8A51" d="M66.926 12.09V9.68c0-.665-.437-.888-.975-.507l-6.552 4.631c-.542.383-.539.998 0 1.379l6.552 4.631c.542.383.975.154.975-.507v-2.41H71.8c.668 0 1.2-.538 1.2-1.201V13.29c0-.668-.537-1.201-1.2-1.201h-4.874"/></g></g></svg>