<svg width="411" height="145" viewBox="0 0 411 145" xmlns="http://www.w3.org/2000/svg" xmlns:xlink="http://www.w3.org/1999/xlink"><defs><rect id="a" width="159" height="84" rx="10"/></defs><g fill="none" fill-rule="evenodd"><g fill-rule="nonzero"><path d="M57.7 108.5h21.6a4.2 4.2 0 014.2 4.2v5.6a4.2 4.2 0 01-4.2 4.2H57.7a4.2 4.2 0 01-4.2-4.2v-5.6a4.2 4.2 0 014.2-4.2" stroke="#FC6D26" stroke-width="4" fill="#FEF0E8"/><g transform="translate(42 119)"><rect stroke="#EEE" stroke-width="4" fill="#FFF" x=".5" y=".5" width="52" height="23" rx="4.2"/><g transform="translate(8 8)" fill="#FDC4A8"><rect width="11" height="2" rx="1"/><rect y="6" width="11" height="2" rx="1"/></g></g></g><g fill-rule="nonzero"><path d="M96.31 134.32c1.048 0 1.648.007 4.319.042 11.523.153 18.377-.12 26.32-1.533 24.23-4.309 38.521-18.02 38.521-45.03 0-31.02 21.885-44.487 66.903-40.522l.351-3.985c-47.09-4.147-71.25 10.727-71.25 44.507 0 24.868-12.746 37.1-35.22 41.09-7.623 1.356-14.284 1.621-25.567 1.471a287.717 287.717 0 00-4.372-.042v4" fill="#E1DBF1"/><path d="M242 59.678c-6.29-1.373-11-6.976-11-13.678 0-6.702 4.71-12.304 11-13.678v4.136c-4.057 1.274-7 5.065-7 9.542 0 4.478 2.943 8.268 7 9.542v4.136" fill="#EEE"/></g><g transform="translate(242 3)"><rect fill="#F9F9F9" fill-rule="nonzero" y="7" width="155" height="85" rx="10"/><rect width="160" height="56" rx="10" transform="translate(3 2)" fill="#F9F9F9" fill-rule="nonzero"/><g transform="translate(3)"><mask id="b" fill="#fff"><use xlink:href="#a"/></mask><g mask="url(#b)" fill="#FFF" fill-rule="nonzero" stroke="#EEE" stroke-width="8"><rect width="159" height="84" rx="10"/></g></g><g fill-rule="nonzero"><path d="M137 45a2 2 0 10.001-3.999A2 2 0 00137 45m0 4a6 6 0 110-12 6 6 0 010 12" fill="#FB722E"/><path d="M120 45a2 2 0 10.001-3.999A2 2 0 00120 45m0 4a6 6 0 110-12 6 6 0 010 12m-17-4a2 2 0 10.001-3.999A2 2 0 00103 45m0 4a6 6 0 110-12 6 6 0 010 12" fill="#FEE8DC"/></g><rect width="50" height="4" rx="2" transform="translate(22 19)" fill="#D2CAEA" fill-rule="nonzero"/><g transform="translate(22 33)" fill="#D2CAEA" fill-rule="nonzero"><rect width="50" height="4" rx="2"/><rect y="14" width="50" height="4" rx="2"/><rect y="28" width="50" height="4" rx="2"/></g></g><g transform="translate(377)" fill-rule="nonzero"><rect fill="#FEE8DC" width="4" height="48" rx="2"/><path d="M4 4l27.261 9.294c2.617.892 2.664 2.464.12 3.505L4 28V4z" fill="#FB722E"/></g><g fill-rule="nonzero"><path d="M164 116c14.912 0 27-12.09 27-27 0-14.912-12.09-27-27-27-14.912 0-27 12.09-27 27 0 14.912 12.09 27 27 27" fill="#FFF"/><path d="M164 120c-17.12 0-31-13.879-31-31 0-17.12 13.879-31 31-31 17.12 0 31 13.879 31 31 0 17.12-13.879 31-31 31m0-4c14.912 0 27-12.09 27-27 0-14.912-12.09-27-27-27-14.912 0-27 12.09-27 27 0 14.912 12.09 27 27 27" fill="#EEE"/><path d="M172.78 82.798c.241.268.288.563.14.884l-10.848 23.24c-.174.334-.455.502-.843.502-.054 0-.148-.014-.282-.04a.855.855 0 01-.512-.382.761.761 0 01-.09-.603l3.957-16.232-8.156 2.03a1.08 1.08 0 01-.241.02.93.93 0 01-.623-.222c-.24-.2-.328-.462-.26-.783l4.04-16.574a.858.858 0 01.321-.462.917.917 0 01.563-.18h6.59c.254 0 .468.083.642.25a.797.797 0 01.261.593.818.818 0 01-.1.362l-3.435 9.301 7.955-1.969c.107-.027.187-.04.241-.04.254 0 .482.1.683.301" fill="#FC0"/></g><g fill-rule="nonzero"><path d="M37.801 101.01l5.355 2.648c2.271 1.122 4.643-.252 4.809-2.778l.487-7.546a27.675 27.675 0 002.87-4.076c7.594-13.152 3.088-29.972-10.07-37.565-13.153-7.594-29.971-3.087-37.566 10.07-7.594 13.154-3.087 29.973 10.07 37.565a27.46 27.46 0 0024.05 1.687m.952-3.992a2.002 2.002 0 00-1.698-.035 23.454 23.454 0 01-21.299-1.124c-11.24-6.488-15.09-20.86-8.602-32.1 6.49-11.239 20.862-15.09 32.1-8.601 11.239 6.489 15.09 20.862 8.6 32.1a23.519 23.519 0 01-2.849 3.939 1.995 1.995 0 00-.504 1.204l-.466 7.229-5.285-2.613" fill="#EEE"/><path d="M21.137 72.471A7.495 7.495 0 0027.5 76c2.684 0 5.04-1.41 6.363-3.529C36.377 73.869 38 76.267 38 79.674c0 5.799-2.739 9.587-10.5 9.587S17 85.473 17 79.674c0-3.407 1.622-5.804 4.137-7.203M27.5 74a5.5 5.5 0 110-11 5.5 5.5 0 110 11" fill="#FDC4A8"/></g></g></svg>