<svg xmlns="http://www.w3.org/2000/svg" width="102" height="102" viewBox="0 0 102 102"><g fill="none" fill-rule="evenodd"><g transform="translate(0 4)"><circle cx="49" cy="49" r="49" fill="#EEE"/><circle cx="49" cy="49" r="45" fill="#FFF"/></g><g transform="translate(13 33)"><path fill="#EFEDF8" d="M23.699 0h1.383C26.142 0 27 .859 27 1.918V5a2 2 0 01-2 2h-6.983a1.875 1.875 0 01-.935-3.5l5.62-3.233A2 2 0 0123.698 0zM15 18h10a2 2 0 012 2v3a2 2 0 01-2 2H15a2 2 0 01-2-2v-3a2 2 0 012-2z"/><g fill="#F9E2D5"><path d="M2 9h10a2 2 0 012 2v3a2 2 0 01-2 2H2a2 2 0 01-2-2v-3a2 2 0 012-2z"/><rect width="14" height="7" x="13" y="35" rx="2"/><rect width="7" height="7" x="4" y="35" rx="2"/><rect width="7" height="7" x="4" y="18" rx="2"/><rect width="7" height="7" x="4" rx="2"/><rect width="14" height="7" y="26" rx="2"/></g><path fill="#EFEDF8" d="M15 0h10a2 2 0 012 2v3a2 2 0 01-2 2H15a2 2 0 01-2-2V2a2 2 0 012-2z"/><rect width="14" height="7" x="37" fill="#EFEDF8" rx="2"/><rect width="14" height="7" x="37" y="18" fill="#EFEDF8" rx="2"/><rect width="9" height="7" x="50" y="26" fill="#EFEDF8" rx="2"/><rect width="14" height="7" x="25" y="9" fill="#EFEDF8" rx="2"/><rect width="7" height="7" x="29" fill="#EFEDF8" rx="2"/><rect width="7" height="7" x="29" y="18" fill="#EFEDF8" rx="2"/><rect width="7" height="7" x="16" y="26" fill="#EFEDF8" rx="2"/><rect width="7" height="7" x="29" y="35" fill="#EFEDF8" rx="2"/><rect width="7" height="7" x="53" y="18" fill="#EFEDF8" rx="2"/><rect width="7" height="7" x="16" y="9" fill="#EFEDF8" rx="2"/><rect width="7" height="7" x="41" y="9" fill="#EFEDF8" rx="2"/><rect width="7" height="7" x="53" fill="#EFEDF8" rx="2"/><rect width="14" height="7" x="50" y="9" fill="#EFEDF8" rx="2"/><rect width="14" height="7" x="25" y="26" fill="#EFEDF8" rx="2"/><rect width="14" height="7" x="37" y="35" fill="#EFEDF8" rx="2"/><rect width="7" height="7" x="41" y="26" fill="#EFEDF8" rx="2"/></g><path fill="#FFF" d="M52.047 24.08l26.5 7.538A2 2 0 0180 33.542v13.43a32.35 32.35 0 01-9.54 22.926l-17.549 17.47a2 2 0 01-2.822 0l-17.55-17.47A32.348 32.348 0 0123 46.971v-13.43a2 2 0 011.453-1.923l26.5-7.537a2 2 0 011.094 0zm-.896 4.405l-23.735 6.7a1 1 0 00-.729.963v9.888c0 7.778 3.128 15.238 8.694 20.738l15.34 15.156a1 1 0 001.405 0l15.339-15.156c5.567-5.5 8.694-12.96 8.694-20.738v-9.888a1 1 0 00-.728-.963l-23.736-6.7a1 1 0 00-.544 0z"/><path fill="#6E49CB" d="M51.547 27.08l23 6.538A2 2 0 0176 35.542v11.589c0 7.54-3.01 14.77-8.368 20.101L52.41 82.377a2 2 0 01-2.822 0L34.37 67.232A28.355 28.355 0 0126 47.131V35.542a2 2 0 011.453-1.924l23-6.538a2 2 0 011.094 0zm-.886 3.851l-20.698 5.84a1 1 0 00-.728.963v8.576c0 6.82 2.743 13.36 7.626 18.183L50.23 77.696a1 1 0 001.405 0l13.37-13.203c4.883-4.822 7.626-11.363 7.626-18.183v-8.576a1 1 0 00-.729-.962l-20.698-5.84a1 1 0 00-.543 0z"/><g transform="translate(54 2)"><circle cx="23" cy="23" r="23" fill="#FCD7C8" stroke="#FFF" stroke-width="4"/><circle cx="23" cy="23" r="21" fill="#FB722E" fill-rule="nonzero" opacity=".1"/><circle cx="23" cy="23" r="18" fill="#FFF" fill-rule="nonzero"/><path fill="#FC6D26" fill-rule="nonzero" d="M26 15.002a3 3 0 10-6 0v7.996a3 3 0 106 0v-7.996M23 34a3 3 0 100-6 3 3 0 000 6"/></g></g></svg>