<svg width="160" height="61" fill="none" xmlns="http://www.w3.org/2000/svg"><path d="M42 30h8a1 1 0 110 2h-8a1 1 0 110-2z" fill="#FC6D26"/><path d="M42 30h8a1 1 0 110 2h-8a1 1 0 110-2z" fill="#fff" fill-opacity=".6"/><path d="M56 30h9a1 1 0 110 2h-9a1 1 0 110-2z" fill="#FC6D26"/><path d="M58 38h16a1 1 0 110 2H58a1 1 0 110-2z" fill="#6E49CB"/><path d="M58 38h16a1 1 0 110 2H58a1 1 0 110-2z" fill="#fff" fill-opacity=".8"/><path d="M50 34h24a1 1 0 110 2H50a1 1 0 110-2z" fill="#6E49CB"/><path d="M50 34h24a1 1 0 110 2H50a1 1 0 110-2z" fill="#fff" fill-opacity=".6"/><path d="M55 26h32a1 1 0 110 2H55a1 1 0 110-2z" fill="#6E49CB"/><path d="M55 26h32a1 1 0 110 2H55a1 1 0 110-2z" fill="#fff" fill-opacity=".8"/><path d="M158.355 6.607l-6.89 48.23c-.191 1.338-1.801 1.915-2.799 1.005L95.842 7.61c-1.134-1.036-.402-2.924 1.133-2.924h59.715c1.024 0 1.81.906 1.665 1.92z" fill="#F0F0F0" stroke="#DBDBDB" stroke-width="2"/><path d="M106.939 12.997c.117.437.513.74.965.74h41.487c.929 0 1.682.753 1.682 1.682v41.564c0 .929-.753 1.682-1.682 1.682h-67.71A1.682 1.682 0 0180 56.983V15.42c0-.072.004-.143.013-.211.01-.083.01-.166 0-.248A1.706 1.706 0 0180 14.75V2.682C80 1.752 80.753 1 81.682 1h20.738c.76 0 1.426.51 1.624 1.244l2.895 10.753z" fill="#fff" stroke="#DBDBDB" stroke-width="2" stroke-linejoin="round"/><circle cx="80" cy="30" r="20" fill="#fff" stroke="#6E49CB" stroke-width="2"/><circle cx="80" cy="30" r="17" fill="#6E49CB"/><circle cx="80" cy="30" r="17" fill="#fff" fill-opacity=".9"/><path d="M72 30h14m-4-5l5 5-5 5" stroke="#6E49CB" stroke-width="2" stroke-linecap="round"/><path d="M46 35H18.25C8.723 35 1 27.389 1 18S8.723 1 18.25 1C27.777 1 35.5 8.611 35.5 18c0 4.431-1.72 8.467-4.539 11.493M44 35h-7.5C29.596 35 24 40.596 24 47.5S29.596 60 36.5 60 49 54.404 49 47.5c0-1.652-.32-3.23-.903-4.673" stroke="#DFDFDF" stroke-width="2" stroke-linecap="round"/><path fill-rule="evenodd" clip-rule="evenodd" d="M41.39 40.998a1 1 0 01.966.74l1.612 6a1 1 0 01-.966 1.26L32 48.996V50h10a1 1 0 110 2h-9v1h8a1 1 0 110 2h-8a2 2 0 01-2-2v-1.268A2 2 0 0130 50v-1.956a.985.985 0 01.034-.307l1.612-6a1 1 0 01.966-.74h8.778zm-.767 2l1.075 4-9.394-.002 1.075-4 7.244.002z" fill="#6E49CB"/><path fill-rule="evenodd" clip-rule="evenodd" d="M16 17a3 3 0 100-6 3 3 0 000 6zm0-2a1 1 0 100-2 1 1 0 000 2zm0 10a3 3 0 100-6 3 3 0 000 6zm0-2a1 1 0 100-2 1 1 0 000 2z" fill="#FC6D26"/><path d="M23 21a3 3 0 100-6 3 3 0 000 6z" fill="#FC6D26"/></svg>