<svg width="101" height="60" xmlns="http://www.w3.org/2000/svg"><path d="M99.355 6.607l-6.89 48.23c-.191 1.338-1.801 1.915-2.799 1.005L36.842 7.61c-1.134-1.036-.402-2.924 1.133-2.924H97.69c1.024 0 1.81.906 1.665 1.92z" fill="#F0F0F0" stroke="#DBDBDB" stroke-width="2"/><path d="M47.939 12.997a1 1 0 00.965.74h41.487c.929 0 1.682.753 1.682 1.682v41.564c0 .929-.753 1.682-1.682 1.682h-67.71A1.682 1.682 0 0121 56.983V15.42c0-.072.005-.143.013-.211.01-.083.01-.166 0-.248A1.706 1.706 0 0121 14.75V2.682C21 1.752 21.753 1 22.682 1H43.42c.76 0 1.426.51 1.623 1.244l2.896 10.753z" fill="#fff" stroke="#DBDBDB" stroke-width="2" stroke-linejoin="round"/><circle cx="21" cy="30" r="20" fill="#fff" stroke="#6E49CB" stroke-width="2"/><circle cx="21" cy="30" r="17" fill="#6E49CB"/><circle cx="21" cy="30" r="17" fill="#fff" fill-opacity=".9"/><path d="M21 37V23m-7 7h14" stroke="#6E49CB" stroke-width="2" stroke-linecap="round"/></svg>