<svg xmlns="http://www.w3.org/2000/svg" viewBox="0 0 302 222" xmlns:xlink="http://www.w3.org/1999/xlink"><defs><mask id="c" width="127" height="143.3" x="0" y="0" fill="#fff"><use xlink:href="#a"/></mask><mask id="d" width="70" height="70" x="0" y="0" fill="#fff"><use xlink:href="#b"/></mask><circle id="b" cx="35" cy="35" r="35"/><rect id="a" width="127" height="143.3" rx="8.467"/></defs><g fill="none" fill-rule="evenodd"><g transform="translate(48)"><circle cx="111" cy="111" r="111" fill="#f9f9f9"/><circle cx="180" cy="170.54" r="35" fill="#e5e5e5"/><g transform="rotate(-2.999 833.538 -881.315)"><rect width="127" height="143.3" y="2.704" fill="#e5e5e5" rx="8.467"/><use fill="#fff" stroke="#eee" stroke-width="8" mask="url(#c)" xlink:href="#a"/><g fill="#6b4fbb"><rect width="49" height="6" x="26.12" y="37.852" opacity=".3" rx="3"/><rect width="61" height="6" x="26.12" y="59.48" rx="3"/><rect width="76" height="6" x="26.12" y="81.11" opacity=".3" rx="3"/><rect width="49" height="6" x="26.12" y="102.74" rx="3"/></g></g><g transform="translate(145 133)"><use fill="#31af64" stroke="#000" stroke-opacity=".05" stroke-width="8" mask="url(#d)" xlink:href="#b"/><path fill="#fff" d="M33.727 38.628l-6.364-6.364a2.994 2.994 0 00-4.243 0 3.002 3.002 0 000 4.242l7.779 7.779c.12.12.249.229.383.325a3.007 3.007 0 004.574.375l14.13-14.131a3.003 3.003 0 00.007-4.25 3.007 3.007 0 00-4.25.007L33.73 38.626"/></g></g><g fill="#ffce29"><path d="M270.974 56.273l3.356 5.275c.593.93 1.554.926 2.144 0l3.357-5.275 5.274-3.356c.93-.593.926-1.555 0-2.144l-5.274-3.357-3.357-5.274c-.592-.93-1.554-.927-2.144 0l-3.356 5.274-5.275 3.357c-.93.592-.926 1.554 0 2.144l5.275 3.356"/><path d="M297.317 14.067l3.14-1.999c1.12-.713 1.128-1.863 0-2.58l-3.14-2-2-3.14c-.712-1.12-1.863-1.128-2.58 0l-2 3.14-3.14 2c-1.12.712-1.127 1.862 0 2.58l3.14 2 2 3.14c.712 1.12 1.863 1.127 2.58 0l2-3.14" opacity=".5"/></g><path fill="#ffe694" d="M38.32 153.075l3.14-2c1.12-.712 1.129-1.862 0-2.58l-3.14-2-1.998-3.14c-.713-1.12-1.864-1.127-2.581 0l-2 3.14-3.14 2c-1.12.713-1.128 1.863 0 2.58l3.14 2 2 3.14c.712 1.12 1.863 1.128 2.58 0l2-3.14"/><path fill="#ffce29" d="M11.15 97.069l3.14-2c1.12-.712 1.128-1.862 0-2.58l-3.14-2-1.999-3.14c-.713-1.12-1.863-1.127-2.58 0l-2 3.14-3.14 2c-1.12.713-1.128 1.863 0 2.58l3.14 2 2 3.14c.712 1.12 1.862 1.128 2.58 0l2-3.14"/></g></svg>