<svg width="337" height="142" viewBox="0 0 337 142" xmlns="http://www.w3.org/2000/svg"><g fill="none" fill-rule="evenodd"><path d="M193 107a2 2 0 010-4c2.542 0 5.042-.305 7.463-.904a2 2 0 01.96 3.884A35.075 35.075 0 01193 107zm18.21-5.105a2 2 0 11-2.083-3.414 31.143 31.143 0 005.896-4.664 2 2 0 112.842 2.815 35.143 35.143 0 01-6.654 5.263h-.001zm12.895-13.835a2 2 0 01-3.552-1.838 30.77 30.77 0 002.612-7.042 2 2 0 113.892.922 34.77 34.77 0 01-2.952 7.958zm3.816-18.433a2 2 0 11-3.991.268 30.873 30.873 0 00-1.407-7.38 2 2 0 013.808-1.223 34.873 34.873 0 011.59 8.335zm-6.346-17.842a2 2 0 01-3.264 2.312 31.188 31.188 0 00-5.054-5.564 2 2 0 012.615-3.027 35.188 35.188 0 015.703 6.279zm-14.68-11.918a2 2 0 01-1.59 3.67 30.758 30.758 0 00-7.206-2.12 2 2 0 11.653-3.946 34.758 34.758 0 018.143 2.396zm-18.632-2.549a2 2 0 01.537 3.964c-2.505.339-4.94.98-7.266 1.907a2 2 0 11-1.48-3.716 34.774 34.774 0 018.209-2.155zm-17.356 7.535a2 2 0 012.527 3.1 31.196 31.196 0 00-5.213 5.416 2 2 0 01-3.196-2.406 35.196 35.196 0 015.882-6.11zm-10.918 15.49a2 2 0 013.772 1.331 30.82 30.82 0 00-1.619 7.337 2 2 0 11-3.982-.38 34.82 34.82 0 011.829-8.289v.001zm-1.27 18.744a2 2 0 113.917-.806 30.757 30.757 0 002.4 7.118 2 2 0 11-3.605 1.73 34.757 34.757 0 01-2.713-8.042h.001zm8.675 16.774a2 2 0 112.926-2.728 31.167 31.167 0 005.751 4.841 2 2 0 11-2.187 3.349 35.167 35.167 0 01-6.49-5.462zm16.245 9.873a2 2 0 111.067-3.855c2.424.67 4.92 1.043 7.434 1.11a2 2 0 11-.11 3.998 34.979 34.979 0 01-8.391-1.253z" fill="#EEE" fill-rule="nonzero"/><path d="M193 90c-9.941 0-18-8.059-18-18s8.059-18 18-18 18 8.059 18 18-8.059 18-18 18zm0-4c7.732 0 14-6.268 14-14s-6.268-14-14-14-14 6.268-14 14 6.268 14 14 14z" fill="#E1DBF1" fill-rule="nonzero"/><path d="M195 70h5a2 2 0 010 4h-7a2 2 0 01-2-2v-8a2 2 0 014 0v6z" fill="#6B4FBB" fill-rule="nonzero"/><g fill-rule="nonzero"><path d="M115.575 134.895C114.333 139.006 110.516 142 106 142H10c-5.523 0-10-4.477-10-10V17a10 10 0 015.884-9.116A9.964 9.964 0 005 12v114c0 5.523 4.477 10 10 10h96a9.957 9.957 0 004.575-1.105z" fill="#F9F9F9"/><rect fill="#FFF" x="5" y="2" width="116" height="134" rx="10"/><path d="M15 4a8 8 0 00-8 8v114a8 8 0 008 8h96a8 8 0 008-8V12a8 8 0 00-8-8H15zm0-4h96c6.627 0 12 5.373 12 12v114c0 6.627-5.373 12-12 12H15c-6.627 0-12-5.373-12-12V12C3 5.373 8.373 0 15 0z" fill="#EEE"/><g transform="translate(23 25)"><rect fill="#E1DBF1" width="16" height="4" rx="2"/><rect fill="#E1DBF1" x="32" y="12" width="16" height="4" rx="2"/><rect fill="#EEE" x="44" width="16" height="4" rx="2"/><rect fill="#E1DBF1" x="12" y="24" width="16" height="4" rx="2"/><rect fill="#FEF0E8" x="64" y="36" width="16" height="4" rx="2"/><rect fill="#FEE1D3" x="20" width="8" height="4" rx="2"/><rect fill="#FC6D26" x="32" y="36" width="8" height="4" rx="2"/><rect fill="#FEF0E8" x="52" y="12" width="8" height="4" rx="2"/><rect fill="#FEF0E8" x="64" width="8" height="4" rx="2"/><rect fill="#E1DBF1" x="16" y="48" width="12" height="4" rx="2"/><rect fill="#FC6D26" x="44" y="36" width="8" height="4" rx="2"/><rect fill="#E1DBF1" x="56" y="36" width="4" height="4" rx="2"/><rect fill="#E1DBF1" x="64" y="60" width="4" height="4" rx="2"/><rect fill="#FC6D26" x="72" y="60" width="4" height="4" rx="2"/><rect fill="#FC6D26" x="32" width="8" height="4" rx="2"/><rect fill="#EEE" y="36" width="28" height="4" rx="2"/><rect fill="#EEE" x="44" y="48" width="28" height="4" rx="2"/><rect fill="#EFEDF8" x="32" y="60" width="28" height="4" rx="2"/><rect fill="#6B4FBB" y="12" width="28" height="4" rx="2"/><rect fill="#C3B8E3" x="32" y="24" width="28" height="4" rx="2"/><rect fill="#FEF0E8" y="24" width="8" height="4" rx="2"/><rect fill="#6B4FBB" x="32" y="48" width="8" height="4" rx="2"/><rect fill="#FC6D26" y="48" width="12" height="4" rx="2"/><rect fill="#FEF0E8" y="60" width="12" height="4" rx="2"/><rect fill="#FEF0E8" x="16" y="60" width="12" height="4" rx="2"/></g><g transform="translate(23 97)"><rect fill="#EFEDF8" width="16" height="4" rx="2"/><rect fill="#FC6D26" x="18" y="12" width="16" height="4" rx="2"/><rect fill="#6B4FBB" x="44" width="16" height="4" rx="2"/><rect fill="#FEE1D3" x="20" width="8" height="4" rx="2"/><rect fill="#FEF0E8" x="38" y="12" width="8" height="4" rx="2"/><rect fill="#FEF0E8" x="64" width="8" height="4" rx="2"/><rect fill="#FC6D26" x="32" width="8" height="4" rx="2"/><rect fill="#EEE" y="12" width="14" height="4" rx="2"/></g></g><path d="M302 103c17.12 0 31-13.88 31-31 0-17.12-13.88-31-31-31-17.12 0-31 13.88-31 31 0 17.12 13.88 31 31 31z" fill="#FFF" fill-rule="nonzero"/><path d="M302 107c-19.33 0-35-15.67-35-35s15.67-35 35-35 35 15.67 35 35-15.67 35-35 35zm0-4c17.12 0 31-13.88 31-31 0-17.12-13.88-31-31-31-17.12 0-31 13.88-31 31 0 17.12 13.88 31 31 31z" fill="#EEE" fill-rule="nonzero"/><path d="M302 91c-10.493 0-19-8.507-19-19s8.507-19 19-19 19 8.507 19 19-8.507 19-19 19zm0-4c8.284 0 15-6.716 15-15 0-8.284-6.716-15-15-15-8.284 0-15 6.716-15 15 0 8.284 6.716 15 15 15z" fill="#B8D6F4" fill-rule="nonzero"/><path d="M302.011 63c5.007 0 9.104 4.05 9.104 9s-4.097 9-9.104 9c-2.959 0-5.69-1.575-7.511-3.825L302.011 72v-9" fill="#2D9FD8"/><path d="M128 74c0-1.105.887-2 1.998-2h4.004c1.103 0 1.998.888 1.998 2 0 1.105-.887 2-1.998 2h-4.004A1.994 1.994 0 01128 74zm14 0c0-1.105.887-2 1.998-2h4.004c1.103 0 1.998.888 1.998 2 0 1.105-.887 2-1.998 2h-4.004A1.994 1.994 0 01142 74zm93 0c0-1.105.887-2 1.998-2h4.004c1.103 0 1.998.888 1.998 2 0 1.105-.887 2-1.998 2h-4.004A1.994 1.994 0 01235 74zm14 0c0-1.105.887-2 1.998-2h4.004c1.103 0 1.998.888 1.998 2 0 1.105-.887 2-1.998 2h-4.004A1.994 1.994 0 01249 74z" fill="#E5E5E5" fill-rule="nonzero"/></g></svg>