<svg width="430" height="268" viewBox="0 0 430 268" xmlns="http://www.w3.org/2000/svg"><g fill="none" fill-rule="evenodd"><path d="M180 29a2 2 0 010-4h8a2 2 0 010 4h-8zm20 0a2 2 0 010-4h8a2 2 0 010 4h-8zm20 0a2 2 0 010-4h8a2 2 0 010 4h-8zm20 0a2 2 0 010-4h8a2 2 0 010 4h-8zm20 0a2 2 0 010-4h8a2 2 0 010 4h-8zm20 0a2 2 0 010-4h8a2 2 0 010 4h-8zm19.663.137a2 2 0 01.66-3.945 13.979 13.979 0 018.069 4.427 2 2 0 01-2.968 2.68 9.98 9.98 0 00-5.76-3.162zM308 42.27a2 2 0 014 0v8a2 2 0 01-4 0v-8zm0 20a2 2 0 014 0v8a2 2 0 01-4 0v-8zm0 20a2 2 0 014 0v8a2 2 0 01-4 0v-8zm0 20a2 2 0 014 0v8a2 2 0 11-4 0v-8zm0 20a2 2 0 014 0v8a2 2 0 11-4 0v-8zm0 20a2 2 0 014 0v8a2 2 0 11-4 0v-8zm0 20a2 2 0 014 0v8a2 2 0 11-4 0v-8zm0 20a2 2 0 014 0V183c0 2.899-.885 5.67-2.509 7.999a2 2 0 01-3.281-2.288A9.943 9.943 0 00308 183v-.731zM297.462 193a2 2 0 110 4h-8a2 2 0 010-4h8zM170 39.193a2 2 0 01-4 0V39c0-3.119 1.025-6.088 2.884-8.512a2 2 0 113.175 2.434A9.946 9.946 0 00170 39v.193zM131.5 75c-.828 0-1.5-.895-1.5-2s.672-2 1.5-2h6c.828 0 1.5.895 1.5 2s-.672 2-1.5 2h-6zM261 228.269a2 2 0 014 0V229c0 2.899-.885 5.67-2.509 7.999a2 2 0 01-3.281-2.288A9.943 9.943 0 00261 229v-.731zM250.462 239a2 2 0 110 4h-8a2 2 0 010-4h8zm-20 0a2 2 0 110 4h-8a2 2 0 010-4h8zm-20 0a2 2 0 110 4h-8a2 2 0 010-4h8zm-20 0a2 2 0 110 4h-8a2 2 0 010-4h8zm-20 0a2 2 0 110 4h-8a2 2 0 010-4h8zm-20 0a2 2 0 110 4h-8a2 2 0 010-4h8zm-19.567-.222a2 2 0 11-.838 3.912 13.995 13.995 0 01-7.861-4.786 2 2 0 013.085-2.546 9.996 9.996 0 005.614 3.42zM123 225.193a2 2 0 01-4 0v-8a2 2 0 114 0v8zm0-20a2 2 0 01-4 0v-8a2 2 0 114 0v8zm0-20a2 2 0 01-4 0v-8a2 2 0 114 0v8zm0-20a2 2 0 01-4 0v-8a2 2 0 114 0v8zm0-20a2 2 0 01-4 0v-8a2 2 0 114 0v8zm0-20a2 2 0 01-4 0v-8a2 2 0 114 0v8zm0-20a2 2 0 01-4 0v-8a2 2 0 014 0v8zm0-20a2 2 0 01-4 0V85c0-3.119 1.025-6.088 2.884-8.512a2 2 0 113.175 2.434A9.946 9.946 0 00123 85v.193zM154 52a2 2 0 110-4h8a2 2 0 110 4h-8zm20 0a2 2 0 110-4h8a2 2 0 110 4h-8zm20 0a2 2 0 110-4h8a2 2 0 110 4h-8zm20 0a2 2 0 110-4h8a2 2 0 110 4h-8zm20 0a2 2 0 110-4h8a2 2 0 010 4h-8zm20 0a2 2 0 010-4h8a2 2 0 010 4h-8zm20 0a2 2 0 010-4h2c2.49 0 4.871.762 6.87 2.16a2 2 0 01-2.292 3.278A7.953 7.953 0 00276 52h-2zm10 10.39a2 2 0 014 0v8a2 2 0 01-4 0v-8zm0 20a2 2 0 014 0v8a2 2 0 01-4 0v-8zm0 20a2 2 0 014 0v8a2 2 0 01-4 0v-8zm0 20a2 2 0 014 0v8a2 2 0 01-4 0v-8zm0 20a2 2 0 014 0v8a2 2 0 01-4 0v-8zm0 20a2 2 0 114 0v8a2 2 0 01-4 0v-8zm0 20a2 2 0 114 0v8a2 2 0 01-4 0v-8zm0 20a2 2 0 114 0V208c0 .967-.115 1.922-.34 2.847a2 2 0 01-3.887-.946c.15-.617.227-1.253.227-1.901v-5.61zm-7.008 13.55a2 2 0 11.49 3.97c-.481.059-.967.089-1.46.09h-6.804a2 2 0 110-4h6.799c.328 0 .654-.021.975-.06zm-19.774.06a2 2 0 110 4h-8a2 2 0 010-4h8zm-20 0a2 2 0 010 4h-8a2 2 0 010-4h8zm-20 0a2 2 0 010 4h-8a2 2 0 010-4h8zm-20 0a2 2 0 010 4h-8a2 2 0 010-4h8zm-20 0a2 2 0 010 4h-8a2 2 0 010-4h8zm-20 0a2 2 0 010 4H154c-1.966 0-3.868-.475-5.574-1.37a2 2 0 111.86-3.542c1.135.596 2.4.912 3.714.912h3.218zM146 206.827a2 2 0 11-4 0v-8a2 2 0 014 0v8zm0-20a2 2 0 11-4 0v-8a2 2 0 014 0v8zm0-20a2 2 0 11-4 0v-8a2 2 0 014 0v8zm0-20a2 2 0 01-4 0v-8a2 2 0 114 0v8zm0-20a2 2 0 11-4 0v-8a2 2 0 114 0v8zm0-20a2 2 0 11-4 0v-8a2 2 0 114 0v8zm0-20a2 2 0 11-4 0v-8a2 2 0 114 0v8zm0-20a2 2 0 11-4 0V60c0-.47.027-.939.081-1.402a2 2 0 113.973.463c-.036.31-.054.623-.054.939v6.827zm6.037-14.585a2 2 0 01-.978-3.879c.942-.237 1.914-.36 2.904-.363h.034a2 2 0 01.006 4h-.03a8.018 8.018 0 00-1.936.242z" fill="#EEE" fill-rule="nonzero"/><path d="M170 74h11a2 2 0 110 4h-11a2 2 0 110-4zm40 0h11a2 2 0 110 4h-11a2 2 0 110-4z" fill="#E1DBF1"/><path d="M190 74h11a2 2 0 110 4h-11a2 2 0 110-4z" fill="#6B4FBB"/><path d="M170 110h11a2 2 0 110 4h-11a2 2 0 110-4z" fill="#C3B8E3"/><path d="M225 86h3a2 2 0 110 4h-3a2 2 0 110-4z" fill="#FC6D26"/><path d="M257 86h3a2 2 0 110 4h-3a2 2 0 110-4z" fill="#FEE1D3"/><path d="M170 86h11a2 2 0 110 4h-11a2 2 0 110-4z" fill="#EFEDF8"/><path d="M202 122h3a2 2 0 110 4h-3a2 2 0 110-4z" fill="#E1DBF1"/><path d="M214 122h3a2 2 0 110 4h-3a2 2 0 110-4z" fill="#EFEDF8"/><path d="M226 122a2 2 0 110 4 2 2 0 010-4z" fill="#FC6D26"/><path d="M202 110h26a2 2 0 110 4h-26a2 2 0 110-4zm-20 12h11a2 2 0 110 4h-11a2 2 0 110-4z" fill="#EFEDF8"/><path d="M190 86h26a2 2 0 110 4h-26a2 2 0 110-4z" fill="#C3B8E3"/><path d="M237 86h11a2 2 0 110 4h-11a2 2 0 110-4z" fill="#6B4FBB"/><path d="M170 98h3a2 2 0 110 4h-3a2 2 0 110-4z" fill="#FEE1D3"/><path d="M182 98h3a2 2 0 110 4h-3a2 2 0 110-4z" fill="#EEE"/><path d="M190 110h3a2 2 0 110 4h-3a2 2 0 110-4z" fill="#6B4FBB"/><path d="M170 122h3a2 2 0 110 4h-3a2 2 0 110-4z" fill="#FEE1D3"/><path d="M194 98h3a2 2 0 110 4h-3a2 2 0 110-4z" fill="#FC6D26"/><path d="M226 98h3a2 2 0 110 4h-3a2 2 0 110-4z" fill="#C3B8E3"/><path d="M206 98h11a2 2 0 110 4h-11a2 2 0 110-4zm32 0h11a2 2 0 110 4h-11a2 2 0 110-4z" fill="#EEE"/><path d="M225 142h3a2 2 0 110 4h-3a2 2 0 110-4z" fill="#E1DBF1"/><path d="M225 178h3a2 2 0 110 4h-3a2 2 0 110-4z" fill="#FC6D26"/><path d="M257 142h3a2 2 0 110 4h-3a2 2 0 110-4z" fill="#FEE1D3"/><path d="M170 142h11a2 2 0 110 4h-11a2 2 0 110-4zm0 36h11a2 2 0 110 4h-11a2 2 0 110-4z" fill="#EFEDF8"/><path d="M202 166h3a2 2 0 110 4h-3a2 2 0 110-4z" fill="#6B4FBB"/><path d="M214 166h3a2 2 0 110 4h-3a2 2 0 110-4z" fill="#EFEDF8"/><path d="M226 166a2 2 0 110 4 2 2 0 010-4z" fill="#FC6D26"/><path d="M206 190a2 2 0 110 4 2 2 0 010-4z" fill="#FEE1D3"/><path d="M215 190a2 2 0 110 4 2 2 0 010-4z" fill="#6B4FBB"/><path d="M224 190a2 2 0 110 4 2 2 0 010-4z" fill="#FEE1D3"/><path d="M182 166h11a2 2 0 110 4h-11a2 2 0 110-4z" fill="#EFEDF8"/><path d="M190 142h26a2 2 0 110 4h-26a2 2 0 110-4z" fill="#6B4FBB"/><path d="M190 178h26a2 2 0 110 4h-26a2 2 0 110-4z" fill="#C3B8E3"/><path d="M237 142h11a2 2 0 110 4h-11a2 2 0 110-4z" fill="#EEE"/><path d="M237 178h11a2 2 0 110 4h-11a2 2 0 110-4z" fill="#E1DBF1"/><path d="M170 154h3a2 2 0 110 4h-3a2 2 0 110-4zm0 36h3a2 2 0 110 4h-3a2 2 0 110-4z" fill="#FEE1D3"/><path d="M182 154a2 2 0 110 4 2 2 0 010-4z" fill="#6B4FBB"/><path d="M182 190h3a2 2 0 110 4h-3a2 2 0 110-4z" fill="#EEE"/><path d="M170 166h3a2 2 0 110 4h-3a2 2 0 110-4z" fill="#FDC4A8"/><path d="M191 154h3a2 2 0 110 4h-3a2 2 0 110-4z" fill="#C3B8E3"/><path d="M194 190h3a2 2 0 110 4h-3a2 2 0 110-4z" fill="#FC6D26"/><path d="M223 154h3a2 2 0 110 4h-3a2 2 0 110-4z" fill="#C3B8E3"/><path d="M203 154h11a2 2 0 110 4h-11a2 2 0 110-4zm32 0h11a2 2 0 110 4h-11a2 2 0 110-4z" fill="#EEE"/></g></svg>