<svg xmlns="http://www.w3.org/2000/svg" viewBox="0 0 250 189.66"><g fill="none" fill-rule="evenodd"><path fill="#f9f9f9" d="M60.34 8.62h178.88c5.95 0 10.78 4.83 10.78 10.78v63.57c0 5.96-4.82 10.78-10.78 10.78H60.34a10.78 10.78 0 01-10.77-10.78V19.4c0-5.96 4.82-10.78 10.77-10.78z"/><path fill="#fff" d="M53.88 2.15h178.88c5.95 0 10.77 4.83 10.77 10.78v63.58c0 5.95-4.82 10.77-10.77 10.77H53.88A10.78 10.78 0 0143.1 76.51V12.93c0-5.95 4.83-10.78 10.78-10.78z"/><path fill="#eee" fill-rule="nonzero" d="M53.88 4.31a2.15 2.15 0 110-4.31h1.08a2.15 2.15 0 110 4.31zm2.15 0a2.15 2.15 0 110-4.31h1.08a2.15 2.15 0 110 4.31zm2.16 0a2.15 2.15 0 110-4.31h1.08a2.15 2.15 0 110 4.31zm2.16 0a2.15 2.15 0 110-4.31h1.07a2.15 2.15 0 110 4.31zm2.15 0a2.15 2.15 0 110-4.31h1.08a2.15 2.15 0 110 4.31zm2.16 0a2.15 2.15 0 110-4.31h1.07a2.15 2.15 0 110 4.31zm2.15 0a2.15 2.15 0 110-4.31h1.08a2.15 2.15 0 110 4.31zm2.16 0a2.15 2.15 0 110-4.31h1.07a2.15 2.15 0 110 4.31zm2.15 0a2.15 2.15 0 110-4.31h1.08a2.15 2.15 0 110 4.31zm2.16 0a2.15 2.15 0 110-4.31h1.07a2.15 2.15 0 110 4.31zm2.15 0a2.15 2.15 0 110-4.31h1.08a2.15 2.15 0 110 4.31zm2.16 0a2.15 2.15 0 110-4.31h1.07a2.15 2.15 0 110 4.31zm2.15 0a2.15 2.15 0 110-4.31h1.08a2.15 2.15 0 110 4.31zm2.16 0a2.15 2.15 0 110-4.31h1.07a2.15 2.15 0 110 4.31zm2.15 0a2.15 2.15 0 110-4.31h1.08a2.15 2.15 0 110 4.31zm2.16 0a2.15 2.15 0 110-4.31h1.07a2.15 2.15 0 110 4.31zm2.15 0a2.15 2.15 0 110-4.31h1.08a2.15 2.15 0 110 4.31zm2.16 0a2.15 2.15 0 110-4.31h1.08a2.15 2.15 0 110 4.31zm2.15 0a2.15 2.15 0 110-4.31h1.08a2.15 2.15 0 110 4.31zm2.16 0a2.15 2.15 0 110-4.31h1.08a2.15 2.15 0 110 4.31zm2.15 0a2.15 2.15 0 110-4.31h1.08a2.15 2.15 0 110 4.31zm2.16 0a2.15 2.15 0 110-4.31h1.08a2.15 2.15 0 110 4.31zm2.15 0a2.15 2.15 0 110-4.31h1.08a2.15 2.15 0 110 4.31zm2.16 0a2.15 2.15 0 110-4.31h1.08a2.15 2.15 0 110 4.31zm2.15 0a2.15 2.15 0 110-4.31h1.08a2.15 2.15 0 110 4.31zm2.16 0a2.15 2.15 0 110-4.31h1.08a2.15 2.15 0 110 4.31zm2.15 0a2.15 2.15 0 110-4.31H111a2.15 2.15 0 110 4.31zm2.16 0a2.15 2.15 0 110-4.31h1.08a2.15 2.15 0 110 4.31zm2.15 0a2.15 2.15 0 110-4.31h1.08a2.15 2.15 0 110 4.31zm2.16 0a2.15 2.15 0 110-4.31h1.08a2.15 2.15 0 110 4.31zm2.15 0a2.15 2.15 0 110-4.31h1.08a2.15 2.15 0 110 4.31zm2.16 0a2.15 2.15 0 110-4.31h1.08a2.15 2.15 0 110 4.31zm2.16 0a2.15 2.15 0 110-4.31h1.07a2.15 2.15 0 110 4.31zm2.15 0A2.15 2.15 0 11125 0h1.08a2.15 2.15 0 110 4.31zm2.16 0a2.15 2.15 0 110-4.31h1.07a2.15 2.15 0 110 4.31zm2.15 0a2.15 2.15 0 110-4.31h1.08a2.15 2.15 0 110 4.31zm2.16 0a2.15 2.15 0 110-4.31h1.07a2.15 2.15 0 110 4.31zm2.15 0a2.15 2.15 0 110-4.31h1.08a2.15 2.15 0 110 4.31zm2.16 0a2.15 2.15 0 110-4.31h1.07a2.15 2.15 0 110 4.31zm2.15 0a2.15 2.15 0 110-4.31h1.08a2.15 2.15 0 110 4.31zm2.16 0a2.15 2.15 0 110-4.31h1.07a2.15 2.15 0 110 4.31zm2.15 0a2.15 2.15 0 110-4.31h1.08a2.15 2.15 0 110 4.31zm2.16 0a2.15 2.15 0 110-4.31h1.07a2.15 2.15 0 110 4.31zm2.15 0a2.15 2.15 0 110-4.31h1.08a2.15 2.15 0 110 4.31zm2.16 0a2.15 2.15 0 110-4.31h1.07a2.15 2.15 0 010 4.31zm2.15 0a2.15 2.15 0 110-4.31h1.08a2.15 2.15 0 010 4.31zm2.16 0a2.15 2.15 0 010-4.31h1.08a2.15 2.15 0 010 4.31zm2.15 0a2.15 2.15 0 010-4.31h1.08a2.15 2.15 0 010 4.31zm2.16 0a2.15 2.15 0 010-4.31h1.08a2.15 2.15 0 010 4.31zm2.15 0a2.15 2.15 0 010-4.31h1.08a2.15 2.15 0 010 4.31zm2.16 0a2.15 2.15 0 010-4.31h1.08a2.15 2.15 0 010 4.31zm2.15 0a2.15 2.15 0 010-4.31h1.08a2.15 2.15 0 010 4.31zm2.16 0a2.15 2.15 0 010-4.31h1.08a2.15 2.15 0 010 4.31zm2.15 0a2.15 2.15 0 010-4.31h1.08a2.15 2.15 0 010 4.31zm2.16 0a2.15 2.15 0 010-4.31h1.08a2.15 2.15 0 010 4.31zm2.15 0a2.15 2.15 0 010-4.31h1.08a2.15 2.15 0 010 4.31zm2.16 0a2.15 2.15 0 010-4.31h1.08a2.15 2.15 0 010 4.31zm2.15 0a2.15 2.15 0 010-4.31h1.08a2.15 2.15 0 010 4.31zm2.16 0a2.15 2.15 0 010-4.31h1.08a2.15 2.15 0 010 4.31zm2.15 0a2.15 2.15 0 010-4.31h1.08a2.15 2.15 0 010 4.31zm2.16 0a2.15 2.15 0 010-4.31h1.08a2.15 2.15 0 010 4.31zm2.16 0a2.15 2.15 0 010-4.31h1.07a2.15 2.15 0 010 4.31zm2.15 0a2.15 2.15 0 010-4.31h1.08a2.15 2.15 0 010 4.31zm2.16 0a2.15 2.15 0 010-4.31h1.07a2.15 2.15 0 010 4.31zm2.15 0a2.15 2.15 0 010-4.31h1.08a2.15 2.15 0 010 4.31zm2.16 0a2.15 2.15 0 010-4.31h1.07a2.15 2.15 0 010 4.31zm2.15 0a2.15 2.15 0 010-4.31h1.08a2.15 2.15 0 010 4.31zm2.16 0a2.15 2.15 0 010-4.31h1.07a2.15 2.15 0 010 4.31zm2.15 0a2.15 2.15 0 010-4.31h1.08a2.15 2.15 0 010 4.31zm2.16 0a2.15 2.15 0 010-4.31h1.07a2.15 2.15 0 010 4.31zm2.15 0a2.15 2.15 0 010-4.31h1.08a2.15 2.15 0 010 4.31zm2.16 0a2.15 2.15 0 010-4.31h1.07a2.15 2.15 0 010 4.31zm2.15 0a2.15 2.15 0 010-4.31h1.08a2.15 2.15 0 010 4.31zm2.16 0a2.15 2.15 0 010-4.31h1.07a2.15 2.15 0 010 4.31zm2.15 0a2.15 2.15 0 010-4.31h1.08a2.15 2.15 0 010 4.31zm2.16 0a2.15 2.15 0 010-4.31h1.08a2.15 2.15 0 010 4.31zm2.15 0a2.15 2.15 0 010-4.31h1.08a2.15 2.15 0 010 4.31zm2.16 0a2.15 2.15 0 010-4.31h1.08a2.15 2.15 0 010 4.31zm2.15 0a2.15 2.15 0 010-4.31h1.08a2.15 2.15 0 010 4.31zm2.16 0a2.15 2.15 0 010-4.31h1.08a2.15 2.15 0 010 4.31zm2.15 0a2.15 2.15 0 010-4.31h1.08a2.15 2.15 0 010 4.31zm2.16 0a2.15 2.15 0 010-4.31h1.08a2.15 2.15 0 010 4.31zm2.15 0a2.15 2.15 0 010-4.31h1.08a2.15 2.15 0 010 4.31zm2.16 0a2.15 2.15 0 010-4.31c.43 0 .86.02 1.29.06a2.15 2.15 0 01-.43 4.3 8.75 8.75 0 00-.86-.05zm1.72.17a2.15 2.15 0 11.85-4.22c.42.08.84.19 1.25.32a2.15 2.15 0 01-1.27 4.11 8.54 8.54 0 00-.83-.2zm1.66.52a2.16 2.16 0 111.69-3.97c.4.17.78.36 1.16.57a2.15 2.15 0 11-2.08 3.77 8.57 8.57 0 00-.77-.37zm1.55.86a2.15 2.15 0 012.47-3.53c.36.24.7.5 1.02.8a2.15 2.15 0 11-2.8 3.26 8.67 8.67 0 00-.69-.53zm1.28 1.1a2.16 2.16 0 013.11-2.99c.3.31.58.64.85.98a2.15 2.15 0 01-3.39 2.66 8.68 8.68 0 00-.56-.65zm1.1 1.4a2.15 2.15 0 013.64-2.3c.23.36.44.74.64 1.13a2.15 2.15 0 01-3.86 1.91 8.6 8.6 0 00-.43-.75zm.76 1.53a2.15 2.15 0 014.03-1.51c.16.4.29.81.4 1.23a2.15 2.15 0 11-4.17 1.1 8.54 8.54 0 00-.26-.81zm.44 1.63a2.15 2.15 0 114.25-.7c.07.43.12.86.14 1.29a2.15 2.15 0 11-4.3.27 8.65 8.65 0 00-.1-.86zm.1 1.83a2.15 2.15 0 014.32 0v1.08a2.15 2.15 0 01-4.31 0zm0 2.16a2.15 2.15 0 014.32 0v1.07a2.15 2.15 0 01-4.31 0zm0 2.15a2.15 2.15 0 014.32 0v1.08a2.15 2.15 0 01-4.31 0zm0 2.16a2.15 2.15 0 014.32 0v1.08a2.15 2.15 0 01-4.31 0zm0 2.15a2.15 2.15 0 014.32 0v1.08a2.15 2.15 0 01-4.31 0zm0 2.16a2.15 2.15 0 014.32 0v1.08a2.15 2.15 0 01-4.31 0zm0 2.15a2.15 2.15 0 014.32 0v1.08a2.15 2.15 0 01-4.31 0zm0 2.16a2.15 2.15 0 014.32 0v1.08a2.15 2.15 0 01-4.31 0zm0 2.15a2.15 2.15 0 014.32 0v1.08a2.15 2.15 0 01-4.31 0zm0 2.16a2.15 2.15 0 014.32 0v1.08a2.15 2.15 0 01-4.31 0zm0 2.15a2.15 2.15 0 014.32 0v1.08a2.15 2.15 0 01-4.31 0zm0 2.16a2.15 2.15 0 014.32 0v1.08a2.15 2.15 0 01-4.31 0zm0 2.15a2.15 2.15 0 014.32 0v1.08a2.15 2.15 0 01-4.31 0zm0 2.16a2.15 2.15 0 014.32 0v1.08a2.15 2.15 0 01-4.31 0zm0 2.16a2.15 2.15 0 014.32 0v1.07a2.15 2.15 0 01-4.31 0zm0 2.15a2.15 2.15 0 014.32 0v1.08a2.15 2.15 0 01-4.31 0zm0 2.16a2.15 2.15 0 014.32 0v1.07a2.15 2.15 0 01-4.31 0zm0 2.15a2.15 2.15 0 014.32 0v1.08a2.15 2.15 0 01-4.31 0zm0 2.16a2.15 2.15 0 014.32 0v1.07a2.15 2.15 0 01-4.31 0zm0 2.15a2.15 2.15 0 014.32 0v1.08a2.15 2.15 0 01-4.31 0zm0 2.16a2.15 2.15 0 014.32 0v1.07a2.15 2.15 0 01-4.31 0zm0 2.15a2.15 2.15 0 014.32 0v1.08a2.15 2.15 0 01-4.31 0zm0 2.16a2.15 2.15 0 014.32 0v1.07a2.15 2.15 0 01-4.31 0zm0 2.15a2.15 2.15 0 014.32 0V64a2.15 2.15 0 01-4.31 0zm0 2.16a2.15 2.15 0 014.32 0v1.07a2.15 2.15 0 01-4.31 0zm0 2.15a2.15 2.15 0 014.32 0v1.08a2.15 2.15 0 01-4.31 0zm0 2.16a2.15 2.15 0 014.32 0v1.07a2.15 2.15 0 01-4.31 0zm0 2.15a2.15 2.15 0 014.32 0v1.08a2.15 2.15 0 01-4.31 0zm0 2.16a2.15 2.15 0 014.32 0v1.08a2.15 2.15 0 01-4.31 0zm0 2.15a2.15 2.15 0 014.32 0v.66l-.01.5a2.15 2.15 0 01-4.3-.16v-1zm-.07 1.86a2.15 2.15 0 114.27.59c-.06.43-.14.85-.25 1.27a2.15 2.15 0 01-4.18-1.02c.06-.28.12-.56.16-.84zm-.41 1.68a2.15 2.15 0 014.06 1.44c-.14.4-.31.8-.5 1.2a2.15 2.15 0 11-3.9-1.84c.13-.26.24-.53.34-.8zm-.76 1.6a2.15 2.15 0 113.68 2.23 12.95 12.95 0 01-.72 1.07 2.15 2.15 0 01-3.44-2.6 8.64 8.64 0 00.48-.7zm-1.02 1.35a2.16 2.16 0 013.17 2.92c-.3.32-.6.62-.92.9a2.15 2.15 0 11-2.87-3.21l.62-.6zm-1.32 1.17a2.15 2.15 0 012.52 3.5c-.35.25-.72.49-1.09.7a2.15 2.15 0 01-2.16-3.73c.25-.14.5-.3.73-.47zm-1.55.89a2.15 2.15 0 111.74 3.94c-.4.17-.8.33-1.2.46a2.15 2.15 0 01-1.34-4.1 8.54 8.54 0 00.8-.3zm-1.55.51a2.15 2.15 0 11.96 4.2c-.42.1-.84.18-1.27.23a2.16 2.16 0 01-.54-4.28c.29-.03.57-.08.85-.15zm-1.74.22a2.15 2.15 0 11.1 4.3 12.26 12.26 0 01-.29.01h-.84a2.15 2.15 0 010-4.31h1.04zm-2.11 0a2.15 2.15 0 110 4.3h-1.08a2.15 2.15 0 010-4.3zm-2.16 0a2.15 2.15 0 110 4.3h-1.07a2.15 2.15 0 010-4.3zm-2.15 0a2.15 2.15 0 110 4.3h-1.08a2.15 2.15 0 010-4.3zm-2.16 0a2.15 2.15 0 110 4.3h-1.07a2.15 2.15 0 010-4.3zm-2.15 0a2.15 2.15 0 110 4.3h-1.08a2.15 2.15 0 010-4.3zm-2.16 0a2.15 2.15 0 110 4.3H219a2.15 2.15 0 010-4.3zm-2.15 0a2.15 2.15 0 110 4.3h-1.08a2.15 2.15 0 010-4.3zm-2.16 0a2.15 2.15 0 110 4.3h-1.07a2.15 2.15 0 010-4.3zm-2.15 0a2.15 2.15 0 110 4.3h-1.08a2.15 2.15 0 010-4.3zm-2.16 0a2.15 2.15 0 110 4.3h-1.07a2.15 2.15 0 010-4.3zm-2.15 0a2.15 2.15 0 110 4.3h-1.08a2.15 2.15 0 010-4.3zm-2.16 0a2.15 2.15 0 110 4.3h-1.07a2.15 2.15 0 010-4.3zm-2.15 0a2.15 2.15 0 110 4.3h-1.08a2.15 2.15 0 010-4.3zm-2.16 0a2.15 2.15 0 110 4.3h-1.07a2.15 2.15 0 010-4.3zm-2.15 0a2.15 2.15 0 110 4.3h-1.08a2.15 2.15 0 010-4.3zm-2.16 0a2.15 2.15 0 110 4.3h-1.08a2.15 2.15 0 010-4.3zm-2.15 0a2.15 2.15 0 110 4.3h-1.08a2.15 2.15 0 010-4.3zm-2.16 0a2.15 2.15 0 110 4.3h-1.08a2.15 2.15 0 010-4.3zm-2.15 0a2.15 2.15 0 110 4.3h-1.08a2.15 2.15 0 010-4.3zm-2.16 0a2.15 2.15 0 110 4.3h-1.08a2.15 2.15 0 010-4.3zm-2.15 0a2.15 2.15 0 110 4.3h-1.08a2.15 2.15 0 010-4.3zm-2.16 0a2.15 2.15 0 110 4.3h-1.08a2.15 2.15 0 010-4.3zm-2.15 0a2.15 2.15 0 110 4.3h-1.08a2.15 2.15 0 010-4.3zm-2.16 0a2.15 2.15 0 110 4.3h-1.08a2.15 2.15 0 010-4.3zm-2.15 0a2.15 2.15 0 110 4.3h-1.08a2.15 2.15 0 010-4.3zm-2.16 0a2.15 2.15 0 110 4.3h-1.08a2.15 2.15 0 010-4.3zm-2.15 0a2.15 2.15 0 110 4.3h-1.08a2.15 2.15 0 010-4.3zm-2.16 0a2.15 2.15 0 110 4.3h-1.08a2.15 2.15 0 010-4.3zm-2.15 0a2.15 2.15 0 110 4.3h-1.08a2.15 2.15 0 010-4.3zm-2.16 0a2.15 2.15 0 110 4.3h-1.08a2.15 2.15 0 010-4.3zm-2.16 0a2.15 2.15 0 110 4.3h-1.07a2.15 2.15 0 010-4.3zm-2.15 0a2.15 2.15 0 110 4.3h-1.08a2.15 2.15 0 010-4.3zm-2.16 0a2.15 2.15 0 110 4.3h-1.07a2.15 2.15 0 010-4.3zm-2.15 0a2.15 2.15 0 110 4.3h-1.08a2.15 2.15 0 010-4.3zm-2.16 0a2.15 2.15 0 110 4.3h-1.07a2.15 2.15 0 010-4.3zm-2.15 0a2.15 2.15 0 110 4.3h-1.08a2.15 2.15 0 010-4.3zm-2.16 0a2.15 2.15 0 110 4.3h-1.07a2.15 2.15 0 010-4.3zm-2.15 0a2.15 2.15 0 110 4.3h-1.08a2.15 2.15 0 110-4.3zm-2.16 0a2.15 2.15 0 010 4.3h-1.07a2.15 2.15 0 110-4.3zm-2.15 0a2.15 2.15 0 110 4.3h-1.08a2.15 2.15 0 110-4.3zm-2.16 0a2.15 2.15 0 110 4.3h-1.07a2.15 2.15 0 110-4.3zm-2.15 0a2.15 2.15 0 110 4.3h-1.08a2.15 2.15 0 110-4.3zm-2.16 0a2.15 2.15 0 110 4.3h-1.07a2.15 2.15 0 110-4.3zm-2.15 0a2.15 2.15 0 110 4.3h-1.08a2.15 2.15 0 110-4.3zm-2.16 0a2.15 2.15 0 110 4.3h-1.08a2.15 2.15 0 110-4.3zm-2.15 0a2.15 2.15 0 110 4.3h-1.08a2.15 2.15 0 110-4.3zm-2.16 0a2.15 2.15 0 110 4.3h-1.08a2.15 2.15 0 110-4.3zm-2.15 0a2.15 2.15 0 110 4.3h-1.08a2.15 2.15 0 110-4.3zm-2.16 0a2.15 2.15 0 110 4.3h-1.08a2.15 2.15 0 110-4.3zm-2.15 0a2.15 2.15 0 110 4.3h-1.08a2.15 2.15 0 110-4.3zm-2.16 0a2.15 2.15 0 110 4.3H122a2.15 2.15 0 110-4.3zm-2.15 0a2.15 2.15 0 110 4.3h-1.08a2.15 2.15 0 110-4.3zm-2.16 0a2.15 2.15 0 110 4.3h-1.08a2.15 2.15 0 110-4.3zm-2.15 0a2.15 2.15 0 110 4.3h-1.08a2.15 2.15 0 110-4.3zm-2.16 0a2.15 2.15 0 110 4.3h-1.08a2.15 2.15 0 110-4.3zm-2.15 0a2.15 2.15 0 110 4.3h-1.08a2.15 2.15 0 110-4.3zm-2.16 0a2.15 2.15 0 110 4.3h-1.08a2.15 2.15 0 110-4.3zm-2.15 0a2.15 2.15 0 110 4.3h-1.08a2.15 2.15 0 110-4.3zm-2.16 0a2.15 2.15 0 110 4.3h-1.08a2.15 2.15 0 110-4.3zm-2.16 0a2.15 2.15 0 110 4.3h-1.07a2.15 2.15 0 110-4.3zm-2.15 0a2.15 2.15 0 110 4.3h-1.08a2.15 2.15 0 110-4.3zm-2.16 0a2.15 2.15 0 110 4.3H98.3a2.15 2.15 0 110-4.3zm-2.15 0a2.15 2.15 0 110 4.3h-1.08a2.15 2.15 0 110-4.3zm-2.16 0a2.15 2.15 0 110 4.3H94a2.15 2.15 0 110-4.3zm-2.15 0a2.15 2.15 0 110 4.3h-1.08a2.15 2.15 0 110-4.3zm-2.16 0a2.15 2.15 0 110 4.3h-1.07a2.15 2.15 0 110-4.3zm-2.15 0a2.15 2.15 0 110 4.3h-1.08a2.15 2.15 0 110-4.3zm-2.16 0a2.15 2.15 0 110 4.3h-1.07a2.15 2.15 0 110-4.3zm-2.15 0a2.15 2.15 0 110 4.3H83.2a2.15 2.15 0 110-4.3zm-2.16 0a2.15 2.15 0 110 4.3h-1.07a2.15 2.15 0 110-4.3zm-2.15 0a2.15 2.15 0 110 4.3H78.9a2.15 2.15 0 110-4.3zm-2.16 0a2.15 2.15 0 110 4.3h-1.07a2.15 2.15 0 110-4.3zm-2.15 0a2.15 2.15 0 110 4.3h-1.08a2.15 2.15 0 110-4.3zm-2.16 0a2.15 2.15 0 110 4.3h-1.08a2.15 2.15 0 110-4.3zm-2.15 0a2.15 2.15 0 110 4.3h-1.08a2.15 2.15 0 110-4.3zm-2.16 0a2.15 2.15 0 110 4.3h-1.08a2.15 2.15 0 110-4.3zm-2.15 0a2.15 2.15 0 110 4.3h-1.08a2.15 2.15 0 110-4.3zm-2.16 0a2.15 2.15 0 110 4.3h-1.08a2.15 2.15 0 110-4.3zm-2.15 0a2.15 2.15 0 110 4.3h-1.08a2.15 2.15 0 110-4.3zm-2.16 0a2.15 2.15 0 110 4.3H59.5a2.15 2.15 0 110-4.3zm-2.15 0a2.15 2.15 0 110 4.3h-1.08a2.15 2.15 0 110-4.3zm-2.16 0a2.15 2.15 0 110 4.3h-1.08a2.15 2.15 0 110-4.3zm-2.15 0a2.15 2.15 0 110 4.3h-.24c-.34 0-.67 0-1-.03a2.15 2.15 0 11.32-4.3c.23.02.45.03.68.03h.23zm-1.77-.14a2.16 2.16 0 11-.76 4.25 13.12 13.12 0 01-1.26-.3 2.15 2.15 0 011.18-4.14c.27.08.55.14.84.2zm-1.67-.47a2.15 2.15 0 11-1.6 4 12.88 12.88 0 01-1.18-.54 2.15 2.15 0 012-3.82c.25.13.51.25.78.36zm-1.57-.83a2.15 2.15 0 11-2.39 3.59c-.36-.24-.7-.5-1.04-.77a2.16 2.16 0 012.74-3.33c.22.18.45.35.69.51zm-1.31-1.07a2.15 2.15 0 01-3.04 3.05 13 13 0 01-.87-.95 2.15 2.15 0 013.33-2.74c.18.22.37.44.58.64zm-1.12-1.37a2.15 2.15 0 11-3.6 2.38 12.83 12.83 0 01-.65-1.12 2.15 2.15 0 013.81-2c.14.25.28.5.44.74zm-.82-1.58a2.15 2.15 0 11-4.01 1.58 12.85 12.85 0 01-.42-1.23 2.15 2.15 0 014.15-1.17c.08.28.17.55.28.82zm-.45-1.56a2.15 2.15 0 11-4.24.79 12.93 12.93 0 01-.17-1.3 2.15 2.15 0 014.29-.36 8.62 8.62 0 00.12.86zm-.15-1.79a2.15 2.15 0 11-4.31 0v-1.07a2.15 2.15 0 114.3 0zm0-2.15a2.15 2.15 0 11-4.31 0v-1.08a2.15 2.15 0 114.3 0zm0-2.16a2.15 2.15 0 11-4.31 0v-1.08a2.15 2.15 0 114.3 0zm0-2.15a2.15 2.15 0 11-4.31 0v-1.08a2.15 2.15 0 114.3 0zm0-2.16a2.15 2.15 0 11-4.31 0v-1.08a2.15 2.15 0 114.3 0zm0-2.15a2.15 2.15 0 11-4.31 0v-1.08a2.15 2.15 0 114.3 0zm0-2.16a2.15 2.15 0 11-4.31 0v-1.08a2.15 2.15 0 114.3 0zm0-2.15a2.15 2.15 0 11-4.31 0v-1.08a2.15 2.15 0 114.3 0zm0-2.16a2.15 2.15 0 11-4.31 0V58a2.15 2.15 0 114.3 0zm0-2.15a2.15 2.15 0 11-4.31 0v-1.08a2.15 2.15 0 114.3 0zm0-2.16a2.15 2.15 0 11-4.31 0v-1.08a2.15 2.15 0 114.3 0zm0-2.15a2.15 2.15 0 11-4.31 0v-1.08a2.15 2.15 0 114.3 0zm0-2.16a2.15 2.15 0 11-4.31 0v-1.08a2.15 2.15 0 114.3 0zm0-2.15a2.15 2.15 0 11-4.31 0v-1.08a2.15 2.15 0 114.3 0zm0-2.16a2.15 2.15 0 11-4.31 0v-1.08a2.15 2.15 0 114.3 0zm0-2.15a2.15 2.15 0 11-4.31 0v-1.08a2.15 2.15 0 114.3 0zm0-2.16a2.15 2.15 0 11-4.31 0v-1.08a2.15 2.15 0 114.3 0zm0-2.16a2.15 2.15 0 11-4.31 0v-1.07a2.15 2.15 0 114.3 0zm0-2.15a2.15 2.15 0 11-4.31 0v-1.08a2.15 2.15 0 114.3 0zm0-2.16a2.15 2.15 0 11-4.31 0V34.3a2.15 2.15 0 114.3 0zm0-2.15a2.15 2.15 0 11-4.31 0v-1.08a2.15 2.15 0 114.3 0zm0-2.16a2.15 2.15 0 11-4.31 0V30a2.15 2.15 0 114.3 0zm0-2.15a2.15 2.15 0 11-4.31 0v-1.08a2.15 2.15 0 114.3 0zm0-2.16a2.15 2.15 0 11-4.31 0v-1.07a2.15 2.15 0 114.3 0zm0-2.15a2.15 2.15 0 11-4.31 0v-1.08a2.15 2.15 0 114.3 0zm0-2.16a2.15 2.15 0 11-4.31 0v-1.07a2.15 2.15 0 114.3 0zm0-2.15a2.15 2.15 0 11-4.31 0V19.2a2.15 2.15 0 114.3 0zm0-2.16a2.15 2.15 0 11-4.31 0v-1.07a2.15 2.15 0 114.3 0zm0-2.15a2.15 2.15 0 11-4.31 0V14.9a2.15 2.15 0 114.3 0zm0-2.16a2.15 2.15 0 11-4.31 0v-1.11a2.15 2.15 0 114.31.07v.15zm.06-1.9a2.15 2.15 0 01-4.28-.5c.05-.43.12-.85.21-1.28a2.15 2.15 0 114.2.93 8.59 8.59 0 00-.13.85zm.37-1.7a2.15 2.15 0 11-4.1-1.34c.14-.41.3-.81.47-1.2A2.15 2.15 0 0146 9.42a8.54 8.54 0 00-.31.8zm.72-1.6a2.16 2.16 0 01-3.73-2.15c.21-.37.45-.74.7-1.09a2.15 2.15 0 113.5 2.52 8.63 8.63 0 00-.47.72zm1-1.38a2.15 2.15 0 01-3.24-2.85c.28-.32.58-.63.9-.92A2.15 2.15 0 0148 6.62a8.69 8.69 0 00-.6.62zm1.28-1.2a2.15 2.15 0 01-2.6-3.44 13.3 13.3 0 011.08-.72 2.15 2.15 0 012.24 3.68 8.64 8.64 0 00-.72.48zm1.53-.92a2.15 2.15 0 11-1.83-3.9c.39-.18.79-.34 1.2-.49a2.15 2.15 0 111.43 4.07 8.83 8.83 0 00-.8.32zm1.54-.55A2.15 2.15 0 0150.71.4c.42-.1.84-.19 1.27-.25a2.15 2.15 0 01.63 4.26 8.57 8.57 0 00-.85.17zm1.73-.25a2.15 2.15 0 01-.18-4.3c.18-.02.37-.02.56-.02a2.15 2.15 0 11.01 4.31 8.9 8.9 0 00-.39 0z"/><path fill="#fee1d3" fill-rule="nonzero" d="M75.43 70.04a10.78 10.78 0 100-21.55 10.78 10.78 0 000 21.55zm0 4.31a15.09 15.09 0 110-30.17 15.09 15.09 0 010 30.17z"/><path fill="#fc6d26" d="M73.98 59.03l3.81-3.81a2.15 2.15 0 113.05 3.05l-5.33 5.33a2.15 2.15 0 01-3.05 0l-3.05-3.05a2.15 2.15 0 013.05-3.05z"/><path fill="#fef0e8" d="M107.76 50.65h53.88a2.15 2.15 0 110 4.3h-53.88a2.15 2.15 0 110-4.3zm0 12.93h86.2a2.15 2.15 0 010 4.3h-86.2a2.15 2.15 0 110-4.3z"/><path fill="#eee" fill-rule="nonzero" d="M62.5 32.33a2.15 2.15 0 110-4.31h8.62a2.15 2.15 0 110 4.3zm19.4 0a2.15 2.15 0 110-4.31h8.62a2.15 2.15 0 110 4.3zm19.4 0a2.15 2.15 0 110-4.31h8.61a2.15 2.15 0 110 4.3zm19.39 0a2.15 2.15 0 110-4.31h8.62a2.15 2.15 0 110 4.3zm19.4 0a2.15 2.15 0 110-4.31h8.62a2.15 2.15 0 110 4.3zm19.4 0a2.15 2.15 0 010-4.31h8.61a2.15 2.15 0 010 4.3zm19.39 0a2.15 2.15 0 010-4.31h8.62a2.15 2.15 0 010 4.3zm19.4 0a2.15 2.15 0 010-4.31h8.62a2.15 2.15 0 010 4.3zm19.4 0a2.15 2.15 0 010-4.31h8.61a2.15 2.15 0 010 4.3z"/><path fill="#f9f9f9" d="M19.4 104.53h178.88c5.95 0 10.77 4.82 10.77 10.77v63.58c0 5.95-4.82 10.77-10.77 10.77H19.4a10.78 10.78 0 01-10.78-10.77V115.3c0-5.95 4.82-10.77 10.78-10.77z"/><path fill="#fff" d="M12.93 98.06h178.88c5.95 0 10.78 4.83 10.78 10.78v63.57c0 5.95-4.83 10.78-10.78 10.78H12.93a10.78 10.78 0 01-10.77-10.78v-63.57c0-5.96 4.82-10.78 10.77-10.78z"/><path fill="#eee" fill-rule="nonzero" d="M12.93 100.22a2.15 2.15 0 110-4.31h1.08a2.15 2.15 0 110 4.3zm2.16 0a2.15 2.15 0 110-4.31h1.07a2.15 2.15 0 110 4.3zm2.15 0a2.15 2.15 0 110-4.31h1.08a2.15 2.15 0 110 4.3zm2.16 0a2.15 2.15 0 110-4.31h1.07a2.15 2.15 0 110 4.3zm2.15 0a2.15 2.15 0 110-4.31h1.08a2.15 2.15 0 110 4.3zm2.16 0a2.15 2.15 0 110-4.31h1.07a2.15 2.15 0 110 4.3zm2.15 0a2.15 2.15 0 110-4.31h1.08a2.15 2.15 0 110 4.3zm2.16 0a2.15 2.15 0 110-4.31h1.08a2.15 2.15 0 110 4.3zm2.15 0a2.15 2.15 0 110-4.31h1.08a2.15 2.15 0 110 4.3zm2.16 0a2.15 2.15 0 110-4.31h1.08a2.15 2.15 0 110 4.3zm2.15 0a2.15 2.15 0 110-4.31h1.08a2.15 2.15 0 110 4.3zm2.16 0a2.15 2.15 0 110-4.31h1.08a2.15 2.15 0 110 4.3zm2.15 0a2.15 2.15 0 110-4.31h1.08a2.15 2.15 0 110 4.3zm2.16 0a2.15 2.15 0 110-4.31h1.08a2.15 2.15 0 110 4.3zm2.15 0a2.15 2.15 0 110-4.31h1.08a2.15 2.15 0 110 4.3zm2.16 0a2.15 2.15 0 110-4.31h1.08a2.15 2.15 0 110 4.3zm2.15 0a2.15 2.15 0 110-4.31h1.08a2.15 2.15 0 110 4.3zm2.16 0a2.15 2.15 0 110-4.31h1.08a2.15 2.15 0 110 4.3zm2.15 0a2.15 2.15 0 110-4.31h1.08a2.15 2.15 0 110 4.3zm2.16 0a2.15 2.15 0 110-4.31h1.08a2.15 2.15 0 110 4.3zm2.15 0a2.15 2.15 0 110-4.31h1.08a2.15 2.15 0 110 4.3zm2.16 0a2.15 2.15 0 110-4.31h1.08a2.15 2.15 0 110 4.3zm2.16 0a2.15 2.15 0 110-4.31h1.07a2.15 2.15 0 110 4.3zm2.15 0a2.15 2.15 0 110-4.31h1.08a2.15 2.15 0 110 4.3zm2.16 0a2.15 2.15 0 110-4.31h1.07a2.15 2.15 0 110 4.3zm2.15 0a2.15 2.15 0 110-4.31h1.08a2.15 2.15 0 110 4.3zm2.16 0a2.15 2.15 0 110-4.31h1.07a2.15 2.15 0 110 4.3zm2.15 0a2.15 2.15 0 110-4.31h1.08a2.15 2.15 0 110 4.3zm2.16 0a2.15 2.15 0 110-4.31h1.07a2.15 2.15 0 110 4.3zm2.15 0a2.15 2.15 0 110-4.31h1.08a2.15 2.15 0 110 4.3zm2.16 0a2.15 2.15 0 110-4.31h1.07a2.15 2.15 0 110 4.3zm2.15 0a2.15 2.15 0 110-4.31h1.08a2.15 2.15 0 110 4.3zm2.16 0a2.15 2.15 0 110-4.31h1.07a2.15 2.15 0 110 4.3zm2.15 0a2.15 2.15 0 110-4.31h1.08a2.15 2.15 0 110 4.3zm2.16 0a2.15 2.15 0 110-4.31h1.07a2.15 2.15 0 110 4.3zm2.15 0a2.15 2.15 0 110-4.31h1.08a2.15 2.15 0 110 4.3zm2.16 0a2.15 2.15 0 110-4.31h1.08a2.15 2.15 0 110 4.3zm2.15 0a2.15 2.15 0 110-4.31h1.08a2.15 2.15 0 110 4.3zm2.16 0a2.15 2.15 0 110-4.31h1.08a2.15 2.15 0 110 4.3zm2.15 0a2.15 2.15 0 110-4.31h1.08a2.15 2.15 0 110 4.3zm2.16 0a2.15 2.15 0 110-4.31h1.08a2.15 2.15 0 110 4.3zm2.15 0a2.15 2.15 0 110-4.31h1.08a2.15 2.15 0 110 4.3zm2.16 0a2.15 2.15 0 110-4.31h1.08a2.15 2.15 0 110 4.3zm2.15 0a2.15 2.15 0 110-4.31h1.08a2.15 2.15 0 110 4.3zm2.16 0a2.15 2.15 0 110-4.31h1.08a2.15 2.15 0 010 4.3zm2.15 0a2.15 2.15 0 110-4.31H111a2.15 2.15 0 010 4.3zm2.16 0a2.15 2.15 0 010-4.31h1.08a2.15 2.15 0 010 4.3zm2.15 0a2.15 2.15 0 010-4.31h1.08a2.15 2.15 0 010 4.3zm2.16 0a2.15 2.15 0 010-4.31h1.08a2.15 2.15 0 010 4.3zm2.15 0a2.15 2.15 0 010-4.31h1.08a2.15 2.15 0 010 4.3zm2.16 0a2.15 2.15 0 010-4.31h1.08a2.15 2.15 0 010 4.3zm2.16 0a2.15 2.15 0 010-4.31h1.07a2.15 2.15 0 010 4.3zm2.15 0a2.15 2.15 0 010-4.31h1.08a2.15 2.15 0 010 4.3zm2.16 0a2.15 2.15 0 010-4.31h1.07a2.15 2.15 0 010 4.3zm2.15 0a2.15 2.15 0 010-4.31h1.08a2.15 2.15 0 010 4.3zm2.16 0a2.15 2.15 0 010-4.31h1.07a2.15 2.15 0 010 4.3zm2.15 0a2.15 2.15 0 010-4.31h1.08a2.15 2.15 0 010 4.3zm2.16 0a2.15 2.15 0 010-4.31h1.07a2.15 2.15 0 010 4.3zm2.15 0a2.15 2.15 0 010-4.31h1.08a2.15 2.15 0 010 4.3zm2.16 0a2.15 2.15 0 010-4.31h1.07a2.15 2.15 0 010 4.3zm2.15 0a2.15 2.15 0 010-4.31h1.08a2.15 2.15 0 010 4.3zm2.16 0a2.15 2.15 0 010-4.31h1.07a2.15 2.15 0 010 4.3zm2.15 0a2.15 2.15 0 010-4.31h1.08a2.15 2.15 0 010 4.3zm2.16 0a2.15 2.15 0 010-4.31h1.07a2.15 2.15 0 010 4.3zm2.15 0a2.15 2.15 0 010-4.31h1.08a2.15 2.15 0 010 4.3zm2.16 0a2.15 2.15 0 010-4.31h1.08a2.15 2.15 0 010 4.3zm2.15 0a2.15 2.15 0 010-4.31h1.08a2.15 2.15 0 010 4.3zm2.16 0a2.15 2.15 0 010-4.31h1.08a2.15 2.15 0 010 4.3zm2.15 0a2.15 2.15 0 010-4.31h1.08a2.15 2.15 0 010 4.3zm2.16 0a2.15 2.15 0 010-4.31h1.08a2.15 2.15 0 010 4.3zm2.15 0a2.15 2.15 0 010-4.31h1.08a2.15 2.15 0 010 4.3zm2.16 0a2.15 2.15 0 010-4.31h1.08a2.15 2.15 0 010 4.3zm2.15 0a2.15 2.15 0 010-4.31h1.08a2.15 2.15 0 010 4.3zm2.16 0a2.15 2.15 0 010-4.31h1.08a2.15 2.15 0 010 4.3zm2.15 0a2.15 2.15 0 010-4.31h1.08a2.15 2.15 0 010 4.3zm2.16 0a2.15 2.15 0 010-4.31h1.08a2.15 2.15 0 010 4.3zm2.15 0a2.15 2.15 0 010-4.31h1.08a2.15 2.15 0 010 4.3zm2.16 0a2.15 2.15 0 010-4.31h1.08a2.15 2.15 0 010 4.3zm2.15 0a2.15 2.15 0 010-4.31h1.08a2.15 2.15 0 010 4.3zm2.16 0a2.15 2.15 0 010-4.31h1.08a2.15 2.15 0 010 4.3zm2.16 0a2.15 2.15 0 010-4.31h1.07a2.15 2.15 0 010 4.3zm2.15 0a2.15 2.15 0 010-4.31h1.08a2.15 2.15 0 010 4.3zm2.16 0a2.15 2.15 0 010-4.31h1.07a2.15 2.15 0 010 4.3zm2.15 0a2.15 2.15 0 010-4.31c.43 0 .86.02 1.29.06a2.15 2.15 0 01-.43 4.29 8.75 8.75 0 00-.86-.04zm1.72.17a2.15 2.15 0 11.85-4.23c.43.09.84.2 1.26.32a2.15 2.15 0 01-1.28 4.12 8.54 8.54 0 00-.83-.21zm1.66.51a2.16 2.16 0 111.69-3.96c.4.17.79.36 1.16.56a2.15 2.15 0 11-2.08 3.78 8.57 8.57 0 00-.77-.38zm1.55.86a2.15 2.15 0 012.47-3.53c.36.25.7.51 1.02.8a2.15 2.15 0 11-2.8 3.26 8.67 8.67 0 00-.69-.52zm1.29 1.1a2.16 2.16 0 013.1-2.98c.3.3.59.63.85.97a2.15 2.15 0 01-3.39 2.66 8.68 8.68 0 00-.56-.65zm1.09 1.4a2.15 2.15 0 013.65-2.3c.23.37.44.74.63 1.13a2.15 2.15 0 01-3.86 1.92 8.6 8.6 0 00-.42-.75zm.76 1.54a2.15 2.15 0 014.04-1.52c.15.4.28.82.39 1.24a2.15 2.15 0 11-4.17 1.1 8.54 8.54 0 00-.26-.82zm.44 1.63a2.15 2.15 0 114.25-.7c.07.42.12.85.15 1.28a2.15 2.15 0 11-4.3.27 8.65 8.65 0 00-.1-.85zm.11 1.83a2.15 2.15 0 014.31 0v1.07a2.15 2.15 0 01-4.3 0zm0 2.15a2.15 2.15 0 014.31 0v1.08a2.15 2.15 0 01-4.3 0zm0 2.16a2.15 2.15 0 014.31 0v1.07a2.15 2.15 0 01-4.3 0zm0 2.15a2.15 2.15 0 014.31 0v1.08a2.15 2.15 0 01-4.3 0zm0 2.16a2.15 2.15 0 014.31 0v1.08a2.15 2.15 0 01-4.3 0zm0 2.15a2.15 2.15 0 014.31 0v1.08a2.15 2.15 0 01-4.3 0zm0 2.16a2.15 2.15 0 014.31 0v1.08a2.15 2.15 0 01-4.3 0zm0 2.15a2.15 2.15 0 014.31 0v1.08a2.15 2.15 0 01-4.3 0zm0 2.16a2.15 2.15 0 014.31 0v1.08a2.15 2.15 0 01-4.3 0zm0 2.15a2.15 2.15 0 014.31 0v1.08a2.15 2.15 0 01-4.3 0zm0 2.16a2.15 2.15 0 014.31 0v1.08a2.15 2.15 0 01-4.3 0zm0 2.15a2.15 2.15 0 014.31 0v1.08a2.15 2.15 0 01-4.3 0zm0 2.16a2.15 2.15 0 014.31 0v1.08a2.15 2.15 0 01-4.3 0zm0 2.15a2.15 2.15 0 014.31 0v1.08a2.15 2.15 0 01-4.3 0zm0 2.16a2.15 2.15 0 014.31 0v1.08a2.15 2.15 0 01-4.3 0zm0 2.15a2.15 2.15 0 014.31 0v1.08a2.15 2.15 0 01-4.3 0zm0 2.16a2.15 2.15 0 014.31 0v1.08a2.15 2.15 0 01-4.3 0zm0 2.15a2.15 2.15 0 014.31 0v1.08a2.15 2.15 0 01-4.3 0zm0 2.16a2.15 2.15 0 014.31 0v1.08a2.15 2.15 0 01-4.3 0zm0 2.16a2.15 2.15 0 014.31 0v1.07a2.15 2.15 0 01-4.3 0zm0 2.15a2.15 2.15 0 014.31 0v1.08a2.15 2.15 0 01-4.3 0zm0 2.16a2.15 2.15 0 014.31 0v1.07a2.15 2.15 0 01-4.3 0zm0 2.15a2.15 2.15 0 014.31 0v1.08a2.15 2.15 0 01-4.3 0zm0 2.16a2.15 2.15 0 014.31 0v1.07a2.15 2.15 0 01-4.3 0zm0 2.15a2.15 2.15 0 014.31 0v1.08a2.15 2.15 0 01-4.3 0zm0 2.16a2.15 2.15 0 014.31 0v1.07a2.15 2.15 0 01-4.3 0zm0 2.15a2.15 2.15 0 014.31 0v1.08a2.15 2.15 0 01-4.3 0zm0 2.16a2.15 2.15 0 014.31 0v1.08a2.15 2.15 0 01-4.3 0zm0 2.15a2.15 2.15 0 014.31 0v1.08a2.15 2.15 0 01-4.3 0zm0 2.16a2.15 2.15 0 014.31 0v1.15a2.15 2.15 0 01-4.31-.16v-.99zm-.08 1.85a2.15 2.15 0 114.27.6c-.06.42-.14.85-.24 1.27a2.15 2.15 0 01-4.2-1.02c.08-.28.13-.56.17-.85zm-.41 1.69a2.15 2.15 0 014.06 1.44c-.14.4-.3.8-.5 1.2a2.15 2.15 0 11-3.89-1.85c.12-.26.23-.52.33-.8zm-.76 1.59a2.15 2.15 0 113.68 2.24 12.95 12.95 0 01-.72 1.07 2.15 2.15 0 01-3.44-2.6 8.64 8.64 0 00.48-.71zm-1.02 1.36a2.16 2.16 0 013.17 2.92c-.29.31-.6.62-.92.9a2.15 2.15 0 11-2.87-3.22c.22-.19.42-.4.62-.6zm-1.32 1.17a2.15 2.15 0 012.52 3.5c-.35.25-.71.48-1.09.7a2.15 2.15 0 01-2.15-3.73c.24-.15.49-.3.72-.47zm-1.55.88a2.15 2.15 0 111.75 3.95c-.4.17-.8.33-1.21.46a2.15 2.15 0 01-1.34-4.1 8.54 8.54 0 00.8-.3zm-1.55.52a2.15 2.15 0 11.96 4.2c-.42.1-.84.17-1.27.23a2.16 2.16 0 01-.54-4.28c.29-.04.57-.09.85-.15zm-1.74.21a2.15 2.15 0 11.1 4.31 12.26 12.26 0 01-.28 0h-.85a2.15 2.15 0 010-4.3H192zm-2.1 0a2.15 2.15 0 110 4.31h-1.09a2.15 2.15 0 010-4.3zm-2.16 0a2.15 2.15 0 110 4.31h-1.08a2.15 2.15 0 010-4.3zm-2.16 0a2.15 2.15 0 110 4.31h-1.08a2.15 2.15 0 010-4.3zm-2.15 0a2.15 2.15 0 110 4.31h-1.08a2.15 2.15 0 010-4.3zm-2.16 0a2.15 2.15 0 110 4.31h-1.08a2.15 2.15 0 010-4.3zm-2.15 0a2.15 2.15 0 110 4.31h-1.08a2.15 2.15 0 010-4.3zm-2.16 0a2.15 2.15 0 110 4.31h-1.08a2.15 2.15 0 010-4.3zm-2.15 0a2.15 2.15 0 110 4.31h-1.08a2.15 2.15 0 010-4.3zm-2.16 0a2.15 2.15 0 110 4.31h-1.08a2.15 2.15 0 010-4.3zm-2.15 0a2.15 2.15 0 110 4.31h-1.08a2.15 2.15 0 010-4.3zm-2.16 0a2.15 2.15 0 110 4.31h-1.08a2.15 2.15 0 010-4.3zm-2.16 0a2.15 2.15 0 110 4.31h-1.07a2.15 2.15 0 010-4.3zm-2.15 0a2.15 2.15 0 110 4.31h-1.08a2.15 2.15 0 010-4.3zm-2.16 0a2.15 2.15 0 110 4.31h-1.07a2.15 2.15 0 010-4.3zm-2.15 0a2.15 2.15 0 110 4.31h-1.08a2.15 2.15 0 010-4.3zm-2.16 0a2.15 2.15 0 110 4.31h-1.07a2.15 2.15 0 010-4.3zm-2.15 0a2.15 2.15 0 110 4.31h-1.08a2.15 2.15 0 010-4.3zm-2.16 0a2.15 2.15 0 110 4.31h-1.07a2.15 2.15 0 010-4.3zm-2.15 0a2.15 2.15 0 110 4.31h-1.08a2.15 2.15 0 010-4.3zm-2.16 0a2.15 2.15 0 110 4.31h-1.07a2.15 2.15 0 010-4.3zm-2.15 0a2.15 2.15 0 110 4.31h-1.08a2.15 2.15 0 010-4.3zm-2.16 0a2.15 2.15 0 110 4.31h-1.07a2.15 2.15 0 010-4.3zm-2.15 0a2.15 2.15 0 110 4.31h-1.08a2.15 2.15 0 010-4.3zm-2.16 0a2.15 2.15 0 110 4.31h-1.07a2.15 2.15 0 010-4.3zm-2.15 0a2.15 2.15 0 110 4.31h-1.08a2.15 2.15 0 010-4.3zm-2.16 0a2.15 2.15 0 110 4.31h-1.08a2.15 2.15 0 010-4.3zm-2.15 0a2.15 2.15 0 110 4.31h-1.08a2.15 2.15 0 010-4.3zm-2.16 0a2.15 2.15 0 110 4.31h-1.08a2.15 2.15 0 010-4.3zm-2.15 0a2.15 2.15 0 110 4.31h-1.08a2.15 2.15 0 010-4.3zm-2.16 0a2.15 2.15 0 110 4.31h-1.08a2.15 2.15 0 010-4.3zm-2.15 0a2.15 2.15 0 110 4.31h-1.08a2.15 2.15 0 010-4.3zm-2.16 0a2.15 2.15 0 110 4.31H122a2.15 2.15 0 010-4.3zm-2.15 0a2.15 2.15 0 110 4.31h-1.08a2.15 2.15 0 010-4.3zm-2.16 0a2.15 2.15 0 110 4.31h-1.08a2.15 2.15 0 010-4.3zm-2.15 0a2.15 2.15 0 110 4.31h-1.08a2.15 2.15 0 010-4.3zm-2.16 0a2.15 2.15 0 110 4.31h-1.08a2.15 2.15 0 010-4.3zm-2.15 0a2.15 2.15 0 110 4.31h-1.08a2.15 2.15 0 010-4.3zm-2.16 0a2.15 2.15 0 110 4.31h-1.08a2.15 2.15 0 110-4.3zm-2.15 0a2.15 2.15 0 010 4.31h-1.08a2.15 2.15 0 110-4.3zm-2.16 0a2.15 2.15 0 110 4.31h-1.08a2.15 2.15 0 110-4.3zm-2.16 0a2.15 2.15 0 110 4.31h-1.07a2.15 2.15 0 110-4.3zm-2.15 0a2.15 2.15 0 110 4.31h-1.08a2.15 2.15 0 110-4.3zm-2.16 0a2.15 2.15 0 110 4.31H98.3a2.15 2.15 0 110-4.3zm-2.15 0a2.15 2.15 0 110 4.31h-1.08a2.15 2.15 0 110-4.3zm-2.16 0a2.15 2.15 0 110 4.31H94a2.15 2.15 0 110-4.3zm-2.15 0a2.15 2.15 0 110 4.31h-1.08a2.15 2.15 0 110-4.3zm-2.16 0a2.15 2.15 0 110 4.31h-1.07a2.15 2.15 0 110-4.3zm-2.15 0a2.15 2.15 0 110 4.31h-1.08a2.15 2.15 0 110-4.3zm-2.16 0a2.15 2.15 0 110 4.31h-1.07a2.15 2.15 0 110-4.3zm-2.15 0a2.15 2.15 0 110 4.31H83.2a2.15 2.15 0 110-4.3zm-2.16 0a2.15 2.15 0 110 4.31h-1.07a2.15 2.15 0 110-4.3zm-2.15 0a2.15 2.15 0 110 4.31H78.9a2.15 2.15 0 110-4.3zm-2.16 0a2.15 2.15 0 110 4.31h-1.07a2.15 2.15 0 110-4.3zm-2.15 0a2.15 2.15 0 110 4.31h-1.08a2.15 2.15 0 110-4.3zm-2.16 0a2.15 2.15 0 110 4.31h-1.08a2.15 2.15 0 110-4.3zm-2.15 0a2.15 2.15 0 110 4.31h-1.08a2.15 2.15 0 110-4.3zm-2.16 0a2.15 2.15 0 110 4.31h-1.08a2.15 2.15 0 110-4.3zm-2.15 0a2.15 2.15 0 110 4.31h-1.08a2.15 2.15 0 110-4.3zm-2.16 0a2.15 2.15 0 110 4.31h-1.08a2.15 2.15 0 110-4.3zm-2.15 0a2.15 2.15 0 110 4.31h-1.08a2.15 2.15 0 110-4.3zm-2.16 0a2.15 2.15 0 110 4.31H59.5a2.15 2.15 0 110-4.3zm-2.15 0a2.15 2.15 0 110 4.31h-1.08a2.15 2.15 0 110-4.3zm-2.16 0a2.15 2.15 0 110 4.31h-1.08a2.15 2.15 0 110-4.3zm-2.15 0a2.15 2.15 0 110 4.31h-1.08a2.15 2.15 0 110-4.3zm-2.16 0a2.15 2.15 0 110 4.31h-1.08a2.15 2.15 0 110-4.3zm-2.15 0a2.15 2.15 0 110 4.31h-1.08a2.15 2.15 0 110-4.3zm-2.16 0a2.15 2.15 0 110 4.31h-1.08a2.15 2.15 0 110-4.3zm-2.15 0a2.15 2.15 0 110 4.31h-1.08a2.15 2.15 0 110-4.3zm-2.16 0a2.15 2.15 0 110 4.31h-1.08a2.15 2.15 0 110-4.3zm-2.16 0a2.15 2.15 0 110 4.31h-1.07a2.15 2.15 0 110-4.3zm-2.15 0a2.15 2.15 0 110 4.31h-1.08a2.15 2.15 0 110-4.3zm-2.16 0a2.15 2.15 0 110 4.31H35.8a2.15 2.15 0 110-4.3zm-2.15 0a2.15 2.15 0 110 4.31h-1.08a2.15 2.15 0 110-4.3zm-2.16 0a2.15 2.15 0 110 4.31H31.5a2.15 2.15 0 110-4.3zm-2.15 0a2.15 2.15 0 110 4.31h-1.08a2.15 2.15 0 110-4.3zm-2.16 0a2.15 2.15 0 110 4.31h-1.07a2.15 2.15 0 110-4.3zm-2.15 0a2.15 2.15 0 110 4.31h-1.08a2.15 2.15 0 110-4.3zm-2.16 0a2.15 2.15 0 110 4.31h-1.07a2.15 2.15 0 110-4.3zm-2.15 0a2.15 2.15 0 110 4.31H20.7a2.15 2.15 0 110-4.3zm-2.16 0a2.15 2.15 0 110 4.31h-1.07a2.15 2.15 0 110-4.3zm-2.15 0a2.15 2.15 0 110 4.31H16.4a2.15 2.15 0 110-4.3zm-2.16 0a2.15 2.15 0 110 4.31h-1.07a2.15 2.15 0 110-4.3zm-2.15 0a2.15 2.15 0 110 4.31h-.24c-.34 0-.67 0-1-.03a2.15 2.15 0 11.33-4.3c.22.02.45.02.67.02h.24zm-1.77-.13a2.16 2.16 0 11-.76 4.24 13.12 13.12 0 01-1.26-.29 2.15 2.15 0 011.18-4.14c.28.07.56.14.84.19zm-1.67-.48a2.15 2.15 0 11-1.6 4 12.88 12.88 0 01-1.18-.54 2.15 2.15 0 012-3.82c.25.14.51.26.78.36zm-1.57-.82a2.15 2.15 0 11-2.39 3.59c-.36-.24-.7-.5-1.04-.77a2.16 2.16 0 012.74-3.34c.22.19.45.36.7.52zm-1.31-1.07a2.15 2.15 0 01-3.04 3.05 13 13 0 01-.87-.96 2.15 2.15 0 013.33-2.73c.18.22.38.43.58.64zm-1.12-1.37a2.15 2.15 0 11-3.6 2.37 12.83 12.83 0 01-.65-1.11 2.15 2.15 0 013.81-2c.14.25.28.5.44.74zm-.82-1.59a2.15 2.15 0 11-4.01 1.58 12.85 12.85 0 01-.42-1.22 2.15 2.15 0 014.15-1.17c.08.27.17.55.28.81zm-.45-1.56a2.15 2.15 0 11-4.24.8 12.93 12.93 0 01-.17-1.29 2.15 2.15 0 014.3-.36 8.62 8.62 0 00.1.85zm-.15-1.78a2.15 2.15 0 11-4.31 0v-1.08a2.15 2.15 0 114.31 0zm0-2.16a2.15 2.15 0 11-4.31 0V169a2.15 2.15 0 114.31 0zm0-2.15a2.15 2.15 0 11-4.31 0v-1.08a2.15 2.15 0 114.31 0zm0-2.16a2.15 2.15 0 11-4.31 0v-1.07a2.15 2.15 0 114.31 0zm0-2.15a2.15 2.15 0 11-4.31 0v-1.08a2.15 2.15 0 114.31 0zm0-2.16a2.15 2.15 0 11-4.31 0v-1.07a2.15 2.15 0 114.31 0zm0-2.15a2.15 2.15 0 11-4.31 0v-1.08a2.15 2.15 0 114.31 0zm0-2.16a2.15 2.15 0 11-4.31 0v-1.07a2.15 2.15 0 114.31 0zm0-2.15a2.15 2.15 0 11-4.31 0v-1.08a2.15 2.15 0 114.31 0zm0-2.16a2.15 2.15 0 11-4.31 0v-1.08a2.15 2.15 0 114.31 0zm0-2.15a2.15 2.15 0 11-4.31 0v-1.08a2.15 2.15 0 114.31 0zm0-2.16a2.15 2.15 0 11-4.31 0v-1.08a2.15 2.15 0 114.31 0zm0-2.15a2.15 2.15 0 11-4.31 0v-1.08a2.15 2.15 0 114.31 0zm0-2.16a2.15 2.15 0 11-4.31 0v-1.08a2.15 2.15 0 114.31 0zm0-2.15a2.15 2.15 0 11-4.31 0v-1.08a2.15 2.15 0 114.31 0zm0-2.16a2.15 2.15 0 11-4.31 0v-1.08a2.15 2.15 0 114.31 0zm0-2.15a2.15 2.15 0 11-4.31 0v-1.08a2.15 2.15 0 114.31 0zm0-2.16a2.15 2.15 0 11-4.31 0v-1.08a2.15 2.15 0 114.31 0zm0-2.16a2.15 2.15 0 11-4.31 0v-1.07a2.15 2.15 0 114.31 0zm0-2.15a2.15 2.15 0 11-4.31 0v-1.08a2.15 2.15 0 114.31 0zm0-2.16a2.15 2.15 0 11-4.31 0v-1.07a2.15 2.15 0 114.31 0zm0-2.15a2.15 2.15 0 11-4.31 0v-1.08a2.15 2.15 0 114.31 0zm0-2.16a2.15 2.15 0 11-4.31 0v-1.07a2.15 2.15 0 114.31 0zm0-2.15a2.15 2.15 0 11-4.31 0v-1.08a2.15 2.15 0 114.31 0zm0-2.16a2.15 2.15 0 11-4.31 0v-1.07a2.15 2.15 0 114.31 0zm0-2.15a2.15 2.15 0 11-4.31 0v-1.08a2.15 2.15 0 114.31 0zm0-2.16a2.15 2.15 0 11-4.31 0v-1.07a2.15 2.15 0 114.31 0zm0-2.15a2.15 2.15 0 11-4.31 0v-1.08a2.15 2.15 0 114.31 0zm0-2.16a2.15 2.15 0 11-4.31 0v-1.07a2.15 2.15 0 114.31 0zm0-2.15a2.15 2.15 0 11-4.31 0v-1.12a2.15 2.15 0 114.31.08v.15zm.06-1.9a2.15 2.15 0 01-4.28-.5c.05-.43.12-.86.21-1.28a2.15 2.15 0 114.21.93 8.59 8.59 0 00-.14.84zm.37-1.7a2.15 2.15 0 11-4.1-1.34c.14-.41.3-.82.47-1.21a2.15 2.15 0 013.94 1.75 8.54 8.54 0 00-.3.8zm.72-1.6a2.16 2.16 0 01-3.73-2.16c.21-.37.45-.73.7-1.08a2.15 2.15 0 113.5 2.52 8.63 8.63 0 00-.47.72zm1-1.38a2.15 2.15 0 01-3.24-2.85c.28-.32.58-.63.9-.93a2.15 2.15 0 012.94 3.16 8.69 8.69 0 00-.6.62zm1.28-1.2a2.15 2.15 0 01-2.59-3.44 13.3 13.3 0 011.07-.73 2.15 2.15 0 012.24 3.68 8.64 8.64 0 00-.71.49zm1.53-.92a2.15 2.15 0 11-1.83-3.9c.39-.19.79-.35 1.2-.5a2.15 2.15 0 111.43 4.07 8.83 8.83 0 00-.8.33zm1.55-.55a2.15 2.15 0 01-1.06-4.18c.42-.1.84-.2 1.27-.26a2.15 2.15 0 01.63 4.27 8.57 8.57 0 00-.84.17zm1.73-.26a2.15 2.15 0 01-.2-4.3l.57-.01a2.15 2.15 0 11.01 4.3 8.9 8.9 0 00-.39.02z"/><path fill="#e1dbf1" fill-rule="nonzero" d="M31.25 165.95a10.78 10.78 0 100-21.55 10.78 10.78 0 000 21.55zm0 4.3a15.09 15.09 0 110-30.17 15.09 15.09 0 010 30.18z"/><path fill="#6b4fbb" d="M34.3 155.17l1.52 1.53a2.16 2.16 0 11-3.05 3.05l-1.52-1.53-1.52 1.52a2.16 2.16 0 11-3.05-3.04l1.52-1.53-1.52-1.52a2.16 2.16 0 113.05-3.05l1.52 1.52 1.52-1.52a2.16 2.16 0 113.05 3.05z"/><path fill="#efedf8" d="M61.42 147.63h53.88a2.15 2.15 0 110 4.31H61.42a2.15 2.15 0 110-4.31zm0 12.93h86.2a2.15 2.15 0 010 4.31h-86.2a2.15 2.15 0 110-4.31z"/><path fill="#eee" fill-rule="nonzero" d="M21.55 128.23a2.15 2.15 0 110-4.3h8.62a2.15 2.15 0 110 4.3zm19.4 0a2.15 2.15 0 110-4.3h8.62a2.15 2.15 0 110 4.3zm19.4 0a2.15 2.15 0 110-4.3h8.61a2.15 2.15 0 110 4.3zm19.4 0a2.15 2.15 0 110-4.3h8.61a2.15 2.15 0 110 4.3zm19.39 0a2.15 2.15 0 110-4.3h8.62a2.15 2.15 0 110 4.3zm19.4 0a2.15 2.15 0 010-4.3h8.62a2.15 2.15 0 010 4.3zm19.4 0a2.15 2.15 0 010-4.3h8.61a2.15 2.15 0 010 4.3zm19.39 0a2.15 2.15 0 010-4.3h8.62a2.15 2.15 0 010 4.3zm19.4 0a2.15 2.15 0 010-4.3h8.61a2.15 2.15 0 010 4.3z"/></g></svg>