<svg width="430" height="202" viewBox="0 0 430 202" xmlns="http://www.w3.org/2000/svg"><g fill="none" fill-rule="evenodd"><path d="M287.798 163H85c-5.523 0-10-4.477-10-10V45c0-5.523 4.477-10 10-10h264c5.523 0 10 4.477 10 10v67.8c7.44 7.88 12 18.508 12 30.2 0 24.3-19.7 44-44 44-17.099 0-31.92-9.753-39.202-24z" fill="#F9F9F9"/><g transform="translate(75 30)"><rect stroke="#EEE" stroke-width="4" fill="#FFF" x="2" y="2" width="280" height="124" rx="10"/><path d="M19 16h12a3 3 0 013 3v12a3 3 0 01-3 3H19a3 3 0 01-3-3V19a3 3 0 013-3zm26 26h12a3 3 0 013 3v12a3 3 0 01-3 3H45a3 3 0 01-3-3V45a3 3 0 013-3zm52 0h12a3 3 0 013 3v12a3 3 0 01-3 3H97a3 3 0 01-3-3V45a3 3 0 013-3zm26 0h12a3 3 0 013 3v12a3 3 0 01-3 3h-12a3 3 0 01-3-3V45a3 3 0 013-3zm26 0h12a3 3 0 013 3v12a3 3 0 01-3 3h-12a3 3 0 01-3-3V45a3 3 0 013-3zm26-26h12a3 3 0 013 3v12a3 3 0 01-3 3h-12a3 3 0 01-3-3V19a3 3 0 013-3zm52 0h12a3 3 0 013 3v12a3 3 0 01-3 3h-12a3 3 0 01-3-3V19a3 3 0 013-3zm0 26h12a3 3 0 013 3v12a3 3 0 01-3 3h-12a3 3 0 01-3-3V45a3 3 0 013-3zm26-26h12a3 3 0 013 3v12a3 3 0 01-3 3h-12a3 3 0 01-3-3V19a3 3 0 013-3zM45 68h12a3 3 0 013 3v12a3 3 0 01-3 3H45a3 3 0 01-3-3V71a3 3 0 013-3zm104 0h12a3 3 0 013 3v12a3 3 0 01-3 3h-12a3 3 0 01-3-3V71a3 3 0 013-3zM71 94h12a3 3 0 013 3v12a3 3 0 01-3 3H71a3 3 0 01-3-3V97a3 3 0 013-3zm52 0h12a3 3 0 013 3v12a3 3 0 01-3 3h-12a3 3 0 01-3-3V97a3 3 0 013-3z" fill="#EFEDF8"/><path d="M19 42h12a3 3 0 013 3v12a3 3 0 01-3 3H19a3 3 0 01-3-3V45a3 3 0 013-3zm234 0h12a3 3 0 013 3v12a3 3 0 01-3 3h-12a3 3 0 01-3-3V45a3 3 0 013-3zM71 68h12a3 3 0 013 3v12a3 3 0 01-3 3H71a3 3 0 01-3-3V71a3 3 0 013-3zm104 0h12a3 3 0 013 3v12a3 3 0 01-3 3h-12a3 3 0 01-3-3V71a3 3 0 013-3z" fill="#C3B8E3"/><path d="M45 16h12a3 3 0 013 3v12a3 3 0 01-3 3H45a3 3 0 01-3-3V19a3 3 0 013-3zm26 26h12a3 3 0 013 3v12a3 3 0 01-3 3H71a3 3 0 01-3-3V45a3 3 0 013-3zm26-26h12a3 3 0 013 3v12a3 3 0 01-3 3H97a3 3 0 01-3-3V19a3 3 0 013-3zm52 0h12a3 3 0 013 3v12a3 3 0 01-3 3h-12a3 3 0 01-3-3V19a3 3 0 013-3zm52 0h12a3 3 0 013 3v12a3 3 0 01-3 3h-12a3 3 0 01-3-3V19a3 3 0 013-3zM97 68h12a3 3 0 013 3v12a3 3 0 01-3 3H97a3 3 0 01-3-3V71a3 3 0 013-3zm104 0h12a3 3 0 013 3v12a3 3 0 01-3 3h-12a3 3 0 01-3-3V71a3 3 0 013-3zM19 94h12a3 3 0 013 3v12a3 3 0 01-3 3H19a3 3 0 01-3-3V97a3 3 0 013-3zm130 0h12a3 3 0 013 3v12a3 3 0 01-3 3h-12a3 3 0 01-3-3V97a3 3 0 013-3z" fill="#EEE"/><path d="M71 16h12a3 3 0 013 3v12a3 3 0 01-3 3H71a3 3 0 01-3-3V19a3 3 0 013-3zm104 26h12a3 3 0 013 3v12a3 3 0 01-3 3h-12a3 3 0 01-3-3V45a3 3 0 013-3zm-52 26h12a3 3 0 013 3v12a3 3 0 01-3 3h-12a3 3 0 01-3-3V71a3 3 0 013-3zM45 94h12a3 3 0 013 3v12a3 3 0 01-3 3H45a3 3 0 01-3-3V97a3 3 0 013-3zm156 0h12a3 3 0 013 3v12a3 3 0 01-3 3h-12a3 3 0 01-3-3V97a3 3 0 013-3z" fill="#6B4FBB"/><path d="M123 16h12a3 3 0 013 3v12a3 3 0 01-3 3h-12a3 3 0 01-3-3V19a3 3 0 013-3zm78 26h12a3 3 0 013 3v12a3 3 0 01-3 3h-12a3 3 0 01-3-3V45a3 3 0 013-3zM19 68h12a3 3 0 013 3v12a3 3 0 01-3 3H19a3 3 0 01-3-3V71a3 3 0 013-3zm78 26h12a3 3 0 013 3v12a3 3 0 01-3 3H97a3 3 0 01-3-3V97a3 3 0 013-3z" fill="#E1DBF1"/><rect fill="#EFEDF8" x="224" y="68" width="18" height="18" rx="3"/><rect fill="#E1DBF1" x="250" y="68" width="18" height="18" rx="3"/><rect fill="#EFEDF8" x="172" y="94" width="18" height="18" rx="3"/><rect fill="#EEE" x="224" y="94" width="18" height="18" rx="3"/><rect fill="#6B4FBB" x="250" y="94" width="18" height="18" rx="3"/></g><g transform="translate(283 94)"><circle stroke="#EEE" stroke-width="4" fill="#FFF" cx="44" cy="44" r="42"/><path d="M56.923 34l13.192 5.26a3 3 0 01.051 5.553C61.934 48.271 53.206 50 44 50c-9.207 0-17.934-1.73-26.166-5.187a3 3 0 01.05-5.552L31.078 34h25.846zM30.24 34l2.251-10.283A6 6 0 0138.352 19h11.296a6 6 0 015.86 4.717L57.76 34H30.24z" stroke="#FFF" stroke-width="4" fill="#FEE1D3"/><path d="M38.39 49.813C39.666 48.105 41.704 47 44 47s4.334 1.105 5.61 2.813a7.5 7.5 0 11-2.545 4.695A2.003 2.003 0 0147 54a3 3 0 00-6 0c0 .175-.023.346-.065.508a7.5 7.5 0 11-2.545-4.695zM33.5 59a3.5 3.5 0 100-7 3.5 3.5 0 000 7zm21 0a3.5 3.5 0 100-7 3.5 3.5 0 000 7z" fill="#FC6D26" fill-rule="nonzero"/></g></g></svg>