<svg width="169" height="77" fill="none" xmlns="http://www.w3.org/2000/svg"><path d="M115.57 41.571h32.143c10.651 0 19.286-8.634 19.286-19.285C166.999 11.634 158.364 3 147.713 3c-10.651 0-19.286 8.634-19.286 19.286 0 5.027 1.924 9.605 5.075 13.038m-18.396 6.247h10.679c7.298 0 13.214 5.917 13.214 13.215S133.083 68 125.785 68s-13.215-5.916-13.215-13.214c0-1.747.339-3.415.955-4.94" stroke="#DBDBDB" stroke-width="2.632" stroke-linecap="round"/><path d="M146.262 24.235l-3.214-3.22a.76.76 0 00-1.065.016l-1.589 1.593c-.294.294-.306.776-.016 1.066l4.966 4.975c.497.499 1.322.515 1.822.014l.7-.701 7.998-8.013a.763.763 0 00.004-1.086l-1.589-1.593a.77.77 0 00-1.085.004l-6.932 6.945z" fill="#FC6D26"/><path fill-rule="evenodd" clip-rule="evenodd" d="M125.682 56.711l-2.595 2.611a1.217 1.217 0 01-1.729 0 1.236 1.236 0 010-1.74l1.729-1.74-1.729-1.74a1.236 1.236 0 010-1.741 1.218 1.218 0 011.729 0l2.595 2.61a1.236 1.236 0 010 1.74zm6.114 0l-2.594 2.611a1.22 1.22 0 01-2.088-.87 1.228 1.228 0 01.359-.87l1.729-1.74-1.729-1.74a1.228 1.228 0 01-.001-1.74 1.231 1.231 0 01.865-.362 1.214 1.214 0 01.865.36l2.594 2.611c.23.23.358.544.358.87 0 .326-.128.64-.358.87z" fill="#6E49CB"/><path d="M87.549 37H76.394c-.77 0-1.394-.625-1.394-1.397 0-.771.624-1.397 1.394-1.397H87.55c.77 0 1.394.626 1.394 1.397 0 .772-.624 1.397-1.394 1.397zm31.154 0H96.394c-.77 0-1.394-.625-1.394-1.397 0-.771.624-1.397 1.394-1.397h22.309c.77 0 1.394.626 1.394 1.397 0 .772-.624 1.397-1.394 1.397z" fill="#FC6D26"/><path d="M118.703 37H96.394c-.77 0-1.394-.625-1.394-1.397 0-.771.624-1.397 1.394-1.397h22.309c.77 0 1.394.626 1.394 1.397 0 .772-.624 1.397-1.394 1.397z" fill="#fff" fill-opacity=".6"/><path d="M93.857 32H71.394c-.77 0-1.394-.625-1.394-1.397 0-.771.624-1.397 1.394-1.397h22.463c.77 0 1.394.626 1.394 1.397 0 .772-.624 1.397-1.394 1.397z" fill="#6E49CB"/><path d="M93.857 32H71.394c-.77 0-1.394-.625-1.394-1.397 0-.771.624-1.397 1.394-1.397h22.463c.77 0 1.394.626 1.394 1.397 0 .772-.624 1.397-1.394 1.397z" fill="#fff" fill-opacity=".8"/><path d="M86.857 49H71.394c-.77 0-1.394-.625-1.394-1.397 0-.771.624-1.397 1.394-1.397h15.463c.77 0 1.394.626 1.394 1.397 0 .772-.624 1.397-1.394 1.397z" fill="#6E49CB"/><path d="M86.857 49H71.394c-.77 0-1.394-.625-1.394-1.397 0-.771.624-1.397 1.394-1.397h15.463c.77 0 1.394.626 1.394 1.397 0 .772-.624 1.397-1.394 1.397z" fill="#fff" fill-opacity=".8"/><path d="M109.166 43H73.394c-.77 0-1.394-.625-1.394-1.397 0-.771.624-1.397 1.394-1.397h35.772c.77 0 1.394.626 1.394 1.397 0 .772-.624 1.397-1.394 1.397z" fill="#6E49CB"/><path d="M109.166 43H73.394c-.77 0-1.394-.625-1.394-1.397 0-.771.624-1.397 1.394-1.397h35.772c.77 0 1.394.626 1.394 1.397 0 .772-.624 1.397-1.394 1.397z" fill="#fff" fill-opacity=".4"/><path d="M2 26c0 2.415 12.436 4.373 27.777 4.373 3.994 0 7.791-.133 11.223-.372M2 50c0 2.415 12.436 4.373 27.777 4.373 5.836 0 11.252-.284 15.723-.768" stroke="#DBDBDB" stroke-width="1.282"/><path d="M57.554 5v17M2 5v63.667c0 4.506 18.97 6.853 27.777 6.853 8.807 0 27.777-2.347 27.777-6.853V57" stroke="#DBDBDB" stroke-width="2.563" stroke-linejoin="round"/><ellipse cx="29.777" cy="5.644" rx="27.777" ry="3.644" stroke="#DBDBDB" stroke-width="2.563"/><ellipse cx="55.429" cy="39.46" rx="17.429" ry="17.46" stroke="#6E49CB" stroke-width="2.563"/><ellipse cx="55.246" cy="39.27" rx="13.246" ry="13.27" fill="#6E49CB"/><ellipse cx="55.246" cy="39.27" rx="13.246" ry="13.27" fill="#fff" fill-opacity=".9"/><path d="M61.763 38.59c.817.5.817 1.686 0 2.186l-8.812 5.394A1.282 1.282 0 0151 45.077v-10.79a1.282 1.282 0 011.951-1.093l8.812 5.395z" fill="#6E49CB"/></svg>