<svg xmlns="http://www.w3.org/2000/svg" xmlns:xlink="http://www.w3.org/1999/xlink" width="246" height="145" viewBox="0 0 246 145"><defs><filter id="a" width="107.8%" height="114.1%" x="-2.3%" y="-4.2%" filterUnits="objectBoundingBox"><feMorphology in="SourceAlpha" operator="dilate" radius="1" result="shadowSpreadOuter1"/><feOffset dx="4" dy="4" in="shadowSpreadOuter1" result="shadowOffsetOuter1"/><feComposite in="shadowOffsetOuter1" in2="SourceAlpha" operator="out" result="shadowOffsetOuter1"/><feColorMatrix in="shadowOffsetOuter1" values="0 0 0 0 0.977226828 0 0 0 0 0.977226828 0 0 0 0 0.977226828 0 0 0 1 0"/></filter><filter id="c" width="106.1%" height="123.8%" x="-1.8%" y="-7.1%" filterUnits="objectBoundingBox"><feMorphology in="SourceAlpha" operator="dilate" radius="1" result="shadowSpreadOuter1"/><feOffset dx="4" dy="4" in="shadowSpreadOuter1" result="shadowOffsetOuter1"/><feComposite in="shadowOffsetOuter1" in2="SourceAlpha" operator="out" result="shadowOffsetOuter1"/><feColorMatrix in="shadowOffsetOuter1" values="0 0 0 0 0.976470588 0 0 0 0 0.976470588 0 0 0 0 0.976470588 0 0 0 1 0"/></filter><filter id="e" width="110.4%" height="113%" x="-3.1%" y="-3.9%" filterUnits="objectBoundingBox"><feMorphology in="SourceAlpha" operator="dilate" radius="1" result="shadowSpreadOuter1"/><feOffset dx="4" dy="4" in="shadowSpreadOuter1" result="shadowOffsetOuter1"/><feComposite in="shadowOffsetOuter1" in2="SourceAlpha" operator="out" result="shadowOffsetOuter1"/><feColorMatrix in="shadowOffsetOuter1" values="0 0 0 0 0.980392157 0 0 0 0 0.980392157 0 0 0 0 0.980392157 0 0 0 1 0"/></filter><path id="b" d="M10 17h109c5.523 0 10 4.477 10 10v51c0 5.523-4.477 10-10 10H10C4.477 88 0 83.523 0 78V27c0-5.523 4.477-10 10-10z"/><path id="d" d="M41 98h143c5.523 0 10 4.477 10 10v22c0 5.523-4.477 10-10 10H41c-5.523 0-10-4.477-10-10v-22c0-5.523 4.477-10 10-10z"/><path id="f" d="M148 12h76c5.523 0 10 4.477 10 10v57c0 5.523-4.477 10-10 10h-76c-5.523 0-10-4.477-10-10V22c0-5.523 4.477-10 10-10z"/></defs><g fill="none" transform="translate(1)"><path stroke="#EEE" stroke-linecap="round" stroke-linejoin="round" stroke-width="2" d="M187.666 15L186 17.656"/><g stroke-dasharray="1" stroke-linecap="round" stroke-linejoin="round"><use fill="#000" filter="url(#a)" xlink:href="#b"/><use fill="#FFF" stroke="#E5E5E5" stroke-width="2" xlink:href="#b"/></g><path stroke="#FEF0E8" stroke-linecap="round" stroke-width="3" d="M9.5 27.293v50.414M120 78.5H9"/><path stroke="#C3B8E3" stroke-dasharray="1" stroke-linecap="round" stroke-linejoin="round" stroke-width="2" d="M14 72a1010.292 1010.292 0 0112.743-30.886L41.224 51.24 55.704 32l27.804 25.823 8.11-6.582 14.48 11.139L120 47.696"/><path fill="#FFF" stroke="#FC6D26" stroke-width="2" d="M88 38h8.465a2 2 0 012 2v2.53a2 2 0 01-2 2H88a2 2 0 01-2-2V40a2 2 0 012-2z"/><path fill="#FC6D26" d="M91.013 47.865L89 45h5.662l-2.013 2.865a1 1 0 01-1.636 0z"/><path fill="#EEE" d="M210.437 115.419l-1.095.398a.64.64 0 01-.814-.84l.381-.955a1 1 0 000-.74l-.38-.956a.64.64 0 01.813-.839l1.095.398a1 1 0 00.683 0l1.095-.398a.64.64 0 01.813.839l-.38.956a1 1 0 000 .74l.38.956a.64.64 0 01-.813.839l-1.095-.398a1 1 0 00-.683 0z"/><path fill="#FEE1D3" d="M238.228 3.923l-.234 1.32a.623.623 0 01-1.103.277l-.753-.956a.623.623 0 00-.4-.23l-1.204-.176a.623.623 0 01-.312-1.093l1.026-.863a.623.623 0 00.213-.368l.234-1.32a.623.623 0 011.103-.277l.753.956a.623.623 0 00.4.23l1.204.176a.623.623 0 01.311 1.093l-1.025.862a.623.623 0 00-.213.369z"/><circle cx="243.623" cy="8.623" r="1" fill="#FEE1D3"/><circle cx="228.623" cy=".623" r="1" fill="#FEE1D3"/><circle cx="206.623" cy="118.623" r="1" fill="#EEE"/><path fill="#E1DBF1" d="M20.96 107.34l-.61 1.193a.623.623 0 01-1.136-.057l-.442-1.134a.623.623 0 00-.314-.337l-1.1-.52a.623.623 0 01.021-1.137l1.233-.524a.623.623 0 00.312-.29l.609-1.194a.623.623 0 011.136.057l.441 1.134c.058.149.17.27.315.338l1.1.52a.623.623 0 01-.022 1.136l-1.233.525a.623.623 0 00-.31.29z"/><circle cx="16.623" cy="113.623" r="1" fill="#E1DBF1"/><g stroke-dasharray="1" stroke-linecap="round" stroke-linejoin="round"><use fill="#000" filter="url(#c)" xlink:href="#d"/><use fill="#FFF" stroke="#E5E5E5" stroke-width="2" xlink:href="#d"/></g><circle cx="50" cy="118" r="10" stroke="#6B4FBB" stroke-width="2"/><path stroke="#E0E0E0" stroke-linecap="round" stroke-linejoin="round" stroke-width="2" d="M66.313 115H126m-59.688 6.833H119"/><path fill="#FC6D26" d="M50 113a1 1 0 011 1v6a1 1 0 11-2 0v-6a1 1 0 011-1z"/><path stroke="#E0E0E0" stroke-width="2" d="M140 113h6a3 3 0 013 3v6a3 3 0 01-3 3h-6a3 3 0 01-3-3v-6a3 3 0 013-3z"/><path stroke="#FDC4A8" stroke-width="2" d="M157 113h6a3 3 0 013 3v6a3 3 0 01-3 3h-6a3 3 0 01-3-3v-6a3 3 0 013-3z"/><path stroke="#C3B8E3" stroke-width="2" d="M174 113h6a3 3 0 013 3v6a3 3 0 01-3 3h-6a3 3 0 01-3-3v-6a3 3 0 013-3z"/><circle cx="50" cy="123" r="1" fill="#FC6D26"/><g stroke-dasharray="1" stroke-linecap="round" stroke-linejoin="round"><use fill="#000" filter="url(#e)" xlink:href="#f"/><use fill="#FFF" stroke="#E5E5E5" stroke-width="2" xlink:href="#f"/></g><path fill="#FFF" stroke="#6B4FBB" stroke-linecap="round" stroke-linejoin="round" stroke-width="2" d="M176 46.553h24.914c-.426-8.518-3.194-14.906-8.305-19.165C187.5 23.13 181.962 21 176 21v25.553z"/><path stroke="#E1DBF1" stroke-linecap="round" stroke-linejoin="round" stroke-width="3" d="M188.682 34.318l-6.364 6.364"/><path stroke="#F0EDF8" stroke-linecap="round" stroke-linejoin="round" stroke-width="3" d="M186.558 31L185 32.558"/><path stroke="#6B4FBB" stroke-linecap="round" stroke-linejoin="round" stroke-width="3" d="M212.208 48.208h9.369"/><path stroke="#FEE1D3" stroke-linecap="round" stroke-linejoin="round" stroke-width="3" d="M211.186 54.269H222"/><path stroke="#FEE1D3" stroke-linecap="round" stroke-linejoin="round" stroke-width="2" d="M168.813 26v24.05a2 2 0 002 2h24.728c-.954 12.55-11.44 22.436-24.235 22.436C157.882 74.486 147 63.604 147 50.18c0-12.582 9.56-22.932 21.813-24.18z"/></g></svg>