<svg xmlns="http://www.w3.org/2000/svg" xmlns:xlink="http://www.w3.org/1999/xlink" width="430" height="167" viewBox="0 0 430 167"><defs><path id="a" d="M96 88h81v4H96z"/></defs><g fill="none" fill-rule="evenodd"><g transform="translate(282 2)"><rect width="40" height="4" x="25" y="86" fill="#DFDFDF" rx="2"/><rect width="22" height="4" y="86" fill="#DFDFDF" rx="2"/><path fill="#DFDFDF" d="M63 90c25.405 0 46-20.595 46-46S88.405-2 63-2 17 18.595 17 44a45.834 45.834 0 0012.104 31.098 2 2 0 002.947-2.705A41.834 41.834 0 0121 44C21 20.804 39.804 2 63 2s42 18.804 42 42-18.804 42-42 42a2 2 0 100 4z"/><path fill="#DFDFDF" fill-rule="nonzero" d="M52 86h67c16.016 0 29 12.984 29 29s-12.984 29-29 29-29-12.984-29-29a28.898 28.898 0 017.63-19.605 2 2 0 112.948 2.705A24.898 24.898 0 0094 115c0 13.807 11.193 25 25 25s25-11.193 25-25-11.193-25-25-25H52a2 2 0 010-4z"/><path fill="#A7A7A7" d="M128 106a3 3 0 013 3v12a3 3 0 01-3 3h-13.934l-4.815 2.783a1.5 1.5 0 01-2.251-1.298V109a3 3 0 013-3h18zm0 3h-18v13.885l3.262-1.885H128v-12zm-13.5 4.5a1.5 1.5 0 110 3 1.5 1.5 0 010-3zm4.5 0a1.5 1.5 0 110 3 1.5 1.5 0 010-3zm4.5 0a1.5 1.5 0 110 3 1.5 1.5 0 010-3zM47 36a4 4 0 014-4h24a4 4 0 014 4v16a4 4 0 01-4 4H51a4 4 0 01-4-4V36zm4 0h24v.015L63.008 42.94 51 36.006V36zm0 4.625V52h24V40.634l-11.992 6.924L51 40.625z"/></g><path fill="#C2B7E6" fill-rule="nonzero" d="M274.5 20v145a2 2 0 004 0V20a2 2 0 00-4 0z"/><use fill="#6E49CB" xlink:href="#a"/><use fill="#FFF" fill-opacity=".6" xlink:href="#a"/><g transform="translate(172 40)"><path fill="#6E49CB" fill-rule="nonzero" d="M64.508 2.17a2 2 0 011.48-1.813l1.078-.289a2 2 0 012.187.83l1.83 2.774c.777.026 1.542.129 2.287.301l2.487-2.205a2 2 0 012.327-.236l.967.559a2 2 0 01.96 2.133l-.667 3.257c.522.558.993 1.17 1.404 1.828l3.318.2a2 2 0 011.812 1.478l.289 1.079a2 2 0 01-.83 2.187l-2.773 1.83a11.927 11.927 0 01-.302 2.287l2.206 2.487a2 2 0 01.235 2.327l-.558.967a2 2 0 01-2.133.96l-3.257-.667c-.558.522-1.17.993-1.829 1.404l-.2 3.318a2 2 0 01-1.478 1.812l-1.079.289a2 2 0 01-2.186-.83l-1.832-2.773a11.926 11.926 0 01-2.285-.302l-2.488 2.206a2 2 0 01-2.327.235l-.967-.558a2 2 0 01-.96-2.133l.667-3.257a11.926 11.926 0 01-1.404-1.829l-3.318-.199a2 2 0 01-1.812-1.479l-.289-1.079a2 2 0 01.83-2.186l2.774-1.832c.026-.776.129-1.541.301-2.285l-2.205-2.488a2 2 0 01-.236-2.327l.558-.967a2 2 0 012.133-.96l3.258.667c.558-.522 1.17-.993 1.828-1.404l.2-3.318zm8.23 21.225A8 8 0 1068.597 7.94a8 8 0 004.141 15.455z"/><path fill="#EFEDF8" stroke="#6E49CB" stroke-width="4" d="M27.088 20.735A4 4 0 0130.883 18h2.234a4 4 0 013.795 2.735l2.102 6.306a23.849 23.849 0 014.26 1.766l5.946-2.973a4 4 0 014.618.749l1.58 1.58a4 4 0 01.748 4.617l-2.973 5.947a23.854 23.854 0 011.766 4.26l6.306 2.101A4 4 0 0164 48.883v2.234a4 4 0 01-2.735 3.795l-6.306 2.102a23.853 23.853 0 01-1.766 4.26l2.973 5.946a4 4 0 01-.749 4.618l-1.58 1.58a4 4 0 01-4.617.748l-5.947-2.973a23.825 23.825 0 01-4.26 1.766l-2.101 6.306A4 4 0 0133.117 82h-2.234a4 4 0 01-3.795-2.735l-2.102-6.306a23.852 23.852 0 01-4.26-1.766l-5.946 2.974a4 4 0 01-4.618-.75l-1.58-1.58a4 4 0 01-.749-4.617l2.974-5.947a23.852 23.852 0 01-1.766-4.26l-6.306-2.101A4 4 0 010 51.117v-2.234a4 4 0 012.735-3.795l6.306-2.102a23.854 23.854 0 011.766-4.26L7.833 32.78a4 4 0 01.75-4.618l1.58-1.58a4 4 0 014.617-.749l5.947 2.974a23.853 23.853 0 014.26-1.766l2.101-6.306zM32 66c8.836 0 16-7.164 16-16 0-8.837-7.164-16-16-16-8.837 0-16 7.163-16 16 0 8.836 7.163 16 16 16z"/><circle cx="32" cy="50" r="10" stroke="#6E49CB" stroke-linecap="round" stroke-width="2"/></g><g stroke="#FC6D26" transform="translate(123 78)"><circle cx="12" cy="12" r="11" fill="#FFF" stroke-width="2"/><path stroke-linecap="round" stroke-linejoin="round" stroke-width="4" d="M8 12.25L10.846 15 17 9"/></g><g transform="translate(0 40)"><circle cx="50" cy="50" r="48" fill="#FFF" stroke="#FC6D26" stroke-width="4"/><circle cx="21" cy="50" r="4" fill="#6E49CB"/><circle cx="79" cy="50" r="4" fill="#6E49CB"/><circle cx="50" cy="50" r="27" fill="#FFF" stroke="#E1DBF1" stroke-width="4"/><rect width="38" height="24" x="31" y="38" fill="#FFF" stroke="#E1DBF1" stroke-width="2" rx="12"/><circle cx="50" cy="69" r="2" fill="#6E49CB"/><circle cx="50" cy="69" r="2" fill="#6E49CB"/><circle cx="55" cy="69" r="1" fill="#6E49CB"/><circle cx="45" cy="69" r="1" fill="#6E49CB"/><path stroke="#6E49CB" stroke-linecap="round" stroke-width="2" d="M48 30h4M15 50h4M81 50h4M48 33.5h4"/><path fill="#6E49CB" d="M54.214 52.702a1.5 1.5 0 01.549 2.049 5.502 5.502 0 01-7.504 2.017 5.499 5.499 0 01-2.015-2.006 1.5 1.5 0 012.48-1.676l.114.17a2.5 2.5 0 004.184.214l.143-.22a1.5 1.5 0 012.049-.548zM41 46a2 2 0 110 4 2 2 0 010-4zm18 0a2 2 0 110 4 2 2 0 010-4z"/></g></g></svg>