<svg width="344" height="230" viewBox="0 0 344 230" xmlns="http://www.w3.org/2000/svg"><g fill="none"><g transform="matrix(-1 0 0 1 236 133)" fill="#F9F9F9"><rect x="63" y="65" width="158" height="22" rx="11"/><rect y="22" width="158" height="22" rx="11"/><path d="M58.503 0C52.425 0 47.5 4.925 47.5 11c0 6.076 4.925 11 11.002 11H14.499c6.078 0 11.002-4.925 11.002-11 0-6.076-4.926-11-11.002-11h44.004zm60 44c-6.078 0-11.002 4.925-11.002 11 0 6.076 4.925 11 11.002 11H74.499c6.078 0 11.002-4.925 11.002-11 0-6.076-4.926-11-11.002-11h44.004z"/></g><g transform="translate(45 2)"><path d="M249 122h18c5.523 0 10 4.477 10 10v74c0 5.523-4.477 10-10 10h-18v2c0 5.523-4.477 10-10 10H11c-5.523 0-10-4.477-10-10V18C1 12.477 5.477 8 11 8h228c5.523 0 10 4.477 10 10v104z" fill="#F9F9F9"/><rect stroke="#EEE" stroke-width="4" fill="#FFF" width="248" height="220" rx="10"/><path d="M34 28a2 2 0 110-4h8a2 2 0 110 4h-8zm18 0a2 2 0 110-4h8a2 2 0 110 4h-8zm18 0a2 2 0 110-4h8a2 2 0 110 4h-8zm18 0a2 2 0 110-4h8a2 2 0 110 4h-8zm18 0a2 2 0 010-4h8a2 2 0 010 4h-8zm18 0a2 2 0 010-4h8a2 2 0 010 4h-8zm18 0a2 2 0 010-4h8a2 2 0 010 4h-8zm18 0a2 2 0 010-4h8a2 2 0 010 4h-8zm18 0a2 2 0 010-4h8a2 2 0 010 4h-8zm18 0a2 2 0 010-4h8a2 2 0 010 4h-8zm18 0a2 2 0 010-4c3.308 0 6.406 1.348 8.652 3.685a2 2 0 01-2.883 2.772A7.97 7.97 0 00214 28zm8 10.39a2 2 0 014 0v8a2 2 0 01-4 0v-8zm0 18a2 2 0 014 0v8a2 2 0 01-4 0v-8zm0 18a2 2 0 014 0v8a2 2 0 01-4 0v-8zm-.006 17.924a2 2 0 113.997.154 11.973 11.973 0 01-4.02 8.503 2 2 0 01-2.658-2.99 7.974 7.974 0 002.681-5.667zM211.218 100a2 2 0 010 4h-8a2 2 0 010-4h8zm-18 0a2 2 0 010 4h-8a2 2 0 010-4h8zm-18 0a2 2 0 010 4h-8a2 2 0 010-4h8zm-18 0a2 2 0 010 4h-8a2 2 0 010-4h8zm-18 0a2 2 0 010 4h-8a2 2 0 010-4h8zm-18 0a2 2 0 010 4h-8a2 2 0 010-4h8zm-18 0a2 2 0 010 4h-8a2 2 0 010-4h8zm-18 0a2 2 0 010 4h-8a2 2 0 010-4h8zm-18 0a2 2 0 010 4h-8a2 2 0 010-4h8zm-18 0a2 2 0 010 4h-8a2 2 0 010-4h8zm-17.423-.307a2 2 0 01-1.1 3.846 12.025 12.025 0 01-7.304-5.927 2 2 0 113.534-1.873 8.025 8.025 0 004.87 3.954zM26 86.827a2 2 0 11-4 0v-8a2 2 0 114 0v8zm0-18a2 2 0 11-4 0v-8a2 2 0 114 0v8zm0-18a2 2 0 11-4 0v-8a2 2 0 114 0v8zm.4-17.334a2 2 0 01-3.799-1.252 12.03 12.03 0 016.211-7.064 2 2 0 011.731 3.606 8.03 8.03 0 00-4.143 4.71z" fill="#FEF0E8"/><path d="M34 120a2 2 0 010-4h8a2 2 0 010 4h-8zm19 0a2 2 0 010-4h8a2 2 0 010 4h-8zm19 0a2 2 0 010-4h8a2 2 0 010 4h-8zm19 0a2 2 0 010-4h8a2 2 0 010 4h-8zm19 0a2 2 0 010-4h8a2 2 0 010 4h-8zm19 0a2 2 0 010-4h8a2 2 0 010 4h-8zm19 0a2 2 0 010-4h8a2 2 0 010 4h-8zm19 0a2 2 0 010-4h8a2 2 0 010 4h-8zm19 0a2 2 0 010-4h8a2 2 0 010 4h-8zm19 0a2 2 0 010-4h8a2 2 0 010 4h-8zm15.78 3.75a2 2 0 013.386-2.128A11.952 11.952 0 01226 128v2.39a2 2 0 01-4 0V128a7.952 7.952 0 00-1.22-4.25zm1.22 17.64a2 2 0 014 0v8a2 2 0 01-4 0v-8zm0 19a2 2 0 014 0v8a2 2 0 01-4 0v-8zm0 19a2 2 0 014 0V184c0 1.381-.234 2.733-.687 4.01a2 2 0 01-3.77-1.336c.301-.85.457-1.75.457-2.674v-4.61zm-7.008 12.55a2 2 0 01.49 3.97c-.481.059-.967.089-1.46.09h-6.804a2 2 0 010-4h6.799c.328 0 .654-.021.975-.06zm-18.774.06a2 2 0 010 4h-8a2 2 0 010-4h8zm-19 0a2 2 0 010 4h-8a2 2 0 010-4h8zm-19 0a2 2 0 010 4h-8a2 2 0 010-4h8zm-19 0a2 2 0 010 4h-8a2 2 0 010-4h8zm-19 0a2 2 0 010 4h-8a2 2 0 010-4h8zm-19 0a2 2 0 010 4h-8a2 2 0 010-4h8zm-19 0a2 2 0 010 4h-8a2 2 0 010-4h8zm-19 0a2 2 0 010 4h-8a2 2 0 010-4h8zm-19 0a2 2 0 010 4h-8a2 2 0 010-4h8zm-16.412-2.936a2 2 0 01-3.095 2.534A11.957 11.957 0 0122 184v-1.173a2 2 0 014 0V184a7.96 7.96 0 001.806 5.064zM26 171.827a2 2 0 01-4 0v-8a2 2 0 014 0v8zm0-19a2 2 0 01-4 0v-8a2 2 0 014 0v8zm0-19a2 2 0 01-4 0V128c0-.878.095-1.745.28-2.59a2 2 0 013.907.86A8.036 8.036 0 0026 128v5.827zm6.037-13.585a2 2 0 01-.978-3.879c.942-.237 1.914-.36 2.9-.363a2 2 0 01.014 4 8.018 8.018 0 00-1.936.242z" fill="#EFEDF8"/></g><g transform="rotate(75 -91.138 128.904)"><path d="M4.48 3.455c0-1.237.908-1.82 1.989-1.205 0 0 6.971 2.344 6.971 12.406V44.56H4.48V3.455z" fill="#FFF"/><path d="M6.48 42.56h4.96V14.656c0-3.89-1.11-6.668-2.94-8.602A8.592 8.592 0 006.48 4.46v38.1zM8.557 1.041c.978.564 1.949 1.31 2.85 2.265 2.53 2.675 4.033 6.436 4.033 11.35V46.56H2.48V3.455C2.48.765 4.91-.797 7.288.42c.326.125.76.327 1.269.621z" fill="#E1DBF1"/><circle fill="#6B4FBB" cx="8.96" cy="51.28" r="8.96"/><circle fill="#FFF" cx="8.96" cy="51.28" r="4.48"/></g><g transform="scale(-1 1) rotate(15 -652.589 -29.309)"><path d="M4.48 3.455c0-1.237.908-1.82 1.989-1.205 0 0 6.971 2.344 6.971 12.406V44.56H4.48V3.455z" fill="#FFF"/><path d="M6.48 42.56h4.96V14.656c0-3.89-1.11-6.668-2.94-8.602A8.592 8.592 0 006.48 4.46v38.1zM8.557 1.041c.978.564 1.949 1.31 2.85 2.265 2.53 2.675 4.033 6.436 4.033 11.35V46.56H2.48V3.455C2.48.765 4.91-.797 7.288.42c.326.125.76.327 1.269.621z" fill="#E1DBF1"/><circle fill="#6B4FBB" cx="8.96" cy="31.12" r="2.24"/><circle fill="#6B4FBB" cx="8.96" cy="51.28" r="8.96"/><circle fill="#FFF" cx="8.96" cy="51.28" r="4.48"/></g><g transform="translate(15 15)"><rect stroke="#EEE" stroke-width="4" fill="#FFF" stroke-linecap="round" width="200" height="94" rx="10"/><g transform="translate(20 26)"><rect fill="#E1DBF1" width="22" height="6" rx="3"/><rect fill="#FC6D26" x="22" y="18" width="22" height="6" rx="3"/><rect fill="#FEF0E8" x="46" width="16" height="6" rx="3"/><rect fill="#EEE" y="18" width="16" height="6" rx="3"/><rect fill="#E1DBF1" y="36" width="16" height="6" rx="3"/><rect fill="#FEE1D3" x="22" y="36" width="16" height="6" rx="3"/><rect fill="#6B4FBB" x="28" width="12" height="6" rx="3"/><rect fill="#EEE" x="50" y="18" width="12" height="6" rx="3"/><rect fill="#FC6D26" x="68" width="12" height="6" rx="3"/></g></g><g transform="translate(123 116)"><rect stroke="#EEE" stroke-width="4" fill="#FFF" stroke-linecap="round" width="200" height="94" rx="10"/><g transform="translate(20 26)"><rect fill="#EEE" width="22" height="6" rx="3"/><rect fill="#FC6D26" x="22" y="18" width="22" height="6" rx="3"/><rect fill="#FDC4A8" x="46" width="16" height="6" rx="3"/><rect fill="#FDC4A8" y="36" width="16" height="6" rx="3"/><rect fill="#E1DBF1" y="18" width="16" height="6" rx="3"/><rect fill="#C3B8E3" x="68" y="18" width="16" height="6" rx="3"/><rect fill="#6B4FBB" x="28" width="12" height="6" rx="3"/><rect fill="#EEE" x="50" y="18" width="12" height="6" rx="3"/><rect fill="#EEE" x="22" y="36" width="12" height="6" rx="3"/><rect fill="#6B4FBB" x="40" y="36" width="12" height="6" rx="3"/></g></g><g fill="#6B4FBB"><path d="M308.878 45.353a10.63 10.63 0 01-.14-.48c-1.644-6.135 1.997-12.441 8.132-14.085 6.134-1.644 12.44 1.997 14.084 8.132.044.162.083.324.12.486l-3.87 1.036a7.5 7.5 0 10-14.457 3.874l-3.87 1.037h.001z"/><path d="M308.867 45.356l3.864-1.036 1.294 4.83-3.864 1.035-1.294-4.829zm18.353-4.918l3.864-1.035 1.294 4.83-3.864 1.035-1.294-4.83z"/></g><path d="M308.042 53.866l4.137 15.442a2.004 2.004 0 002.458 1.419l24.136-6.467a2.008 2.008 0 001.418-2.458l-4.137-15.442a2.004 2.004 0 00-2.458-1.419l-24.136 6.467a2.008 2.008 0 00-1.418 2.458zm-3.864 1.035a6.008 6.008 0 014.247-7.356l24.136-6.467a6.004 6.004 0 017.356 4.247l4.138 15.442a6.008 6.008 0 01-4.247 7.356l-24.136 6.468a6.004 6.004 0 01-7.356-4.248l-4.138-15.442z" fill="#E1DBF1"/><path d="M322.84 58.863a3.5 3.5 0 112.897-.777l.476 1.776c.214.8-.255 1.62-1.061 1.836a1.496 1.496 0 01-1.837-1.06l-.476-1.775h.001z" fill="#6B4FBB"/></g></svg>