<svg height="82" viewBox="0 0 78 82" width="78" xmlns="http://www.w3.org/2000/svg"><g fill="none"><path d="M2.12 42C3.647 61.032 19.575 76 39 76c.74 0 1.474-.022 2.203-.064a22.125 22.125 0 005.446 5.273A37.164 37.164 0 0139 82C18.565 82 2 65.435 2 45c0-1.01.04-2.01.12-3zm73.76 0a37.435 37.435 0 01-.073 6.803c-.281-.332-.57-.655-.87-.969.465-1.891.783-3.84.943-5.834z" fill="#f9f9f9"/><path d="M39 0c21.54 0 39 17.46 39 39a39.03 39.03 0 01-1.483 10.688 22.148 22.148 0 00-3.267-3.45A35.07 35.07 0 0074 39C74 19.67 58.33 4 39 4S4 19.67 4 39s15.67 35 35 35c.313 0 .625-.004.936-.012a22.09 22.09 0 002.807 3.835C41.51 77.94 40.263 78 39 78 17.46 78 0 60.54 0 39S17.46 0 39 0z" fill="#eee"/><path d="M48 20a8 8 0 018 8v13.203a21.862 21.862 0 00-4 .934V28c0-2.21-1.79-4-4-4H30c-2.21 0-4 1.79-4 4v22c0 2.21 1.79 4 4 4h8.92a21.834 21.834 0 00-1.35 4H30a8 8 0 01-8-8V28a8 8 0 018-8z" fill="#e1dbf2"/><path d="M45 44c.662 0 1.249.321 1.613.817A22.082 22.082 0 0042.906 48H33a2 2 0 110-4zm0-7a2 2 0 110 4H33a2 2 0 110-4zm-4-7a2 2 0 110 4h-8a2 2 0 110-4z" fill="#6b4fbb"/><path d="M59 82c-10.493 0-19-8.507-19-19s8.507-19 19-19 19 8.507 19 19-8.507 19-19 19zm0-4c8.284 0 15-6.716 15-15s-6.716-15-15-15-15 6.716-15 15 6.716 15 15 15z" fill="#f2b4a9"/><path d="M62.236 63.5l3.2-3.2a1.925 1.925 0 00-.007-2.729 1.924 1.924 0 00-2.729-.007l-3.2 3.2-3.2-3.2a1.925 1.925 0 00-2.729.007 1.924 1.924 0 00-.007 2.729l3.2 3.2-3.2 3.2a1.925 1.925 0 00.007 2.729c.761.76 1.978.76 2.729.007l3.2-3.2 3.2 3.2a1.925 1.925 0 002.729-.007c.76-.761.76-1.978.007-2.729z" fill="#e05842"/></g></svg>