<svg xmlns="http://www.w3.org/2000/svg" xmlns:xlink="http://www.w3.org/1999/xlink" width="282" height="181" viewBox="0 0 282 181"><defs><rect id="a" width="53" height="4" x="30" y="58" rx="2"/><rect id="c" width="53" height="4" x="28" y="56" rx="2"/><path id="b" d="M31 15c-8.837 0-16 7.163-16 16s7.163 16 16 16 16-7.163 16-16-7.163-16-16-16z"/><path id="d" d="M20 4C11.163 4 4 11.163 4 20s7.163 16 16 16 16-7.163 16-16S28.837 4 20 4z"/></defs><g fill="none" fill-rule="evenodd"><g transform="translate(71)"><rect width="136" height="177" x="2" y="2" fill="#FFF" stroke="#DFDFDF" stroke-width="4" rx="8"/><path fill="#DFDFDF" fill-rule="nonzero" d="M20 22.5a1 1 0 01.117 1.993L20 24.5h-4a1 1 0 01-.117-1.993L16 22.5h4zm0 33a1 1 0 01.117 1.993L20 57.5h-4a1 1 0 01-.117-1.993L16 55.5h4zm0-22a1 1 0 01.117 1.993L20 35.5h-4a1 1 0 01-.117-1.993L16 33.5h4zm0 33a1 1 0 01.117 1.993L20 68.5h-4a1 1 0 01-.117-1.993L16 66.5h4zm23.5-45a2 2 0 01.15 3.995l-.15.005h-12a2 2 0 01-.15-3.995l.15-.005h12zm-5 11a2 2 0 01.15 3.995l-.15.005h-7a2 2 0 01-.15-3.995l.15-.005h7zm0 33a2 2 0 01.15 3.995l-.15.005h-7a2 2 0 01-.15-3.995l.15-.005h7zm24-33a2 2 0 01.15 3.995l-.15.005h-16a2 2 0 01-.15-3.995l.15-.005h16zm0 33a2 2 0 01.15 3.995l-.15.005h-16a2 2 0 01-.15-3.995l.15-.005h16zm19 0a2 2 0 01.15 3.995l-.15.005h-11a2 2 0 01-.15-3.995l.15-.005h11zm-33-22a2 2 0 01.15 3.995l-.15.005h-17a2 2 0 01-.15-3.995l.15-.005h17zm19 0a2 2 0 01.15 3.995l-.15.005h-11a2 2 0 01-.15-3.995l.15-.005h11zm34-22a2 2 0 01.15 3.995l-.15.005h-12a2 2 0 01-.15-3.995l.15-.005h12zm0 33a2 2 0 01.15 3.995l-.15.005h-12a2 2 0 01-.15-3.995l.15-.005h12zm-58 0a2 2 0 01.15 3.995l-.15.005h-12a2 2 0 01-.15-3.995l.15-.005h12zm38-22a2 2 0 01.15 3.995l-.15.005h-11a2 2 0 01-.15-3.995l.15-.005h11zm-24-11a2 2 0 01.15 3.995l-.15.005h-6a2 2 0 01-.15-3.995l.15-.005h6zm24 33a2 2 0 01.15 3.995l-.15.005h-16a2 2 0 01-.15-3.995l.15-.005h16zM20 44.5a1 1 0 01.117 1.993L20 46.5h-4a1 1 0 01-.117-1.993L16 44.5h4zm37.5 10a2 2 0 01.15 3.995l-.15.005h-6a2 2 0 01-.15-3.995l.15-.005h6zm24-33a2 2 0 01.15 3.995l-.15.005h-16a2 2 0 01-.15-3.995l.15-.005h16zM20 77.5a1 1 0 01.117 1.993L20 79.5h-4a1 1 0 01-.117-1.993L16 77.5h4zm0 33a1 1 0 01.117 1.993L20 112.5h-4a1 1 0 01-.117-1.993L16 110.5h4zm0-22a1 1 0 01.117 1.993L20 90.5h-4a1 1 0 01-.117-1.993L16 88.5h4zm0 33a1 1 0 01.117 1.993L20 123.5h-4a1 1 0 01-.117-1.993L16 121.5h4zm23.5-45a2 2 0 01.15 3.995l-.15.005h-12a2 2 0 01-.15-3.995l.15-.005h12zm-5 11a2 2 0 01.15 3.995l-.15.005h-7a2 2 0 01-.15-3.995l.15-.005h7zm0 33a2 2 0 01.15 3.995l-.15.005h-7a2 2 0 01-.15-3.995l.15-.005h7zm24-33a2 2 0 01.15 3.995l-.15.005h-16a2 2 0 01-.15-3.995l.15-.005h16zm0 33a2 2 0 01.15 3.995l-.15.005h-16a2 2 0 01-.15-3.995l.15-.005h16zm19 0a2 2 0 01.15 3.995l-.15.005h-11a2 2 0 01-.15-3.995l.15-.005h11zm-33-22a2 2 0 01.15 3.995l-.15.005h-17a2 2 0 01-.15-3.995l.15-.005h17zm19 0a2 2 0 01.15 3.995l-.15.005h-11a2 2 0 01-.15-3.995l.15-.005h11zm34-22a2 2 0 01.15 3.995l-.15.005h-12a2 2 0 01-.15-3.995l.15-.005h12zm0 33a2 2 0 01.15 3.995l-.15.005h-12a2 2 0 01-.15-3.995l.15-.005h12zm-58 33a2 2 0 01.15 3.995l-.15.005h-12a2 2 0 01-.15-3.995l.15-.005h12zm-5 11a2 2 0 01.15 3.995l-.15.005h-7a2 2 0 01-.15-3.995l.15-.005h7zm24 0a2 2 0 01.15 3.995l-.15.005h-16a2 2 0 01-.15-3.995l.15-.005h16zm19 0a2 2 0 01.15 3.995l-.15.005h-11a2 2 0 01-.15-3.995l.15-.005h11zm-33 11a2 2 0 01.15 3.995l-.15.005h-17a2 2 0 01-.15-3.995l.15-.005h17zm19 0a2 2 0 01.15 3.995l-.15.005h-11a2 2 0 01-.15-3.995l.15-.005h11zm34-22a2 2 0 01.15 3.995l-.15.005h-12a2 2 0 01-.15-3.995l.15-.005h12zm-58-33a2 2 0 01.15 3.995l-.15.005h-12a2 2 0 01-.15-3.995l.15-.005h12zm38-22a2 2 0 01.15 3.995l-.15.005h-11a2 2 0 01-.15-3.995l.15-.005h11zm-33 44a2 2 0 01.15 3.995l-.15.005h-17a2 2 0 01-.15-3.995l.15-.005h17zm9-55a2 2 0 01.15 3.995l-.15.005h-6a2 2 0 01-.15-3.995l.15-.005h6zm24 33a2 2 0 01.15 3.995l-.15.005h-16a2 2 0 01-.15-3.995l.15-.005h16zm0 33a2 2 0 01.15 3.995l-.15.005h-16a2 2 0 01-.15-3.995l.15-.005h16zM20 99.5a1 1 0 01.117 1.993L20 101.5h-4a1 1 0 01-.117-1.993L16 99.5h4zm0 33a1 1 0 01.117 1.993L20 134.5h-4a1 1 0 01-.117-1.993L16 132.5h4zm47.5-1a2 2 0 01.15 3.995l-.15.005h-11a2 2 0 01-.15-3.995l.15-.005h11zm-10-22a2 2 0 01.15 3.995l-.15.005h-6a2 2 0 01-.15-3.995l.15-.005h6zm24-33a2 2 0 01.15 3.995l-.15.005h-16a2 2 0 01-.15-3.995l.15-.005h16zm-24 66a2 2 0 01.15 3.995l-.15.005h-6a2 2 0 01-.15-3.995l.15-.005h6zm-37.5 1a1 1 0 01.117 1.993L20 145.5h-4a1 1 0 01-.117-1.993L16 143.5h4zm0 11a1 1 0 01.117 1.993L20 156.5h-4a1 1 0 01-.117-1.993L16 154.5h4zm0 11a1 1 0 01.117 1.993L20 167.5h-4a1 1 0 01-.117-1.993L16 165.5h4z"/></g><g transform="translate(169 57)"><use fill="#6E49CB" xlink:href="#a"/><use fill="#FFF" fill-opacity=".6" xlink:href="#a"/></g><path fill="#C2B7E6" fill-rule="nonzero" d="M251 57c17.12 0 31 13.88 31 31 0 17.12-13.88 31-31 31a2 2 0 110-4c14.912 0 27-12.088 27-27s-12.088-27-27-27-27 12.088-27 27a26.89 26.89 0 007.104 18.253 2 2 0 11-2.947 2.704A30.89 30.89 0 01220 88c0-17.12 13.88-31 31-31z"/><path fill="#6E49CB" fill-rule="nonzero" d="M251 68c11.046 0 20 8.954 20 20s-8.954 20-20 20-20-8.954-20-20 8.954-20 20-20z"/><g transform="translate(220 57)"><use fill="#6E49CB" xlink:href="#b"/><use fill="#FFF" fill-opacity=".9" xlink:href="#b"/></g><path fill="#6E49CB" fill-rule="nonzero" d="M260.982 81.82a2 2 0 01.007 2.828l-11.83 11.896-6.237-6.215a2 2 0 112.823-2.833l3.4 3.388 9.008-9.056a2 2 0 012.829-.008z"/><g><g transform="rotate(180 55.5 58.5)"><use fill="#6E49CB" xlink:href="#c"/><use fill="#FFF" fill-opacity=".6" xlink:href="#c"/></g><path fill="#C2B7E6" fill-rule="nonzero" d="M31 119c-17.12 0-31-13.88-31-31 0-17.12 13.88-31 31-31a2 2 0 110 4C16.088 61 4 73.088 4 88s12.088 27 27 27 27-12.088 27-27a26.89 26.89 0 00-7.104-18.253 2 2 0 012.947-2.704A30.89 30.89 0 0162 88c0 17.12-13.88 31-31 31z"/><g transform="matrix(1 0 0 -1 11 108)"><path fill="#FC6D26" fill-rule="nonzero" d="M20 40c11.046 0 20-8.954 20-20S31.046 0 20 0 0 8.954 0 20s8.954 20 20 20z"/><g transform="matrix(1 0 0 -1 0 40)"><use fill="#FC6D26" xlink:href="#d"/><use fill="#FFF" fill-opacity=".9" xlink:href="#d"/></g><path fill="#FC6D26" fill-rule="nonzero" d="M11.77 36.115A18.985 18.985 0 0128 27c2.54 0 5.007.498 7.298 1.452l.456.197.817-1.826A20.928 20.928 0 0028 25a20.982 20.982 0 00-17.727 9.736l-.21.336 1.708 1.043z"/><path fill="#FC6D26" fill-rule="nonzero" d="M13.163 31.838l1.806-.86a21.064 21.064 0 00-12-10.793l-.406-.139-.624 1.9a19.06 19.06 0 0111.04 9.516l.184.376z"/><circle cx="26" cy="17" r="2" fill="#FC6D26" transform="matrix(1 0 0 -1 0 34)"/><circle cx="14" cy="17" r="2" fill="#FC6D26" transform="matrix(1 0 0 -1 0 34)"/></g></g><g transform="translate(89 43)"><rect width="100" height="89" x="2" y="2" fill="#FCF0EA" stroke="#FC6D26" stroke-width="4" rx="4"/><rect width="74" height="10" x="15" y="30" fill="#FFF" stroke="#FC6D26" stroke-width="2" rx="4"/><rect width="74" height="10" x="15" y="46" fill="#FFF" stroke="#FC6D26" stroke-width="2" rx="4"/><rect width="38" height="12" x="52" y="67" fill="#6E49CB" rx="4"/><path stroke="#FC6D26" stroke-linecap="round" stroke-width="4" d="M16 16.5h35"/></g></g></svg>