<svg xmlns="http://www.w3.org/2000/svg" xmlns:xlink="http://www.w3.org/1999/xlink" width="261" height="124"><defs><filter id="a" width="103.1%" height="106.7%" x="-2.3%" y="-1.7%" filterUnits="objectBoundingBox"><feOffset dx="-4" dy="4" in="SourceAlpha" result="shadowOffsetOuter1"/><feComposite in="shadowOffsetOuter1" in2="SourceAlpha" operator="out" result="shadowOffsetOuter1"/><feColorMatrix in="shadowOffsetOuter1" values="0 0 0 0 0.976470588 0 0 0 0 0.976470588 0 0 0 0 0.976470588 0 0 0 1 0"/></filter><rect id="b" width="257" height="120" rx="9"/></defs><g fill="none" fill-rule="evenodd" transform="translate(4)"><use fill="#000" filter="url(#a)" xlink:href="#b"/><rect width="253.4" height="116.4" x="1.8" y="1.8" fill="#FFF" stroke="#EEE" stroke-linejoin="square" stroke-width="3.6" rx="9"/><g transform="translate(24 16)"><rect width="106" height="4" x="103" y="8" fill="#E4DCF5" rx="1.8"/><rect width="90" height="4" x="103" y="31" fill="#E4DCF5" rx="1.8"/><rect width="98" height="4" x="103" y="53" fill="#E4DCF5" rx="1.8"/><rect width="98" height="4" x="103" y="76" fill="#E4DCF5" rx="1.8"/><rect width="44" height="4" y="8" fill="#F0EDF9" rx="1.8"/><rect width="56" height="4" y="31" fill="#C6B7E7" rx="1.8"/><rect width="40" height="4" y="54" fill="#F0EDF9" rx="1.8"/><rect width="48" height="4" y="77" fill="#F0EDF9" rx="1.8"/><text fill="#707070" font-family="HelveticaNeue-Bold, Helvetica Neue" font-size="14.4" font-weight="bold"><tspan x="69" y="14">1 </tspan> <tspan x="81.01" y="14" font-size="9">d</tspan></text><text fill="#2E2E2E" font-family="HelveticaNeue-Bold, Helvetica Neue" font-size="14.4" font-weight="bold"><tspan x="69" y="38">2 </tspan> <tspan x="81.01" y="38" font-size="9">d</tspan></text><text fill="#707070" font-family="HelveticaNeue-Bold, Helvetica Neue" font-size="14.4" font-weight="bold"><tspan x="69" y="61">1 </tspan> <tspan x="81.01" y="61" font-size="9">d</tspan></text><text fill="#707070" font-family="HelveticaNeue-Bold, Helvetica Neue" font-size="14.4" font-weight="bold"><tspan x="69" y="85">3 </tspan> <tspan x="81.01" y="85" font-size="9">h</tspan></text></g></g></svg>