<svg xmlns="http://www.w3.org/2000/svg" xmlns:xlink="http://www.w3.org/1999/xlink" width="325" height="240"><defs><filter id="a" width="103.1%" height="106.7%" x="-2.3%" y="-1.7%" filterUnits="objectBoundingBox"><feOffset dx="-4" dy="4" in="SourceAlpha" result="shadowOffsetOuter1"/><feComposite in="shadowOffsetOuter1" in2="SourceAlpha" operator="out" result="shadowOffsetOuter1"/><feColorMatrix in="shadowOffsetOuter1" values="0 0 0 0 0.976470588 0 0 0 0 0.976470588 0 0 0 0 0.976470588 0 0 0 1 0"/></filter><filter id="c" width="106.8%" height="108.1%" x="-5.1%" y="-2%" filterUnits="objectBoundingBox"><feOffset dx="-4" dy="4" in="SourceAlpha" result="shadowOffsetOuter1"/><feComposite in="shadowOffsetOuter1" in2="SourceAlpha" operator="out" result="shadowOffsetOuter1"/><feColorMatrix in="shadowOffsetOuter1" values="0 0 0 0 0.976470588 0 0 0 0 0.976470588 0 0 0 0 0.976470588 0 0 0 1 0"/></filter><filter id="f" width="106.8%" height="108.1%" x="-5.1%" y="-2%" filterUnits="objectBoundingBox"><feOffset dx="-4" dy="4" in="SourceAlpha" result="shadowOffsetOuter1"/><feComposite in="shadowOffsetOuter1" in2="SourceAlpha" operator="out" result="shadowOffsetOuter1"/><feColorMatrix in="shadowOffsetOuter1" values="0 0 0 0 0.976470588 0 0 0 0 0.976470588 0 0 0 0 0.976470588 0 0 0 1 0"/></filter><rect id="b" width="257" height="120" rx="9"/><rect id="d" width="118" height="99" rx="9"/><rect id="g" width="118" height="99" rx="9"/><path id="e" d="M2.8 18.875h28.667L45.8 36.5h43"/></defs><g fill="none" fill-rule="evenodd"><path fill="#FFF" stroke="#EEE" stroke-dasharray="7.2 8.1" stroke-linecap="round" stroke-linejoin="round" stroke-width="3.6" d="M15.5 29h294c7.456 0 13.5 6.044 13.5 13.5v155c0 7.456-6.044 13.5-13.5 13.5h-294C8.044 211 2 204.956 2 197.5v-155C2 35.044 8.044 29 15.5 29z"/><g transform="translate(34)"><use fill="#000" filter="url(#a)" xlink:href="#b"/><rect width="253.4" height="116.4" x="1.8" y="1.8" fill="#FFF" stroke="#EEE" stroke-linejoin="square" stroke-width="3.6" rx="9"/><g transform="translate(24 16)"><rect width="106" height="4" x="103" y="8" fill="#E4DCF5" rx="1.8"/><rect width="90" height="4" x="103" y="31" fill="#E4DCF5" rx="1.8"/><rect width="98" height="4" x="103" y="53" fill="#E4DCF5" rx="1.8"/><rect width="98" height="4" x="103" y="76" fill="#E4DCF5" rx="1.8"/><rect width="44" height="4" y="8" fill="#F0EDF9" rx="1.8"/><rect width="56" height="4" y="31" fill="#C6B7E7" rx="1.8"/><rect width="40" height="4" y="54" fill="#F0EDF9" rx="1.8"/><rect width="48" height="4" y="77" fill="#F0EDF9" rx="1.8"/><text fill="#707070" font-family="HelveticaNeue-Bold, Helvetica Neue" font-size="14.4" font-weight="bold"><tspan x="69" y="14">1 </tspan> <tspan x="81.01" y="14" font-size="9">d</tspan></text><text fill="#2E2E2E" font-family="HelveticaNeue-Bold, Helvetica Neue" font-size="14.4" font-weight="bold"><tspan x="69" y="38">2 </tspan> <tspan x="81.01" y="38" font-size="9">d</tspan></text><text fill="#707070" font-family="HelveticaNeue-Bold, Helvetica Neue" font-size="14.4" font-weight="bold"><tspan x="69" y="61">1 </tspan> <tspan x="81.01" y="61" font-size="9">d</tspan></text><text fill="#707070" font-family="HelveticaNeue-Bold, Helvetica Neue" font-size="14.4" font-weight="bold"><tspan x="69" y="85">3 </tspan> <tspan x="81.01" y="85" font-size="9">h</tspan></text></g></g><g transform="translate(34 137)"><use fill="#000" filter="url(#c)" xlink:href="#d"/><rect width="114.4" height="95.4" x="1.8" y="1.8" fill="#FFF" stroke="#EEE" stroke-linejoin="square" stroke-width="3.6" rx="9"/><g transform="translate(13 22)"><g stroke="#C6B7E7"><use xlink:href="#e"/><use stroke-opacity=".1" stroke-width="12" xlink:href="#e"/></g><circle cx="3" cy="19" r="3" fill="#C6B7E7"/><circle cx="16.8" cy="3.5" r="3" fill="#E4DCF5"/><circle cx="31.8" cy="3.5" r="3" fill="#C6B7E7"/><circle cx="46" cy="51.5" r="3" fill="#E4DCF5"/><circle cx="60" cy="37" r="3" fill="#C6B7E7"/><circle cx="74.8" cy="51.5" r="3" fill="#E4DCF5"/><circle cx="89" cy="37" r="3" fill="#C6B7E7"/></g></g><g transform="translate(173 137)"><use fill="#000" filter="url(#f)" xlink:href="#g"/><rect width="114.4" height="95.4" x="1.8" y="1.8" fill="#FFF" stroke="#EEE" stroke-linejoin="square" stroke-width="3.6" rx="9"/><path fill="#C6B7E7" d="M15 29.46l17.2-5.674 16.946 3.683 17.02-8.757 17.401 2.432L101 16.045V83.6H15z"/><path fill="#F0EDF9" d="M15 50.46l17.2-9.674 16.946-1.317 17.02-1.757 17.401 8.432L101 44.045V83.6H15z"/><path fill="#E4DCF5" d="M15 67.46l17.2-10.674 16.946 6.683 17.02-3.757 17.401 4.432L101 73.045V83.6H15z"/></g></g></svg>