<svg height="179" viewBox="0 0 315 179" width="315" xmlns="http://www.w3.org/2000/svg"><g fill="none" fill-rule="evenodd"><g fill="#f9f9f9" transform="translate(9 119)"><rect height="22" rx="11" width="158" x="22" y="22"/><path d="M80.503 0C74.425 0 69.5 4.925 69.5 11c0 6.076 4.925 11 11.002 11H36.499c6.078 0 11.002-4.925 11.002-11l-.004-.288C47.344 4.768 42.48 0 36.5 0z"/></g><g transform="translate(25)"><rect fill="#fff" height="175" rx="10" stroke="#eee" stroke-width="4" width="274" x="2" y="2"/><path d="M4 29h271v4H4z" fill="#eee"/><rect fill="#b5a7dd" height="2" rx="1" width="6" x="34" y="61"/><rect fill="#eee" height="4" rx="2" width="15" x="49" y="60"/><rect fill="#eee" height="4" rx="2" width="15" x="106" y="60"/><rect fill="#eee" height="4" rx="2" width="15" x="73" y="82"/><rect fill="#fc6d26" height="4" rx="2" width="15" x="87" y="71"/><rect fill="#fc6d26" height="4" opacity=".5" rx="2" width="20" x="82" y="60"/><rect fill="#eee" height="4" rx="2" width="20" x="49" y="82"/><rect fill="#eee" height="4" rx="2" width="20" x="63" y="71"/><rect fill="#fc6d26" height="4" rx="2" width="10" x="68" y="60"/><rect fill="#eee" height="4" rx="2" width="10" x="49" y="71"/><rect fill="#b5a7dd" height="2" rx="1" width="6" x="34" y="72"/><rect fill="#b5a7dd" height="2" rx="1" width="6" x="34" y="83"/><rect fill="#b5a7dd" height="2" rx="1" width="6" x="34" y="94"/><rect fill="#fc6d26" height="4" rx="2" width="15" x="49" y="93"/><rect fill="#eee" height="4" rx="2" width="15" x="106" y="93"/><rect fill="#fc6d26" height="4" opacity=".5" rx="2" width="15" x="73" y="115"/><rect fill="#eee" height="4" rx="2" width="15" x="87" y="104"/><rect fill="#fc6d26" height="4" rx="2" width="20" x="82" y="93"/><rect fill="#fc6d26" height="4" rx="2" width="20" x="49" y="115"/><rect fill="#eee" height="4" rx="2" width="20" x="63" y="104"/><rect fill="#fc6d26" height="4" opacity=".5" rx="2" width="10" x="68" y="93"/><rect fill="#eee" height="4" rx="2" width="10" x="49" y="104"/><rect fill="#b5a7dd" height="2" rx="1" width="6" x="34" y="105"/><rect fill="#b5a7dd" height="2" rx="1" width="6" x="34" y="116"/><rect fill="#b5a7dd" height="2" rx="1" width="6" x="34" y="127"/><rect fill="#eee" height="4" rx="2" width="15" x="49" y="126"/><rect fill="#eee" height="4" rx="2" width="15" x="106" y="126"/><rect fill="#eee" height="4" rx="2" width="15" x="73" y="148"/><rect fill="#eee" height="4" rx="2" width="15" x="87" y="137"/><rect fill="#fc6d26" height="4" rx="2" width="20" x="82" y="126"/><rect fill="#eee" height="4" rx="2" width="20" x="49" y="148"/><rect fill="#eee" height="4" rx="2" width="20" x="63" y="137"/><rect fill="#fc6d26" height="4" opacity=".5" rx="2" width="10" x="68" y="126"/><rect fill="#eee" height="4" rx="2" width="10" x="49" y="137"/><rect fill="#b5a7dd" height="2" rx="1" width="6" x="34" y="138"/><rect fill="#b5a7dd" height="2" rx="1" width="6" x="34" y="149"/><rect fill="#fde5d8" height="2" rx="1" width="6" x="157" y="60"/><rect fill="#eee" height="4" rx="2" width="15" x="172" y="59"/><rect fill="#eee" height="4" rx="2" width="15" x="229" y="59"/><rect fill="#6b4fbb" height="4" opacity=".5" rx="2" width="15" x="196" y="81"/><rect fill="#6b4fbb" height="4" rx="2" width="15" x="210" y="70"/><rect fill="#6b4fbb" height="4" opacity=".5" rx="2" width="20" x="205" y="59"/><rect fill="#6b4fbb" height="4" rx="2" width="20" x="172" y="81"/><rect fill="#eee" height="4" rx="2" width="20" x="186" y="70"/><rect fill="#6b4fbb" height="4" rx="2" width="10" x="191" y="59"/><rect fill="#eee" height="4" rx="2" width="10" x="172" y="70"/><rect fill="#fde5d8" height="2" rx="1" width="6" x="157" y="71"/><rect fill="#fde5d8" height="2" rx="1" width="6" x="157" y="82"/><rect fill="#fde5d8" height="2" rx="1" width="6" x="157" y="93"/><rect fill="#eee" height="4" rx="2" width="15" x="172" y="92"/><rect fill="#eee" height="4" rx="2" width="15" x="215" y="81"/><rect fill="#6b4fbb" height="4" opacity=".5" rx="2" width="15" x="196" y="114"/><rect fill="#6b4fbb" height="4" rx="2" width="15" x="186" y="103"/><rect fill="#6b4fbb" height="4" rx="2" width="20" x="205" y="92"/><g fill="#eee"><rect height="4" rx="2" width="20" x="172" y="114"/><rect height="4" rx="2" width="10" x="191" y="92"/><rect height="4" rx="2" width="10" x="172" y="103"/><rect height="4" rx="2" width="10" x="205" y="103"/><rect height="4" rx="2" width="10" x="219" y="103"/><rect height="4" rx="2" width="10" x="234" y="81"/></g><rect fill="#fde5d8" height="2" rx="1" width="6" x="157" y="104"/><rect fill="#fde5d8" height="2" rx="1" width="6" x="157" y="115"/><rect fill="#fde5d8" height="2" rx="1" width="6" x="157" y="126"/><rect fill="#6b4fbb" height="4" rx="2" width="15" x="172" y="125"/><rect fill="#eee" height="4" rx="2" width="15" x="196" y="147"/><rect fill="#6b4fbb" height="4" opacity=".5" rx="2" width="15" x="210" y="136"/><rect fill="#eee" height="4" rx="2" width="20" x="172" y="147"/><rect fill="#6b4fbb" height="4" rx="2" width="20" x="186" y="136"/><rect fill="#eee" height="4" rx="2" width="10" x="191" y="125"/><rect fill="#eee" height="4" rx="2" width="10" x="229" y="136"/><rect fill="#eee" height="4" rx="2" width="10" x="172" y="136"/><rect fill="#fde5d8" height="2" rx="1" width="6" x="157" y="137"/><rect fill="#fde5d8" height="2" rx="1" width="6" x="157" y="148"/></g><g fill-rule="nonzero"><path d="M27.934 50.777l17.238 28.569c2.3 3.81-.463 8.654-4.934 8.654H5.762c-4.47 0-7.233-4.845-4.934-8.654l17.237-28.569c2.235-3.703 7.635-3.703 9.87 0z" fill="#6b4fbb"/><path d="M23 53.716L5.762 82.284h34.476z" fill="#fff"/><path d="M23 75.14a2.867 2.867 0 012.877 2.857A2.867 2.867 0 0123 80.855a2.867 2.867 0 01-2.877-2.858A2.867 2.867 0 0123 75.14zm0-14.29c1.972 0 3.37 1.848 2.902 3.69l-.102.324L23 75.14l-2.8-10.276c-.733-1.942.712-4.014 2.8-4.014z" fill="#6b4fbb"/><g><path d="M300.076 113.291l14.24 23.57c1.9 3.142-.383 7.139-4.076 7.139h-28.48c-3.693 0-5.975-3.997-4.076-7.14l14.24-23.569c1.845-3.055 6.307-3.055 8.152 0z" fill="#fc6d26"/><path d="M296 115l-14 24h28z" fill="#fff"/><path d="M295.5 133a2.5 2.5 0 110 5 2.5 2.5 0 010-5zm0-12a2.496 2.496 0 012.424 3.098l-.085.273L295.5 133l-2.339-8.63c-.612-1.63.595-3.37 2.339-3.37z" fill="#fc6d26"/></g></g></g></svg>