<svg xmlns="http://www.w3.org/2000/svg" width="120" height="110" viewBox="70 0 50 179"><g fill="none" fill-rule="evenodd"><path fill="#FFF" fill-rule="nonzero" d="M117.486 43.962l49.24 8.683c5.44.959 9.071 6.145 8.112 11.584l-10.419 59.089c-.959 5.439-6.146 9.07-11.585 8.111l-49.24-8.682c-5.439-.96-9.07-6.146-8.112-11.585l10.42-59.088c.958-5.44 6.145-9.07 11.584-8.112z"/><path fill="#EEE" fill-rule="nonzero" d="M116.791 47.901a6 6 0 00-6.95 4.867l-10.42 59.089a6 6 0 004.868 6.95l49.24 8.683a6 6 0 006.95-4.867l10.42-59.088a6 6 0 00-4.867-6.951l-49.24-8.683zm.695-3.939l49.24 8.683c5.44.959 9.071 6.145 8.112 11.584l-10.419 59.089c-.959 5.439-6.146 9.07-11.585 8.111l-49.24-8.682c-5.439-.96-9.07-6.146-8.112-11.585l10.42-59.088c.958-5.44 6.145-9.07 11.584-8.112z"/><rect width="70" height="80" x="80" y="34" fill="#000" fill-opacity=".03" transform="rotate(5 115 74)" rx="10"/><path fill="#000" fill-opacity=".03" fill-rule="nonzero" d="M126.028 178H150c19.972-.543 36-16.9 36-37 0-20.435-16.565-37-37-37-.993 0-1.977.04-2.95.116C141.1 89.51 127.277 79 111 79a36.865 36.865 0 00-15.32 3.31C89.03 72.47 77.77 66 65 66c-20.435 0-37 16.565-37 37 0 .7.02 1.397.058 2.088C11.944 109.088 0 123.648 0 141c0 20.435 16.565 37 37 37 .324 0 .646-.004.968-.012l88.06.012z"/><g transform="rotate(5 -300.07 1010.998)"><rect width="70" height="80" fill="#FFF" rx="10"/><path fill="#EEE" fill-rule="nonzero" d="M10 4a6 6 0 00-6 6v60a6 6 0 006 6h50a6 6 0 006-6V10a6 6 0 00-6-6H10zm0-4h50c5.523 0 10 4.477 10 10v60c0 5.523-4.477 10-10 10H10C4.477 80 0 75.523 0 70V10C0 4.477 4.477 0 10 0z"/><rect width="8" height="4" x="14" y="18" fill="#FC6D26" rx="2"/><rect width="8" height="4" x="32" y="38" fill="#E1DBF1" rx="2"/><rect width="8" height="4" x="45" y="48" fill="#FEE1D3" rx="2"/><rect width="8" height="4" x="44" y="38" fill="#FEF0E8" rx="2"/><rect width="12" height="4" x="26" y="18" fill="#EFEDF8" rx="2"/><rect width="6" height="4" x="15" y="48" fill="#FEF0E8" rx="2"/><rect width="6" height="4" x="25" y="48" fill="#FC6D26" rx="2"/><rect width="6" height="4" x="35" y="48" fill="#EEE" rx="2"/><rect width="12" height="4" x="14" y="28" fill="#EEE" rx="2"/><rect width="12" height="4" x="44" y="58" fill="#6B4FBB" rx="2"/><rect width="26" height="4" x="30" y="28" fill="#C3B8E3" rx="2"/><rect width="26" height="4" x="15" y="58" fill="#FEE1D3" rx="2"/><rect width="14" height="4" x="42" y="18" fill="#E1DBF1" rx="2"/><rect width="14" height="4" x="14" y="38" fill="#6B4FBB" rx="2"/></g><path fill="#FFF" fill-rule="nonzero" d="M129.028 179H153c19.972-.543 36-16.9 36-37 0-20.435-16.565-37-37-37-.993 0-1.977.04-2.95.116C144.1 90.51 130.277 80 114 80a36.865 36.865 0 00-15.32 3.31C92.03 73.47 80.77 67 68 67c-20.435 0-37 16.565-37 37 0 .7.02 1.397.058 2.088C14.944 110.088 3 124.648 3 142c0 20.435 16.565 37 37 37 .324 0 .646-.004.968-.012l88.06.012z"/><path fill="#FFF" d="M129.028 177h23.918c18.93-.514 34.054-16.024 34.054-35 0-19.33-15.67-35-35-35-.936 0-1.867.037-2.793.11l-1.551.122-.5-1.474C142.381 91.67 129.116 82 114 82a34.863 34.863 0 00-14.491 3.131l-1.54.701-.947-1.401C90.552 74.855 79.774 69 68 69c-19.33 0-35 15.67-35 35 0 .661.018 1.32.055 1.977l.092 1.653-1.607.399C16.06 111.87 5 125.827 5 142c0 19.33 15.67 35 35 35 .306 0 .612-.004.968-.012l88.06.012z"/><path fill="#EEE" fill-rule="nonzero" d="M152 105c20.435 0 37 16.565 37 37 0 20.048-15.975 36.456-36.054 37h-23.918l-88.015-.013c-.378.009-.697.013-1.013.013-20.435 0-37-16.565-37-37 0-17.023 11.619-31.833 28.058-35.912A37.174 37.174 0 0131 104c0-20.435 16.565-37 37-37 12.356 0 23.79 6.116 30.679 16.311A36.867 36.867 0 01114 80c15.893 0 29.974 10.14 35.05 25.116A37.839 37.839 0 01152 105zm.892 70C170.75 174.517 185 159.88 185 142c0-18.225-14.775-33-33-33-.88 0-1.759.035-2.636.104l-1.551.122a2 2 0 01-2.051-1.352l-.5-1.474C140.735 93.044 128.175 84 113.997 84c-4.712-.007-9.37 1-13.66 2.951l-1.54.701a2 2 0 01-2.485-.7l-.947-1.401C89.218 76.452 79.023 71 68 71c-18.225 0-33 14.775-33 33 0 .628.017 1.25.052 1.866l.092 1.653a2 2 0 01-1.515 2.052l-1.607.4C17.364 113.606 7 126.817 7 142c0 18.225 14.775 33 33 33 .284 0 .573-.004.968-.012l88.06.012h23.864z"/><g fill-rule="nonzero"><path fill="#FFF" d="M70.264 104.387a19.979 19.979 0 016.387-1.716l.455-1.7a5.504 5.504 0 016.73-3.89l2.91.78a5.495 5.495 0 013.883 6.734l-.455 1.7a19.947 19.947 0 014.673 4.679l1.704-.457a5.504 5.504 0 016.735 3.883l.78 2.91a5.495 5.495 0 01-3.891 6.73l-1.701.456a20.134 20.134 0 01-.594 3.265 20.134 20.134 0 01-1.118 3.124l1.245 1.244a5.504 5.504 0 01.005 7.775l-2.131 2.13a5.495 5.495 0 01-7.774-.004l-1.247-1.248a19.979 19.979 0 01-6.387 1.716l-.455 1.7a5.504 5.504 0 01-6.73 3.89l-2.911-.78a5.495 5.495 0 01-3.882-6.734l.455-1.7a19.979 19.979 0 01-4.673-4.679l-1.704.457a5.504 5.504 0 01-6.735-3.883l-.78-2.91a5.495 5.495 0 013.891-6.73l1.701-.456c.108-1.103.306-2.195.593-3.265.292-1.088.668-2.13 1.12-3.124l-1.246-1.245a5.504 5.504 0 01-.005-7.774l2.13-2.13a5.495 5.495 0 017.774.004l1.248 1.248z"/><path fill="#E1DBF1" d="M76.65 102.67l.457-1.7a5.505 5.505 0 016.729-3.89l2.91.78a5.495 5.495 0 013.883 6.735l-.455 1.698a19.979 19.979 0 014.674 4.68l1.705-.456a5.505 5.505 0 016.733 3.883l.78 2.912a5.495 5.495 0 01-3.891 6.728l-1.701.456a20.108 20.108 0 01-.594 3.265 20.119 20.119 0 01-1.118 3.124l1.246 1.247a5.505 5.505 0 01.004 7.772l-2.132 2.131a5.495 5.495 0 01-7.772-.005l-1.249-1.248a19.979 19.979 0 01-6.386 1.716l-.456 1.702a5.505 5.505 0 01-6.729 3.889l-2.911-.78a5.495 5.495 0 01-3.882-6.735l.455-1.698a19.979 19.979 0 01-4.674-4.68l-1.705.456a5.505 5.505 0 01-6.733-3.883l-.78-2.912a5.495 5.495 0 013.891-6.728l1.701-.456c.107-1.097.305-2.188.593-3.264.286-1.07.66-2.115 1.12-3.125l-1.247-1.247a5.505 5.505 0 01-.004-7.772l2.132-2.132a5.495 5.495 0 017.772.006l1.248 1.247a20.09 20.09 0 016.387-1.715zm-5.986 5.932a2 2 0 01-2.246-.405l-2.232-2.231a1.495 1.495 0 00-2.115-.003l-2.126 2.126a1.504 1.504 0 000 2.121l2.226 2.226a2 2 0 01.406 2.243l-.573 1.26a16.14 16.14 0 00-.897 2.504c-.232.865-.39 1.739-.475 2.616l-.134 1.38a2 2 0 01-1.473 1.739l-3.043.816a1.495 1.495 0 00-1.06 1.829l.778 2.905c.217.8 1.04 1.273 1.838 1.06l3.044-.816a2 2 0 012.147.773l.805 1.13a15.975 15.975 0 003.737 3.743l1.13.805a2 2 0 01.772 2.147l-.815 3.04a1.495 1.495 0 001.054 1.835l2.906.778c.8.212 1.621-.263 1.836-1.06l.814-3.04a2 2 0 011.74-1.474l1.381-.132a15.98 15.98 0 005.11-1.374l1.262-.576a2 2 0 012.245.405l2.232 2.231a1.495 1.495 0 002.115.003l2.126-2.126a1.504 1.504 0 000-2.121l-2.226-2.226a2 2 0 01-.406-2.243l.573-1.26c.366-.805.665-1.64.897-2.504.232-.865.39-1.739.475-2.616l.134-1.38a2 2 0 011.473-1.739l3.043-.816a1.495 1.495 0 001.06-1.829l-.778-2.905a1.504 1.504 0 00-1.838-1.06l-3.045.816a2 2 0 01-2.147-.773l-.804-1.13a15.973 15.973 0 00-3.736-3.742l-1.13-.804a2 2 0 01-.773-2.148l.815-3.04a1.495 1.495 0 00-1.054-1.836l-2.906-.778a1.504 1.504 0 00-1.836 1.06l-.815 3.04a2 2 0 01-1.74 1.473l-1.38.133c-1.768.171-3.494.635-5.109 1.374l-1.262.576z"/><g transform="rotate(30 -174.226 196.876)"><circle cx="8" cy="8" r="8" fill="#FFF" transform="translate(.035 6.008)"/><path fill="#6B4FBB" d="M7.402 14.768a8 8 0 110-16 8 8 0 010 16zm0-4a4 4 0 100-8 4 4 0 000 8z"/></g></g><g fill-rule="nonzero"><path fill="#FFF" d="M112.83 130.788a15.947 15.947 0 015.116-1.397l.368-1.373c.635-2.37 3.059-3.78 5.395-3.154l2.329.624a4.375 4.375 0 012.666 2.063 4.46 4.46 0 01.429 3.366l-.368 1.373a15.922 15.922 0 013.732 3.768l1.365-.372a4.38 4.38 0 015.384 3.12l.619 2.349a4.476 4.476 0 01-.45 3.368 4.433 4.433 0 01-2.678 2.071l-1.363.372a16.415 16.415 0 01-1.383 5.16l.995 1.002c1.712 1.729 1.708 4.536-.011 6.275l-1.71 1.724a4.402 4.402 0 01-3.116 1.306 4.36 4.36 0 01-3.107-1.295l-.996-1.004a15.947 15.947 0 01-5.116 1.397l-.368 1.373c-.635 2.37-3.059 3.78-5.395 3.153l-2.329-.624a4.375 4.375 0 01-2.666-2.062 4.46 4.46 0 01-.429-3.366l.368-1.373a15.947 15.947 0 01-3.732-3.768l-1.365.372a4.38 4.38 0 01-5.383-3.12l-.62-2.35a4.476 4.476 0 01.45-3.367 4.433 4.433 0 012.679-2.071l1.362-.372a16.417 16.417 0 011.383-5.16l-.995-1.002c-1.712-1.73-1.707-4.536.011-6.275l1.71-1.725a4.402 4.402 0 013.116-1.305 4.36 4.36 0 013.107 1.295l.997 1.004z"/><path fill="#FEE1D3" d="M117.627 129.036l.302-1.124c.69-2.564 3.312-4.098 5.88-3.42l2.328.625c2.564.687 4.071 3.332 3.382 5.903l-.3 1.121a16.35 16.35 0 013.44 3.47l1.09-.297a4.79 4.79 0 015.883 3.404l.62 2.35a4.847 4.847 0 01-.488 3.648 4.818 4.818 0 01-2.912 2.25l-1.108.301a16.789 16.789 0 01-1.282 4.782l.81.817c1.86 1.88 1.856 4.917-.006 6.807l-1.711 1.725a4.8 4.8 0 01-3.399 1.42 4.77 4.77 0 01-3.399-1.415l-.796-.803a16.35 16.35 0 01-4.712 1.285l-.301 1.124c-.69 2.565-3.313 4.099-5.88 3.42l-2.33-.624c-2.563-.687-4.07-3.332-3.38-5.904l.3-1.12a16.35 16.35 0 01-3.44-3.47l-1.09.297a4.79 4.79 0 01-5.884-3.405l-.62-2.35a4.847 4.847 0 01.488-3.648 4.818 4.818 0 012.912-2.249l1.108-.302a16.785 16.785 0 011.282-4.781l-.81-.817c-1.86-1.88-1.856-4.917.007-6.807l1.71-1.725a4.8 4.8 0 013.4-1.42 4.77 4.77 0 013.398 1.415l.796.802a16.35 16.35 0 014.712-1.285zm-4.307 5.502a2 2 0 01-2.26-.407l-1.783-1.797a.773.773 0 00-.551-.23.8.8 0 00-.565.238l-1.706 1.72a.845.845 0 00-.01 1.178l1.778 1.793a2 2 0 01.401 2.234l-.461 1.018a12.79 12.79 0 00-1.077 4.02l-.11 1.113a2 2 0 01-1.465 1.734l-2.438.664a.82.82 0 00-.494.385.846.846 0 00-.086.635l.617 2.342a.788.788 0 00.968.57l2.439-.664a2 2 0 012.16.777l.643.912a12.347 12.347 0 002.889 2.918l.903.647a2 2 0 01.767 2.144l-.658 2.455c-.12.447.133.892.553 1.004l2.323.623a.817.817 0 00.987-.592l.658-2.455a2 2 0 011.734-1.473l1.106-.11a12.352 12.352 0 003.964-1.083l1.011-.468a2 2 0 012.259.407l1.783 1.798a.773.773 0 00.552.23.8.8 0 00.564-.238l1.706-1.72a.845.845 0 00.01-1.179l-1.778-1.792a2 2 0 01-.401-2.234l.461-1.019a12.762 12.762 0 001.077-4.019l.11-1.114a2 2 0 011.465-1.733l2.438-.665a.82.82 0 00.494-.384.846.846 0 00.086-.635l-.617-2.342a.788.788 0 00-.968-.57l-2.439.664a2 2 0 01-2.16-.778l-.643-.911a12.345 12.345 0 00-2.888-2.917l-.903-.647a2 2 0 01-.768-2.144l.658-2.456c.12-.447-.133-.892-.553-1.004l-2.323-.623a.817.817 0 00-.987.592l-.658 2.455a2 2 0 01-1.734 1.472l-1.106.11a12.35 12.35 0 00-3.962 1.083l-1.012.468z"/><g transform="rotate(30 -199.44 286.837)"><ellipse cx="6.4" cy="6.462" fill="#FFF" rx="6.4" ry="6.462" transform="translate(.028 4.853)"/><path fill="#FC6D26" d="M5.922 11.913c-3.539 0-6.4-2.89-6.4-6.447 0-3.556 2.861-6.446 6.4-6.446 3.538 0 6.4 2.89 6.4 6.446 0 3.557-2.862 6.447-6.4 6.447zm0-3.2c1.763 0 3.2-1.45 3.2-3.247 0-1.796-1.437-3.246-3.2-3.246-1.764 0-3.2 1.45-3.2 3.246 0 1.797 1.436 3.247 3.2 3.247z"/></g></g><path fill="#000" fill-opacity=".03" d="M61.68 38.252c.21-1.387.32-2.807.32-4.252C62 18.536 49.464 6 34 6S6 18.536 6 34s12.536 28 28 28c8.813 0 16.675-4.072 21.808-10.437l8.461-.938a2 2 0 001.611-2.79l-4.2-9.583z"/><path fill="#FFF" d="M63.68 34.252c.21-1.387.32-2.807.32-4.252C64 14.536 51.464 2 36 2S8 14.536 8 30s12.536 28 28 28c8.813 0 16.675-4.072 21.808-10.437l8.461-.938a2 2 0 001.611-2.79l-4.2-9.583z"/><path fill="#EEE" fill-rule="nonzero" d="M69.712 43.031a4 4 0 01-3.223 5.582l-7.658.849A29.934 29.934 0 0136 60C19.431 60 6 46.569 6 30 6 13.431 19.431 0 36 0c16.569 0 30 13.431 30 30a30.26 30.26 0 01-.26 3.97l3.972 9.061zm-8.01-9.08C61.9 32.65 62 31.333 62 30 62 15.64 50.36 4 36 4S10 15.64 10 30s11.64 26 26 26c7.97 0 15.343-3.606 20.251-9.692l.517-.642 9.28-1.029-4.2-9.582-.233-.531.087-.573z"/><g fill="#31AF64" fill-rule="nonzero"><path d="M36.5 44.5c-7.732 0-14-6.268-14-14s6.268-14 14-14 14 6.268 14 14-6.268 14-14 14zm0-3c6.075 0 11-4.925 11-11s-4.925-11-11-11-11 4.925-11 11 4.925 11 11 11z"/><path d="M35.18 31.81l-1.932-1.932a1.468 1.468 0 00-2.075 2.074l2.875 2.874.048.048c.55.55 1.43.549 1.975.005l5.808-5.808a1.396 1.396 0 00-.005-1.975 1.393 1.393 0 00-1.975-.005L35.18 31.81z"/></g></g></svg>