<svg height="300" viewBox="0 0 425 300" width="425" xmlns="http://www.w3.org/2000/svg"><mask id="a" fill="#fff"><path d="M.968.121h185.3v42.884H.968z" fill-rule="evenodd"/></mask><g fill="none" fill-rule="evenodd"><g fill="#fafafa"><path d="M230 111.884c8.8-9.027 25.476-7.224 37.059-7.673 3.242-9.033 10.191-17.606 19.918-19.867 7.414-1.803 18.996-1.354 20.848 7.677 0 0-.75-23.021 23-23.021s18.695 25.278 18.695 25.278c11.58-8.579 25.011-9.48 33.816 3.161 2.315 3.161.926 4.513 4.63 5.418 1.854.902 6.95-.452 9.729 0 6.022.902 17.604 9.027 17.604 9.027z"/><path d="M.968 43.005c8.8-9.028 25.476-7.224 37.06-7.674 3.242-9.033 10.19-17.606 19.917-19.868 7.415-1.801 18.996-1.352 20.85 7.679 0 0-.75-23.02 23-23.02s18.693 25.276 18.693 25.276c11.58-8.577 25.012-9.48 33.816 3.162 2.316 3.16.926 4.513 4.63 5.418 1.854.901 6.951-.453 9.73 0 6.022.901 17.604 9.026 17.604 9.026z" mask="url(#a)" transform="translate(13.933 32)"/></g><g stroke-width="3"><path d="M190.5 121.5h60v62h-60z" stroke="#fde5d8"/><rect height="62" rx="2.5" stroke="#fde5d8" width="55" x="250.5" y="121.5"/><rect height="27" rx="2.5" stroke="#ede8fc" width="74" x="106.5" y="94.5"/><path d="M97.5 121.5a1 1 0 00-1 1v40.634a1 1 0 001 1h59.635a4 4 0 013.155 1.542l13.588 17.439a1 1 0 00.789.385H189.5a1 1 0 001-1v-60a1 1 0 00-1-1z" stroke="#fde5d8"/></g><g transform="translate(72 164)"><path d="M2.915 0h82.822a2.5 2.5 0 011.954.941l13.75 17.24a2.5 2.5 0 001.955.94h154.519a2.5 2.5 0 012.5 2.552c-.458 22.243-6.972 36.639-19.543 43.188-1.529.796-1.807-2.561-14.004-2.84-11.806-.269-21.108 11.991-29.674 11.991-8.567 0-18.406-12.547-31.527-11.99-14.507.615-21.078 13.831-35.446 12.934-12.466-.778-19.341-12.842-30.348-12.935-19.232-.162-16.035 12.935-32.32 12.935-13.59 0-20.753-8.727-27.378-11.361-7.056-2.806-9.99-.503-11.653-1.574C14.693 53.114 5.334 33.406.447 2.895A2.5 2.5 0 012.915 0z" stroke="#eee" stroke-width="4"/><circle cx="37.5" cy="31.5" fill="#fc6d26" opacity=".2" r="8.5"/><circle cx="37.5" cy="31.5" fill="#fff" r="3.5" stroke="#fc6d26" stroke-linecap="round" stroke-width="3"/><circle cx="62.5" cy="31.5" fill="#fc6d26" opacity=".2" r="8.5"/><circle cx="62.5" cy="31.5" fill="#fff" r="3.5" stroke="#fc6d26" stroke-linecap="round" stroke-width="3"/><circle cx="192.5" cy="41.5" fill="#fc6d26" opacity=".2" r="8.5"/><circle cx="192.5" cy="41.5" fill="#fff" r="3.5" stroke="#fc6d26" stroke-linecap="round" stroke-width="3"/><circle cx="167.5" cy="41.5" fill="#fc6d26" opacity=".2" r="8.5"/><circle cx="167.5" cy="41.5" fill="#fff" r="3.5" stroke="#fc6d26" stroke-linecap="round" stroke-width="3"/><circle cx="217.5" cy="41.5" fill="#fc6d26" opacity=".2" r="8.5"/><circle cx="217.5" cy="41.5" fill="#fff" r="3.5" stroke="#fc6d26" stroke-linecap="round" stroke-width="3"/></g><path d="M15 275c22.304-19.972 39.34-29.958 51.104-29.958 17.648 0 31.655 25.233 52.647 25.233 16.624 0 25.897-25.233 47.316-25.233 21.42 0 34.374 25.233 50.602 25.233 15.498 0 34.142-25.233 53.11-25.233 17.09 0 34.243 25.233 49.155 25.233 11.816 0 23.682-23.513 46.256-25.233 9.423-.717 26.026 7.693 49.81 25.233M72 241.716c14.554-13.793 25.669-20.69 33.346-20.69 11.515 0 20.654 15.981 34.351 15.981 10.848 0 16.898-15.98 30.874-15.98s22.429 15.98 33.018 15.98c10.112 0 22.278-15.98 34.654-15.98 11.152 0 22.279 15.125 32.009 15.125 7.71 0 15.517-14.036 30.247-15.125 6.148-.455 16.982 5.87 32.501 18.973" fill="#f9f7fe"/></g></svg>