<svg xmlns="http://www.w3.org/2000/svg" xmlns:xlink="http://www.w3.org/1999/xlink" width="422" height="244" viewBox="0 0 422 244"><defs><rect id="a" width="20" height="4" x="57" y="8" rx="2"/><rect id="b" width="76" height="4" x="23" y="0" rx="2"/><rect id="c" width="49" height="4" x="187" y="84" rx="2"/><rect id="d" width="10" height="4" x="107" y="0" rx="2"/><rect id="e" width="20" height="4" x="0" y="84" rx="2"/><rect id="f" width="92" height="4" x="28" y="84" rx="2"/><rect id="g" width="36" height="4" x="16" y="92" rx="2"/><rect id="h" width="92" height="4" x="60" y="92" rx="2"/><rect id="i" width="92" height="4" x="8" y="100" rx="2"/><rect id="j" width="76" height="4" x="85" y="8" rx="2"/><rect id="k" width="53" height="4" x="169" y="8" rx="2"/></defs><g fill="none" fill-rule="evenodd"><g transform="translate(125 80)"><use fill="#6E49CB" xlink:href="#a"/><use fill="#FFF" fill-opacity=".8" xlink:href="#a"/><use fill="#6E49CB" xlink:href="#b"/><use fill="#FFF" fill-opacity=".8" xlink:href="#b"/><use fill="#6E49CB" xlink:href="#c"/><use fill="#FFF" fill-opacity=".8" xlink:href="#c"/><use fill="#6E49CB" xlink:href="#d"/><use fill="#FFF" fill-opacity=".8" xlink:href="#d"/><use fill="#6E49CB" xlink:href="#e"/><use fill="#FFF" fill-opacity=".8" xlink:href="#e"/><use fill="#6E49CB" xlink:href="#f"/><use fill="#FFF" fill-opacity=".8" xlink:href="#f"/><use fill="#6E49CB" xlink:href="#g"/><use fill="#FFF" fill-opacity=".8" xlink:href="#g"/><use fill="#6E49CB" xlink:href="#h"/><use fill="#FFF" fill-opacity=".8" xlink:href="#h"/><use fill="#6E49CB" xlink:href="#i"/><use fill="#FFF" fill-opacity=".8" xlink:href="#i"/><use fill="#6E49CB" xlink:href="#j"/><use fill="#FFF" fill-opacity=".8" xlink:href="#j"/><use fill="#6E49CB" xlink:href="#k"/><use fill="#FFF" fill-opacity=".6" xlink:href="#k"/></g><rect width="268" height="48" x="77" y="104" fill="#EFEDF8" stroke="#6E49CB" stroke-width="4" rx="8"/><g stroke-linecap="round"><path stroke="#C2B7E6" stroke-linejoin="round" stroke-width="2" d="M31 22.5h5.488M31 55.5h5.488M31 33.5h5.488M31 66.5h5.488"/><path stroke="#DFDFDF" stroke-width="4" d="M52.267 22.5h16.466m-16.466 11h9.605m-9.605 33h9.605m10.977-33h21.953m-21.953 33h21.953m10.977 0h15.093"/><path stroke="#FC6D26" stroke-width="4" d="M52.267 44.5h23.326m37.407 0h23.326"/><path stroke="#F4C6AC" stroke-width="4" d="M86.57 44.5h15.093"/><path stroke="#DFDFDF" stroke-width="4" d="M131.849 22.5h16.465m-16.465 33h16.465m-96.047 0h16.466m37.046-22h15.093m-41.163-11h8.233m10.977 33h21.953"/><path stroke="#F4C6AC" stroke-width="2" d="M31 44.5h5.488"/><path stroke="#DFDFDF" stroke-width="4" d="M79.71 55.5h8.232m10.977-33h21.953"/></g><rect width="150" height="10" x="89" y="123" fill="#FC6D26" stroke="#FFF" stroke-width="2" rx="4"/><g stroke="#6E49CB" stroke-linecap="round" transform="translate(302 114)"><circle cx="12" cy="12" r="12" fill="#FFF" stroke-width="4"/><circle cx="12" cy="12" r="7" stroke-width="2"/><path stroke-width="2" d="M21 21l5.657 5.657"/><path stroke-width="4" d="M25 25l4.243 4.243"/></g><g transform="translate(211 198)"><rect width="118" height="24" x="2" y="2" fill="#FCF0EA" stroke="#FC6D26" stroke-width="4" rx="4"/><path stroke="#FC6D26" stroke-linecap="round" stroke-width="4" d="M9 10h46"/><path stroke="#F4C6AC" stroke-linecap="round" stroke-width="2" d="M9 18h14"/><path stroke="#FC6D26" stroke-linecap="round" stroke-width="2" d="M27 18h30m4 0h17"/><path stroke="#F4C6AC" stroke-linecap="round" stroke-width="2" d="M82 18h21"/></g><g transform="translate(325 26)"><circle cx="20" cy="20" r="18" fill="#FCF0EA" stroke="#FC6D26" stroke-width="4"/><path stroke="#FC6D26" stroke-width="2" d="M10.917 4.407C14.43 10.16 20.767 14 28 14h0c2.907 0 5.67-.62 8.162-1.736m-33.911 6.74A20.06 20.06 0 0014.066 8.592"/><circle cx="26" cy="23" r="2" fill="#FC6D26"/><circle cx="14" cy="23" r="2" fill="#FC6D26"/></g><path fill="#FCF0EA" stroke="#FC6D26" stroke-width="4" d="M404 133.152h-12.25l-2.311-4.13a2 2 0 00-1.745-1.022H382a2 2 0 00-2 2v18a2 2 0 002 2h22a2 2 0 002-2v-12.848a2 2 0 00-2-2z"/><path stroke="#C2B7E6" stroke-linecap="round" stroke-width="4" d="M345 90c24.3 0 44-19.7 44-44S369.3 2 345 2s-44 19.7-44 44c0 11.47 4.388 21.914 11.577 29.746M371.18 166H393c14.912 0 27-12.088 27-27s-12.088-27-27-27-27 12.088-27 27a26.903 26.903 0 007.104 18.253M326.934 242C343.538 242 357 228.569 357 212c0-16.569-13.461-30-30.067-30H233M21.156 44C10.576 44 2 52.507 2 63s8.576 19 19.156 19H140M174 90c-11.046 0-20 8.954-20 20M284 146c0 11.046 8.954 20 20 20M104.5 141.5v20.94c0 11.08 8.954 20.06 20 20.06"/></g></svg>