<svg width="430" height="172" viewBox="0 0 430 172" xmlns="http://www.w3.org/2000/svg"><g fill="none" fill-rule="evenodd"><g transform="translate(155 16)"><path d="M116 81.233c16.893 1.98 30 16.343 30 33.767 0 18.778-15.222 34-34 34-9.41 0-17.927-3.823-24.083-10H10c-5.523 0-10-4.477-10-10V15C0 9.477 4.477 5 10 5h96c5.523 0 10 4.477 10 10v66.233z" fill="#FAFAFA"/><rect fill="#FFF" x="5" width="116" height="134" rx="10"/><path d="M15 2a8 8 0 00-8 8v114a8 8 0 008 8h96a8 8 0 008-8V10a8 8 0 00-8-8H15zm0-4h96c6.627 0 12 5.373 12 12v114c0 6.627-5.373 12-12 12H15c-6.627 0-12-5.373-12-12V10C3 3.373 8.373-2 15-2z" fill="#EEE" fill-rule="nonzero"/><g transform="translate(23 23)"><rect fill="#E1DBF1" width="16" height="4" rx="2"/><rect fill="#E1DBF1" x="32" y="12" width="16" height="4" rx="2"/><rect fill="#EEE" x="44" width="16" height="4" rx="2"/><rect fill="#E1DBF1" x="12" y="24" width="16" height="4" rx="2"/><rect fill="#FEF0E8" x="64" y="36" width="16" height="4" rx="2"/><rect fill="#FEE1D3" x="20" width="8" height="4" rx="2"/><rect fill="#FC6D26" x="32" y="36" width="8" height="4" rx="2"/><rect fill="#FEF0E8" x="52" y="12" width="8" height="4" rx="2"/><rect fill="#FEF0E8" x="64" width="8" height="4" rx="2"/><rect fill="#E1DBF1" x="16" y="48" width="12" height="4" rx="2"/><rect fill="#FC6D26" x="44" y="36" width="8" height="4" rx="2"/><rect fill="#E1DBF1" x="56" y="36" width="4" height="4" rx="2"/><rect fill="#FC6D26" x="72" y="60" width="4" height="4" rx="2"/><rect fill="#FC6D26" x="32" width="8" height="4" rx="2"/><rect fill="#EEE" y="36" width="28" height="4" rx="2"/><rect fill="#EEE" x="44" y="48" width="28" height="4" rx="2"/><rect fill="#EFEDF8" x="32" y="60" width="28" height="4" rx="2"/><rect fill="#6B4FBB" y="12" width="28" height="4" rx="2"/><rect fill="#C3B8E3" x="32" y="24" width="28" height="4" rx="2"/><rect fill="#FEF0E8" y="24" width="8" height="4" rx="2"/><rect fill="#6B4FBB" x="32" y="48" width="8" height="4" rx="2"/><rect fill="#FC6D26" y="48" width="12" height="4" rx="2"/><rect fill="#FEF0E8" y="60" width="12" height="4" rx="2"/><rect fill="#FEF0E8" x="16" y="60" width="12" height="4" rx="2"/></g><g transform="translate(23 95)"><rect fill="#EFEDF8" width="16" height="4" rx="2"/><rect fill="#FC6D26" x="18" y="12" width="16" height="4" rx="2"/><rect fill="#FEE1D3" x="20" width="8" height="4" rx="2"/><rect fill="#FEF0E8" x="38" y="12" width="8" height="4" rx="2"/><rect fill="#FEF0E8" x="64" width="8" height="4" rx="2"/><rect fill="#FC6D26" x="32" width="8" height="4" rx="2"/><rect fill="#EEE" y="12" width="14" height="4" rx="2"/></g></g><g transform="translate(235 92)"><circle fill="#FFF" cx="34" cy="34" r="34"/><path d="M34 70C14.118 70-2 53.882-2 34S14.118-2 34-2s36 16.118 36 36-16.118 36-36 36zm0-4c17.673 0 32-14.327 32-32S51.673 2 34 2 2 16.327 2 34s14.327 32 32 32z" fill="#EEE" fill-rule="nonzero"/><path d="M47 22v22a8 8 0 01-8 8H29a8 8 0 01-8-8V22h26zm-22 4v18a4 4 0 004 4h10a4 4 0 004-4V26H25z" fill="#E1DBF1" fill-rule="nonzero"/><rect fill="#C3B8E3" x="28" y="31" width="4" height="12" rx="2"/><rect fill="#C3B8E3" x="36" y="31" width="4" height="12" rx="2"/><path d="M29.035 22a3.5 3.5 0 013.465-3h3a3.5 3.5 0 013.465 3H49a2 2 0 110 4H19a2 2 0 110-4h10.035z" fill="#6B4FBB"/></g></g></svg>