<svg width="430" height="267" viewBox="0 0 430 267" xmlns="http://www.w3.org/2000/svg"><g transform="translate(59 17)" fill="none" fill-rule="evenodd"><path d="M263.854 149.281l5.266-.025C262.723 157.61 252.646 163 241.31 163c-11.212 0-21.193-5.273-27.599-13.474l5.266-.026a30.908 30.908 0 0022.334 9.5 30.912 30.912 0 0022.543-9.719zm5.266-.025C262.723 157.61 252.646 163 241.31 163c-11.212 0-21.193-5.273-27.599-13.474l5.266-.026a30.908 30.908 0 0022.334 9.5 30.912 30.912 0 0022.543-9.719l5.266-.025z" fill="#EEE" fill-rule="nonzero"/><path d="M240.31 147c17.682 0 34.22-1.88 46.34-5.135 5.747-1.544 10.276-3.345 13.251-5.235 2.423-1.54 3.41-2.835 3.41-3.63 0-.795-.987-2.09-3.41-3.63-2.975-1.89-7.504-3.69-13.252-5.235C274.53 120.88 257.992 119 240.311 119c-17.682 0-34.22 1.88-46.338 5.135-5.749 1.544-10.277 3.345-13.252 5.235-2.423 1.54-3.41 2.835-3.41 3.63 0 .795.987 2.09 3.41 3.63 2.975 1.89 7.503 3.69 13.252 5.235C206.092 145.12 222.629 147 240.31 147zm0 4c-37.002 0-67-8.059-67-18s29.998-18 67-18c37.004 0 67 8.059 67 18s-29.996 18-67 18z" fill="#EEE" fill-rule="nonzero"/><path d="M200.248 131.991c-.55.383-.931.73-1.146 1.01.3.382.865.855 1.69 1.363 1.68 1.033 4.157 2.04 7.272 2.938l.692 4.334C200.275 139.454 195 136.391 195 133c0-3.024 4.195-5.787 11.118-7.897l.637 3.99c-2.868.91-5.085 1.909-6.507 2.898zm79.428 2.07c.589-.402.996-.768 1.224-1.061-.155-.2-.407-.447-.763-.725-1.045-.817-2.691-1.67-4.848-2.478l.641-4.023c5.694 2.01 9.07 4.513 9.07 7.226 0 3.08-4.35 5.888-11.499 8.012l.705-4.422c2.354-.804 4.209-1.668 5.47-2.53z" fill="#EEE" fill-rule="nonzero"/><path d="M206.118 125.103C207.591 107.128 222.646 93 241 93c18.582 0 33.782 14.481 34.93 32.774.047.736.07 1.478.07 2.226 0 4.598-.887 8.99-2.499 13.012C265.263 143.46 253.306 145 240 145c-12.136 0-23.15-1.281-31.244-3.364A34.89 34.89 0 01206 128c0-.976.04-1.942.118-2.897z" fill="#FFF"/><path d="M272 128c0-.661-.02-1.32-.062-1.975l-.018-.29 4.01.04c.047.735.07 1.477.07 2.225 0 4.598-.887 8.99-2.499 13.012C265.263 143.46 253.306 145 240 145c-12.136 0-23.15-1.281-31.244-3.364A34.89 34.89 0 01206 128c0-.976.04-1.942.118-2.897l4.01.038-.023.288c-.07.852-.105 1.709-.105 2.571 0 3.536.59 6.984 1.73 10.24C219.471 140 229.426 141 240 141c11.631 0 22.493-1.213 30.45-3.29A30.969 30.969 0 00272 128zm-61.872-2.859l-.023.288c-.07.852-.105 1.709-.105 2.571 0 3.536.59 6.984 1.73 10.24C219.471 140 229.426 141 240 141c11.631 0 22.493-1.213 30.45-3.29A30.969 30.969 0 00272 128c0-.661-.02-1.32-.062-1.975l-.018-.29h-.001C270.757 109.606 257.289 97 241 97c-16.068 0-29.422 12.274-30.87 28.141h-.002zm65.802.633c.047.736.07 1.478.07 2.226 0 4.598-.887 8.99-2.499 13.012C265.263 143.46 253.306 145 240 145c-12.136 0-23.15-1.281-31.244-3.364A34.89 34.89 0 01206 128c0-.976.04-1.942.118-2.897C207.591 107.128 222.646 93 241 93c18.582 0 33.782 14.481 34.93 32.774z" fill="#EEE" fill-rule="nonzero"/><path d="M104 181c0 14.36 11.64 26 26 26 1.843 0 3.659-.191 5.427-.567-5.65-14.577-16.219-26.805-29.787-34.543A25.941 25.941 0 00104 181zm1.596-13.697c16.02 8.466 28.355 22.733 34.362 39.854l.693 1.975-2.005.603A30.001 30.001 0 01130 211c-16.569 0-30-13.431-30-30 0-4.477.983-8.818 2.852-12.782l.893-1.893 1.85.978z" fill="#EFEDF8" fill-rule="nonzero"/><path d="M110.428 174.892a2 2 0 112.264-3.298 72.266 72.266 0 014.934 3.705 2 2 0 01-2.537 3.093 68.266 68.266 0 00-4.66-3.5zm10.394 8.775a2 2 0 112.871-2.785 72.407 72.407 0 014.103 4.608 2 2 0 11-3.098 2.53 68.407 68.407 0 00-3.876-4.353zm8.45 10.657a2 2 0 113.366-2.16 71.937 71.937 0 013.107 5.331 2 2 0 11-3.539 1.864 67.937 67.937 0 00-2.934-5.035z" fill="#E1DBF1"/><path d="M129.291 198.986a2 2 0 11-.154 3.997 21.93 21.93 0 01-6.485-1.24 2 2 0 111.336-3.771c1.693.6 3.475.944 5.303 1.014z" fill="#EFEDF8"/><path d="M117.817 194.25a2 2 0 01-2.708 2.945 22.088 22.088 0 01-4.135-5.142 2 2 0 013.457-2.012 18.088 18.088 0 003.386 4.21z" fill="#E1DBF1"/><path d="M112.136 183.226a2 2 0 01-3.97.488 22.212 22.212 0 01.18-6.621 2 2 0 013.937.706 18.232 18.232 0 00-.147 5.427z" fill="#C3B8E3"/><path d="M19.88 211.872c8.73 0 15.808-7.077 15.808-15.807 0-6.615-4.1-12.432-10.113-14.752a68.096 68.096 0 00-17.188 25.604 15.759 15.759 0 0011.494 4.955zm-15.664-5.206A72.091 72.091 0 0123.76 177.55l.841-.76 1.085.332a19.814 19.814 0 0114.003 18.943c0 10.939-8.868 19.807-19.807 19.807-6.015 0-11.591-2.7-15.33-7.263l-.718-.876.383-1.067z" fill="#EFEDF8" fill-rule="nonzero"/><path d="M11.877 199.2a2 2 0 01-3.534-1.872c.321-.606.651-1.207.99-1.804a2 2 0 013.479 1.974c-.32.563-.631 1.13-.935 1.703zm4.583-7.445a2 2 0 11-3.264-2.31c.396-.56.8-1.114 1.212-1.662a2 2 0 013.198 2.403c-.39.518-.771 1.04-1.146 1.57z" fill="#E1DBF1"/><path d="M21.309 188.179a2 2 0 01.707-3.937c.793.142 1.566.364 2.31.66a2 2 0 01-1.481 3.716 7.938 7.938 0 00-1.536-.44zm5.682 4.186a2 2 0 013.546-1.85c.37.711.67 1.458.891 2.23a2 2 0 01-3.844 1.104 7.947 7.947 0 00-.593-1.484z" fill="#EFEDF8"/><path d="M27.205 199.32a2 2 0 113.654 1.627 12 12 0 01-1.19 2.084 2 2 0 01-3.258-2.322 8 8 0 00.794-1.389z" fill="#C3B8E3"/><path d="M21.87 203.829a2 2 0 11.99 3.876c-.772.197-1.566.317-2.372.357a2 2 0 11-.2-3.995 8.002 8.002 0 001.583-.238z" fill="#E1DBF1"/><path d="M15 202.42a2 2 0 01-2.439 3.17 12.072 12.072 0 01-1.745-1.643 2 2 0 113.017-2.626c.352.405.743.773 1.167 1.1z" fill="#C3B8E3"/><path d="M4 231a2 2 0 11-4 0c0-39.765 32.235-72 72-72s72 32.235 72 72a2 2 0 01-4 0c0-37.555-30.445-68-68-68S4 193.445 4 231z" fill="#EFEDF8" fill-rule="nonzero"/><path d="M86 231a2 2 0 11-4 0 9.982 9.982 0 00-.552-3.288 2 2 0 013.777-1.314c.511 1.468.775 3.018.775 4.602z" fill="#EFEDF8"/><path d="M80.43 219.821a2 2 0 11-2.41 3.193 9.965 9.965 0 00-2.957-1.537 2 2 0 011.224-3.808c1.494.48 2.894 1.21 4.143 2.152zm-12.208-2.305a2 2 0 111.078 3.852 9.948 9.948 0 00-3.012 1.423A2 2 0 1164 219.51a13.947 13.947 0 014.222-1.994z" fill="#E1DBF1"/><path d="M58.983 225.838a2 2 0 013.718 1.476 9.947 9.947 0 00-.692 3.258 2 2 0 11-3.997-.167c.067-1.58.397-3.12.97-4.567z" fill="#EFEDF8"/><path d="M95 231a2 2 0 11-4 0c0-10.493-8.507-19-19-19s-19 8.507-19 19a2 2 0 11-4 0c0-12.703 10.297-23 23-23s23 10.297 23 23z" fill="#E1DBF1" fill-rule="nonzero"/><path d="M72 170.5a1.5 1.5 0 010-3c.55 0 1.091-.068 1.614-.202a1.5 1.5 0 01.742 2.907A9.515 9.515 0 0172 170.5zm8.048-4.45a1.5 1.5 0 11-2.54-1.597c.29-.46.52-.954.685-1.472a1.5 1.5 0 012.858.913 9.462 9.462 0 01-1.003 2.155zm.538-9.121a1.5 1.5 0 11-2.71 1.287 6.507 6.507 0 00-.876-1.37 1.5 1.5 0 112.307-1.918c.507.61.938 1.283 1.279 2zm-7.413-5.357a1.5 1.5 0 01-.367 2.977 6.566 6.566 0 00-1.64.004 1.5 1.5 0 01-.38-2.976 9.656 9.656 0 012.387-.005zm-8.527 3.413a1.5 1.5 0 112.322 1.9c-.345.422-.636.884-.865 1.377a1.5 1.5 0 01-2.72-1.266c.335-.721.76-1.396 1.263-2.011zm-1.67 8.991a1.5 1.5 0 012.85-.94c.17.517.404 1.01.697 1.466a1.5 1.5 0 11-2.525 1.62 9.465 9.465 0 01-1.022-2.146zm6.872 6.279a1.5 1.5 0 01.677-2.923c.48.111.973.168 1.475.168a1.5 1.5 0 010 3c-.73 0-1.451-.083-2.152-.245z" fill="#C3B8E3" fill-rule="nonzero"/><circle fill="#6B4FBB" cx="72" cy="161" r="4"/><g transform="translate(226 80)" fill="#FC6D26"><circle opacity=".1" cx="15" cy="15" r="15"/><circle opacity=".2" cx="15" cy="15" r="9"/><circle cx="15" cy="15" r="5"/></g><path d="M74.096 142a2 2 0 01-4 0c0-2.072.009-4.073.028-6.02a2 2 0 014 .038 623.023 623.023 0 00-.028 5.982z" fill="#FDC4A8"/><path d="M74.32 126.067a2 2 0 01-3.999-.124c.064-2.055.141-4.061.234-6.024a2 2 0 113.996.188 366.366 366.366 0 00-.232 5.96z" fill="#FEE1D3"/><path d="M75.18 110.176a2 2 0 11-3.987-.324c.167-2.049.353-4.056.562-6.024a2 2 0 113.978.42c-.205 1.936-.39 3.91-.553 5.928z" fill="#FDC4A8"/><path d="M77.007 94.43a2 2 0 11-3.953-.615c.317-2.031.661-4.023 1.035-5.979a2 2 0 113.929.751 171.59 171.59 0 00-1.011 5.843z" fill="#FEE1D3"/><path d="M80.186 78.957a2 2 0 01-3.87-1.012c.52-1.99 1.078-3.941 1.675-5.856a2 2 0 013.819 1.189 128.633 128.633 0 00-1.624 5.68z" fill="#FDC4A8"/><path d="M85.127 64.014a2 2 0 01-3.703-1.513c.777-1.901 1.6-3.764 2.47-5.591a2 2 0 113.611 1.72 103.948 103.948 0 00-2.378 5.384z" fill="#FEE1D3"/><path d="M92.152 50.008a2 2 0 11-3.42-2.075 97.304 97.304 0 013.341-5.136 2 2 0 113.283 2.286 93.304 93.304 0 00-3.204 4.925z" fill="#FDC4A8"/><path d="M101.368 37.355a2 2 0 11-3.023-2.62 98.701 98.701 0 014.153-4.501 2 2 0 012.855 2.801 94.702 94.702 0 00-3.985 4.32z" fill="#FEE1D3"/><path d="M112.575 26.375a2 2 0 11-2.565-3.069 111.148 111.148 0 014.795-3.787 2 2 0 112.393 3.206 107.149 107.149 0 00-4.623 3.65zm12.767-9.2a2 2 0 01-2.102-3.404 86.185 86.185 0 015.336-3.037 2 2 0 111.854 3.545 82.185 82.185 0 00-5.088 2.895zm14.016-6.928a2 2 0 11-1.436-3.734 92.56 92.56 0 015.796-2.011 2 2 0 011.186 3.82 88.56 88.56 0 00-5.546 1.925z" fill="#FDC4A8"/><path d="M154.404 5.928a2 2 0 01-.768-3.926 96.22 96.22 0 016.046-.983 2 2 0 01.516 3.967 92.22 92.22 0 00-5.794.942z" fill="#FEE1D3"/><path d="M169.943 4.24a2 2 0 01-.093-4 94.661 94.661 0 016.126.055 2 2 0 11-.166 3.997 90.661 90.661 0 00-5.867-.053z" fill="#FDC4A8"/><path d="M185.584 5.244a2 2 0 11.612-3.953c2.037.315 4.05.7 6.031 1.152a2 2 0 11-.89 3.9 83.11 83.11 0 00-5.753-1.1z" fill="#FEE1D3"/><path d="M200.643 9.078a2 2 0 111.37-3.759c1.948.71 3.85 1.492 5.699 2.343a2 2 0 11-1.672 3.634 71.355 71.355 0 00-5.397-2.218z" fill="#FDC4A8"/><path d="M214.555 16a2 2 0 112.196-3.343 63.128 63.128 0 015.007 3.65 2 2 0 01-2.513 3.111 59.129 59.129 0 00-4.69-3.417z" fill="#FEE1D3"/><path d="M226.227 26.152a2 2 0 013.026-2.616 55.18 55.18 0 013.801 4.931 2 2 0 11-3.301 2.259 51.18 51.18 0 00-3.526-4.574z" fill="#FDC4A8"/><path d="M234.4 39.153a2 2 0 013.672-1.587 55.355 55.355 0 012.144 5.844 2 2 0 11-3.827 1.165 51.355 51.355 0 00-1.988-5.422z" fill="#FEE1D3"/><path d="M238.365 54.004a2 2 0 113.971-.482c.245 2.017.396 4.075.45 6.173a2 2 0 11-3.998.105 61.388 61.388 0 00-.423-5.796z" fill="#FDC4A8"/><path d="M242.796 77.504l4.263-6.395A2 2 0 00245.394 68h-8.525a2 2 0 00-1.665 3.11l4.263 6.394a2 2 0 003.329 0z" fill="#FC6D26"/><path d="M259.5 128a6.5 6.5 0 110-13 6.5 6.5 0 010 13zm0-4a2.5 2.5 0 100-5 2.5 2.5 0 000 5z" fill="#C3B8E3" fill-rule="nonzero"/><path d="M237 209a5 5 0 100-10 5 5 0 000 10zm0 4a9 9 0 110-18 9 9 0 010 18z" fill="#E1DBF1" fill-rule="nonzero"/><path d="M299 67a8 8 0 100-16 8 8 0 000 16zm0 4c-6.627 0-12-5.373-12-12s5.373-12 12-12 12 5.373 12 12-5.373 12-12 12zm-168.5 35a3.5 3.5 0 100-7 3.5 3.5 0 000 7zm0 4a7.5 7.5 0 110-15 7.5 7.5 0 010 15z" fill="#EFEDF8" fill-rule="nonzero"/></g></svg>