<svg width="430" height="172" viewBox="0 0 430 172" xmlns="http://www.w3.org/2000/svg"><g fill="none" fill-rule="evenodd"><path d="M243 121a2 2 0 110-4c2.542 0 5.042-.305 7.463-.904a2 2 0 11.96 3.884A35.075 35.075 0 01243 121zm18.21-5.105a2 2 0 11-2.083-3.414 31.143 31.143 0 005.896-4.664 2 2 0 112.842 2.815 35.143 35.143 0 01-6.654 5.263zm12.895-13.835a2 2 0 01-3.552-1.838 30.77 30.77 0 002.612-7.042 2 2 0 113.892.922 34.77 34.77 0 01-2.952 7.958zm3.816-18.433a2 2 0 11-3.991.268 30.873 30.873 0 00-1.407-7.38 2 2 0 013.808-1.223 34.873 34.873 0 011.59 8.335zm-6.346-17.842a2 2 0 01-3.264 2.312 31.188 31.188 0 00-5.054-5.564 2 2 0 012.615-3.027 35.188 35.188 0 015.703 6.279zm-14.68-11.918a2 2 0 01-1.59 3.67 30.758 30.758 0 00-7.206-2.12 2 2 0 11.653-3.946 34.758 34.758 0 018.143 2.396zm-18.632-2.549a2 2 0 01.537 3.964c-2.505.339-4.94.98-7.266 1.907a2 2 0 11-1.48-3.716 34.774 34.774 0 018.209-2.155zm-17.356 7.535a2 2 0 012.527 3.1 31.196 31.196 0 00-5.213 5.416 2 2 0 01-3.196-2.406 35.196 35.196 0 015.882-6.11zm-10.918 15.49a2 2 0 013.772 1.331 30.82 30.82 0 00-1.619 7.337 2 2 0 11-3.982-.38 34.82 34.82 0 011.829-8.289zm-1.27 18.744a2 2 0 113.917-.806 30.757 30.757 0 002.4 7.118 2 2 0 11-3.605 1.73 34.757 34.757 0 01-2.713-8.042zm8.675 16.774a2 2 0 112.926-2.728 31.167 31.167 0 005.751 4.841 2 2 0 11-2.187 3.349 35.167 35.167 0 01-6.49-5.462zm16.245 9.873a2 2 0 111.067-3.855 30.979 30.979 0 007.434 1.11 2 2 0 11-.11 3.998 34.979 34.979 0 01-8.391-1.253zM349 121c-19.33 0-35-15.67-35-35s15.67-35 35-35 35 15.67 35 35-15.67 35-35 35zm0-4c17.12 0 31-13.88 31-31s-13.88-31-31-31-31 13.88-31 31 13.88 31 31 31zM179 88c0-1.105.887-2 1.998-2h4.004c1.103 0 1.998.888 1.998 2 0 1.105-.887 2-1.998 2h-4.004A1.994 1.994 0 01179 88zm14 0c0-1.105.887-2 1.998-2h4.004c1.103 0 1.998.888 1.998 2 0 1.105-.887 2-1.998 2h-4.004A1.994 1.994 0 01193 88zm92 0c0-1.105.887-2 1.998-2h4.004c1.103 0 1.998.888 1.998 2 0 1.105-.887 2-1.998 2h-4.004A1.994 1.994 0 01285 88zm14 0c0-1.105.887-2 1.998-2h4.004c1.103 0 1.998.888 1.998 2 0 1.105-.887 2-1.998 2h-4.004A1.994 1.994 0 01299 88z" fill="#EEE" fill-rule="nonzero"/><path d="M243 104c-9.941 0-18-8.059-18-18s8.059-18 18-18 18 8.059 18 18-8.059 18-18 18zm0-4c7.732 0 14-6.268 14-14s-6.268-14-14-14-14 6.268-14 14 6.268 14 14 14z" fill="#E1DBF1" fill-rule="nonzero"/><path d="M245 84h5a2 2 0 110 4h-7a2 2 0 01-2-2v-8a2 2 0 114 0v6z" fill="#6B4FBB"/><g transform="translate(49 16)"><rect fill="#F9F9F9" y="5" width="116" height="135" rx="10"/><rect fill="#FFF" x="5" width="116" height="134" rx="10"/><path d="M15 2a8 8 0 00-8 8v114a8 8 0 008 8h96a8 8 0 008-8V10a8 8 0 00-8-8H15zm0-4h96c6.627 0 12 5.373 12 12v114c0 6.627-5.373 12-12 12H15c-6.627 0-12-5.373-12-12V10C3 3.373 8.373-2 15-2z" fill="#EEE" fill-rule="nonzero"/><path d="M25 23h12a2 2 0 110 4H25a2 2 0 110-4zm32 12h12a2 2 0 110 4H57a2 2 0 110-4z" fill="#E1DBF1"/><path d="M69 23h12a2 2 0 110 4H69a2 2 0 110-4z" fill="#EEE"/><path d="M37 47h12a2 2 0 110 4H37a2 2 0 110-4z" fill="#E1DBF1"/><path d="M89 59h12a2 2 0 110 4H89a2 2 0 110-4z" fill="#FEF0E8"/><path d="M45 23h4a2 2 0 110 4h-4a2 2 0 110-4z" fill="#FEE1D3"/><path d="M57 59h4a2 2 0 110 4h-4a2 2 0 110-4z" fill="#FC6D26"/><path d="M77 35h4a2 2 0 110 4h-4a2 2 0 110-4zm12-12h4a2 2 0 110 4h-4a2 2 0 110-4z" fill="#FEF0E8"/><path d="M41 71h8a2 2 0 110 4h-8a2 2 0 110-4z" fill="#E1DBF1"/><path d="M69 59h4a2 2 0 110 4h-4a2 2 0 110-4z" fill="#FC6D26"/><path d="M81 59a2 2 0 110 4 2 2 0 010-4zm8 24a2 2 0 110 4 2 2 0 010-4z" fill="#E1DBF1"/><path d="M97 83a2 2 0 110 4 2 2 0 010-4zM57 23h4a2 2 0 110 4h-4a2 2 0 110-4z" fill="#FC6D26"/><path d="M25 59h24a2 2 0 110 4H25a2 2 0 110-4zm44 12h24a2 2 0 110 4H69a2 2 0 110-4z" fill="#EEE"/><path d="M57 83h24a2 2 0 110 4H57a2 2 0 110-4z" fill="#EFEDF8"/><path d="M25 35h24a2 2 0 110 4H25a2 2 0 110-4z" fill="#6B4FBB"/><path d="M57 47h24a2 2 0 110 4H57a2 2 0 110-4z" fill="#C3B8E3"/><path d="M25 47h4a2 2 0 110 4h-4a2 2 0 110-4z" fill="#FEF0E8"/><path d="M57 71h4a2 2 0 110 4h-4a2 2 0 110-4z" fill="#6B4FBB"/><path d="M25 71h8a2 2 0 110 4h-8a2 2 0 110-4z" fill="#FC6D26"/><path d="M25 83h8a2 2 0 110 4h-8a2 2 0 110-4zm16 0h8a2 2 0 110 4h-8a2 2 0 110-4z" fill="#FEF0E8"/><path d="M25 95h12a2 2 0 110 4H25a2 2 0 110-4z" fill="#EFEDF8"/><path d="M43 107h12a2 2 0 110 4H43a2 2 0 110-4z" fill="#FC6D26"/><path d="M69 95h12a2 2 0 110 4H69a2 2 0 110-4z" fill="#6B4FBB"/><path d="M45 95h4a2 2 0 110 4h-4a2 2 0 110-4z" fill="#FEE1D3"/><path d="M63 107h4a2 2 0 110 4h-4a2 2 0 110-4zm26-12h4a2 2 0 110 4h-4a2 2 0 110-4z" fill="#FEF0E8"/><path d="M57 95h4a2 2 0 110 4h-4a2 2 0 110-4z" fill="#FC6D26"/><path d="M25 107h10a2 2 0 110 4H25a2 2 0 110-4z" fill="#EEE"/></g><path d="M349 105c-10.493 0-19-8.507-19-19s8.507-19 19-19 19 8.507 19 19-8.507 19-19 19zm0-4c8.284 0 15-6.716 15-15 0-8.284-6.716-15-15-15-8.284 0-15 6.716-15 15 0 8.284 6.716 15 15 15z" fill="#B3E6C8" fill-rule="nonzero"/><path d="M347.586 86.828l5.657-5.656A2 2 0 11356.07 84L349 91.071a2 2 0 01-2.828 0l-4.243-4.243A2 2 0 01344.757 84l2.829 2.828z" fill="#D8D8D8"/><path d="M347.586 86.828l5.657-5.656A2 2 0 11356.07 84L349 91.071a2 2 0 01-2.828 0l-4.243-4.243A2 2 0 11344.757 84l2.829 2.828z" fill="#1AAA55"/></g></svg>