<svg width="34" height="32" xmlns="http://www.w3.org/2000/svg"><path d="M33.164 17.346l-1.742-5.42c-.002-.006 0-.012 0-.017L27.965 1.125A1.638 1.638 0 0026.41 0h-.01a1.626 1.626 0 00-1.541 1.135l-3.222 10.048h-9.96L8.452 1.136A1.627 1.627 0 006.908 0H6.9a1.64 1.64 0 00-1.558 1.136L1.9 11.896l-.008.014-1.746 5.436a2.248 2.248 0 00.803 2.5l15.085 11.108c.038.027.08.04.12.06.008.005.012.012.02.018l.014.005c.012.006.025.01.037.015.01.004.019.01.028.015l.012.006c.044.018.089.033.136.045.023.006.046.006.07.011.06.01.12.027.18.027.024 0 .047-.012.072-.014.072-.006.145-.016.217-.037.013-.004.028-.003.042-.007.01-.003.017-.01.026-.012.027-.01.052-.022.078-.034l.038-.015.013-.005c.018-.01.03-.026.047-.037.028-.016.06-.026.087-.044l.004-.003L32.36 19.846a2.248 2.248 0 00.804-2.5m-23.004-4.08l3.688 11.496-8.851-11.497h5.163m9.301 11.497l3.305-10.306.383-1.196h5.168l-5.641 7.332-3.215 4.175M26.412 3.09l2.595 8.093h-5.189l2.594-8.093M20.97 13.26l-3.05 9.511-1.264 3.94-4.312-13.45h8.626M6.896 3.09l2.6 8.093h-5.19l2.59-8.093M2.18 18.172a.177.177 0 01-.058-.192l1.141-3.553 8.07 10.49-9.153-6.74m28.948 0l-9.153 6.737.353-.46 7.718-10.022 1.14 3.551a.18.18 0 01-.058.194" fill="#1B69B6"/></svg>