<svg xmlns="http://www.w3.org/2000/svg" width="74" height="72" viewBox="0 0 74 72"><g fill="none" fill-rule="evenodd"><path fill="#E38800" d="M35.922 71.609l13.211-40.945H22.71l13.212 40.945z"/><path fill="#F7980A" d="M35.922 71.609L22.71 30.664H4.195z"/><path fill="#FCA326" d="M4.195 30.664L.18 43.107a2.765 2.765 0 00.994 3.08l34.748 25.422L4.195 30.664z"/><path fill="#E38800" d="M4.195 30.664H22.71l-7.957-24.66c-.41-1.27-2.192-1.27-2.601 0l-7.957 24.66z"/><path fill="#F7980A" d="M35.922 71.609l13.211-40.945h18.515z"/><path fill="#FCA326" d="M67.648 30.664l4.015 12.443a2.765 2.765 0 01-.993 3.08L35.922 71.608l31.726-40.945z"/><path fill="#E38800" d="M67.648 30.664H49.133l7.957-24.66c.41-1.27 2.192-1.27 2.601 0l7.957 24.66z"/><path fill="#FFCE29" fill-rule="nonzero" d="M28.786 22.224l-1.026 2.94-1.662-2.705-2.941-1.026 2.706-1.662 1.167-2.953 1.662 2.706 2.953 1.167M5.572 9.235l-1.473 2.744L2.88 9.047.136 7.573l2.932-1.218L4.683 3.62l1.219 2.932 2.734 1.615m-.551 53.578l-.776 3.917-2.436-3.056-3.783-.983 3.056-2.436.983-3.783L7.475 58.6l4.1.796m48.062 8.848l-1.03 2.744-1.577-2.47-2.744-1.03 2.47-1.578 1.03-2.744 1.577 2.47 2.745 1.03m7.096-59.628l-2.128 3.379-1.18-3.726-3.179-2.273 3.726-1.18L68.716.058l1.046 3.823 3.543 2.213"/></g></svg>