<svg width="238" height="142" viewBox="0 0 238 142" xmlns="http://www.w3.org/2000/svg"><g fill="none" fill-rule="evenodd"><rect fill="#F9F9F9" x="107" y="7" width="116" height="135" rx="10"/><rect fill="#FFF" x="112" y="2" width="116" height="134" rx="10"/><path d="M122 4a8 8 0 00-8 8v114a8 8 0 008 8h96a8 8 0 008-8V12a8 8 0 00-8-8h-96zm0-4h96c6.627 0 12 5.373 12 12v114c0 6.627-5.373 12-12 12h-96c-6.627 0-12-5.373-12-12V12c0-6.627 5.373-12 12-12z" fill="#EEE" fill-rule="nonzero"/><path d="M132 25h12a2 2 0 010 4h-12a2 2 0 010-4zm32 12h12a2 2 0 010 4h-12a2 2 0 010-4z" fill="#E1DBF1" fill-rule="nonzero"/><path d="M176 25h12a2 2 0 010 4h-12a2 2 0 010-4z" fill="#EEE"/><path d="M144 49h12a2 2 0 010 4h-12a2 2 0 010-4z" fill="#E1DBF1"/><path d="M152 25h4a2 2 0 010 4h-4a2 2 0 010-4z" fill="#FEE1D3"/><path d="M164 61h4a2 2 0 010 4h-4a2 2 0 010-4z" fill="#FC6D26"/><path d="M184 37h4a2 2 0 110 4h-4a2 2 0 010-4zm12-12h4a2 2 0 110 4h-4a2 2 0 010-4z" fill="#FEF0E8" fill-rule="nonzero"/><path d="M148 73h8a2 2 0 010 4h-8a2 2 0 010-4z" fill="#E1DBF1"/><path d="M176 61h4a2 2 0 010 4h-4a2 2 0 010-4z" fill="#FC6D26"/><path d="M196.5 57a2.5 2.5 0 110 5 2.5 2.5 0 010-5zm10 29a2.5 2.5 0 110 5 2.5 2.5 0 010-5z" fill="#E1DBF1" fill-rule="nonzero"/><path d="M215.5 86a2.5 2.5 0 110 5 2.5 2.5 0 010-5zM164 25h4a2 2 0 010 4h-4a2 2 0 010-4z" fill="#FC6D26" fill-rule="nonzero"/><path d="M132 61h24a2 2 0 010 4h-24a2 2 0 010-4zm50.429 10h29.142c1.342 0 2.429 1.12 2.429 2.5s-1.087 2.5-2.429 2.5H182.43c-1.342 0-2.429-1.12-2.429-2.5s1.087-2.5 2.429-2.5z" fill="#EEE" fill-rule="nonzero"/><path d="M167.429 86h29.142c1.342 0 2.429 1.12 2.429 2.5s-1.087 2.5-2.429 2.5H167.43c-1.342 0-2.429-1.12-2.429-2.5s1.087-2.5 2.429-2.5z" fill="#EFEDF8"/><path d="M132 37h24a2 2 0 010 4h-24a2 2 0 010-4z" fill="#6B4FBB"/><path d="M164 49h24a2 2 0 010 4h-24a2 2 0 010-4z" fill="#C3B8E3"/><path d="M132 49h4a2 2 0 010 4h-4a2 2 0 010-4z" fill="#FEF0E8"/><path d="M164 73h4a2 2 0 010 4h-4a2 2 0 010-4z" fill="#6B4FBB"/><path d="M132 73h8a2 2 0 010 4h-8a2 2 0 010-4z" fill="#FC6D26"/><path d="M132 85h8a2 2 0 010 4h-8a2 2 0 010-4zm16 0h8a2 2 0 010 4h-8a2 2 0 010-4z" fill="#FEF0E8" fill-rule="nonzero"/><path d="M132 97h12a2 2 0 010 4h-12a2 2 0 010-4z" fill="#EFEDF8"/><path d="M150.375 109h14.25c1.312 0 2.375.895 2.375 2s-1.063 2-2.375 2h-14.25c-1.312 0-2.375-.895-2.375-2s1.063-2 2.375-2z" fill="#FC6D26"/><path d="M182.375 100h14.25c1.312 0 2.375 1.12 2.375 2.5s-1.063 2.5-2.375 2.5h-14.25c-1.312 0-2.375-1.12-2.375-2.5s1.063-2.5 2.375-2.5z" fill="#6B4FBB"/><path d="M152 97h4a2 2 0 010 4h-4a2 2 0 010-4z" fill="#FEE1D3"/><path d="M170 109h4a2 2 0 010 4h-4a2 2 0 010-4zm36.5-9h5a2.5 2.5 0 110 5h-5a2.5 2.5 0 110-5z" fill="#FEF0E8" fill-rule="nonzero"/><path d="M167.5 100h5a2.5 2.5 0 110 5h-5a2.5 2.5 0 110-5z" fill="#FC6D26"/><path d="M132 109h10a2 2 0 010 4h-10a2 2 0 010-4z" fill="#EEE"/><circle fill="#FFF" cx="35" cy="70" r="35"/><path d="M35 105C15.67 105 0 89.33 0 70s15.67-35 35-35 35 15.67 35 35-15.67 35-35 35zm0-4c17.12 0 31-13.88 31-31 0-17.12-13.88-31-31-31C17.88 39 4 52.88 4 70c0 17.12 13.88 31 31 31z" fill="#EEE" fill-rule="nonzero"/><path d="M35 89c-10.493 0-19-8.507-19-19s8.507-19 19-19 19 8.507 19 19-8.507 19-19 19zm0-4c8.284 0 15-6.716 15-15 0-8.284-6.716-15-15-15-8.284 0-15 6.716-15 15 0 8.284 6.716 15 15 15z" fill="#B8D6F4" fill-rule="nonzero"/><path d="M35.011 61c5.007 0 9.104 4.05 9.104 9s-4.097 9-9.104 9c-2.959 0-5.69-1.575-7.511-3.825L35.011 70v-9" fill="#2D9FD8"/><path d="M77 71c0-1.105.887-2 1.998-2h4.004c1.103 0 1.998.888 1.998 2 0 1.105-.887 2-1.998 2h-4.004A1.994 1.994 0 0177 71zm14 0c0-1.105.887-2 1.998-2h4.004c1.103 0 1.998.888 1.998 2 0 1.105-.887 2-1.998 2h-4.004A1.994 1.994 0 0191 71z" fill="#E5E5E5" fill-rule="nonzero"/><path d="M211.869 117.403c-13.26 9.264-31.649 7.977-43.484-3.858-13.279-13.279-13.279-34.806 0-48.084 13.278-13.278 34.805-13.278 48.083 0 11.836 11.836 13.118 30.23 3.858 43.485.133.111.262.229.387.354l15.556 15.555a6.004 6.004 0 01-4.243 10.245 5.997 5.997 0 01-4.243-1.759l-15.555-15.556a6.051 6.051 0 01-.355-.387m-1.06-9.512c10.154-10.154 10.154-26.617 0-36.77-10.153-10.154-26.616-10.154-36.77 0-10.153 10.153-10.153 26.616 0 36.77 10.154 10.153 26.617 10.153 36.77 0" fill="#6B4FBB" fill-rule="nonzero"/></g></svg>