<svg fill="none" height="201" viewBox="0 0 394 201" width="394" xmlns="http://www.w3.org/2000/svg"><path d="M176.202 186.526l3.2-16h38.721l3.2 16z" stroke="#dbdbdb" stroke-width="4"/><rect height="166" rx="8" stroke="#dbdbdb" stroke-width="4" width="251" x="71.668" y="4.177"/><rect height="142" rx="3" stroke="#dbdbdb" stroke-width="4" width="228" x="82.668" y="16.177"/><path d="M150.422 186.526h97.061a5 5 0 014.808 3.626c.912 3.194-1.486 6.374-4.808 6.374h-97.061c-3.183 0-5.556-2.936-4.889-6.048a5 5 0 014.889-3.952z" stroke="#dbdbdb" stroke-width="4"/><rect fill="#dbdbdb" height="3" rx="1.5" transform="matrix(1 -.00337 .02162 .99977 169.102 134.035)" width="109.183"/><rect fill="#dbdbdb" height="3.001" rx="1.5" transform="matrix(1 -.00344 .02117 .99978 168.874 123.704)" width="89.334"/><rect fill="#dbdbdb" height="3" rx="1.5" transform="rotate(-.489 169.508 83.706)" width="126.693" x="169.508" y="83.706"/><rect fill="#dbdbdb" height="3" rx="1.5" transform="rotate(-.489 169.594 93.706)" width="80.114" x="169.594" y="93.706"/><path clip-rule="evenodd" d="M126.571 90.85a1.5 1.5 0 00-2.121 0l-5.303 5.304-1.768-1.768a1.5 1.5 0 10-2.121 2.121l2.828 2.829a1.5 1.5 0 002.121 0l6.364-6.364a1.5 1.5 0 000-2.122zM126.571 128.85a1.502 1.502 0 00-2.122 0l-5.303 5.304-1.768-1.768a1.5 1.5 0 10-2.121 2.121l2.828 2.829a1.502 1.502 0 002.122 0l6.364-6.364a1.5 1.5 0 000-2.122z" fill="#fca121" fill-rule="evenodd"/><path d="M120 71c11.046 0 20-8.954 20-20s-8.954-20-20-20-20 8.954-20 20 8.954 20 20 20z" fill-rule="evenodd" clip-rule="evenodd" fill="#fff" stroke="#6e49cb" stroke-width="4" stroke-linecap="round"/><path clip-rule="evenodd" d="M120 66c8.284 0 15-6.716 15-15s-6.716-15-15-15-15 6.716-15 15 6.716 15 15 15z" stroke="#6e49cb" stroke-linecap="round" stroke-width="2"/><path d="M133 69l5 5" stroke="#6e49cb" stroke-linecap="round" stroke-width="2"/><path d="M136 72l10 10" stroke="#6e49cb" stroke-linecap="round" stroke-width="4"/><path d="M120.372 53.685a2.124 2.124 0 110 4.249 2.124 2.124 0 010-4.249z" fill="#fca121"/><path d="M120.371 43.49a2.12 2.12 0 012.06 2.632l-.072.231-1.988 7.333-1.987-7.333a2.12 2.12 0 011.987-2.864z" fill="#fca121"/><rect fill="#ac93e6" height="3" opacity=".5" rx="1.5" transform="matrix(.99999 -.0048 .01522 .99988 168.126 40.891)" width="128.611"/><rect fill="#ac93e6" height="3" opacity=".5" rx="1.5" transform="matrix(.99999 -.00466 .01565 .99988 168.28 50.707)" width="78.794"/><g fill="#fca121"><path d="M347.881 84.436h1.621c0-2.875 2.299-5.205 5.134-5.205v-1.644c-3.731 0-6.755 3.066-6.755 6.849z"/><path clip-rule="evenodd" d="M354.906 79.505c.746 0 1.351-.613 1.351-1.37s-.605-1.37-1.351-1.37-1.351.614-1.351 1.37.605 1.37 1.351 1.37z" fill-rule="evenodd"/><path d="M346.8 84.436h-1.621c0-2.875-2.298-5.205-5.133-5.205v-1.644c3.73 0 6.754 3.066 6.754 6.849z"/><path clip-rule="evenodd" d="M339.776 79.505a1.36 1.36 0 01-1.351-1.37c0-.756.605-1.37 1.351-1.37s1.35.614 1.35 1.37a1.36 1.36 0 01-1.35 1.37z" fill-rule="evenodd"/><rect height="1.358" rx=".679" width="5.403" x="354.635" y="97.585"/><rect height="1.358" rx=".679" transform="rotate(15 354.903 101.84)" width="5.403" x="354.903" y="101.84"/><rect height="1.358" rx=".679" transform="rotate(-15 354.633 93.508)" width="5.403" x="354.633" y="93.508"/><rect height="1.358" rx=".679" transform="matrix(-1 0 0 1 340.046 97.585)" width="5.403"/><rect height="1.358" rx=".679" transform="scale(-1 1) rotate(15 -556.665 -1239.515)" width="5.403"/><rect height="1.358" rx=".679" transform="scale(-1 1) rotate(-15 185.106 1338.218)" width="5.403"/></g><rect height="21.107" rx="7.416" stroke="#fca121" stroke-width="3" width="14.831" x="339.925" y="85.388"/><path d="M338.965 92.654h16.21v2.037h-16.21z" fill="#fca121"/><path d="M22.89 64.684l2.185-.045 2.054-4.443 4.232 10.032 6.033-17.725 8.13 23.59 3.581-11.954 2.185-.045" stroke="#fca121" stroke-linecap="round" stroke-linejoin="round" stroke-width="3"/><path clip-rule="evenodd" d="M9.287 48.214l-1.628.675a2 2 0 01-2.764-1.935l.078-1.76-.675-1.628a2 2 0 011.935-2.764l1.76.077 1.628-.675a2 2 0 012.764 1.936l-.077 1.76.674 1.628a2 2 0 01-1.935 2.764zM346.287 135.214l-1.627.675a2 2 0 01-2.764-1.936l.077-1.76-.675-1.627a2 2 0 011.936-2.764l1.76.077 1.627-.675a2.001 2.001 0 012.765 1.936l-.078 1.76.675 1.627a2 2 0 01-1.936 2.765zM366.76 69.906l-2.353.104c-1.755.077-2.996-1.695-2.323-3.318l.903-2.176-.104-2.353c-.078-1.755 1.694-2.996 3.317-2.323l2.176.903 2.353-.104c1.755-.078 2.996 1.694 2.323 3.317l-.902 2.176.103 2.353c.078 1.755-1.694 2.996-3.317 2.323z" fill="#fc8a51" fill-rule="evenodd" opacity=".2"/><path clip-rule="evenodd" d="M47.719 99.637l-1.19-1.299a2 2 0 01.873-3.26l1.68-.528 1.298-1.191a2 2 0 013.26.873l.53 1.68 1.19 1.3a2 2 0 01-.873 3.259l-1.681.529-1.298 1.191a2 2 0 01-3.26-.874zM45.9 33.415l-1.761-.076a2 2 0 01-1.687-2.922l.814-1.563.076-1.76a2 2 0 012.922-1.687l1.563.814 1.76.076a2 2 0 011.687 2.922l-.814 1.563-.076 1.76a2 2 0 01-2.923 1.687zM371.922 109.111l-1.191-1.298a2 2 0 01.874-3.26l1.68-.529 1.299-1.191a2 2 0 013.259.874l.529 1.68 1.191 1.299a2 2 0 01-.873 3.259l-1.681.529-1.298 1.191a2 2 0 01-3.26-.873z" fill="#ac93e6" fill-rule="evenodd" opacity=".2"/></svg>