<svg xmlns="http://www.w3.org/2000/svg" width="40" height="40" viewBox="0 0 40 40"><g fill="none" transform="translate(1 1)"><circle cx="19" cy="19" r="19" fill="#FFF" stroke="#EFEDF8" stroke-width="2"/><path fill="#E1DBF1" d="M6.5 19a1.5 1.5 0 013 0 9.5 9.5 0 0019 0 1.5 1.5 0 013 0c0 6.904-5.596 12.5-12.5 12.5S6.5 25.904 6.5 19z"/><rect width="4" height="13" x="17" y="8" fill="#E1DBF1" rx="2"/><path fill="#6B4FBB" d="M19.864 24.693l3.995-4.866A1.118 1.118 0 0022.996 18h-7.992a1.118 1.118 0 00-.863 1.827l3.995 4.866a1.118 1.118 0 001.728 0z"/></g></svg>