<svg xmlns="http://www.w3.org/2000/svg" width="430" height="300" viewBox="0 0 430 300"><g fill="none" fill-rule="evenodd"><path d="M0 0h430v300H0z"/><g transform="translate(165 63)"><rect width="4" height="48" fill="#FDE5D8" rx="2"/><path fill="#FC6D26" d="M4 4l27.261 9.294c2.617.892 2.664 2.464.12 3.505L4 28V4z"/></g><path stroke="#EEE" stroke-dasharray="8 16" stroke-linecap="round" stroke-linejoin="round" stroke-width="4" d="M63.8 254.594l94.32-133.184c3.193-4.507 9.434-5.573 13.941-2.38a10 10 0 012.714 2.88l53.516 86.091c2.916 4.69 9.082 6.13 13.772 3.214a10 10 0 002.579-2.308l31.535-40.062c3.416-4.34 9.704-5.088 14.043-1.672a10 10 0 012.326 2.608l64.45 104.49"/><g fill="#F9F9F9" transform="translate(229 62)"><rect width="60" height="10" rx="5"/><rect width="74" height="10" x="31" y="20" rx="5"/><path d="M53.998 10a5 5 0 000 10H35.002a5 5 0 000-10h18.996z"/></g><g fill="#F9F9F9" transform="translate(315 143)"><rect width="36" height="10" rx="5"/><rect width="66" height="10" x="9" y="20" rx="5"/><rect width="44" height="10" x="43" y="40" rx="5"/><path d="M31.998 10a5 5 0 000 10H13.002a5 5 0 000-10h18.996zm35 20a5 5 0 000 10H48.002a5 5 0 000-10h18.996z"/></g><g fill="#F9F9F9" transform="translate(28 149)"><rect width="42" height="10" x="19" rx="5" transform="matrix(-1 0 0 1 80 0)"/><rect width="47" height="10" y="20" rx="5" transform="matrix(-1 0 0 1 47 0)"/><path d="M24.002 10a5 5 0 010 10h18.996a5 5 0 010-10H24.002z"/></g><g transform="translate(77 106)"><path stroke="#E1DBF1" stroke-linecap="round" stroke-linejoin="round" stroke-width="4" d="M5 5l43.5 8L92 73l43.5 4L179 97l43.5 37 43.5 4"/><circle cx="5" cy="5" r="5" fill="#FFF" stroke="#6B4FBB" stroke-width="4"/><g transform="translate(256 128)"><circle cx="10" cy="10" r="10" fill="#FFF" stroke="#6B4FBB" stroke-width="4"/><circle cx="10" cy="10" r="5" fill="#6B4FBB"/></g><circle cx="92" cy="73" r="5" fill="#C3B8E3"/><circle cx="48.5" cy="13.5" r="2.5" fill="#C3B8E3"/><circle cx="135.5" cy="77.5" r="2.5" fill="#C3B8E3"/><circle cx="180" cy="98" r="5" fill="#C3B8E3"/><circle cx="222.5" cy="133.5" r="2.5" fill="#C3B8E3"/></g><path fill="#FDE5D8" d="M371.282 98.842l-5.026-3.199c-.937-.597-.925-1.57 0-2.158l5.026-3.199 3.199-5.026c.596-.936 1.57-.925 2.158 0l3.199 5.026 5.026 3.199c.936.597.925 1.57 0 2.158l-5.026 3.2-3.2 5.025c-.596.936-1.569.925-2.157 0l-3.2-5.026"/><path fill="#D4CDE8" d="M286.956 34.956l-3.82-2.431c-.928-.591-.916-1.556 0-2.139l3.82-2.43 2.43-3.82c.592-.928 1.556-.917 2.14 0l2.43 3.82 3.82 2.43c.928.592.916 1.556 0 2.139l-3.82 2.43-2.43 3.82c-.592.928-1.556.917-2.14 0l-2.43-3.82"/><path fill="#FDE5D8" d="M241.956 132.956l-3.82-2.431c-.928-.591-.916-1.556 0-2.139l3.82-2.43 2.43-3.82c.592-.928 1.556-.917 2.14 0l2.43 3.82 3.82 2.43c.928.592.916 1.556 0 2.139l-3.82 2.43-2.43 3.82c-.592.928-1.556.917-2.14 0l-2.43-3.82M71.274 66.835l-5.026-3.2c-.937-.596-.925-1.57 0-2.157l5.026-3.2 3.199-5.026c.597-.936 1.57-.924 2.158 0l3.199 5.027 5.026 3.199c.936.596.925 1.57 0 2.158l-5.026 3.199-3.2 5.026c-.596.936-1.569.925-2.157 0l-3.2-5.026"/></g></svg>