<svg xmlns="http://www.w3.org/2000/svg" width="102" height="102" viewBox="0 0 102 102"><g fill="none" fill-rule="evenodd"><g transform="translate(0 4)"><circle cx="49" cy="49" r="49" fill="#EEE"/><circle cx="49" cy="49" r="45" fill="#FFF"/></g><g transform="translate(13 22)"><rect width="12" height="12" x="1" y="28" fill="#EFEDF8" rx="3"/><rect width="12" height="12" x="15" y="28" fill="#F9E2D5" rx="2"/><rect width="12" height="12" x="29" y="28" fill="#EFEDF8" rx="2"/><rect width="12" height="12" x="43" y="28" fill="#EFEDF8" rx="2"/><rect width="12" height="12" x="57" y="28" fill="#F9E2D5" rx="2"/><rect width="12" height="12" x="15" y="14" fill="#EFEDF8" rx="2"/><rect width="12" height="12" x="29" y="14" fill="#F9E2D5" rx="2"/><rect width="12" height="12" x="43" y="14" fill="#F9E2D5" rx="2"/><rect width="12" height="12" x="15" fill="#F9E2D5" rx="2"/><path fill="#C2B7E6" d="M35.5 72c11.503 0 21.99-6.958 31.463-20.875A2 2 0 0065.309 48H5.691a2 2 0 00-1.654 3.125C13.51 65.042 23.997 72 35.5 72z"/><rect width="71" height="4" y="42" fill="#6E49CB" rx="2"/></g><g transform="translate(54 2)"><circle cx="23" cy="23" r="23" fill="#FCD7C8" stroke="#FFF" stroke-width="4"/><circle cx="23" cy="23" r="21" fill="#FB722E" fill-rule="nonzero" opacity=".1"/><circle cx="23" cy="23" r="18" fill="#FFF" fill-rule="nonzero"/><path fill="#FC6D26" fill-rule="nonzero" d="M26 15.002a3 3 0 10-6 0v7.996a3 3 0 106 0v-7.996M23 34a3 3 0 100-6 3 3 0 000 6"/></g></g></svg>