<svg height="300" viewBox="0 0 430 300" width="430" xmlns="http://www.w3.org/2000/svg"><mask id="a" fill="#fff"><path d="M.968.121h185.3v42.884H.968z" fill-rule="evenodd"/></mask><g fill="none" fill-rule="evenodd" transform="translate(13 7)"><path d="M217 135.884c8.8-9.027 25.476-7.224 37.059-7.673 3.242-9.033 10.191-17.606 19.918-19.867 7.414-1.803 18.996-1.354 20.848 7.677 0 0-.75-23.021 23-23.021s18.695 25.278 18.695 25.278c11.58-8.579 25.011-9.48 33.816 3.161 2.315 3.161.926 4.513 4.63 5.418 1.854.902 6.95-.452 9.729 0 6.022.902 17.604 9.027 17.604 9.027z" fill="#fafafa"/><path d="M.968 43.005c8.8-9.028 25.476-7.224 37.06-7.674 3.242-9.033 10.19-17.606 19.917-19.868 7.415-1.801 18.996-1.352 20.85 7.679 0 0-.75-23.02 23-23.02s18.693 25.276 18.693 25.276c11.58-8.577 25.012-9.48 33.816 3.162 2.316 3.16.926 4.513 4.63 5.418 1.854.901 6.951-.453 9.73 0 6.022.901 17.604 9.026 17.604 9.026z" fill="#fafafa" mask="url(#a)" transform="translate(.933 56)"/><g stroke="#eee" stroke-width="4"><path d="M176 62l25.5 129.5M127 106c14.033 19.292 54.536 72.556 69 92M270.989 86.482c.259 12.361-63.638 85.383-63.609 106.176"/><path d="M218 122c-4.466 13.499-11.253 60.112-16 74zm-91 37c21.55 4.595 53.652 34.279 75.294 39"/></g><path d="M142.429 117.88c.25 3.514 2.153 5.61 4.266 6.435 3.938 1.542-6.726 6.926-5.63 2.843.59-2.19.036-4.968-2.644-7.253-.847-2.551 2.46-4.222 4.008-2.025" fill="#fafafa"/><path d="M154.488 72.731c-8.473-21.963-31.224-28.701-47.67-20.397-16.446 8.304-24.532 30.613-11.89 50.47 12.644 19.857 37.255 25.659 47.674 20.397 10.415-5.26 20.36-28.508 11.886-50.47z" fill="#fafafa"/><path d="M139.294 117.886c.25 3.515 2.153 5.61 4.267 6.436 3.937 1.542-6.727 6.926-5.63 2.843.59-2.191.035-4.969-2.645-7.253-.847-2.552 2.46-4.222 4.008-2.026" fill="#b5a7dd"/><path d="M149.622 73.451h0c-7.588-19.669-28.374-27.678-44.902-19.332-16.53 8.346-22.426 29.829-11.105 47.61 5.629 8.84 14.14 15.36 23.666 18.813 8.387 3.04 16.66 3.278 21.42.874 4.758-2.403 9.477-9.202 12.01-17.754 2.877-9.716 2.683-20.435-1.09-30.211z" fill="#f4f1fa" stroke="#b5a7dd" stroke-width="4"/><path d="M129.743 154.137c1.382 3.316 3.8 4.743 5.988 4.883 4.08.263-3.827 8.776-4.174 4.496-.186-2.3-1.602-4.805-4.786-6.176-1.607-2.2.845-4.84 2.972-3.203" fill="#f9f9f9"/><path d="M132.05 159.707c8.147-8.346 10.028-33.57-5.09-51.628-15.116-18.055-38.806-17.087-51.669-3.91-12.862 13.176-13.287 36.91 5.089 51.628 18.378 14.717 43.522 12.256 51.67 3.91" fill="#f9f9f9"/><path d="M126.89 155.064c1.382 3.316 3.8 4.743 5.987 4.883 4.082.263-3.827 8.776-4.173 4.496-.186-2.3-1.602-4.805-4.786-6.176-1.607-2.2.845-4.84 2.972-3.203" fill="#fc6f2a"/><path d="M122.574 110.29h0c-13.538-16.17-35.78-17.038-48.705-3.796-12.926 13.241-11.55 35.488 4.908 48.669 8.18 6.551 18.336 9.974 28.459 10.165 8.91.168 16.808-2.279 20.53-6.09 3.722-3.813 5.984-11.776 5.612-20.693-.423-10.129-4.074-20.216-10.804-28.255z" fill="#fde5d8" stroke="#fc6f2a" stroke-width="4"/><g><path d="M263.377 102.65c-2.262 2.701-2.348 5.53-1.401 7.593 1.76 3.844-9.65.31-6.025-1.866 1.947-1.166 3.477-3.55 3.136-7.054 1.163-2.424 4.702-1.329 4.29 1.327" fill="#f9f9f9"/><path d="M259.805 106.598c11.146 3.452 34.45-6.364 43.61-28.049 9.162-21.685-2.523-42.336-20.122-47.785-17.6-5.452-38.913 4.979-43.613 28.044-4.698 23.067 8.976 44.338 20.125 47.79" fill="#f9f9f9"/><path d="M261.484 103.353c-2.262 2.702-2.348 5.531-1.401 7.593 1.76 3.845-9.65.31-6.025-1.865 1.947-1.166 3.477-3.55 3.136-7.055 1.163-2.424 4.702-1.328 4.29 1.327" fill="#fc6d26"/><path d="M301.898 75.55c9.162-21.686-2.523-42.337-20.121-47.786-17.6-5.452-38.913 4.979-43.613 28.044-4.699 23.067 8.975 44.338 20.125 47.79 11.146 3.452 34.45-6.364 43.61-28.049z" fill="#fde5d8" stroke="#fc6d26" stroke-width="4"/></g><g><path d="M182.204 75.577c-.695 3.442.498 5.977 2.216 7.351 3.2 2.564-7.977 4.797-5.9 1.18 1.115-1.94 1.336-4.76-.518-7.69-.105-2.682 3.36-3.375 4.202-.84" fill="#fafafa"/><path d="M205.815 35.392C203.737 11.882 183.853-.9 165.87 2.56c-17.983 3.459-31.816 22.725-25.18 45.357 6.638 22.633 28.557 35.027 39.948 32.835 11.39-2.19 27.255-21.85 25.176-45.359z" fill="#fafafa"/><path d="M180.204 73.577c-.695 3.442.498 5.977 2.216 7.351 3.2 2.564-7.977 4.797-5.9 1.18 1.115-1.94 1.336-4.76-.518-7.69-.105-2.682 3.36-3.375 4.202-.84" fill="#fdb997"/><path d="M201.822 33.568h0C199.962 12.51 182.308-.95 164.25 2.523c-18.066 3.474-29.585 22.554-23.639 42.83 2.956 10.079 9.3 18.715 17.453 24.675 7.174 5.245 15.003 7.759 20.199 6.76 5.196-1 11.563-6.247 16.324-13.79 5.41-8.57 8.163-18.96 7.236-29.43z" fill="#fde5d8" stroke="#fdb997" stroke-width="4"/></g><g><path d="M222.677 125.503c-1.886 2.977-1.598 5.792-.39 7.711 2.252 3.58-9.525 1.58-6.217-1.057 1.775-1.412 2.978-3.974 2.18-7.405.833-2.555 4.484-1.935 4.427.751" fill="#f9f9f9"/><path d="M219.655 129.886c11.504 1.955 33.312-10.844 39.537-33.546s-8.078-41.637-26.241-44.724c-18.165-3.084-37.916 10.065-39.537 33.549-1.622 23.485 14.736 42.767 26.24 44.72" fill="#f9f9f9"/><path d="M219.677 123.503c-1.886 2.977-1.598 5.792-.39 7.711 2.252 3.58-9.525 1.58-6.217-1.057 1.775-1.412 2.978-3.974 2.18-7.405.833-2.555 4.484-1.935 4.427.751" fill="#b5a7dd"/><path d="M254.263 93.811c5.575-20.33-6.393-39.12-24.647-42.223-18.256-3.1-35.755 10.684-37.207 31.715-.722 10.454 2.254 20.754 7.868 29.188 4.942 7.426 11.457 12.53 16.713 13.423 5.255.893 13.09-1.774 20.207-7.15 8.085-6.108 14.295-14.847 17.066-24.953z" fill="#f4f1fa" stroke="#b5a7dd" stroke-width="4"/></g><ellipse cx="210" cy="280" fill="#f9f9f9" rx="117" ry="5"/><g><path d="M212.845 174.978a468.124 468.124 0 00-12.895 13.254c-1.189 1.271-1.304 2.772-.568 3.379.806.664 2.538.332 3.768-.984 4.12-4.405 8.336-8.74 12.648-12.999 1.252-1.237 1.453-2.79.751-3.454-.738-.698-2.428-.457-3.704.804z" fill="#f4f1fa" stroke="#e1dcf1" stroke-width="3"/><path d="M199.053 192.656c1.792-.074 3.121-1.145 3.114-2.16-.006-.967-1.28-1.879-3.038-1.807-6.056.248-12.101.376-18.133.385-1.8.002-3.226 1.042-3.29 2.085-.058.951 1.119 1.891 2.859 1.889 6.15-.009 12.314-.14 18.488-.392z" fill="#f4f1fa" stroke="#e1dcf1" stroke-width="3"/><path d="M152.805 227.366a8.996 8.996 0 014.356-11.964l102.74-47.909c4.508-2.101 9.864-.152 11.965 4.353l13.1 28.093a8.996 8.996 0 01-4.356 11.963l-102.741 47.91c-4.507 2.1-9.864.151-11.964-4.354z" fill="#fafafa"/><path d="M202.686 182.33a1.807 1.807 0 002.34-1.302l3.32-14.282a2.53 2.53 0 00-1.65-2.967 1.807 1.807 0 00-2.341 1.302l-3.32 14.282a2.53 2.53 0 001.65 2.968zm-7.013 3.99a1.807 1.807 0 00-.743-2.574l-13.169-6.447a2.53 2.53 0 00-3.263.941 1.807 1.807 0 00.742 2.574l13.17 6.447a2.53 2.53 0 003.263-.941z" fill="#f4f1fa" stroke="#e1dcf1" stroke-width="3"/><path d="M147.617 223.52l13.1 28.093a7.003 7.003 0 009.307 3.386l102.741-47.91a6.996 6.996 0 003.388-9.305l-13.1-28.093a7.003 7.003 0 00-9.306-3.385l-102.741 47.909a6.996 6.996 0 00-3.389 9.305z" fill="#fff" stroke="#eee" stroke-width="4"/><g fill="#f4f1fa" stroke-width="3" transform="translate(144 162)"><path d="M76.771 66.91a4.57 4.57 0 002.399-6.265l-11.95-24.21a5.588 5.588 0 00-7.089-2.714 4.57 4.57 0 00-2.398 6.264l11.95 24.21a5.588 5.588 0 007.088 2.714z" stroke="#e1dcf1"/><circle cx="57.5" cy="27.5" r="5.5" stroke="#6b4fbb" stroke-linecap="round"/></g></g></g></svg>