<svg width="430" height="267" viewBox="0 0 430 267" xmlns="http://www.w3.org/2000/svg"><g fill="none" fill-rule="evenodd"><path d="M346.539 251.829a2 2 0 01-3.987.33 130.604 130.604 0 00-.886-7.834 2 2 0 113.96-.57c.384 2.675.689 5.367.913 8.074z" fill="#C3B8E3"/><path d="M342.34 227.845a2 2 0 11-3.861 1.046 128.974 128.974 0 00-2.294-7.54 2 2 0 013.79-1.281 132.973 132.973 0 012.364 7.775z" fill="#EFEDF8"/><path d="M333.85 205.033a2 2 0 11-3.606 1.732 129.49 129.49 0 00-3.624-6.99 2 2 0 013.494-1.949 133.49 133.49 0 013.736 7.207z" fill="#E1DBF1"/><path d="M321.334 184.115a2 2 0 11-3.231 2.357 130.498 130.498 0 00-4.835-6.224 2 2 0 113.083-2.548 134.498 134.498 0 014.983 6.415z" fill="#EFEDF8"/><path d="M305.3 165.855a2 2 0 11-2.756 2.9 130.802 130.802 0 00-5.874-5.255 2 2 0 012.576-3.06 134.801 134.801 0 016.054 5.415z" fill="#E1DBF1"/><path d="M127.147 160.108a2 2 0 012.565 3.07 130.728 130.728 0 00-5.894 5.233 2 2 0 11-2.745-2.91 134.728 134.728 0 016.074-5.393z" fill="#C3B8E3"/><path d="M109.98 177.303a2 2 0 013.075 2.56 130.648 130.648 0 00-4.858 6.206 2 2 0 01-3.223-2.37 134.648 134.648 0 015.007-6.396z" fill="#E1DBF1"/><path d="M96.147 197.37a2 2 0 113.486 1.962 129.715 129.715 0 00-3.655 6.982 2 2 0 01-3.599-1.747 133.715 133.715 0 013.768-7.197z" fill="#EFEDF8"/><path d="M86.174 219.631a2 2 0 113.784 1.295 128.962 128.962 0 00-2.32 7.527 2 2 0 11-3.857-1.06c.72-2.614 1.517-5.202 2.393-7.762z" fill="#E1DBF1"/><path d="M80.45 243.199a2 2 0 013.957.586c-.384 2.593-.69 5.203-.918 7.826a2 2 0 01-3.985-.346c.234-2.703.55-5.393.946-8.066z" fill="#C3B8E3"/><path d="M401.715 251.904a2 2 0 11-3.994.222c-.146-2.639-.35-5.27-.61-7.893a2 2 0 113.98-.395c.266 2.68.474 5.369.624 8.066z" fill="#EFEDF8"/><path d="M398.795 227.82a2 2 0 11-3.931.74 181.586 181.586 0 00-1.631-7.74 2 2 0 013.895-.91c.613 2.622 1.168 5.26 1.667 7.91z" fill="#C3B8E3"/><path d="M392.77 204.344a2 2 0 11-3.802 1.246 181.847 181.847 0 00-2.626-7.462 2 2 0 013.744-1.41c.95 2.522 1.844 5.065 2.683 7.626z" fill="#EFEDF8"/><path d="M383.718 181.81a2 2 0 11-3.606 1.73 182.837 182.837 0 00-3.576-7.06 2 2 0 013.529-1.884 186.837 186.837 0 013.653 7.214z" fill="#E1DBF1"/><path d="M371.86 160.705a2 2 0 11-3.353 2.18 183.785 183.785 0 00-4.455-6.538 2 2 0 113.256-2.323 187.784 187.784 0 014.552 6.681z" fill="#EFEDF8"/><path d="M357.351 141.265a2 2 0 11-3.044 2.595 184.16 184.16 0 00-5.26-5.91 2 2 0 012.931-2.723 188.16 188.16 0 015.373 6.038z" fill="#E1DBF1"/><path d="M340.444 123.84a2 2 0 11-2.685 2.964 183.772 183.772 0 00-5.979-5.184 2 2 0 112.555-3.078 187.77 187.77 0 016.11 5.297z" fill="#C3B8E3"/><path d="M321.434 108.742a2 2 0 01-2.28 3.287 182.814 182.814 0 00-6.6-4.369 2 2 0 112.135-3.383c2.28 1.44 4.529 2.928 6.745 4.465z" fill="#E1DBF1"/><path d="M300.633 96.238a2 2 0 01-1.833 3.555 181.829 181.829 0 00-7.11-3.473 2 2 0 111.677-3.631 185.83 185.83 0 017.266 3.549z" fill="#EFEDF8"/><path d="M136.597 92.72a2 2 0 011.68 3.63 182.722 182.722 0 00-7.11 3.48 2 2 0 11-1.835-3.554 186.722 186.722 0 017.265-3.556z" fill="#C3B8E3"/><path d="M115.32 104.296a2 2 0 112.134 3.383 183.706 183.706 0 00-6.602 4.369 2 2 0 01-2.28-3.288 187.706 187.706 0 016.747-4.464z" fill="#EFEDF8"/><path d="M95.68 118.544a2 2 0 112.553 3.08 184.157 184.157 0 00-5.981 5.18 2 2 0 01-2.683-2.967 187.394 187.394 0 016.111-5.293z" fill="#E1DBF1"/><path d="M78.04 135.2a2 2 0 012.929 2.725c-1.797 1.93-3.552 3.9-5.264 5.905a2 2 0 01-3.042-2.597c1.749-2.05 3.542-4.06 5.378-6.033z" fill="#EFEDF8"/><path d="M62.681 154.008a2 2 0 113.256 2.324 182.928 182.928 0 00-4.457 6.538 2 2 0 01-3.353-2.182c1.47-2.26 2.988-4.487 4.554-6.68z" fill="#E1DBF1"/><path d="M49.895 174.632a2 2 0 013.53 1.882 181.912 181.912 0 00-3.57 7.062 2 2 0 11-3.609-1.727 185.912 185.912 0 013.649-7.217z" fill="#C3B8E3"/><path d="M39.934 196.656a2 2 0 113.744 1.408 181.556 181.556 0 00-2.622 7.465 2 2 0 11-3.802-1.243 185.556 185.556 0 012.68-7.63z" fill="#E1DBF1"/><path d="M32.898 219.88a2 2 0 013.896.907 182.728 182.728 0 00-1.628 7.744 2 2 0 11-3.932-.738 186.728 186.728 0 011.664-7.913z" fill="#EFEDF8"/><path d="M28.936 243.814a2 2 0 013.98.398 186.235 186.235 0 00-.594 7.46l-.025.44a2 2 0 11-3.994-.228l.027-.45c.151-2.55.353-5.09.606-7.62z" fill="#E1DBF1"/><path d="M183.395 149.34l-22.82 3.938a5.6 5.6 0 01-6.349-7.015L164.843 108a5.6 5.6 0 013.97-3.918l3.44-.907a148.5 148.5 0 00-.175 4.183l-2.246.592a1.6 1.6 0 00-1.135 1.12l-10.616 38.262a1.6 1.6 0 001.814 2.005l20.588-3.554a42.931 42.931 0 002.912 3.556zm63.196-.007a42.81 42.81 0 002.905-3.558l20.632 3.562a1.6 1.6 0 001.814-2.005l-10.617-38.263a1.6 1.6 0 00-1.134-1.12l-2.238-.589a157.73 157.73 0 00-.146-4.175l3.403.897a5.6 5.6 0 013.97 3.918l10.616 38.263a5.6 5.6 0 01-6.349 7.015l-22.856-3.945z" fill="#EEE" fill-rule="nonzero"/><path d="M174.068 107.765a2 2 0 01-4-.102c.07-2.722.212-5.42.426-8.093a2 2 0 013.987.318 145.785 145.785 0 00-.413 7.877zm1.395-16.71a2 2 0 01-3.96-.566c.386-2.697.845-5.362 1.376-7.995a2 2 0 013.921.79c-.515 2.559-.962 5.15-1.337 7.771zm3.373-16.415a2 2 0 01-3.861-1.044 137.195 137.195 0 012.349-7.772 2 2 0 113.793 1.27 133.195 133.195 0 00-2.281 7.546zm5.378-15.845a2 2 0 11-3.697-1.526 129.122 129.122 0 013.335-7.411 2 2 0 013.594 1.756 125.122 125.122 0 00-3.232 7.181zm59.458-7.243a2 2 0 113.644-1.649 134.68 134.68 0 013.12 7.5 2 2 0 11-3.739 1.424 129.454 129.454 0 00-3.025-7.275zm5.911 15.676a2 2 0 113.823-1.176 144.74 144.74 0 012.166 7.82 2 2 0 01-3.884.958 140.379 140.379 0 00-2.105-7.602zm3.97 16.299a2 2 0 013.935-.718c.482 2.639.896 5.31 1.241 8.011a2 2 0 11-3.967.507 147.83 147.83 0 00-1.209-7.8zm2.077 16.675a2 2 0 113.99-.272 159.08 159.08 0 01.346 8.107 2 2 0 11-3.999.072l-.007-.37c-.05-2.533-.16-5.045-.33-7.537zm.294 16.811a2 2 0 013.998.119 151.69 151.69 0 01-.35 6.822c-.035.452-.074.886-.119 1.318a2 2 0 11-3.978-.415c.04-.394.076-.79.105-1.174.162-2.146.276-4.363.344-6.67zm-2.232 16.24a2 2 0 013.803 1.24 44.429 44.429 0 01-3.337 7.684 2 2 0 11-3.503-1.932 40.43 40.43 0 003.037-6.992zm-7.936 14.01a2 2 0 013.021 2.62 44.893 44.893 0 01-6.054 5.786 2 2 0 01-2.482-3.137 40.893 40.893 0 005.515-5.27zm-12.82 9.881a2 2 0 111.764 3.59 44.452 44.452 0 01-7.832 2.97 2 2 0 11-1.06-3.856 40.452 40.452 0 007.128-2.704zm-15.526 4.084a2 2 0 01.232 3.993 45.228 45.228 0 01-8.368-.289 2 2 0 11.51-3.967 41.161 41.161 0 007.626.263zm-15.97-2.246a2 2 0 01-1.33 3.772 44.64 44.64 0 01-7.601-3.516 2 2 0 112.012-3.457 40.64 40.64 0 006.92 3.201zm-13.842-8.272a2 2 0 01-2.689 2.961 44.98 44.98 0 01-5.648-6.18 2 2 0 113.191-2.412 40.98 40.98 0 005.146 5.63zm-9.606-13.06a2 2 0 01-3.63 1.682 44.515 44.515 0 01-2.79-7.897 2 2 0 113.88-.973 40.515 40.515 0 002.54 7.188zm-3.75-15.626a2 2 0 01-3.993.224 163.12 163.12 0 01-.245-8.096 2 2 0 014-.026c.018 2.752.097 5.384.238 7.898z" fill="#EEE" fill-rule="nonzero"/><g transform="translate(200.523 142.14)"><ellipse fill="#FEE1D3" cx="3" cy="2.987" rx="3" ry="2.987"/><ellipse fill="#FDC4A8" cx="15" cy="2.987" rx="3" ry="2.987"/><ellipse fill="#FC6D26" cx="27" cy="2.987" rx="3" ry="2.987"/></g><path d="M215.5 48.516c9.331 0 18.165-1.56 25.306-4.354C232.536 28.315 221.782 17 217.003 17c-2.033 0-6.24 2.667-10.884 7.336-5.097 5.125-10.257 12.091-14.8 20.25 6.944 2.53 15.342 3.93 24.181 3.93zm-28.789-3.83C196.401 26.471 209.798 13 217.003 13c7.033 0 19.342 13.176 28.356 31.286a2 2 0 01-.98 2.72c-7.983 3.539-18.14 5.51-28.879 5.51-10.248 0-19.972-1.795-27.79-5.044a2 2 0 01-.999-2.786z" fill="#EEE" fill-rule="nonzero"/><path d="M216 104.578c8.84 0 16-7.127 16-15.91 0-8.783-7.16-15.91-16-15.91s-16 7.127-16 15.91c0 8.783 7.16 15.91 16 15.91zm0 4c-11.046 0-20-8.914-20-19.91s8.954-19.91 20-19.91 20 8.914 20 19.91-8.954 19.91-20 19.91z" fill="#E1DBF1" fill-rule="nonzero"/><path d="M216 94.623c3.318 0 6-2.67 6-5.955s-2.682-5.955-6-5.955-6 2.67-6 5.955 2.682 5.955 6 5.955zm0 4c-5.523 0-10-4.457-10-9.955s4.477-9.955 10-9.955 10 4.457 10 9.955-4.477 9.955-10 9.955z" fill="#6B4FBB" fill-rule="nonzero"/><g fill-rule="nonzero"><path d="M392 115a5 5 0 100-10 5 5 0 000 10zm0 4a9 9 0 110-18 9 9 0 010 18z" fill="#6B4FBB"/><path d="M39 126a3 3 0 100-6 3 3 0 000 6zm0 4a7 7 0 110-14 7 7 0 010 14z" fill="#E1DBF1"/><path d="M86 53a5 5 0 100-10 5 5 0 000 10zm0 4a9 9 0 110-18 9 9 0 010 18z" fill="#C3B8E3"/><path d="M345 35a3 3 0 100-6 3 3 0 000 6zm0 4a7 7 0 110-14 7 7 0 010 14z" fill="#E1DBF1"/></g><path d="M207 170.306a2 2 0 014 0c0 4.696-.418 14.073-.942 16.637a2 2 0 01-2.345 1.562 14.08 14.08 0 00-2.713-.263 14.006 14.006 0 00-13.589 10.617 2 2 0 01-2.538 1.427 22.99 22.99 0 00-6.873-1.044c-12.703 0-23 10.298-23 23a2 2 0 01-2 2c-12.703 0-23 10.298-23 23 0 1.56.155 3.1.46 4.602a2 2 0 11-3.92.796 27.115 27.115 0 01-.54-5.398c0-14.262 11.058-25.941 25.068-26.932.99-14.01 12.67-25.068 26.932-25.068 2.085 0 4.139.237 6.133.7a18.01 18.01 0 0118.247-11.648c.346-3.576.62-10.39.62-13.988zm92 76.936c0 1.828-.182 3.634-.54 5.398a2 2 0 11-3.92-.796c.305-1.502.46-3.042.46-4.602 0-12.702-10.297-23-23-23a2 2 0 01-2-2c0-12.702-10.297-23-23-23a22.91 22.91 0 00-9.426 2.013 2 2 0 01-2.79-1.475c-1.175-6.632-6.968-11.538-13.784-11.538-.313 0-.624.01-.933.03a2 2 0 01-2.089-1.585c-.544-2.598-.978-12-.978-16.687a2 2 0 014 0c0 3.672.298 10.734.668 14.254 7.652.281 14.192 5.366 16.473 12.476a26.965 26.965 0 018.859-1.488c14.262 0 25.941 11.058 26.932 25.068 14.01.99 25.068 12.67 25.068 26.932zm-65.085 1.454a2 2 0 11-3.863 1.036c-1.93-7.202-9.333-11.476-16.534-9.546a2 2 0 11-1.036-3.864c9.336-2.501 18.932 3.039 21.433 12.374zm17.625-21.703a2 2 0 01-3.073 2.56 13.5 13.5 0 00-13.875-4.404 2 2 0 01-1.035-3.863 17.5 17.5 0 0117.983 5.707zm-78.214 6.962c2.502-9.336 12.098-14.876 21.433-12.375a2 2 0 01-1.035 3.864c-7.202-1.93-14.604 2.344-16.534 9.546a2 2 0 01-3.864-1.035z" fill="#EEE" fill-rule="nonzero"/></g></svg>