<svg height="217" width="304" xmlns="http://www.w3.org/2000/svg"><g fill="none" fill-rule="evenodd"><path d="M41.4 34.2h197.1c7.456 0 13.5 6.044 13.5 13.5v131.4c0 7.456-6.044 13.5-13.5 13.5H41.4c-7.456 0-13.5-6.044-13.5-13.5V47.7c0-7.456 6.044-13.5 13.5-13.5z" stroke="#eee" stroke-dasharray="7.2 8.1" stroke-linecap="round" stroke-linejoin="round" stroke-width="3.6"/><rect fill="#f9f9f9" height="120.6" rx="9" width="154.8" x="148.9" y="58.1"/><rect fill="#fff" height="117" rx="9" stroke="#eee" stroke-width="3.6" width="151.2" x="146.7" y="54.9"/><rect fill="#c6b7e7" height="3.6" rx="1.8" width="45.9" x="162" y="76.5"/><rect fill="#c6b7e7" height="3.6" rx="1.8" width="60.3" x="162" y="105.3"/><rect fill="#e3daf3" height="3.6" rx="1.8" width="67.5" x="162" y="87.3"/><rect fill="#e3daf3" height="3.6" rx="1.8" width="40.5" x="162" y="116.1"/><rect fill="#c6b7e7" height="3.6" rx="1.8" width="53.1" x="162" y="134.1"/><rect fill="#e3daf3" height="3.6" rx="1.8" width="40.5" x="162" y="144.9"/><rect fill="#f9f9f9" height="99" rx="9" width="118.8" x="4" y="4"/><rect fill="#fff" height="95.4" rx="9" stroke="#eee" stroke-width="3.6" width="115.2" x="1.8" y="1.8"/><path d="M19.8 31.5h1.8a3.6 3.6 0 013.6 3.6V81h-9V35.1a3.6 3.6 0 013.6-3.6zm18 14.4h1.8a3.6 3.6 0 013.6 3.6V81h-9V49.5a3.6 3.6 0 013.6-3.6zm18 14.4h3.6a3.6 3.6 0 013.6 3.6V81H52.2V63.9a3.6 3.6 0 013.6-3.6z" fill="#f0edf9"/><path d="M75.6 38.7h3.6a3.6 3.6 0 013.6 3.6V81H72V42.3a3.6 3.6 0 013.6-3.6zm19.8 7.2H99a3.6 3.6 0 013.6 3.6V81H91.8V49.5a3.6 3.6 0 013.6-3.6z" fill="#c6b7e7"/><rect fill="#f9f9f9" height="99" rx="9" width="118.8" x="4" y="117.4"/><rect fill="#fff" height="95.4" rx="9" stroke="#eee" stroke-width="3.6" width="115.2" x="1.8" y="115.2"/><path d="M19.8 166.5h1.8a3.6 3.6 0 013.6 3.6v24.3h-9v-24.3a3.6 3.6 0 013.6-3.6zm18-7.2h1.8a3.6 3.6 0 013.6 3.6v31.5h-9v-31.5a3.6 3.6 0 013.6-3.6z" fill="#f0edf9"/><path d="M55.8 137.7h3.6a3.6 3.6 0 013.6 3.6v53.1H52.2v-53.1a3.6 3.6 0 013.6-3.6zm19.8 14.4h3.6a3.6 3.6 0 013.6 3.6v38.7H72v-38.7a3.6 3.6 0 013.6-3.6z" fill="#c6b7e7"/><path d="M95.4 173.7H99a3.6 3.6 0 013.6 3.6v17.1H91.8v-17.1a3.6 3.6 0 013.6-3.6z" fill="#f0edf9"/><g fill="#2e2e2e" font-family="HelveticaNeue-Bold, Helvetica Neue" font-size="14.4" font-weight="bold"><text><tspan x="252.9" y="88.7">12 </tspan><tspan font-size="9" x="272.916" y="88.7">d</tspan></text><text><tspan x="252.9" y="117.5">8 </tspan><tspan font-size="9" x="264.91" y="117.5">d</tspan></text><text><tspan x="252.9" y="146.3">6 </tspan><tspan font-size="9" x="264.91" y="146.3">d</tspan></text></g></g></svg>