<svg width="80" height="80" fill="none" xmlns="http://www.w3.org/2000/svg"><path d="M66.191 8.191h11.427c.657 0 1.19.533 1.19 1.191v60.236a1.19 1.19 0 01-1.19 1.19H66.19V8.192z" fill="#F0F0F0" stroke="#DBDBDB" stroke-width="2.382"/><path d="M22.052 19.272l-.043-9.172a2.382 2.382 0 012.006-2.363L63.361 1.44a2.382 2.382 0 012.759 2.353v72.078a2.382 2.382 0 01-2.746 2.354l-39.07-6.03a2.382 2.382 0 01-2.02-2.344l-.041-9.097" stroke="#DBDBDB" stroke-width="2.382"/><circle cx="23" cy="40" r="21" stroke="#6E49CB" stroke-width="2.382"/><circle cx="23" cy="40" r="17" fill="#6E49CB"/><circle cx="23" cy="40" r="17" fill="#fff" fill-opacity=".9"/><path d="M22.313 48V33.366M15 40.305h15" stroke="#6E49CB" stroke-width="2.382" stroke-linecap="round"/></svg>