<svg width="169" height="84" fill="none" xmlns="http://www.w3.org/2000/svg"><path d="M153.5 75.572h12.184c.727 0 1.316-.59 1.316-1.316V9.745c0-.727-.589-1.316-1.316-1.316H153.5M107.941 58l.073 15.906a1.316 1.316 0 001.117 1.295l42.782 6.566a1.316 1.316 0 001.516-1.3V3.542c0-.81-.723-1.427-1.523-1.3l-43.077 6.853a1.316 1.316 0 00-1.109 1.306l.052 11.099" stroke="#DBDBDB" stroke-width="2.632"/><path d="M133.539 53.531l-10.63-.538m14.402.73l11.658.59m-16.744-9.335l-8.224-.282m11.998.412l11.667.401m.572-32.145l-17.048 2.24m-13.908 1.849l9.134-1.222m22.615 21.621l-17.194.182m-6.838.051h2.024m-14.984 29.26l8.544 1.065m27.684 3.454l-13.671-1.706m-9.57-1.193l4.443.554m-15.116-45.124l1.863-.156m13.042-1.092l-9.824.822m17.955-1.503l7.791-.652m-9.349 8.393l-9.852.382m12.744-.603l7.813-.303m-31.422 30.873l13.828 1.324m4.839.463l11.409 1.092" stroke="#DFDFDF" stroke-width="1.316" stroke-linecap="round"/><path d="M53.43 43.429H21.287C10.636 43.429 2 34.794 2 24.143 2 13.492 10.635 4.857 21.286 4.857c10.651 0 19.285 8.635 19.285 19.286 0 5.027-1.923 9.605-5.074 13.038m17.538 6.248H42.356c-7.298 0-13.214 5.916-13.214 13.214s5.916 13.214 13.214 13.214S55.57 63.941 55.57 56.643c0-1.747-.339-3.414-.954-4.94" stroke="#DBDBDB" stroke-width="2.632" stroke-linecap="round"/><path fill-rule="evenodd" clip-rule="evenodd" d="M38.43 52.715c0-.79.64-1.43 1.428-1.43h4.286c.686 0 1.26.485 1.397 1.13l2.17 1.253c.684.394.918 1.268.523 1.951-.915 1.585-2.662 4.606-2.772 4.8-.277.487-.737.867-1.318.867h-4.286c-.789 0-1.428-.64-1.428-1.429v-7.142zm1.428 0h4.286v7.142h-4.286v-7.142zm5.715 4.658l1.424-2.468-1.425-.823v3.29z" fill="#FC6D26"/><path d="M25.597 16.233a1.429 1.429 0 10-2.76-.74l-4.436 16.56a1.428 1.428 0 102.76.739l4.436-16.559zm-8.302 2.614a1.429 1.429 0 010 2.02l-3.276 3.276 3.276 3.276a1.429 1.429 0 01-2.02 2.02l-4.286-4.286a1.429 1.429 0 010-2.02l4.285-4.286a1.429 1.429 0 012.02 0zm9.408 0a1.429 1.429 0 000 2.02l3.276 3.276-3.276 3.276a1.429 1.429 0 102.02 2.02l4.286-4.286a1.429 1.429 0 000-2.02l-4.286-4.286a1.429 1.429 0 00-2.02 0z" fill="#6E49CB"/><path d="M50.572 36.286h11.43a1.429 1.429 0 110 2.857h-11.43a1.429 1.429 0 010-2.857z" fill="#FC6D26"/><path d="M50.572 36.286h11.43a1.429 1.429 0 110 2.857h-11.43a1.429 1.429 0 010-2.857z" fill="#fff" fill-opacity=".6"/><path d="M70.574 36.286H83.43a1.429 1.429 0 110 2.857H70.574a1.429 1.429 0 110-2.857z" fill="#FC6D26"/><path d="M76.288 47.714h15.858a1.429 1.429 0 110 2.858H76.288a1.429 1.429 0 110-2.858z" fill="#6E49CB"/><path d="M76.288 47.714h15.858a1.429 1.429 0 110 2.858H76.288a1.429 1.429 0 110-2.858z" fill="#fff" fill-opacity=".8"/><path d="M62.715 42h27.286a1.429 1.429 0 110 2.857H62.715a1.429 1.429 0 110-2.857z" fill="#6E49CB"/><path d="M62.715 42h27.286a1.429 1.429 0 110 2.857H62.715a1.429 1.429 0 110-2.857z" fill="#fff" fill-opacity=".6"/><path d="M69.857 30.572h21.714a1.429 1.429 0 110 2.857H69.857a1.429 1.429 0 010-2.858z" fill="#6E49CB"/><path d="M69.857 30.572h21.714a1.429 1.429 0 110 2.857H69.857a1.429 1.429 0 010-2.858z" fill="#fff" fill-opacity=".8"/><circle cx="107.713" cy="39.857" r="17.857" stroke="#6E49CB" stroke-width="2.632"/><circle cx="107.716" cy="39.857" r="13.571" fill="#6E49CB"/><circle cx="107.716" cy="39.857" r="13.571" fill="#fff" fill-opacity=".9"/><path d="M111.432 36.087l3.937 3.936-3.937 3.937a1.062 1.062 0 01-1.502-1.502l1.373-1.373h-10.179a1.062 1.062 0 010-2.124h10.179l-1.373-1.373a1.063 1.063 0 011.502-1.501z" fill="#6E49CB"/></svg>