<svg width="82" height="80" fill="none" xmlns="http://www.w3.org/2000/svg"><path d="M68.177 8.176h11.47c.65 0 1.176.527 1.176 1.177v60.294c0 .65-.526 1.176-1.176 1.176h-11.47V8.176z" fill="#F0F0F0" stroke="#DBDBDB" stroke-width="2.353"/><path d="M24.05 19l-.04-8.925a2.353 2.353 0 011.98-2.335l39.403-6.304a2.353 2.353 0 012.725 2.323v72.144a2.353 2.353 0 01-2.712 2.325l-39.127-6.04a2.353 2.353 0 01-1.994-2.314L24.244 61" stroke="#DBDBDB" stroke-width="2.353"/><path d="M60.02 11.18l-30 4.04A1.176 1.176 0 0029 16.386v2.738c0 .691.594 1.234 1.283 1.171l30-2.727a1.176 1.176 0 001.07-1.172v-4.05c0-.713-.628-1.261-1.334-1.166zm-8.85 17.922l-9.28.746a1.176 1.176 0 00-.914 1.778l1.676 2.794c.216.36.605.577 1.024.572l7.603-.095a1.176 1.176 0 001.162-1.176v-3.446c0-.687-.586-1.228-1.27-1.173zm10.04 41.532V40.176c0-.65-.526-1.176-1.176-1.176H44.99c-.544 0-1.017.373-1.144.902l-2.729 11.37c-.036.15-.103.295-.195.42-3.745 5.084-6.2 5.782-11.21 7.99a1.173 1.173 0 00-.697 1.096l.115 5.517a1.176 1.176 0 001.005 1.14l29.727 4.363a1.176 1.176 0 001.347-1.164z" fill="#DBDBDB" stroke="#DBDBDB" stroke-width=".588" stroke-linecap="round" stroke-linejoin="bevel"/><path d="M43.57 24l-7.57.5" stroke="#DBDBDB" stroke-width="1.176" stroke-linecap="round"/><circle cx="23" cy="40" r="21" stroke="#6E49CB" stroke-width="2.353"/><circle cx="23" cy="40" r="17" fill="#6E49CB"/><circle cx="23" cy="40" r="17" fill="#fff" fill-opacity=".9"/><path d="M22.313 48V33M15 41.315h15" stroke="#6E49CB" stroke-width="2.353" stroke-linecap="round"/></svg>