<svg width="508" height="228" viewBox="0 0 508 228" xmlns="http://www.w3.org/2000/svg"><g transform="translate(2)" fill="none" fill-rule="evenodd"><path d="M.625 216h489.424" stroke="#E1DBF1" stroke-width="4" stroke-linecap="round" stroke-linejoin="round"/><path d="M474 218a2 2 0 10.09-3.999A2 2 0 00474 218m0 4a6 6 0 110-12 6 6 0 010 12" fill="#FB722E" fill-rule="nonzero"/><rect fill="#FEE8DC" x="472" y="170" width="4" height="48" rx="2"/><path d="M476 174l27.261 9.294c2.617.892 2.664 2.464.12 3.505L476 198v-24z" fill="#FB722E"/><circle stroke="#6B4FBB" stroke-width="4" fill="#FFF" cx="37" cy="216" r="5"/><circle fill="#C3B8E3" cx="151" cy="216" r="5"/><circle fill="#C3B8E3" cx="76" cy="216" r="2"/><circle fill="#C3B8E3" cx="112" cy="216" r="2"/><circle fill="#C3B8E3" cx="190" cy="216" r="2"/><circle fill="#C3B8E3" cx="353" cy="216" r="5"/><circle fill="#C3B8E3" cx="431" cy="216" r="5"/><circle fill="#C3B8E3" cx="278" cy="216" r="2"/><circle fill="#C3B8E3" cx="314" cy="216" r="2"/><circle fill="#C3B8E3" cx="392" cy="216" r="2"/><circle stroke="#6B4FBB" stroke-width="4" fill="#FFF" cx="234" cy="216" r="10"/><circle fill="#6B4FBB" cx="234" cy="216" r="5"/><path d="M290.242 182.348c-3.7 1.576-7.3 1.994-10.902.84a7.002 7.002 0 01-9.085-.699l-4.243-4.243a7 7 0 01-.238-9.649c-.701-3.024-.419-6.083.646-9.206l-6.287-2.426a5.6 5.6 0 01-2.274-8.824l8.233-9.811a5.6 5.6 0 016.306-1.625l8.045 3.105c.772-.797 1.564-1.6 2.374-2.41 8.024-8.024 18.448-12.265 31.273-12.723a10 10 0 011.119.023c5.507.42 9.63 5.226 9.209 10.733-.935 12.225-5.373 22.309-13.315 30.25a410.83 410.83 0 01-1.661 1.653l3.247 8.412a5.6 5.6 0 01-1.625 6.306l-9.81 8.233a5.6 5.6 0 01-8.825-2.274l-2.186-5.665h-.001zm-22.92-26.923l10.406-12.402-6.822-2.633a1.6 1.6 0 00-1.801.464l-8.233 9.811a1.6 1.6 0 00.65 2.521l5.8 2.239zm26.646 25.4l2.239 5.8a1.6 1.6 0 002.521.649l9.81-8.232a1.6 1.6 0 00.465-1.802l-2.633-6.822-12.402 10.406v.001zm-19.69-5.627c8.751 8.752 16.065 5.587 33.995-12.343 7.25-7.25 11.292-16.433 12.155-27.727a6 6 0 00-6.196-6.454c-11.846.423-21.303 4.271-28.586 11.554-17.03 17.03-20.414 25.924-11.368 34.97z" fill="#EEE" fill-rule="nonzero"/><path d="M298.54 151.376a4 4 0 105.656-5.657 4 4 0 00-5.657 5.657h.001zm-2.83 2.829a8 8 0 0111.315-11.315 8 8 0 01-11.313 11.314l-.002.001z" fill="#FDC4A8" fill-rule="nonzero"/><path d="M261.063 177.54a2 2 0 010 2.828l-11.314 11.312a2 2 0 11-2.829-2.827l11.314-11.314a2 2 0 012.829 0v.001zm9.899 9.899a2 2 0 010 2.828l-8.485 8.485a2 2 0 01-2.829-2.828l8.486-8.485a2 2 0 012.828 0z" fill="#FEE1D3" fill-rule="nonzero"/><path d="M266.012 182.489a2 2 0 010 2.828l-15.556 15.557a2 2 0 11-2.829-2.829l15.557-15.555a2 2 0 012.828 0v-.001z" fill="#FDC4A8"/><path d="M290.242 182.348c-3.7 1.576-7.3 1.994-10.902.84a7.002 7.002 0 01-9.085-.699l-4.243-4.243a7 7 0 01-.238-9.649c-.701-3.024-.419-6.083.646-9.206l-6.287-2.426a5.6 5.6 0 01-2.274-8.824l8.233-9.811a5.6 5.6 0 016.306-1.625l8.045 3.105c.772-.797 1.564-1.6 2.374-2.41 8.024-8.024 18.448-12.265 31.273-12.723a10 10 0 011.119.023c5.507.42 9.63 5.226 9.209 10.733-.935 12.225-5.373 22.309-13.315 30.25a410.83 410.83 0 01-1.661 1.653l3.247 8.412a5.6 5.6 0 01-1.625 6.306l-9.81 8.233a5.6 5.6 0 01-8.825-2.274l-2.186-5.665h-.001zm-22.92-26.923l10.406-12.402-6.822-2.633a1.6 1.6 0 00-1.801.464l-8.233 9.811a1.6 1.6 0 00.65 2.521l5.8 2.239zm26.646 25.4l2.239 5.8a1.6 1.6 0 002.521.649l9.81-8.232a1.6 1.6 0 00.465-1.802l-2.633-6.822-12.402 10.406v.001zm-19.69-5.627c8.751 8.752 16.065 5.587 33.995-12.343 7.25-7.25 11.292-16.433 12.155-27.727a6 6 0 00-6.196-6.454c-11.846.423-21.303 4.271-28.586 11.554-17.03 17.03-20.414 25.924-11.368 34.97z" fill="#EEE" fill-rule="nonzero"/><path d="M298.54 151.376a4 4 0 105.656-5.657 4 4 0 00-5.657 5.657h.001zm-2.83 2.829a8 8 0 0111.315-11.315 8 8 0 01-11.313 11.314l-.002.001z" fill="#FDC4A8" fill-rule="nonzero"/><path d="M261.063 177.54a2 2 0 010 2.828l-11.314 11.312a2 2 0 11-2.829-2.827l11.314-11.314a2 2 0 012.829 0v.001zm9.899 9.899a2 2 0 010 2.828l-8.485 8.485a2 2 0 01-2.829-2.828l8.486-8.485a2 2 0 012.828 0z" fill="#FEE1D3" fill-rule="nonzero"/><path d="M266.012 182.489a2 2 0 010 2.828l-15.556 15.557a2 2 0 11-2.829-2.829l15.557-15.555a2 2 0 012.828 0v-.001z" fill="#FDC4A8"/><path d="M175.04 88.686c-1.592.666-3.14.843-4.691.355-1.2.863-2.86.737-3.91-.296l-1.826-1.795a2.925 2.925 0 01-.103-4.082c-.301-1.28-.18-2.574.278-3.895l-2.705-1.026a2.383 2.383 0 01-1.467-1.62 2.339 2.339 0 01.488-2.114l3.543-4.15a2.437 2.437 0 012.714-.688l3.463 1.314c.332-.337.673-.677 1.021-1.02 3.454-3.395 7.94-5.189 13.46-5.383.16-.005.32-.002.481.01 2.37.178 4.145 2.211 3.964 4.541-.403 5.172-2.313 9.438-5.731 12.798l-.715.7 1.398 3.558c.37.945.09 2.017-.7 2.668l-4.222 3.483a2.442 2.442 0 01-2.15.48 2.397 2.397 0 01-1.648-1.442l-.94-2.396h-.001zm-9.863-11.39l4.478-5.248-2.936-1.114a.696.696 0 00-.775.197l-3.543 4.15a.668.668 0 00-.14.604.681.681 0 00.42.463l2.496.947zm11.467 10.745l.964 2.454c.08.204.255.357.47.412a.698.698 0 00.615-.137l4.222-3.483a.67.67 0 00.2-.762l-1.133-2.887-5.338 4.403zm-8.474-2.38c3.767 3.702 6.914 2.363 14.631-5.222 3.12-3.068 4.86-6.953 5.231-11.731a2.513 2.513 0 00-.712-1.952 2.605 2.605 0 00-1.954-.779c-5.099.18-9.169 1.807-12.303 4.889-7.33 7.205-8.786 10.968-4.893 14.795z" fill="#EEE" fill-rule="nonzero"/><path d="M178.612 75.582a1.742 1.742 0 001.67.453 1.707 1.707 0 001.225-1.204 1.673 1.673 0 00-.46-1.642 1.743 1.743 0 00-2.435 0 1.672 1.672 0 000 2.393zm-1.218 1.197a3.346 3.346 0 01-.891-3.27 3.415 3.415 0 012.435-2.393 3.484 3.484 0 013.326.876 3.344 3.344 0 01-.015 4.772 3.485 3.485 0 01-4.854.015zm-14.911 11.069l-10.87 10.786a.87.87 0 01-.837.23.854.854 0 01-.614-.603.837.837 0 01.234-.823l10.87-10.787a.868.868 0 011.217 0 .837.837 0 010 1.197zm4.26 4.188l-9.652 9.59a.871.871 0 01-.831.219.854.854 0 01-.609-.598.836.836 0 01.223-.818l9.652-9.59a.871.871 0 011.217 0 .836.836 0 010 1.197z" fill="#E1DBF1" fill-rule="nonzero"/><path d="M164.613 89.942l-16.695 16.582a.871.871 0 01-1.218 0 .836.836 0 010-1.197l16.696-16.581a.871.871 0 011.217 0 .836.836 0 010 1.196z" fill="#C3B8E3"/><rect fill="#F9F9F9" x="260" y="39" width="60" height="10" rx="5"/><rect fill="#F9F9F9" x="291" y="59" width="74" height="10" rx="5"/><path d="M313.998 49a5 5 0 000 10h-18.996a5 5 0 000-10h18.996z" fill="#F9F9F9"/><rect fill="#F9F9F9" x="346" y="120" width="36" height="10" rx="5"/><rect fill="#F9F9F9" x="355" y="140" width="66" height="10" rx="5"/><rect fill="#F9F9F9" x="389" y="160" width="44" height="10" rx="5"/><path d="M377.998 130a5 5 0 000 10h-18.996a5 5 0 000-10h18.996zm35 20a5 5 0 000 10h-18.996a5 5 0 000-10h18.996z" fill="#F9F9F9" fill-rule="nonzero"/><rect fill="#F9F9F9" transform="matrix(-1 0 0 1 198 0)" x="78" y="126" width="42" height="10" rx="5"/><rect fill="#F9F9F9" transform="matrix(-1 0 0 1 165 0)" x="59" y="146" width="47" height="10" rx="5"/><path d="M83.002 136a5 5 0 010 10h18.996a5 5 0 010-10H83.002z" fill="#F9F9F9"/><path d="M402.282 75.842l-5.026-3.199c-.937-.597-.925-1.57 0-2.158l5.026-3.199 3.199-5.026c.596-.936 1.57-.925 2.158 0l3.199 5.026 5.026 3.2c.936.596.925 1.569 0 2.157l-5.026 3.2-3.2 5.025c-.596.937-1.569.925-2.157 0l-3.2-5.026" fill="#FDE5D8"/><path d="M317.956 11.956l-3.82-2.431c-.928-.591-.916-1.556 0-2.138l3.82-2.431 2.43-3.82c.592-.928 1.556-.917 2.14 0l2.43 3.82 3.82 2.43c.928.592.916 1.556 0 2.139l-3.82 2.43-2.43 3.82c-.592.928-1.556.917-2.14 0l-2.43-3.82" fill="#D4CDE8"/><path d="M272.956 109.956l-3.82-2.431c-.928-.591-.916-1.556 0-2.138l3.82-2.431 2.43-3.82c.592-.928 1.556-.917 2.14 0l2.43 3.82 3.82 2.43c.928.592.916 1.556 0 2.139l-3.82 2.43-2.43 3.82c-.592.928-1.556.917-2.14 0l-2.43-3.82m-170.682-66.12l-5.026-3.2c-.937-.596-.925-1.569 0-2.157l5.026-3.2 3.199-5.025c.597-.937 1.57-.925 2.158 0l3.199 5.026 5.026 3.199c.936.596.925 1.57 0 2.158l-5.026 3.199-3.2 5.026c-.596.936-1.569.925-2.157 0l-3.2-5.026" fill="#FDE5D8"/></g></svg>