<svg width="268" height="268" viewBox="101 24 222 222" xmlns="http://www.w3.org/2000/svg"><g fill="none" fill-rule="evenodd"><path d="M131 29a2 2 0 110-4h6a2 2 0 110 4h-6zm18 0a2 2 0 110-4h6a2 2 0 110 4h-6zm18 0a2 2 0 110-4h6a2 2 0 110 4h-6zm18 0a2 2 0 110-4h6a2 2 0 110 4h-6zm18 0a2 2 0 110-4h6a2 2 0 010 4h-6zm18 0a2 2 0 010-4h6a2 2 0 010 4h-6zm18 0a2 2 0 010-4h6a2 2 0 010 4h-6zm18 0a2 2 0 010-4h6a2 2 0 010 4h-6zm18 0a2 2 0 010-4h6a2 2 0 010 4h-6zm17.135.637a2 2 0 111.57-3.68 12.05 12.05 0 015.47 4.678 2 2 0 01-3.39 2.124 8.039 8.039 0 00-3.65-3.122zM297 115.391a2 2 0 014 0v6a2 2 0 01-4 0v-6zm0 18a2 2 0 114 0v6a2 2 0 01-4 0v-6zm0 18a2 2 0 114 0v6a2 2 0 01-4 0v-6zm-2.692 87.595a2 2 0 112.655 2.991 11.96 11.96 0 01-6.574 2.943 2 2 0 11-.459-3.973 7.96 7.96 0 004.378-1.961zM278.218 241a2 2 0 110 4h-6a2 2 0 010-4h6zm-18 0a2 2 0 110 4h-6a2 2 0 010-4h6zm-18 0a2 2 0 110 4h-6a2 2 0 010-4h6zm-18 0a2 2 0 110 4h-6a2 2 0 010-4h6zm-18 0a2 2 0 110 4h-6a2 2 0 010-4h6zm-18 0a2 2 0 010 4h-6a2 2 0 010-4h6zm-18 0a2 2 0 010 4h-6a2 2 0 010-4h6zm-18 0a2 2 0 010 4h-6a2 2 0 010-4h6zm-18 0a2 2 0 010 4H131c-1.128 0-2.238-.156-3.305-.461a2 2 0 111.1-3.846A8.01 8.01 0 00131 241h3.218zm-11.19-7.324a2 2 0 11-3.986.332 12.15 12.15 0 01-.042-.992v-5.189a2 2 0 114 0v5.185c0 .223.01.444.028.664zM123 215.827a2 2 0 11-4 0v-6a2 2 0 014 0v6zm0-18a2 2 0 11-4 0v-6a2 2 0 014 0v6zm0-18a2 2 0 11-4 0v-6a2 2 0 014 0v6zm0-90a2 2 0 11-4 0v-6a2 2 0 114 0v6zm0-18a2 2 0 11-4 0v-6a2 2 0 114 0v6zm0-18a2 2 0 11-4 0v-6a2 2 0 114 0v6zm.054-17.766a2 2 0 01-3.973-.463 11.96 11.96 0 012.95-6.571 2 2 0 012.99 2.658 7.96 7.96 0 00-1.967 4.376zM155.82 39h150.362c4.457 0 6.074.464 7.703 1.336a9.086 9.086 0 013.78 3.78c.872 1.63 1.336 3.246 1.336 7.703v34.362c0 4.457-.464 6.074-1.336 7.703a9.086 9.086 0 01-3.78 3.78c-1.63.872-3.246 1.336-7.703 1.336H155.819c-4.457 0-6.074-.464-7.703-1.336a9.086 9.086 0 01-3.78-3.78c-.872-1.63-1.336-3.246-1.336-7.703V51.819c0-4.457.464-6.074 1.336-7.703a9.086 9.086 0 013.78-3.78c1.63-.872 3.246-1.336 7.703-1.336zm0 4c-3.46 0-4.624.225-5.817.863a5.088 5.088 0 00-2.14 2.14c-.637 1.192-.862 2.356-.862 5.816v34.362c0 3.46.225 4.624.863 5.817a5.088 5.088 0 002.14 2.14c1.192.637 2.356.862 5.816.862h150.362c3.46 0 4.624-.225 5.817-.863a5.088 5.088 0 002.14-2.14c.637-1.192.862-2.356.862-5.816V51.819c0-3.46-.225-4.624-.863-5.817a5.088 5.088 0 00-2.14-2.14c-1.192-.637-2.356-.862-5.816-.862H155.819zm-39 62h150.362c4.457 0 6.074.464 7.703 1.336a9.086 9.086 0 013.78 3.78c.872 1.63 1.336 3.246 1.336 7.703v34.362c0 4.457-.464 6.074-1.336 7.703a9.086 9.086 0 01-3.78 3.78c-1.63.872-3.246 1.336-7.703 1.336H116.819c-4.457 0-6.074-.464-7.703-1.336a9.086 9.086 0 01-3.78-3.78c-.872-1.63-1.336-3.246-1.336-7.703v-34.362c0-4.457.464-6.074 1.336-7.703a9.086 9.086 0 013.78-3.78c1.63-.872 3.246-1.336 7.703-1.336zm0 4c-3.46 0-4.624.225-5.817.863a5.088 5.088 0 00-2.14 2.14c-.637 1.192-.862 2.356-.862 5.816v34.362c0 3.46.225 4.624.863 5.817a5.088 5.088 0 002.14 2.14c1.192.637 2.356.862 5.816.862h150.362c3.46 0 4.624-.225 5.817-.863a5.088 5.088 0 002.14-2.14c.637-1.192.862-2.356.862-5.816v-34.362c0-3.46-.225-4.624-.863-5.817a5.088 5.088 0 00-2.14-2.14c-1.192-.637-2.356-.862-5.816-.862H116.819zm39 62h150.362c4.457 0 6.074.464 7.703 1.336a9.086 9.086 0 013.78 3.78c.872 1.63 1.336 3.246 1.336 7.703v34.362c0 4.457-.464 6.074-1.336 7.703a9.086 9.086 0 01-3.78 3.78c-1.63.872-3.246 1.336-7.703 1.336H155.819c-4.457 0-6.074-.464-7.703-1.336a9.086 9.086 0 01-3.78-3.78c-.872-1.63-1.336-3.246-1.336-7.703v-34.362c0-4.457.464-6.074 1.336-7.703a9.086 9.086 0 013.78-3.78c1.63-.872 3.246-1.336 7.703-1.336zm0 4c-3.46 0-4.624.225-5.817.863a5.088 5.088 0 00-2.14 2.14c-.637 1.192-.862 2.356-.862 5.816v34.362c0 3.46.225 4.624.863 5.817a5.088 5.088 0 002.14 2.14c1.192.637 2.356.862 5.816.862h150.362c3.46 0 4.624-.225 5.817-.863a5.088 5.088 0 002.14-2.14c.637-1.192.862-2.356.862-5.816v-34.362c0-3.46-.225-4.624-.863-5.817a5.088 5.088 0 00-2.14-2.14c-1.192-.637-2.356-.862-5.816-.862H155.819z" fill="#EEE" fill-rule="nonzero"/><path d="M181 83c-7.732 0-14-6.268-14-14s6.268-14 14-14 14 6.268 14 14-6.268 14-14 14zm0-4c5.523 0 10-4.477 10-10s-4.477-10-10-10-10 4.477-10 10 4.477 10 10 10z" fill="#E1DBF1" fill-rule="nonzero"/><path d="M183.828 69l1.415 1.414a2 2 0 11-2.829 2.829L181 71.828l-1.414 1.415a2 2 0 11-2.829-2.829L178.172 69l-1.415-1.414a2 2 0 112.829-2.829L181 66.172l1.414-1.415a2 2 0 112.829 2.829L183.828 69z" fill="#6B4FBB"/><path d="M213 63h80a2 2 0 010 4h-80a2 2 0 110-4zm0 8h80a2 2 0 010 4h-80a2 2 0 110-4z" fill="#EFEDF8"/><path d="M142 149c-7.732 0-14-6.268-14-14s6.268-14 14-14 14 6.268 14 14-6.268 14-14 14zm0-4c5.523 0 10-4.477 10-10s-4.477-10-10-10-10 4.477-10 10 4.477 10 10 10z" fill="#FEE1D3" fill-rule="nonzero"/><path d="M140.657 134.778l3.535-3.535a2 2 0 112.829 2.828l-4.95 4.95a2 2 0 01-2.828 0l-2.829-2.829a2 2 0 012.829-2.828l1.414 1.414z" fill="#FC6D26"/><path d="M174 129h80a2 2 0 010 4h-80a2 2 0 110-4zm0 8h80a2 2 0 010 4h-80a2 2 0 110-4z" fill="#FEE1D3"/><path d="M181 215c-7.732 0-14-6.268-14-14s6.268-14 14-14 14 6.268 14 14-6.268 14-14 14zm0-4c5.523 0 10-4.477 10-10s-4.477-10-10-10-10 4.477-10 10 4.477 10 10 10z" fill="#E1DBF1" fill-rule="nonzero"/><path d="M183.828 201l1.415 1.414a2 2 0 11-2.829 2.829L181 203.828l-1.414 1.415a2 2 0 11-2.829-2.829l1.415-1.414-1.415-1.414a2 2 0 112.829-2.829l1.414 1.415 1.414-1.415a2 2 0 112.829 2.829L183.828 201z" fill="#6B4FBB"/><path d="M213 195h80a2 2 0 010 4h-80a2 2 0 110-4zm0 8h80a2 2 0 010 4h-80a2 2 0 110-4z" fill="#EFEDF8"/></g></svg>