<svg width="32" height="32" xmlns="http://www.w3.org/2000/svg"><g fill="#6E49CB"><path d="M28.631 0H3.369C1.512 0 0 1.445 0 3.222v7.557C0 12.555 1.512 14 3.369 14h25.262C30.488 14 32 12.555 32 10.778V3.222C32 1.445 30.488 0 28.631 0zM30 10.778c0 .674-.614 1.222-1.369 1.222H3.369C2.614 12 2 11.452 2 10.778V3.222C2 2.548 2.614 2 3.369 2h25.262C29.386 2 30 2.548 30 3.222v7.556z"/><path d="M27 6H9.82a2.996 2.996 0 00-2.816-2c-1.654 0-3 1.346-3 3s1.346 3 3 3A2.996 2.996 0 009.82 8H27a1 1 0 100-2M7 8a1 1 0 110-2 1 1 0 010 2m21.631 10H3.369C1.512 18 0 19.445 0 21.222v7.557C0 30.555 1.512 32 3.369 32h25.262C30.488 32 32 30.555 32 28.778v-7.557C32 19.445 30.488 18 28.631 18zM30 28.778c0 .674-.614 1.222-1.369 1.222H3.369C2.614 30 2 29.452 2 28.778v-7.557C2 20.548 2.614 20 3.369 20h25.262c.755 0 1.369.548 1.369 1.222v7.556z"/><path d="M27 24H9.82a2.996 2.996 0 00-2.816-2c-1.654 0-3 1.346-3 3s1.346 3 3 3a2.996 2.996 0 002.816-2H27a1 1 0 100-2M7 26a1 1 0 110-2 1 1 0 010 2"/></g></svg>