<svg xmlns="http://www.w3.org/2000/svg" width="228" height="166" viewBox="0 0 228 166"><g fill="none" fill-rule="evenodd"><path fill="#FAFAFA" d="M174 105.76V124c0 5.523-4.477 10-10 10h-.05c-.501 5.053-4.765 9-9.95 9 0 5.523-4.477 10-10 10H50.364c1.901 1.264 4.183 2 6.636 2h90c5.996 0 10.965-4.397 11.857-10.143a12.014 12.014 0 009.77-8.873C174.961 135.658 180 130.417 180 124v-14.976c14.36-3.576 25-16.557 25-32.024a32.847 32.847 0 00-4.535-16.705 32.75 32.75 0 011.88 6.13c.43 2.125.655 4.324.655 6.575 0 16.871-12.661 30.786-29 32.76zm0-65.52V12a9.98 9.98 0 00-3.722-7.784C175.816 5.28 180 10.152 180 16v25.542a32.816 32.816 0 00-6-1.302z"/><path fill="#EEE" fill-rule="nonzero" d="M176 105.456V124c0 6.627-5.373 12-12 12h-.458a9.996 9.996 0 00.458-3v-1a8 8 0 008-8v-18.06a33.052 33.052 0 004-.484zm0-64.912V12c0-6.627-5.373-12-12-12H70c-6.357 0-11.56 4.943-11.973 11.195A10.048 10.048 0 0160 11h2.062A8.001 8.001 0 0170 4h94a8 8 0 018 8v28.06a32.88 32.88 0 014 .484z"/><path fill="#EEE" fill-rule="nonzero" d="M166 105.76V133c0 6.627-5.373 12-12 12h-.2c.131-.646.2-1.315.2-2v-2a8 8 0 008-8v-27.976c1.304.324 2.64.572 4 .736zm0-65.52V21c0-6.627-5.373-12-12-12H60c-6.627 0-12 5.373-12 12v.2c.646-.131 1.315-.2 2-.2h2a8 8 0 018-8h94a8 8 0 018 8v19.976a32.868 32.868 0 014-.736z"/><path fill="#EEE" fill-rule="nonzero" d="M154 104.137A34.85 34.85 0 00170 108c19.33 0 35-15.67 35-35s-15.67-35-35-35a34.85 34.85 0 00-16 3.863v4.58A30.856 30.856 0 01170 42c17.12 0 31 13.88 31 31 0 17.12-13.88 31-31 31a30.856 30.856 0 01-16-4.443v4.58z"/><path fill="#FEF0E8" d="M169.13 82.752c-.461-.308-1.269-.452-1.81-.319l-6.89 1.69c-1.07.262-1.694-.387-1.395-1.444l1.93-6.827c.15-.534.037-1.346-.257-1.82L156.972 68c-.58-.936-.155-1.73.942-1.772l7.09-.275c.554-.021 1.292-.38 1.652-.806l4.58-5.417c.712-.841 1.598-.682 1.977.349l2.452 6.657c.192.52.761 1.111 1.277 1.322l6.568 2.683c1.02.416 1.142 1.308.28 1.988l-5.574 4.388c-.436.344-.823 1.068-.864 1.624l-.521 7.075c-.081 1.098-.892 1.49-1.804.88l-5.897-3.945z"/><path fill="#FC6D26" fill-rule="nonzero" d="M161.351 81.838l5.492-1.347c1.086-.267 2.47-.022 3.399.599l4.7 3.144.416-5.64c.082-1.115.743-2.356 1.62-3.047l4.443-3.498-5.235-2.138c-1.036-.423-2.012-1.435-2.398-2.483l-1.954-5.306-3.651 4.317c-.722.855-1.986 1.47-3.102 1.514l-5.65.218 2.977 4.807c.59.951.785 2.343.48 3.418l-1.537 5.442zm6.445 2.537l-6.89 1.69c-2.559.628-4.511-1.398-3.796-3.93l1.93-6.827a4.125 4.125 0 01-.032-.223l-3.736-6.03c-1.388-2.24-.064-4.723 2.565-4.825l7.089-.274a4.25 4.25 0 01.203-.1l4.58-5.416c1.701-2.012 4.472-1.52 5.381.948l2.452 6.657c-.002-.005.161.165.157.163l6.567 2.682c2.439.996 2.828 3.783.76 5.41l-5.573 4.39a4.125 4.125 0 01-.106.2l-.522 7.074c-.194 2.627-2.724 3.858-4.91 2.395l-5.897-3.944a4.125 4.125 0 01-.222-.04z"/><path fill="#FEE1D3" d="M209.004 112.058c-.432-.347-1.218-.56-1.773-.475l-2.357.364c-1.097.17-1.67-.526-1.273-1.572l.846-2.23c.197-.517.157-1.331-.096-1.832l-1.074-2.13c-.5-.99-.016-1.75 1.102-1.696l2.382.116c.553.027 1.315-.263 1.713-.658l1.693-1.68c.788-.782 1.66-.556 1.954.524l.626 2.301c.145.534.656 1.17 1.155 1.426l2.12 1.091c.988.508 1.042 1.407.106 2.02l-1.995 1.307c-.463.303-.91.985-1 1.539l-.381 2.354c-.178 1.096-1.017 1.426-1.889.725l-1.86-1.494z"/><path fill="#FEF0E8" d="M220.926 72.583c-.547-.084-1.335.124-1.772.475l-1.86 1.494c-.864.695-1.709.38-1.888-.725l-.382-2.354c-.089-.547-.53-1.232-1-1.54l-1.995-1.306c-.928-.608-.888-1.508.106-2.02l2.121-1.09c.493-.254 1.008-.886 1.155-1.427l.626-2.301c.291-1.071 1.16-1.312 1.954-.524l1.693 1.68c.393.39 1.153.685 1.713.658l2.382-.116c1.109-.054 1.606.698 1.102 1.697l-1.075 2.129c-.25.494-.295 1.308-.096 1.832l.847 2.23c.393 1.038-.168 1.743-1.274 1.572l-2.357-.364z"/><path fill="#FEE1D3" d="M199.55 36.715c-.327-.446-1.031-.856-1.589-.917l-2.37-.259c-1.104-.12-1.477-.94-.824-1.848l1.395-1.935c.324-.449.496-1.245.382-1.794l-.487-2.335c-.227-1.087.438-1.695 1.503-1.354l2.271.729c.527.169 1.338.086 1.825-.192l2.07-1.185c.963-.551 1.748-.107 1.752 1.012l.01 2.385c.001.553.33 1.299.745 1.676L208 32.3c.822.745.642 1.629-.42 1.978l-2.266.746c-.526.173-1.134.716-1.364 1.228l-.978 2.175c-.456 1.012-1.351 1.114-2.012.211l-1.41-1.924z"/><path fill="#EEE" fill-rule="nonzero" d="M50.567 155H144c6.627 0 12-5.373 12-12V31c0-6.627-5.373-12-12-12H50c-6.627 0-12 5.373-12 12v78.16c1.381.41 2.717.925 4 1.535V31a8 8 0 018-8h94a8 8 0 018 8v112a8 8 0 01-8 8H53.647a28.114 28.114 0 01-3.08 4z"/><g transform="translate(64 55)"><rect width="20" height="4" fill="#EFEDF8" rx="2"/><rect width="20" height="4" y="60" fill="#EFEDF8" rx="2"/><rect width="10" height="4" x="26" fill="#6B4FBB" rx="2"/><rect width="10" height="4" y="36" fill="#EFEDF8" rx="2"/><rect width="10" height="4" x="38" y="12" fill="#FC6D26" rx="2"/><rect width="10" height="4" y="48" fill="#C3B8E3" rx="2"/><rect width="10" height="4" x="26" y="60" fill="#C3B8E3" rx="2"/><rect width="16" height="4" x="42" fill="#EFEDF8" rx="2"/><rect width="8" height="4" x="58" y="48" fill="#6B4FBB" rx="2"/><rect width="8" height="4" x="24" y="12" fill="#FEE1D3" rx="2"/><rect width="8" height="4" x="42" y="60" fill="#FEE1D3" rx="2"/><rect width="16" height="4" x="38" y="36" fill="#FC6D26" rx="2"/><rect width="16" height="4" x="16" y="36" fill="#EFEDF8" rx="2"/><rect width="16" height="4" y="24" fill="#6B4FBB" rx="2"/><rect width="18" height="4" y="12" fill="#E1DBF1" rx="2"/><rect width="36" height="4" x="22" y="24" fill="#EFEDF8" rx="2"/><rect width="36" height="4" x="16" y="48" fill="#E1DBF1" rx="2"/></g><path fill="#EEE" fill-rule="nonzero" d="M30 166c16.569 0 30-13.431 30-30 0-16.569-13.431-30-30-30-16.569 0-30 13.431-30 30 0 16.569 13.431 30 30 30zm0-4c-14.36 0-26-11.64-26-26s11.64-26 26-26 26 11.64 26 26-11.64 26-26 26z"/><path fill="#FEF0E8" d="M30.5 143.656c.461-.309 1.272-.452 1.811-.32l4.786 1.174c1.075.264 1.702-.384 1.4-1.45l-1.34-4.742c-.15-.534-.036-1.35.256-1.822l2.596-4.189c.582-.94.16-1.736-.946-1.78l-4.925-.19c-.554-.022-1.294-.382-1.653-.806l-3.182-3.763c-.714-.845-1.602-.69-1.985.35l-1.703 4.624c-.192.52-.764 1.113-1.278 1.323l-4.562 1.864c-1.024.418-1.15 1.31-.28 1.996l3.871 3.048c.436.344.823 1.07.864 1.624l.362 4.915c.082 1.103.891 1.5 1.812.884l4.096-2.74z"/><path fill="#FC6D26" fill-rule="nonzero" d="M32.788 141.394c-1.085-.266-2.472-.022-3.4.6l-2.906 1.944-.258-3.488c-.082-1.114-.743-2.357-1.62-3.048l-2.748-2.163 3.237-1.322c1.035-.423 2.013-1.436 2.399-2.484l1.208-3.281 2.258 2.67c.721.853 1.987 1.47 3.103 1.513l3.494.136-1.842 2.972c-.588.95-.784 2.344-.48 3.419l.95 3.365-3.395-.833zm-1.176 3.924c-.005.003.229-.038.223-.04l4.786 1.175c2.563.628 4.52-1.396 3.801-3.937l-1.34-4.742c.002.006.035-.23.032-.224l2.595-4.19c1.39-2.242.07-4.729-2.569-4.83l-4.924-.192c.006 0-.208-.104-.204-.099l-3.182-3.763c-1.704-2.015-4.476-1.527-5.389.95l-1.703 4.625a3.449 3.449 0 00-.157.163l-4.562 1.863c-2.443.998-2.836 3.785-.762 5.419l3.872 3.049a3.82 3.82 0 00.106.2l.363 4.914c.194 2.632 2.723 3.867 4.918 2.4l4.096-2.741z"/></g></svg>