<svg width="78" height="82" viewBox="0 0 78 82" xmlns="http://www.w3.org/2000/svg"><g fill-rule="nonzero" fill="none"><path d="M39 0c21.54 0 39 17.46 39 39a39.03 39.03 0 01-1.483 10.688 22.148 22.148 0 00-3.267-3.45A35.07 35.07 0 0074 39C74 19.67 58.33 4 39 4S4 19.67 4 39s15.67 35 35 35c.313 0 .625-.004.936-.012a22.09 22.09 0 002.807 3.835C41.51 77.94 40.263 78 39 78 17.46 78 0 60.54 0 39S17.46 0 39 0z" fill="#EEE"/><path d="M48 20a8 8 0 018 8v13.203a21.862 21.862 0 00-4 .934V28c0-2.21-1.79-4-4-4H30c-2.21 0-4 1.79-4 4v22c0 2.21 1.79 4 4 4h8.92a21.834 21.834 0 00-1.35 4H30a8 8 0 01-8-8V28a8 8 0 018-8h18z" fill="#E1DBF2"/><path d="M45 44c.662 0 1.249.321 1.613.817A22.082 22.082 0 0042.906 48H33a2 2 0 110-4h12zm0-7a2 2 0 110 4H33a2 2 0 110-4h12zm-4-7a2 2 0 110 4h-8a2 2 0 110-4h8z" fill="#6B4FBB"/><path d="M59 82c-10.493 0-19-8.507-19-19s8.507-19 19-19 19 8.507 19 19-8.507 19-19 19zm0-4c8.284 0 15-6.716 15-15 0-8.284-6.716-15-15-15-8.284 0-15 6.716-15 15 0 8.284 6.716 15 15 15z" fill="#B3E6C8"/><path d="M57.586 63.828l5.657-5.656A2 2 0 1166.07 61L59 68.071a2 2 0 01-2.828 0l-4.243-4.243A2 2 0 1154.757 61l2.829 2.828z" fill="#1AAA55"/></g></svg>