<svg xmlns="http://www.w3.org/2000/svg" width="80" height="80" viewBox="0 0 80 80"><g fill="none" fill-rule="evenodd"><path fill="#F9F9F9" d="M5 23v-2 2zm70 40v4a6 6 0 01-6 6H11a6 6 0 01-6-6v-4a6 6 0 006 6h58a6 6 0 006-6z"/><path stroke="#EEE" stroke-linecap="round" stroke-linejoin="round" stroke-width="4" d="M32.087 23H69a6 6 0 016 6v34a6 6 0 01-6 6H11a6 6 0 01-6-6V17a6 6 0 016-6h13.953a6 6 0 015.912 4.972L32.087 23z"/><path fill="#6B4FBB" d="M38 44v-7a2 2 0 114 0v7h7a2 2 0 110 4h-7v7a2 2 0 11-4 0v-7h-7a2 2 0 110-4h7z"/></g></svg>