<svg width="248" height="190" viewBox="0 0 248 190" fill="none" xmlns="http://www.w3.org/2000/svg"><path d="M26 145h88a2 2 0 100-4H26a2 2 0 100 4zM2 137h88a2 2 0 100-4H2a2 2 0 100 4zM208 62h16a2 2 0 100-4h-16a2 2 0 100 4zM108 62h88a2 2 0 100-4h-88a2 2 0 100 4zM176 54h32a2 2 0 100-4h-32a2 2 0 100 4z" fill="#DBDBDB"/><rect x="99" y="17" width="88" height="155" rx="2" fill="#fff" stroke="#C2B7E6" stroke-width="4" stroke-linecap="round"/><path d="M174 71a2 2 0 01.149 3.995L174 75h-11a2 2 0 01-.149-3.995L163 71h11zM160 49a2 2 0 01.149 3.995L160 53h-11a2 2 0 01-.149-3.995L149 49h11zM174 38a2 2 0 01.149 3.995L174 42h-11a2 2 0 01-.149-3.995L163 38h11zM174 60a2 2 0 01.149 3.995L174 64h-16a2 2 0 01-.149-3.995L158 60h16zM174 27a2 2 0 01.149 3.994L174 31h-16a2 2 0 01-.149-3.994L158 27h16zM174 126a2 2 0 01.149 3.995L174 130h-11a2 2 0 01-.149-3.995L163 126h11zM160 104a2 2 0 01.149 3.995L160 108h-11a2 2 0 01-.149-3.995L149 104h11zM174 159a2 2 0 01.149 3.995L174 163h-11a2 2 0 01-.149-3.995L163 159h11zM174 93a2 2 0 01.149 3.995L174 97h-11a2 2 0 01-.149-3.995L163 93h11zM174 115a2 2 0 01.149 3.995L174 119h-16a2 2 0 01-.149-3.995L158 115h16zM174 148a2 2 0 01.149 3.995L174 152h-16a2 2 0 01-.149-3.995L158 148h16zM160 137a2 2 0 01.149 3.995L160 141h-11a2 2 0 01-.149-3.995L149 137h11zM174 82a2 2 0 01.149 3.995L174 86h-16a2 2 0 01-.149-3.995L158 82h16z" fill="#DFDFDF"/><path d="M148.37 2.739l-98 15.633a4 4 0 00-3.37 3.95V167.59a4 4 0 003.367 3.95l98 15.717a4 4 0 004.633-3.95V6.689a4 4 0 00-4.63-3.95z" fill="#EFEDF8" stroke="#6E49CB" stroke-width="4"/><path d="M206.429 88.212a39.937 39.937 0 00-9.345-1.762m12.658 76.324c18.157-7.606 28.371-27.555 23.165-46.984-2.576-9.614-8.485-17.45-16.164-22.613" stroke="#F2F2F2" stroke-width="8" stroke-linecap="round"/><path d="M145 131l-90-6v27l90 10v-31z" fill="#6E49CB"/><path d="M145 131l-90-6v27l90 10v-31z" fill="#fff" fill-opacity=".8"/><path d="M145 55l-90 8v56l90 5V55z" fill="#fff"/><circle cx="193" cy="126" r="30" fill="#fff" stroke="#FC6D26" stroke-width="4"/><circle cx="193" cy="126" r="24" fill="#FCF0EA"/><path fill-rule="evenodd" clip-rule="evenodd" d="M187 114a4 4 0 014-4h4a4 4 0 014 4v2h6a2 2 0 110 4h-.308l-1.408 18.307a4 4 0 01-3.988 3.693h-12.592a4 4 0 01-3.988-3.693L181.308 120H181a2 2 0 110-4h6v-2zm4 2h4v-2h-4v2zm-5.68 4l1.384 18h12.592l1.384-18h-15.36z" fill="#FC6D26"/><path d="M55 161l90 11.5" stroke="#C2B7E6" stroke-width="2" stroke-linecap="round" stroke-linejoin="round"/><path d="M126 40.8a2 2 0 011.791-1.988l15-1.58a2 2 0 012.209 1.99v3.977a2 2 0 01-1.791 1.99l-15 1.578A2 2 0 01126 44.778v-3.977z" fill="#6E49CB"/><path d="M55 40.5L145 29" stroke="#C2B7E6" stroke-width="2" stroke-linecap="round" stroke-linejoin="round"/><path d="M137.885 14.212l-.591-1.433c-.772-1.873-3.519-1.543-3.826.459l-.235 1.532-1.625.195c-1.849.222-2.418 2.629-.864 3.655l1.724 1.138-.304 1.982c-.298 1.947 2.102 3.108 3.443 1.663l.905-.974 1.109.733c1.645 1.085 3.703-.61 2.951-2.432l-.764-1.853 1.406-1.514c1.267-1.365.145-3.568-1.704-3.346l-1.625.195z" fill="#FC6D26" stroke="#fff" stroke-width="2"/><path d="M55 29.5L99 23" stroke="#C2B7E6" stroke-width="4" stroke-linecap="round" stroke-linejoin="round"/></svg>