<svg width="240" height="124" viewBox="0 0 240 124" fill="none" xmlns="http://www.w3.org/2000/svg"><path d="M26 62h82" stroke="#FC6D26" stroke-width="4"/><path d="M26 22h82" stroke="#6E49CB" stroke-width="4"/><path d="M132 14h82" stroke="#BFBFBF" stroke-width="4"/><path d="M132 102h82" stroke="#6E49CB" stroke-width="4"/><path d="M26 70.5h24c8.837 0 16 7.163 16 16v0c0 8.837 7.163 16 16 16h25.5" stroke="#FC6D26" stroke-width="4"/><path d="M132 22h24c8.837 0 16 7.163 16 16v0c0 8.837 7.163 16 16 16h25.5" stroke="#BFBFBF" stroke-width="4"/><path d="M26 53.5h24.25C58.949 53.5 66 46.449 66 37.75v0C66 29.052 73.052 22 81.75 22h25.75" stroke="#6E49CB" stroke-width="4"/><path d="M132 94.5h24c8.837 0 16-7.163 16-16V70c0-8.837 7.163-16 16-16h25.5" stroke="#BFBFBF" stroke-width="4"/><path d="M132 62.5h23.164c3.724 0 7.283-1.538 9.836-4.25v0a13.508 13.508 0 019.836-4.25H213.5" stroke="#BFBFBF" stroke-width="4"/><rect x="214" y="82" width="24" height="40" rx="12" fill="#6E49CB"/><rect x="214" y="82" width="24" height="40" rx="12" fill="#fff" fill-opacity=".9"/><path fill-rule="evenodd" clip-rule="evenodd" d="M221 105.841A6 6 0 10225.61 96v6l-4.61 3.841z" fill="#6E49CB"/><rect x="214" y="82" width="24" height="40" rx="12" stroke="#6E49CB" stroke-width="4"/><rect x="214" y="34" width="24" height="40" rx="12" fill="#FAFAFA"/><circle cx="226" cy="54" r="5" fill="#BFBFBF"/><rect x="214" y="34" width="24" height="40" rx="12" stroke="#BFBFBF" stroke-width="4"/><rect x="214" y="2" width="24" height="24" rx="12" fill="#FAFAFA"/><circle cx="226" cy="14" r="5" fill="#BFBFBF"/><rect x="214" y="2" width="24" height="24" rx="12" stroke="#BFBFBF" stroke-width="4"/><rect x="108" y="82" width="24" height="40" rx="12" fill="#FC6D26"/><rect x="108" y="82" width="24" height="40" rx="12" fill="#fff" fill-opacity=".9"/><path d="M116 102l3 3 5-5" stroke="#FC6D26" stroke-width="4" stroke-linecap="round" stroke-linejoin="round"/><rect x="108" y="82" width="24" height="40" rx="12" stroke="#FC6D26" stroke-width="4"/><rect x="108" y="50" width="24" height="24" rx="12" fill="#FC6D26"/><rect x="108" y="50" width="24" height="24" rx="12" fill="#fff" fill-opacity=".9"/><path d="M116 62l3 3 5-5" stroke="#FC6D26" stroke-width="4" stroke-linecap="round" stroke-linejoin="round"/><rect x="108" y="50" width="24" height="24" rx="12" stroke="#FC6D26" stroke-width="4"/><rect x="108" y="2" width="24" height="40" rx="12" fill="#6E49CB"/><rect x="108" y="2" width="24" height="40" rx="12" fill="#fff" fill-opacity=".9"/><path fill-rule="evenodd" clip-rule="evenodd" d="M115 25.841a5.997 5.997 0 008.147 1.005A6 6 0 00119.61 16v6L115 25.841z" fill="#6E49CB"/><rect x="108" y="2" width="24" height="40" rx="12" stroke="#6E49CB" stroke-width="4"/><rect x="2" y="42" width="24" height="40" rx="12" fill="#FC6D26"/><rect x="2" y="42" width="24" height="40" rx="12" fill="#fff" fill-opacity=".9"/><path d="M10 62l3 3 5-5" stroke="#FC6D26" stroke-width="4" stroke-linecap="round" stroke-linejoin="round"/><rect x="2" y="42" width="24" height="40" rx="12" stroke="#FC6D26" stroke-width="4"/><rect x="2" y="10" width="24" height="24" rx="12" fill="#FC6D26"/><rect x="2" y="10" width="24" height="24" rx="12" fill="#fff" fill-opacity=".9"/><path d="M10 22l3 3 5-5" stroke="#FC6D26" stroke-width="4" stroke-linecap="round" stroke-linejoin="round"/><rect x="2" y="10" width="24" height="24" rx="12" stroke="#FC6D26" stroke-width="4"/></svg>