<svg xmlns="http://www.w3.org/2000/svg" xmlns:xlink="http://www.w3.org/1999/xlink" width="406" height="238" viewBox="0 0 406 238"><defs><path id="a" d="M114 133h68v32h-68z"/><path id="b" d="M114 173h150v54H114z"/><path id="c" d="M2 23h246v72H2z"/><path id="d" d="M91 110h68v32H91z"/><path id="e" d="M19 110h68v32H19z"/><path id="f" d="M163 110h68v32h-68z"/></defs><g fill="none" fill-rule="evenodd"><g transform="translate(104 104)"><rect width="170" height="132" stroke="#E0DBF2" stroke-linecap="round" stroke-width="4" rx="4"/><g transform="translate(2 8)"><circle cx="8" cy="2" r="2" fill="#FC6D26" fill-rule="nonzero"/><circle cx="16" cy="2" r="2" fill="#FC6D26" fill-rule="nonzero"/><path stroke="#E0DBF2" stroke-linecap="square" stroke-width="2" d="M0 11h29"/></g></g><use fill="#6E49CB" xlink:href="#a"/><use fill="#FFF" fill-opacity=".9" xlink:href="#a"/><use fill="#6E49CB" xlink:href="#b"/><use fill="#FFF" fill-opacity=".9" xlink:href="#b"/><g stroke="#C2B7E6" transform="translate(178 47)"><rect width="226" height="151" fill="#FFF" stroke-linecap="round" stroke-width="4" rx="4"/><path stroke-linecap="square" stroke-width="2" d="M213 15h10"/></g><g transform="translate(138 2)"><rect width="250" height="180" fill="#EFEDF8" fill-rule="nonzero" stroke="#6E49CB" stroke-width="4" rx="8"/><use fill="#6E49CB" xlink:href="#c"/><use fill="#FFF" fill-opacity=".6" xlink:href="#c"/><path fill="#FFF" fill-rule="nonzero" d="M91 142h68v36H91zM19 142h68v36H19zM163 142h68v36h-68z"/><use fill="#6E49CB" xlink:href="#d"/><use fill="#FFF" fill-opacity=".8" xlink:href="#d"/><use fill="#6E49CB" xlink:href="#e"/><use fill="#FFF" fill-opacity=".8" xlink:href="#e"/><use fill="#6E49CB" xlink:href="#f"/><use fill="#FFF" fill-opacity=".8" xlink:href="#f"/><path fill="#FFF" fill-rule="nonzero" d="M55 89h140v12H55z"/><path fill="#FC6D26" fill-rule="nonzero" stroke="#FFF" stroke-width="2" d="M19 63h26v10H19z"/><path fill="#FFF" fill-rule="nonzero" stroke="#FFF" stroke-width="2" d="M55 63h26v10H55z"/><path stroke="#FFF" stroke-linecap="round" stroke-width="4" d="M19 41.5h140m-140 9h116"/><g fill-rule="nonzero" stroke-width="2" transform="translate(8 8)"><rect width="122" height="8" x="56" fill="#FFF" stroke="#C2B7E6" rx="4"/><circle cx="4" cy="4" r="4" fill="#FC6D26" stroke="#FFF"/><circle cx="16" cy="4" r="4" fill="#FC6D26" stroke="#FFF"/><circle cx="28" cy="4" r="4" fill="#FC6D26" stroke="#FFF"/></g></g><path stroke="#C2B7E6" stroke-linecap="round" stroke-width="4" d="M189 123H29c-14.912 0-27-12.088-27-27s12.088-27 27-27 27 12.088 27 27a26.903 26.903 0 01-7.104 18.253M66.547 123H52c-9.941 0-18 8.059-18 18s8.059 18 18 18 18-8.059 18-18c0-2.38-.462-4.65-1.3-6.73"/><path fill="#FC6D26" d="M60.072 135.245l-.899 3.374a6 6 0 01-2.619 3.546l-7.235 4.52-1.911-1.91 4.52-7.236a6 6 0 013.545-2.62l3.375-.898a1 1 0 011.224 1.224zm-2.377 1.153l-1.707.454a4 4 0 00-2.364 1.746l-3.113 4.984 4.983-3.114a4 4 0 001.747-2.363l.454-1.707zM50.5 147.5l5-3v1a4 4 0 01-4 4h-1v-2zm-4-4h-2v-1a4 4 0 014-4h1l-3 5zM19 82h12.343a4 4 0 012.569.934l.26.238 5.656 5.656a4 4 0 011.157 2.477l.015.352V108a2 2 0 01-1.767 1.987L39 110H19a2 2 0 01-1.987-1.767L17 108V84a2 2 0 011.767-1.987L19 82h12.343H19zm12 4H21v20h16V92h-4a2 2 0 01-1.987-1.767L31 90v-4zm-6 14h4a2 2 0 01.233 3.987L29 104h-4a2 2 0 01-.233-3.987L25 100zm8-6a2 2 0 110 4h-8a2 2 0 010-4h8z"/></g></svg>