<svg width="154" height="153" fill="none" xmlns="http://www.w3.org/2000/svg"><path d="M35.69 86.526a2 2 0 003.775 1.322l-3.776-1.322zm36.26 10.662H20.77v4h51.18v-4zm-51.18 0c-8.718 0-15.82-7.144-15.82-16h-4c0 11.027 8.855 20 19.82 20v-4zm-15.82-16c0-8.856 7.102-16 15.82-16v-4c-10.965 0-19.82 8.973-19.82 20h4zm15.82-16c8.718 0 15.82 7.144 15.82 16h4c0-11.027-8.855-20-19.82-20v4zm15.82 16c0 1.876-.318 3.672-.902 5.34l3.776 1.32a20.135 20.135 0 001.126-6.66h-4zm23.283 55.763l-1.563-1.247 1.563 1.247zm-25.183 2.71l-1.247 1.563 1.247-1.563zm22.22-27.865l1.247-1.564-1.247 1.564zm2.366 5.597a2 2 0 103.387-2.128l-3.387 2.128zm30.943-21.704l-31.91 40.015 3.128 2.494 31.91-40.015-3.128-2.494zm-31.91 40.015c-5.435 6.816-15.448 7.914-22.372 2.393l-2.494 3.127c8.621 6.875 21.158 5.547 27.994-3.026l-3.127-2.494zm-22.372 2.393c-6.924-5.521-8.082-15.528-2.646-22.344l-3.128-2.494c-6.836 8.573-5.341 21.091 3.28 27.965l2.494-3.127zm-2.646-22.344c5.435-6.817 15.449-7.915 22.372-2.394l2.494-3.127c-8.62-6.875-21.157-5.546-27.994 3.027l3.128 2.494zm22.372-2.394a16.148 16.148 0 013.613 4.034l3.387-2.128a20.147 20.147 0 00-4.506-5.033l-2.494 3.127zM26.532 46.037l-1.564 1.247 1.564-1.247zM29.49 20.88l1.247 1.564-1.247-1.564zm22.226 27.861l1.247 1.564-1.248-1.564zm-5.984 1.062a2 2 0 001.322 3.775l-1.322-3.775zm14.28 34.995l-31.917-40.01-3.127 2.495 31.916 40.01 3.127-2.495zm-31.917-40.01c-5.437-6.815-4.28-16.822 2.642-22.344l-2.494-3.127c-8.62 6.876-10.113 19.394-3.275 27.966l3.127-2.495zm2.642-22.344c6.923-5.523 16.937-4.426 22.374 2.389l3.127-2.494c-6.838-8.572-19.375-9.899-27.995-3.022l2.494 3.127zm22.374 2.389c5.436 6.815 4.28 16.822-2.643 22.345l2.495 3.127c8.62-6.877 10.113-19.394 3.275-27.966l-3.127 2.494zm-2.643 22.345a16.134 16.134 0 01-4.736 2.625l1.322 3.775a20.133 20.133 0 005.909-3.273l-2.495-3.127zM71.02 15.876l1.949.445-1.95-.445zm21.51-13.37l-.444 1.95.444-1.95zm-7.926 34.747l-.445 1.95.445-1.95zm-4.56-4.017a2 2 0 00-2.128 3.388l2.128-3.388zM61.587 66.22l11.382-49.898-3.9-.89L57.687 65.33l3.9.89zm11.382-49.898c1.939-8.5 10.484-13.835 19.118-11.866l.89-3.9c-10.752-2.452-21.47 4.186-23.908 14.876l3.9.89zM92.087 4.455c8.633 1.97 14.02 10.483 12.081 18.983l3.899.89c2.439-10.691-4.34-21.32-15.09-23.772l-.89 3.9zm12.081 18.983c-1.939 8.5-10.484 13.835-19.118 11.865l-.89 3.9c10.75 2.452 21.469-4.185 23.907-14.876l-3.899-.89zM85.05 35.303a16.133 16.133 0 01-5.005-2.067l-2.128 3.388a20.134 20.134 0 006.243 2.579l.89-3.9zm37.198-2.946l.868 1.801-.868-1.801zm23.866 8.483l-1.802.868 1.802-.868zm-32.109 15.467l1.802-.868-1.802.868zm.297-6.07a2 2 0 00-3.975.448l3.975-.448zm-37.295 6.132l46.109-22.21-1.736-3.604-46.11 22.21 1.737 3.604zm46.109-22.21c7.854-3.784 17.353-.43 21.196 7.549l3.604-1.736c-4.785-9.935-16.657-14.176-26.536-9.417l1.736 3.603zm21.196 7.549c3.843 7.978.546 17.497-7.309 21.28l1.736 3.604c9.879-4.759 13.962-16.686 9.177-26.62l-3.604 1.736zm-7.309 21.28c-7.854 3.784-17.353.429-21.196-7.55l-3.604 1.737c4.786 9.934 16.657 14.175 26.536 9.417l-1.736-3.604zm-21.196-7.55a16.14 16.14 0 01-1.505-5.201l-3.975.448a20.138 20.138 0 001.876 6.49l3.604-1.736zm25.187 27.173l-.868 1.802.868-1.802zm8.247 23.949l1.802.868-1.802-.868zM117.13 91.099l-1.802-.868 1.802.868zm4.93-3.552a2 2 0 00-2.828-2.828l2.828 2.828zM94.013 62.21l46.113 22.202 1.736-3.604-46.113-22.202-1.736 3.604zm46.113 22.202c7.856 3.782 11.155 13.3 7.313 21.279l3.604 1.736c4.784-9.936.698-21.862-9.181-26.619l-1.736 3.604zm7.313 21.279c-3.841 7.979-13.339 11.336-21.195 7.553l-1.735 3.604c9.88 4.757 21.751.514 26.534-9.421l-3.604-1.736zm-21.195 7.553c-7.855-3.782-11.154-13.3-7.312-21.279l-3.604-1.735c-4.784 9.935-.699 21.862 9.181 26.618l1.735-3.604zm-7.312-21.279c.813-1.69 1.88-3.17 3.128-4.42l-2.828-2.827a20.118 20.118 0 00-3.904 5.512l3.604 1.736zm-5.326 36.65l1.95-.446-1.95.446zm-13.582 21.379l-.445-1.95.445 1.95zm-7.933-34.746l-.445-1.95.445 1.95zm5.852 1.64a2 2 0 10.447-3.975l-.447 3.975zm2.322-37.725l11.391 49.897 3.9-.891-11.391-49.896-3.9.89zm11.391 49.897c1.941 8.499-3.444 17.013-12.077 18.984l.89 3.9c10.75-2.455 17.527-13.084 15.087-23.775l-3.9.891zm-12.077 18.984c-8.634 1.971-17.18-3.363-19.12-11.862l-3.9.89c2.44 10.69 13.16 17.326 23.91 14.872l-.89-3.9zm-19.12-11.862c-1.94-8.5 3.444-17.013 12.078-18.984l-.89-3.9c-10.75 2.454-17.528 13.084-15.088 23.774l3.9-.89zm12.078-18.984a16.14 16.14 0 015.406-.31l.447-3.975a20.143 20.143 0 00-6.744.385l.89 3.9z" fill="#C2B7E6"/><path d="M80.317 53.385l17.243 8.317c.547.264.947.764 1.082 1.36l4.259 18.687a2.009 2.009 0 01-.387 1.698L90.582 98.433c-.38.477-.955.754-1.562.754H69.882a1.996 1.996 0 01-1.562-.754L56.388 83.447a2.01 2.01 0 01-.386-1.698l4.258-18.687a2.004 2.004 0 011.083-1.36l17.242-8.317a1.993 1.993 0 011.732 0z" fill="#F4F0FF" stroke="#7B58CF" stroke-width="4"/><rect x="82.375" y="13.625" width="12" height="12" rx="2" fill="#A7A7A7"/><rect x="123.875" y="41.851" width="12" height="12" rx="2" fill="#A7A7A7"/><rect x="126.625" y="93.187" width="12" height="12" rx="2" fill="#A7A7A7"/><rect x="90" y="126.437" width="12" height="12" rx="2" fill="#A7A7A7"/><rect x="39.617" y="119.437" width="12" height="12" rx="2" fill="#A7A7A7"/><rect x="14.617" y="75.187" width="12" height="12" rx="2" fill="#A7A7A7"/><rect x="34.617" y="28.312" width="12" height="12" rx="2" fill="#A7A7A7"/></svg>