<svg width="178" height="154" viewBox="0 0 178 154" fill="none" xmlns="http://www.w3.org/2000/svg"><g clip-path="url(#clip0)"><circle cx="91" cy="122" r="30" fill="#fff" stroke="#FC6D26" stroke-width="4"/><circle cx="91" cy="122" r="24" fill="#FCF0EA"/><path fill-rule="evenodd" clip-rule="evenodd" d="M87.829 108c-1.061 0-2.079.421-2.829 1.172l-7.408 7.407A1.995 1.995 0 0077 118v14a4 4 0 004 4h20a4 4 0 004-4v-14c0-.552-.224-1.052-.586-1.414L97 109.172A3.997 3.997 0 0094.172 108h-6.343zm10.343 8l-4-4H93v4h5.172zM89 112h-1.171l-4 4H89v-4zm-8 8h20v12H81v-12z" fill="#FC6D26"/><path d="M123 101V50c0-14.912 12.088-27 27-27s27 12.088 27 27-12.088 27-27 27a26.903 26.903 0 01-18.253-7.104" stroke="#DFDFDF" stroke-width="4" stroke-linecap="round"/><path d="M150.981 42.551a2.002 2.002 0 00-1.962 0l-11.92 6.706c-1.359.764-1.359 2.721 0 3.486l11.92 6.705a2.002 2.002 0 001.962 0l11.92-6.705c1.359-.765 1.359-2.722 0-3.486l-11.92-6.706z" fill="#EFEDF8" stroke="#6E49CB" stroke-width="4"/><path d="M79.796 56.153a2 2 0 001.408-3.744l-1.408 3.744zM88 84a2 2 0 104 0h-4zm27-55c0 12.551-9.251 22.945-21.306 24.73l.585 3.956C108.267 55.616 119 43.563 119 29h-4zm-50 0C65 15.193 76.193 4 90 4V0C73.984 0 61 12.984 61 29h4zM90 4c13.807 0 25 11.193 25 25h4c0-16.016-12.984-29-29-29v4zm-8.796 48.41C71.734 48.848 65 39.707 65 29h-4c0 12.428 7.817 23.026 18.796 27.153l1.408-3.744zM92 84V60h-4v24h4zm1.694-30.27C90.71 54.17 88 56.624 88 60h4c0-1.043.891-2.108 2.28-2.314l-.586-3.957z" fill="#DFDFDF"/><path d="M90.98 20.552a2 2 0 00-1.96 0l-11.921 6.705c-1.36.764-1.36 2.721 0 3.486l11.92 6.705a2 2 0 001.962 0l11.92-6.705c1.359-.764 1.359-2.722 0-3.486l-11.92-6.706z" fill="#EFEDF8" stroke="#6E49CB" stroke-width="4"/><path d="M57 101V50c0-14.912-12.088-27-27-27S3 35.088 3 50s12.088 27 27 27a26.903 26.903 0 0018.253-7.104" stroke="#DFDFDF" stroke-width="4" stroke-linecap="round"/><path d="M30.98 42.257a2 2 0 00-1.96 0l-11.921 6.705c-1.36.765-1.36 2.722 0 3.486l11.92 6.706a2 2 0 001.962 0l11.92-6.706c1.36-.764 1.36-2.721 0-3.486l-11.92-6.705z" fill="#EFEDF8" stroke="#6E49CB" stroke-width="4"/><path fill-rule="evenodd" clip-rule="evenodd" d="M76 80h1a2 2 0 110 4h-1v1a2 2 0 11-4 0v-1h-1a2 2 0 110-4h1v-1a2 2 0 114 0v1zM141 90h1a2 2 0 110 4h-1v1a2 2 0 11-4 0v-1h-1a2 2 0 110-4h1v-1a2 2 0 114 0v1z" fill="#DFDFDF"/><path fill-rule="evenodd" clip-rule="evenodd" d="M131 10h1a2 2 0 110 4h-1v1a2 2 0 11-4 0v-1h-1a2 2 0 110-4h1V9a2 2 0 114 0v1z" fill="#FC6D26"/><path fill-rule="evenodd" clip-rule="evenodd" d="M131 10h1a2 2 0 110 4h-1v1a2 2 0 11-4 0v-1h-1a2 2 0 110-4h1V9a2 2 0 114 0v1z" fill="#fff" fill-opacity=".6"/><path fill-rule="evenodd" clip-rule="evenodd" d="M48 95h1a2 2 0 110 4h-1v1a2 2 0 11-4 0v-1h-1a2 2 0 110-4h1v-1a2 2 0 114 0v1z" fill="#FC6D26"/><path fill-rule="evenodd" clip-rule="evenodd" d="M48 95h1a2 2 0 110 4h-1v1a2 2 0 11-4 0v-1h-1a2 2 0 110-4h1v-1a2 2 0 114 0v1z" fill="#fff" fill-opacity=".6"/></g><defs><clipPath id="clip0"><path fill="#fff" d="M0 0h178v154H0z"/></clipPath></defs></svg>