<svg fill="none" height="228" viewBox="0 0 292 228" width="292" xmlns="http://www.w3.org/2000/svg"><rect height="224" rx="14" stroke="#f0f0f0" stroke-width="4" width="288" x="2" y="2"/><rect height="56" rx="6" stroke="#f0f0f0" stroke-width="4" width="256" x="18" y="18"/><circle cx="50" cy="46" r="16.5" stroke="#999" stroke-width="3"/><path d="M51 44a1 1 0 10-2 0v3.414l2.293 2.293a1 1 0 001.414-1.414L51 46.586z" fill="#999"/><path clip-rule="evenodd" d="M49 38a1 1 0 100 2v.07A7.001 7.001 0 0050 54a7 7 0 005.6-11.2 1.01 1.01 0 00.107-.093l1-1a1 1 0 10-1.414-1.414l-1 1c-.034.034-.065.07-.093.107a6.964 6.964 0 00-3.2-1.33V40a1 1 0 100-2zm1 14a5 5 0 100-10 5 5 0 000 10z" fill="#999" fill-rule="evenodd"/><rect fill="#f0f0f0" height="4" rx="2" width="184" x="76" y="46"/><rect height="56" rx="6" stroke="#efedf8" stroke-width="4" width="256" x="18" y="154"/><circle cx="50" cy="182" r="16.5" stroke="#6e49cb" stroke-width="3"/><path d="M51 180a1 1 0 00-2 0v3.414l2.293 2.293a1 1 0 101.414-1.414L51 182.586z" fill="#6e49cb"/><path clip-rule="evenodd" d="M49 174a1 1 0 000 2v.071A7.002 7.002 0 0050 190a7 7 0 005.6-11.2c.037-.028.073-.059.107-.093l1-1a1 1 0 10-1.414-1.414l-1 1a.954.954 0 00-.093.107 6.958 6.958 0 00-3.2-1.329V176a1 1 0 000-2zm1 14a5 5 0 100-10 5 5 0 000 10z" fill="#6e49cb" fill-rule="evenodd"/><rect fill="#f0edfa" height="4" rx="2" width="184" x="76" y="181"/><rect height="56" rx="6" stroke="#fcf0ea" stroke-width="4" width="256" x="18" y="86"/><circle cx="50" cy="114" r="16.5" stroke="#fca121" stroke-width="3"/><path d="M51 112a1 1 0 00-2 0v3.414l2.293 2.293a1 1 0 101.414-1.414L51 114.586z" fill="#fca121"/><path clip-rule="evenodd" d="M49 106a1 1 0 000 2v.071A7.002 7.002 0 0050 122a7 7 0 005.6-11.2c.037-.028.073-.059.107-.093l1-1a1 1 0 10-1.414-1.414l-1 1a.954.954 0 00-.093.107 6.958 6.958 0 00-3.2-1.329V108a1 1 0 000-2zm1 14a5 5 0 100-10 5 5 0 000 10z" fill="#fca121" fill-rule="evenodd"/><rect fill="#fff0e9" height="4" rx="2" width="184" x="76" y="113"/></svg>