<svg fill="none" height="228" viewBox="0 0 292 228" width="292" xmlns="http://www.w3.org/2000/svg"><rect height="224" rx="14" stroke="#f0f0f0" stroke-width="4" width="288" x="2" y="2"/><rect height="56" rx="6" stroke="#f0edfa" stroke-width="4" width="90" x="18" y="18"/><path clip-rule="evenodd" d="M66.325 45.225a4 4 0 10-6.65 0A4.002 4.002 0 0057 49v4h12v-4a4.002 4.002 0 00-2.675-3.775zM65 43a2 2 0 11-4 0 2 2 0 014 0zm-4 4a2 2 0 00-2 2v2h8v-2a2 2 0 00-2-2z" fill="#6e49cb" fill-rule="evenodd"/><rect height="56" rx="6" stroke="#f0edfa" stroke-width="4" width="90" x="184" y="86"/><path clip-rule="evenodd" d="M232.325 113.225a4 4 0 10-6.65 0A4 4 0 00223 117v4h12v-4a4 4 0 00-2.675-3.775zM231 111a2 2 0 11-3.999.001A2 2 0 01231 111zm-4 4a2 2 0 00-2 2v2h8v-2a2 2 0 00-2-2z" fill="#6e49cb" fill-rule="evenodd"/><rect height="56" rx="6" stroke="#fff0e9" stroke-width="4" width="158" x="116" y="18"/><path clip-rule="evenodd" d="M198.325 45.225a4 4 0 10-6.65 0A4.002 4.002 0 00189 49v4h12v-4a4.002 4.002 0 00-2.675-3.775zM197 43a2 2 0 11-4 0 2 2 0 014 0zm-4 4a2 2 0 00-2 2v2h8v-2a2 2 0 00-2-2z" fill="#fca121" fill-rule="evenodd"/><rect height="56" rx="6" stroke="#fff0e9" stroke-width="4" width="90" x="18" y="154"/><path clip-rule="evenodd" d="M66.325 181.225a4 4 0 10-6.65 0A4 4 0 0057 185v4h12v-4a4 4 0 00-2.675-3.775zM65 179a2 2 0 11-4 0 2 2 0 014 0zm-4 4a2 2 0 00-2 2v2h8v-2a2 2 0 00-2-2z" fill="#fca121" fill-rule="evenodd"/><rect height="56" rx="6" stroke="#f0f0f0" stroke-width="4" width="158" x="116" y="154"/><path clip-rule="evenodd" d="M196.325 181.225a4 4 0 10-6.65 0A4 4 0 00187 185v4h12v-4a4 4 0 00-2.675-3.775zM195 179a2 2 0 11-3.999.001A2 2 0 01195 179zm-4 4a2 2 0 00-2 2v2h8v-2a2 2 0 00-2-2z" fill="#999" fill-rule="evenodd"/><rect height="56" rx="6" stroke="#f0f0f0" stroke-width="4" width="158" x="18" y="86"/><path clip-rule="evenodd" d="M100.325 113.225a4 4 0 10-6.65 0A4 4 0 0091 117v4h12v-4a4 4 0 00-2.675-3.775zM99 111a2 2 0 11-4 0 2 2 0 014 0zm-4 4a2 2 0 00-2 2v2h8v-2a2 2 0 00-2-2z" fill="#999" fill-rule="evenodd"/></svg>