<svg xmlns="http://www.w3.org/2000/svg" width="307" height="270" viewBox="0 0 307 270"><g fill="none" fill-rule="evenodd"><path stroke="#EEE" stroke-linecap="round" stroke-width="3" d="M249.69 251.73C236.978 203.54 193.09 168 140.9 168c-52.35 0-96.35 35.757-108.91 84.18"/><g fill="#F2F2F2" fill-rule="nonzero" transform="translate(30 166)"><path d="M111.12 3.5c50.613.098 94.39 34.36 107.12 82.61a1.5 1.5 0 002.901-.765c-13.07-49.558-58.03-84.74-110.01-84.85a1.5 1.5 0 00-.006 3m64.11 82.09c-7.683-49.66-33.691-84.992-64.11-85.09a1.5 1.5 0 00-.01 3c28.581.096 53.665 34.17 61.15 82.55a1.5 1.5 0 102.965-.459M110.96.496C58.65.496 13.47 35.938.54 85.796a1.5 1.5 0 102.903.753c12.588-48.547 56.58-83.06 107.45-83.06.888 0 1.56-.671 1.56-1.499 0-.828-.671-1.5-1.499-1.501m-61.28 85.81c7.442-48.563 32.608-82.79 61.28-82.81a1.501 1.501 0 00-.002-3c-30.512.028-56.6 35.51-64.24 85.36a1.5 1.5 0 002.965.455"/><path d="M33.06 33.907C54.758 45.85 82.1 52.5 110.998 52.5c28.84 0 56.14-6.624 77.82-18.527a1.5 1.5 0 00-1.444-2.63c-21.23 11.653-48.03 18.16-76.37 18.16-28.402 0-55.25-6.529-76.49-18.221a1.5 1.5 0 10-1.446 2.628"/><rect width="3" height="86" x="110" y="2" rx="1.5"/></g><g fill-rule="nonzero" transform="translate(135 162)"><circle cx="6" cy="6" r="6" fill="#F9E2D5"/><circle cx="6" cy="6" r="3" fill="#FFF" stroke="#FC6D26" stroke-width="2"/></g><g fill-rule="nonzero"><path fill="#FCF0EA" d="M236.76 221.82a116.374 116.374 0 003.094-5.231 1.5 1.5 0 10-2.621-1.459 116.619 116.619 0 01-3.01 5.096 1.5 1.5 0 002.542 1.594M245.21 205.66c.794-1.863 1.54-3.747 2.236-5.651a1.5 1.5 0 00-2.818-1.03 113.793 113.793 0 01-2.178 5.505 1.5 1.5 0 102.759 1.177m5.811-17.291c.491-1.964.932-3.943 1.32-5.934a1.5 1.5 0 00-2.945-.575 114.08 114.08 0 01-1.286 5.781 1.5 1.5 0 102.91.728"/><path fill="#F9E2D5" d="M254.04 170.41c.178-2.01.305-4.04.38-6.07a1.5 1.5 0 10-2.998-.11 114.872 114.872 0 01-.37 5.911 1.501 1.501 0 002.989.265m.199-18.226c-.134-2.026-.321-4.04-.559-6.05a1.5 1.5 0 00-2.979.353c.232 1.956.414 3.922.545 5.896a1.5 1.5 0 102.993-.199"/><path fill="#F4C6AC" d="M251.62 134.14c-.449-1.98-.949-3.945-1.5-5.894a1.499 1.499 0 10-2.886.816 112.202 112.202 0 011.461 5.742 1.5 1.5 0 002.925-.663m-5.42-17.401a116.05 116.05 0 00-2.405-5.581 1.5 1.5 0 10-2.723 1.259 113.475 113.475 0 012.343 5.436 1.5 1.5 0 002.785-1.115"/><path fill="#FC6D26" d="M238.11 100.38a116.137 116.137 0 00-3.249-5.135 1.5 1.5 0 00-2.493 1.669 115.22 115.22 0 013.165 5 1.5 1.5 0 102.576-1.538M227.55 85.478a116.541 116.541 0 00-4.01-4.566 1.501 1.501 0 00-2.203 2.037 114.487 114.487 0 013.906 4.449 1.5 1.5 0 102.305-1.921M214.89 72.473a117.234 117.234 0 00-4.666-3.892 1.5 1.5 0 10-1.861 2.353 113.499 113.499 0 014.546 3.792 1.5 1.5 0 001.981-2.253"/><path fill="#EFEDF8" d="M200.28 61.527a116.35 116.35 0 00-5.216-3.118 1.5 1.5 0 00-1.472 2.614c1.72.968 3.415 1.981 5.082 3.038a1.5 1.5 0 001.606-2.534m-16.14-8.534a115.972 115.972 0 00-5.642-2.262 1.5 1.5 0 10-1.043 2.813c1.852.687 3.684 1.421 5.496 2.203a1.5 1.5 0 001.189-2.755m-17.291-5.894c-1.962-.5-3.938-.948-5.928-1.345a1.5 1.5 0 10-.586 2.942c1.938.387 3.863.824 5.774 1.31a1.5 1.5 0 10.741-2.907m-17.931-3.095a118.13 118.13 0 00-6.06-.406 1.5 1.5 0 00-.123 2.997c1.978.081 3.948.213 5.909.395a1.5 1.5 0 10.277-2.987m-18.14-.285c-2.028.124-4.048.3-6.06.528a1.5 1.5 0 10.339 2.981c1.959-.222 3.927-.394 5.903-.515a1.501 1.501 0 00-.183-2.995m-18.05 2.528c-1.982.438-3.949.928-5.901 1.468a1.5 1.5 0 00.801 2.891c1.901-.527 3.817-1 5.748-1.43a1.5 1.5 0 00-.647-2.929m-17.426 5.323a115.2 115.2 0 00-5.597 2.377 1.5 1.5 0 101.245 2.729 112.62 112.62 0 015.452-2.315 1.5 1.5 0 00-1.099-2.791"/><g><path fill="#EFEDF8" d="M78.904 59.58a116.24 116.24 0 00-5.154 3.224 1.5 1.5 0 101.657 2.501c1.646-1.09 3.32-2.138 5.02-3.141a1.5 1.5 0 10-1.524-2.584"/><path fill="#E0DBF2" d="M63.949 70.06a118.144 118.144 0 00-4.588 3.986 1.5 1.5 0 002.025 2.213 114.538 114.538 0 014.47-3.884 1.5 1.5 0 00-1.909-2.315M50.871 82.663a116.524 116.524 0 00-3.918 4.649 1.5 1.5 0 002.343 1.873 113.67 113.67 0 013.818-4.53 1.501 1.501 0 00-2.243-1.993"/><path fill="#C2B7E6" d="M39.852 97.21a117.31 117.31 0 00-3.145 5.2 1.5 1.5 0 102.607 1.485 113.188 113.188 0 013.064-5.066 1.5 1.5 0 00-2.525-1.619m-8.617 16.09a115.968 115.968 0 00-2.292 5.63 1.501 1.501 0 002.808 1.058 112.979 112.979 0 012.232-5.484 1.5 1.5 0 00-2.748-1.204m-5.988 17.28c-.51 1.959-.969 3.934-1.376 5.922a1.501 1.501 0 002.939.603c.397-1.937.844-3.86 1.34-5.768a1.499 1.499 0 10-2.903-.755"/><path fill="#6E49CB" d="M22.061 148.5a117.02 117.02 0 00-.436 6.06 1.5 1.5 0 102.997.137c.091-1.977.233-3.947.425-5.907a1.5 1.5 0 10-2.986-.292m-.376 18.112c.114 2.029.279 4.049.497 6.06a1.5 1.5 0 102.983-.323c-.212-1.96-.374-3.929-.484-5.906a1.5 1.5 0 10-2.996.168m2.435 18.071c.428 1.982.907 3.951 1.437 5.904a1.5 1.5 0 102.896-.786c-.516-1.902-.983-3.82-1.4-5.751a1.5 1.5 0 10-2.933.633"/></g><path fill="#FDE5D8" d="M29.361 202.16c.734 1.89 1.517 3.76 2.348 5.607a1.5 1.5 0 002.735-1.231 113 113 0 01-2.288-5.462 1.5 1.5 0 00-2.796 1.086m7.911 16.416a116.162 116.162 0 003.196 5.169 1.5 1.5 0 002.51-1.644 111.055 111.055 0 01-3.113-5.04 1.5 1.5 0 10-2.592 1.51m10.407 15.02a118.121 118.121 0 003.962 4.608 1.5 1.5 0 102.223-2.015 113.674 113.674 0 01-3.86-4.49 1.5 1.5 0 10-2.324 1.896"/></g><g fill-rule="nonzero"><path fill="#F9E2D5" d="M149.229 158.861a40.82 40.82 0 00.914-1.414 64.352 64.352 0 002.225-3.92 1.5 1.5 0 10-2.656-1.394 62.366 62.366 0 01-2.122 3.739 38.54 38.54 0 01-.612.962c-.104.158-.174.26-.207.307a1.5 1.5 0 102.457 1.721"/><path fill="#F4C6AC" d="M157.208 142.31a81.212 81.212 0 001.781-5.849 1.5 1.5 0 00-2.901-.765 78.515 78.515 0 01-1.715 5.633 1.5 1.5 0 102.835.981"/><path fill="#FC6D26" d="M161.16 124.4a71.38 71.38 0 00.331-6.12 1.5 1.5 0 10-3-.032 68.248 68.248 0 01-.317 5.862 1.5 1.5 0 102.986.29"/><path fill="#FDE5D8" d="M160.533 106.07a66.206 66.206 0 00-1.311-5.996 1.5 1.5 0 00-2.898.774 64.109 64.109 0 011.252 5.728 1.5 1.5 0 002.957-.505M155 88.533a73.978 73.978 0 00-2.829-5.431 1.5 1.5 0 10-2.602 1.494 70.934 70.934 0 012.714 5.212 1.5 1.5 0 102.716-1.274"/></g><g fill-rule="nonzero" transform="translate(86)"><rect width="80" height="87" x="33.806" y="8.486" fill="#FFF" stroke="#F2F2F2" stroke-width="4" rx="8" transform="rotate(-5 73.806 51.986)"/><g transform="rotate(10 8.616 98.486)"><rect width="84" height="94" x="2" y="2" fill="#FFF" stroke="#F2F2F2" stroke-width="4" rx="8"/><g transform="translate(14 20)"><g fill="#F9E2D5"><rect width="12" height="4" rx="2"/><rect width="12" height="4" x="24" y="12" rx="2"/></g><rect width="12" height="4" y="36" fill="#6E49CB" rx="2"/><g fill="#F9E2D5" transform="translate(0 36)"><rect width="12" height="4" x="18" rx="2"/><rect width="12" height="4" y="18" rx="2"/></g><rect width="12" height="4" x="36" y="36" fill="#FC6D26" rx="2"/><rect width="6" height="4" x="42" y="12" fill="#6E49CB" rx="2"/><g fill="#F9E2D5"><rect width="6" height="4" x="36" y="24" rx="2"/><rect width="6" height="4" x="54" y="36" rx="2"/><rect width="6" height="4" x="48" y="24" rx="2"/><rect width="6" height="4" x="42" y="54" rx="2"/><rect width="6" height="4" y="24" rx="2"/><rect width="18" height="4" x="18" rx="2"/></g><rect width="18" height="4" x="18" y="54" fill="#FC6D26" rx="2"/><rect width="18" height="4" y="12" fill="#FC6D26" rx="2"/><g fill="#FC6D26" transform="translate(12)"><rect width="18" height="4" y="24" rx="2"/><rect width="12" height="4" x="30" rx="2"/></g></g></g></g><g fill-rule="nonzero" transform="translate(233 217)"><circle cx="6" cy="6" r="6" fill="#F9E2D5"/><circle cx="6" cy="6" r="3" fill="#FFF" stroke="#FC6D26" stroke-width="2"/></g><g fill-rule="nonzero" transform="translate(64 243)"><circle cx="13.5" cy="13.5" r="13.5" fill="#EFEDF8"/><circle cx="13.5" cy="13.5" r="8.5" fill="#C2B7E6"/><circle cx="13.5" cy="13.5" r="3.5" fill="#FFF" stroke="#6E49CB" stroke-width="2"/></g><circle cx="192" cy="210" r="3" fill="#FFF" fill-rule="nonzero" stroke="#FCF0EA" stroke-width="2"/><path fill="#FFF" fill-rule="nonzero" stroke="#DFDFDF" stroke-width="4" d="M280.701 178c-6.707 0-12.78 2.741-17.176 7.171a24.524 24.524 0 00-7.122 17.329c0 1.963.228 3.873.66 5.703l-3.674 7.49 7.135.463c4.362 6.539 11.77 10.844 20.177 10.844 6.707 0 12.78-2.741 17.176-7.171A24.524 24.524 0 00305 202.5a24.525 24.525 0 00-7.123-17.329C293.48 180.741 287.409 178 280.7 178z"/><g transform="translate(268 193)"><path fill="#FFF" fill-rule="nonzero" stroke="#F4C6AC" stroke-linecap="round" stroke-linejoin="round" stroke-width="4" d="M13 20c7.18 0 12.367-8.53 12.367-8.53.35-.522.369-1.396.036-1.934 0 0-5.224-9.536-12.404-9.536S.595 9.536.595 9.536c-.329.547-.316 1.422.049 1.95 0 0 5.175 8.514 12.355 8.514"/><circle cx="13" cy="10" r="5" stroke="#FC6D26" stroke-width="2"/><circle cx="13" cy="10" r="2" fill="#FC6D26" fill-rule="nonzero"/></g><path fill="#FFF" fill-rule="nonzero" stroke="#DFDFDF" stroke-width="4" d="M27.759 199c6.974 0 13.287 2.853 17.857 7.463a25.54 25.54 0 017.406 18.037c0 2.995-.512 5.87-1.45 8.54l3.508 7.158-7.812.508C42.632 246.38 35.615 250 27.758 250c-6.973 0-13.286-2.853-17.856-7.463A25.54 25.54 0 012.496 224.5a25.54 25.54 0 017.406-18.037c4.57-4.61 10.883-7.463 17.857-7.463z"/><path fill="#6E49CB" d="M31.5 212v3.9a7.503 7.503 0 015.993 7.012l.007.338v5.651a3 3 0 11-3.202.128l.202-.128v-5.651a4.501 4.501 0 00-2.742-4.143l-.258-.1v3.493l-6-5.25 6-5.25zM21 213.5a3 3 0 011.702 5.471l-.202.128v9.802a3 3 0 11-3.202.128l.202-.128V219.1A3 3 0 0121 213.5z"/></g></svg>