<svg xmlns="http://www.w3.org/2000/svg" xmlns:xlink="http://www.w3.org/1999/xlink" width="318" height="226" viewBox="0 0 318 226"><defs><rect id="a" width="20" height="4" x="0" y="0" rx="2"/><rect id="b" width="92" height="4" x="28" y="0" rx="2"/><rect id="c" width="36" height="4" x="16" y="8" rx="2"/><rect id="d" width="92" height="4" x="60" y="8" rx="2"/><rect id="e" width="44" height="24" x="34" y="42" rx="12"/><rect id="f" width="44" height="24" x="34" y="74" rx="12"/><rect id="i" width="49" height="4" x="28" y="52" rx="2"/><path id="g" d="M40 9h32a2 2 0 110 4H40a2 2 0 110-4z"/><path id="h" d="M39 9h32a2 2 0 110 4H39a2 2 0 110-4z"/></defs><g fill="none" fill-rule="evenodd"><g transform="rotate(180 117.5 113)"><use fill="#6E49CB" xlink:href="#a"/><use fill="#FFF" fill-opacity=".8" xlink:href="#a"/><use fill="#6E49CB" xlink:href="#b"/><use fill="#FFF" fill-opacity=".8" xlink:href="#b"/><use fill="#6E49CB" xlink:href="#c"/><use fill="#FFF" fill-opacity=".8" xlink:href="#c"/><use fill="#6E49CB" xlink:href="#d"/><use fill="#FFF" fill-opacity=".8" xlink:href="#d"/></g><g transform="translate(206 66)"><rect width="108" height="118" x="2" y="2" fill="#FFF" stroke="#DFDFDF" stroke-width="4" rx="4"/><use fill="#FC6D26" xlink:href="#e"/><use fill="#FFF" fill-opacity=".8" xlink:href="#e"/><g stroke="#F4C6AC" transform="translate(54 42)"><circle cx="12" cy="12" r="10" fill="#FCF0EA" stroke-width="4"/><path stroke-linecap="round" stroke-width="2" d="M9 9l6 6M15 9l-6 6"/></g><use fill="#FC6D26" xlink:href="#f"/><use fill="#FFF" fill-opacity=".8" xlink:href="#f"/><g stroke="#F4C6AC" transform="translate(54 74)"><circle cx="12" cy="12" r="10" fill="#FCF0EA" stroke-width="4"/><path stroke-linecap="round" stroke-width="2" d="M9 9l6 6M15 9l-6 6"/></g><use fill="#6E49CB" xlink:href="#g"/><use fill="#FFF" fill-opacity=".8" xlink:href="#g"/><path stroke="#DFDFDF" stroke-linecap="square" stroke-width="2" d="M26 19.65l81-.302"/></g><g transform="translate(0 76)"><rect width="108" height="108" x="2" y="2" fill="#FFF" stroke="#DFDFDF" stroke-width="4" rx="4"/><path stroke="#DFDFDF" stroke-linecap="round" stroke-width="4" d="M23 41v57"/><use fill="#6E49CB" xlink:href="#h"/><use fill="#FFF" fill-opacity=".8" xlink:href="#h"/><path stroke="#DFDFDF" stroke-linecap="round" stroke-width="4" d="M13 88h83"/><path stroke="#DFDFDF" stroke-linecap="square" stroke-width="2" d="M5 19.65l81-.302"/><path fill="#A7A7A7" d="M47 50v-4a8 8 0 1116 0v4h4v20H43V50h4zm4 0h8v-4a4 4 0 10-8 0v4zm-4 4v12h16V54H47zm6 4h4v4h-4v-4z"/></g><g transform="translate(87 19)"><rect width="140" height="181" x="2" y="2" fill="#EFEDF8" stroke="#6E49CB" stroke-width="4" rx="8"/><rect width="82" height="10" x="31" y="10" fill="#FC6D26" stroke="#FFF" stroke-width="2" rx="4"/><path fill="#FFF" stroke="#FC6D26" stroke-width="4" d="M122.972 100c.019-.571.028-1.144.028-1.717 0-27.652-21.763-50.188-49-51.244V100h48.972z"/><path fill="#FFF" stroke="#C2B7E6" stroke-width="2" d="M67 61.012c-22.734.53-41 19.126-41 41.988 0 23.196 18.804 42 42 42 21.744 0 39.79-16.58 41.812-38H67V61.012z"/><path stroke="#C2B7E6" stroke-linecap="square" stroke-width="2" d="M5 26.65l134-.3"/><path fill="#FC6D26" d="M94 84a4 4 0 110 8 4 4 0 010-8zm0-20c2.79 0 4.722 2.9 3.742 5.618L94 84l-3.742-14.382C89.278 66.9 91.21 64 94 64z"/><path stroke="#C2B7E6" stroke-linecap="round" stroke-width="4" d="M110 130h19M25 51h35"/><path stroke="#FFF" stroke-linecap="round" stroke-width="4" d="M25 159h94m-94 9h78"/><path stroke="#C2B7E6" stroke-linecap="round" stroke-width="4" d="M110 138h11"/></g><g transform="translate(173 2)"><use fill="#6E49CB" xlink:href="#i"/><use fill="#FFF" fill-opacity=".8" xlink:href="#i"/><path stroke="#C2B7E6" stroke-linecap="round" stroke-width="4" d="M87.18 54H109c14.912 0 27-12.088 27-27S123.912 0 109 0 82 12.088 82 27a26.903 26.903 0 007.104 18.253M0 74c0-11.046 8.954-20 20-20"/><path fill="#6E49CB" d="M106.544 12.368A2 2 0 01108.442 11h1.116a2 2 0 011.898 1.368l1.05 3.153c.744.226 1.456.523 2.13.883l2.974-1.487a2 2 0 012.309.374l.79.79a2 2 0 01.374 2.309l-1.486 2.973c.359.675.656 1.387.882 2.13l3.153 1.051A2 2 0 01125 26.442v1.116a2 2 0 01-1.368 1.898l-3.153 1.05a11.927 11.927 0 01-.882 2.13l1.486 2.974a2 2 0 01-.374 2.309l-.79.79a2 2 0 01-2.309.374l-2.973-1.487c-.675.36-1.387.657-2.13.883l-1.051 3.153A2 2 0 01109.558 43h-1.116a2 2 0 01-1.898-1.368l-1.05-3.153a11.926 11.926 0 01-2.13-.882l-2.974 1.486a2 2 0 01-2.309-.374l-.79-.79a2 2 0 01-.374-2.309l1.487-2.973a11.926 11.926 0 01-.883-2.13l-3.153-1.051A2 2 0 0193 27.558v-1.116a2 2 0 011.368-1.898l3.153-1.05c.226-.744.523-1.456.883-2.13l-1.487-2.974a2 2 0 01.374-2.309l.79-.79a2 2 0 012.309-.374l2.973 1.486c.675-.359 1.387-.656 2.13-.882l1.051-3.153zM109 35a8 8 0 100-16 8 8 0 000 16z"/></g></g></svg>