<svg xmlns="http://www.w3.org/2000/svg" xmlns:xlink="http://www.w3.org/1999/xlink" width="240" height="212" viewBox="0 0 240 212"><defs><path id="a" d="M25.375 16.049V11.95l-2.56-.424c-.142-.565-.426-1.13-.853-1.978l1.565-2.12-2.986-2.967-2.133 1.554c-.711-.424-1.422-.706-1.99-.848l-.285-2.543h-4.124l-.426 2.543c-.711.142-1.28.424-1.99.848L7.458 4.462 4.473 7.429l1.422 2.12c-.426.706-.568 1.272-.853 1.978l-2.417.283v4.098l2.56.424c.142.706.426 1.271.853 1.978l-1.422 2.12 2.986 2.967 2.132-1.413c.57.282 1.28.565 1.991.848l.427 2.543h4.265l.427-2.543c.71-.142 1.28-.424 1.99-.848l2.133 1.554 2.986-2.967-1.564-2.12c.427-.706.711-1.413.853-1.978l2.133-.424zM14 18.169c-2.417 0-4.266-1.837-4.266-4.24 0-2.402 1.849-4.239 4.266-4.239s4.266 1.837 4.266 4.24c0 2.402-1.849 4.238-4.266 4.238z"/></defs><g fill="none" fill-rule="evenodd"><g transform="translate(0 152)"><rect width="240" height="60" fill="#FFF" stroke="#DFDFDF" stroke-linecap="round" stroke-width="2" rx="4"/><path fill="#DFDFDF" d="M210 16c7.732 0 14 6.268 14 14s-6.268 14-14 14-14-6.268-14-14 6.268-14 14-14zm0 3.5c-5.799 0-10.5 4.701-10.5 10.5s4.701 10.5 10.5 10.5 10.5-4.701 10.5-10.5-4.701-10.5-10.5-10.5z"/><path stroke="#6E49CB" stroke-linecap="round" stroke-width="4" d="M60 36h72M60 24h96"/><path fill="#6E49CB" d="M30 16l12.25 3.5v6.451a14 14 0 01-4.1 9.9L30 44l-8.15-8.15a14 14 0 01-4.1-9.899V19.5L30 16zm0 3.64l-8.75 2.5v3.811a10.5 10.5 0 003.075 7.425L30 39.05l5.675-5.674a10.5 10.5 0 003.075-7.425v-3.81L30 19.64zM30 23v11.129l-3.18-3.156a7 7 0 01-2.07-4.969V24.75L30 23z"/></g><g transform="translate(0 76)"><rect width="240" height="60" fill="#FFF" stroke="#DFDFDF" stroke-linecap="round" stroke-width="2" rx="4"/><path fill="#1AAA55" d="M210 16c7.732 0 14 6.268 14 14s-6.268 14-14 14-14-6.268-14-14 6.268-14 14-14zm0 3.5c-5.799 0-10.5 4.701-10.5 10.5s4.701 10.5 10.5 10.5 10.5-4.701 10.5-10.5-4.701-10.5-10.5-10.5zm-1.75 11.525l5.763-5.762a1.75 1.75 0 012.62 2.31l-.146.164-7 7a1.75 1.75 0 01-2.31.146l-.164-.146-3.5-3.5a1.75 1.75 0 012.31-2.62l.164.146 2.263 2.262 5.763-5.762-5.763 5.762z"/><path stroke="#6E49CB" stroke-linecap="round" stroke-width="4" d="M60 36h32M60 24h96"/><path fill="#6E49CB" d="M17.75 42.25V33.5a7 7 0 013.89-6.273 5.25 5.25 0 116.22.004 7.008 7.008 0 013.497 3.952A7 7 0 0142.25 37v5.25h-24.5zm7-12.25a3.5 3.5 0 00-3.5 3.5v5.25h7V33.5a3.5 3.5 0 00-3.5-3.5zm10.5 3.5a3.5 3.5 0 00-3.5 3.5v1.75h7V37a3.5 3.5 0 00-3.5-3.5zm0-10.5a3.5 3.5 0 110 7 3.5 3.5 0 010-7zm-10.5-1.75a1.75 1.75 0 100 3.5 1.75 1.75 0 000-3.5z"/></g><rect width="240" height="60" fill="#FFF" stroke="#DFDFDF" stroke-linecap="round" stroke-width="2" rx="4"/><path fill="#1AAA55" d="M210 16c7.732 0 14 6.268 14 14s-6.268 14-14 14-14-6.268-14-14 6.268-14 14-14zm0 3.5c-5.799 0-10.5 4.701-10.5 10.5s4.701 10.5 10.5 10.5 10.5-4.701 10.5-10.5-4.701-10.5-10.5-10.5zm-1.75 11.525l5.763-5.762a1.75 1.75 0 012.62 2.31l-.146.164-7 7a1.75 1.75 0 01-2.31.146l-.164-.146-3.5-3.5a1.75 1.75 0 012.31-2.62l.164.146 2.263 2.262 5.763-5.762-5.763 5.762z"/><path stroke="#6E49CB" stroke-linecap="round" stroke-width="4" d="M60 36h72M60 24h96"/><use fill="#6E49CB" transform="translate(16 16)" xlink:href="#a"/></g></svg>