<svg width="303" height="170" viewBox="0 0 303 170" fill="none" xmlns="http://www.w3.org/2000/svg"><path d="M236 87c0 4.26-.555 8.39-1.596 12.321C248.885 101.451 260 113.928 260 129c0 16.569-13.431 30-30 30-.672 0-1.339-.022-2-.066V159H113c-17.12 0-31-13.879-31-31 0-17.121 13.88-31 31-31 .987 0 1.963.046 2.927.136A18.91 18.91 0 01113 87c0-10.493 8.507-19 19-19a18.91 18.91 0 0110.641 3.257C149.157 52.48 167.005 39 188 39c26.51 0 48 21.49 48 48z" fill="#EFEDF8" stroke="#6E49CB" stroke-width="4" stroke-linejoin="round"/><path d="M248.18 56H274c14.912 0 27-12.088 27-27S288.912 2 274 2s-27 12.088-27 27a26.905 26.905 0 007.104 18.253M219 76c0-11.046 8.954-20 20-20M102 130H29c-14.912 0-27-12.088-27-27s12.088-27 27-27 27 12.088 27 27a26.903 26.903 0 01-7.104 18.253M66.547 130H52c-9.941 0-18 8.059-18 18s8.059 18 18 18 18-8.059 18-18c0-2.379-.462-4.651-1.3-6.73" stroke="#C2B7E6" stroke-width="4" stroke-linecap="round"/><path d="M101 85c0-16.569 13.431-30 30-30 1.452 0 2.879.103 4.276.302C145.851 37.18 165.503 25 188 25a60.739 60.739 0 0137.5 12.885" stroke="#F2F2F2" stroke-width="8" stroke-linecap="round"/><path d="M175.68 132.845c6.341 0 20-1.695 20-4.95V92h-40v35.895c0 3.255 13.658 4.95 20 4.95z" fill="#fff"/><path fill-rule="evenodd" clip-rule="evenodd" d="M195.68 88a4 4 0 014 4v35.895c0 1.927-1.034 3.295-1.88 4.08-.839.778-1.84 1.324-2.721 1.718-1.788.799-4.037 1.386-6.246 1.822-4.469.882-9.729 1.33-13.153 1.33-3.425 0-8.685-.448-13.153-1.33-2.209-.436-4.459-1.023-6.246-1.822-.881-.394-1.883-.94-2.722-1.718-.846-.785-1.879-2.153-1.879-4.08V92a4 4 0 014-4h40zm0 4v35.895c0 3.255-13.659 4.95-20 4.95-6.342 0-20-1.695-20-4.95V92h40z" fill="#6E49CB"/><path d="M197 119c0 1.657-9.626 4-21.5 4s-21.5-2.343-21.5-4M197 106c0 1.657-9.626 4-21.5 4s-21.5-2.343-21.5-4" stroke="#6E49CB" stroke-width="2"/><path d="M195.992 92.273c0 1.454-9.024 2.633-20.156 2.633s-20.156-1.179-20.156-2.633c0-1.453 9.024-2.632 20.156-2.632s20.156 1.179 20.156 2.632z" fill="#fff"/><path fill-rule="evenodd" clip-rule="evenodd" d="M192.06 93.788c-.992.185-2.161.353-3.475.498-3.485.387-7.988.62-12.905.62-4.917 0-9.42-.233-12.906-.62a48.295 48.295 0 01-3.475-.498c-2.296-.428-3.645-.95-3.645-1.514 0-.564 1.349-1.087 3.645-1.515a48.295 48.295 0 013.475-.498c3.486-.387 7.989-.62 12.906-.62 4.917 0 9.42.233 12.905.62 1.314.145 2.483.313 3.475.498 2.297.428 3.646.95 3.646 1.514 0 .564-1.349 1.087-3.646 1.515zm-1.705 4.313c-3.842.505-9.029.805-14.675.805-5.647 0-10.833-.3-14.675-.805-1.893-.249-3.618-.567-4.95-.98-.637-.199-1.424-.49-2.132-.945-.483-.31-2.243-1.53-2.243-3.903 0-2.372 1.76-3.591 2.243-3.902.708-.455 1.495-.746 2.132-.944 1.332-.414 3.057-.732 4.95-.981 3.842-.505 9.028-.805 14.675-.805 5.646 0 10.833.3 14.675.805 1.892.249 3.617.567 4.949.981.637.198 1.424.49 2.133.944.483.31 2.243 1.53 2.243 3.903s-1.76 3.592-2.243 3.902c-.709.455-1.496.746-2.133.944-1.332.414-3.057.732-4.949.981z" fill="#6E49CB"/><g clip-path="url(#clip0)" fill="#FC6D26"><path d="M55.519 142.463a1 1 0 00-1.932-.517l-3.106 11.591a.999.999 0 101.932.517l3.106-11.591zM49.707 144.293a1 1 0 010 1.414L47.414 148l2.293 2.293a1 1 0 11-1.414 1.414l-3-3a1 1 0 010-1.414l3-3a1 1 0 011.414 0zM56.293 144.293a1 1 0 000 1.414L58.586 148l-2.293 2.293a1 1 0 101.414 1.414l3-3a1 1 0 000-1.414l-3-3a1 1 0 00-1.414 0z"/></g><path d="M264 27a2 2 0 012-2h8a2 2 0 110 4h-8a2 2 0 01-2-2zM278 27a2 2 0 012-2h2a2 2 0 110 4h-2a2 2 0 01-2-2z" fill="#FC6D26"/><path fill-rule="evenodd" clip-rule="evenodd" d="M260 17a2 2 0 00-2 2v16a2 2 0 002 2h12v2h-8a2 2 0 100 4h20a2 2 0 100-4h-8v-2h12a2 2 0 002-2V19a2 2 0 00-2-2h-28zm2 4v12h24V21h-24zM15 91a2 2 0 012-2h8a2 2 0 012 2v8a2 2 0 01-2 2h-8a2 2 0 01-2-2v-8zm4 6v-4h4v4h-4zM31 91a2 2 0 012-2h8a2 2 0 012 2v8a2 2 0 01-2 2h-8a2 2 0 01-2-2v-8zm4 6v-4h4v4h-4zM17 105a2 2 0 00-2 2v8a2 2 0 002 2h8a2 2 0 002-2v-8a2 2 0 00-2-2h-8zm2 4v4h4v-4h-4z" fill="#FC6D26"/><path d="M33 105a2 2 0 00-2 2v8a2 2 0 002 2h8a2 2 0 002-2v-8a2 2 0 00-2-2h-8z" fill="#FC6D26"/><path d="M281.602 168c10.713 0 19.398-8.73 19.398-19.5s-8.685-19.5-19.398-19.5H221" stroke="#C2B7E6" stroke-width="4" stroke-linecap="round"/><path d="M278 149a1 1 0 011-1h4a1 1 0 010 2h-4a1 1 0 01-1-1zM279 151a1 1 0 000 2h2a1 1 0 000-2h-2z" fill="#FC6D26"/><path fill-rule="evenodd" clip-rule="evenodd" d="M283.586 142.586a2 2 0 00-1.414-.586H276a1 1 0 00-1 1v12a1 1 0 001 1h10a1 1 0 001-1v-8.172a2 2 0 00-.586-1.414l-2.828-2.828zM285 147v7h-8v-10h5v2a1 1 0 001 1h2z" fill="#FC6D26"/><defs><clipPath id="clip0"><path fill="#fff" transform="translate(45 140)" d="M0 0h16v16H0z"/></clipPath></defs></svg>