<svg width="242" height="214" viewBox="0 0 242 214" fill="none" xmlns="http://www.w3.org/2000/svg"><rect x="1" y="1" width="240" height="60" rx="4" fill="#fff"/><path d="M61 37h72M61 25h96" stroke="#C2B7E6" stroke-width="4" stroke-linecap="round"/><path d="M31 45c7.732 0 14-6.268 14-14s-6.268-14-14-14-14 6.268-14 14 6.268 14 14 14z" fill="#FCF0EA"/><path d="M35.667 34.889a1.555 1.555 0 100-3.111 1.555 1.555 0 000 3.11zM27.889 33.333a1.556 1.556 0 11-3.112 0 1.556 1.556 0 013.111 0z" fill="#FC6D26"/><path fill-rule="evenodd" clip-rule="evenodd" d="M31 15c-8.837 0-16 7.163-16 16s7.163 16 16 16 16-7.163 16-16-7.163-16-16-16zm-2.47 4.254A12.053 12.053 0 0131 19c3.422 0 6.509 1.432 8.695 3.73L28.53 19.253zm-4.274 1.819a12.014 12.014 0 00-4.93 7.141 14.626 14.626 0 005.907-6.02 16.662 16.662 0 01-.977-1.121zm-5.25 9.527c-.004.133-.006.266-.006.4 0 6.627 5.373 12 12 12s12-5.373 12-12c0-1.56-.297-3.05-.839-4.416-1.56.487-3.22.75-4.939.75a16.487 16.487 0 01-10.477-3.737 16.619 16.619 0 01-7.738 7.003zm18.216-5.267a14.514 14.514 0 01-10.597-4.577l13.666 4.253c-.99.213-2.016.324-3.069.324z" fill="#FC6D26"/><rect x="173" y="19" width="54" height="24" rx="4" fill="#fff" stroke="#DFDFDF" stroke-width="2" stroke-linecap="round"/><rect x="1" y="1" width="240" height="60" rx="4" stroke="#DFDFDF" stroke-width="2" stroke-linecap="round"/><rect x="1" y="77" width="240" height="60" rx="4" fill="#fff"/><path d="M61 113h72M61 101h96" stroke="#C2B7E6" stroke-width="4" stroke-linecap="round"/><path d="M31 121c7.732 0 14-6.268 14-14s-6.268-14-14-14-14 6.268-14 14 6.268 14 14 14z" fill="#FCF0EA"/><path d="M35.667 110.889a1.556 1.556 0 10-.001-3.112 1.556 1.556 0 000 3.112zM27.889 109.333a1.556 1.556 0 11-3.113 0 1.556 1.556 0 013.113 0z" fill="#FC6D26"/><path fill-rule="evenodd" clip-rule="evenodd" d="M31 91c-8.837 0-16 7.163-16 16s7.163 16 16 16 16-7.163 16-16-7.163-16-16-16zm-2.47 4.254A12.053 12.053 0 0131 95c3.422 0 6.509 1.432 8.695 3.73L28.53 95.253zm-4.274 1.819a12.015 12.015 0 00-4.93 7.141 14.627 14.627 0 005.907-6.02 16.662 16.662 0 01-.977-1.121zm-5.25 9.527c-.004.133-.006.266-.006.4 0 6.627 5.373 12 12 12s12-5.373 12-12c0-1.559-.297-3.049-.839-4.416-1.56.487-3.22.749-4.939.749a16.485 16.485 0 01-10.477-3.736 16.622 16.622 0 01-7.738 7.003zm18.216-5.267a14.514 14.514 0 01-10.597-4.577l13.666 4.253c-.99.213-2.016.324-3.069.324z" fill="#FC6D26"/><rect x="173" y="95" width="54" height="24" rx="4" fill="#fff" stroke="#DFDFDF" stroke-width="2" stroke-linecap="round"/><rect x="1" y="77" width="240" height="60" rx="4" stroke="#DFDFDF" stroke-width="2" stroke-linecap="round"/><rect x="1" y="153" width="240" height="60" rx="4" fill="#fff"/><path d="M61 189h72M61 177h96" stroke="#C2B7E6" stroke-width="4" stroke-linecap="round"/><path d="M31 197c7.732 0 14-6.268 14-14s-6.268-14-14-14-14 6.268-14 14 6.268 14 14 14z" fill="#FCF0EA"/><path d="M35.667 186.889a1.556 1.556 0 10-.001-3.112 1.556 1.556 0 000 3.112zM27.889 185.333a1.556 1.556 0 11-3.113 0 1.556 1.556 0 013.113 0z" fill="#FC6D26"/><path fill-rule="evenodd" clip-rule="evenodd" d="M31 167c-8.837 0-16 7.163-16 16s7.163 16 16 16 16-7.163 16-16-7.163-16-16-16zm-2.47 4.254A12.102 12.102 0 0131 171c3.422 0 6.509 1.432 8.695 3.729l-11.165-3.475zm-4.274 1.819a12.012 12.012 0 00-4.93 7.141 14.626 14.626 0 005.907-6.02 16.778 16.778 0 01-.977-1.121zm-5.25 9.527c-.004.133-.006.266-.006.4 0 6.627 5.373 12 12 12s12-5.373 12-12c0-1.559-.297-3.049-.839-4.416-1.56.487-3.22.749-4.939.749a16.485 16.485 0 01-10.477-3.736 16.622 16.622 0 01-7.738 7.003zm18.216-5.267a14.514 14.514 0 01-10.597-4.577l13.666 4.253c-.99.213-2.016.324-3.069.324z" fill="#FC6D26"/><rect x="173" y="171" width="54" height="24" rx="4" fill="#fff" stroke="#DFDFDF" stroke-width="2" stroke-linecap="round"/><rect x="1" y="153" width="240" height="60" rx="4" stroke="#DFDFDF" stroke-width="2" stroke-linecap="round"/></svg>