<svg xmlns="http://www.w3.org/2000/svg" xmlns:xlink="http://www.w3.org/1999/xlink" width="325" height="203" viewBox="0 0 325 203"><defs><rect id="a" width="49" height="4" x="195" y="100" rx="2"/></defs><g fill="none" fill-rule="evenodd"><path stroke="#C2B7E6" stroke-linecap="round" stroke-width="4" d="M23.238 68C11.508 68 2 77.402 2 89s9.508 21 21.238 21H155"/><g fill-rule="nonzero" transform="rotate(180 104 39)"><rect width="20" height="4" fill="#6E49CB" rx="2"/><rect width="20" height="4" fill="#FFF" fill-opacity=".8" rx="2"/><rect width="92" height="4" fill="#6E49CB" rx="2" transform="translate(28)"/><rect width="92" height="4" fill="#FFF" fill-opacity=".8" rx="2" transform="translate(28)"/><rect width="36" height="4" fill="#6E49CB" rx="2" transform="translate(16 8)"/><rect width="36" height="4" fill="#FFF" fill-opacity=".8" rx="2" transform="translate(16 8)"/><rect width="92" height="4" fill="#6E49CB" rx="2" transform="translate(60 8)"/><rect width="92" height="4" fill="#FFF" fill-opacity=".8" rx="2" transform="translate(60 8)"/></g><g fill-rule="nonzero" transform="rotate(180 132 45.5)"><rect width="20" height="4" fill="#6E49CB" rx="2"/><rect width="20" height="4" fill="#FFF" fill-opacity=".8" rx="2"/><rect width="92" height="4" fill="#6E49CB" rx="2" transform="translate(28)"/><rect width="92" height="4" fill="#FFF" fill-opacity=".8" rx="2" transform="translate(28)"/><rect width="36" height="4" fill="#6E49CB" rx="2" transform="translate(16 8)"/><rect width="36" height="4" fill="#FFF" fill-opacity=".8" rx="2" transform="translate(16 8)"/><rect width="92" height="4" fill="#6E49CB" rx="2" transform="translate(60 8)"/><rect width="92" height="4" fill="#FFF" fill-opacity=".8" rx="2" transform="translate(60 8)"/></g><g fill-rule="nonzero" transform="matrix(1 0 0 -1 67 102)"><rect width="20" height="4" fill="#6E49CB" rx="2"/><rect width="20" height="4" fill="#FFF" fill-opacity=".8" rx="2"/><rect width="92" height="4" fill="#6E49CB" rx="2" transform="translate(28)"/><rect width="92" height="4" fill="#FFF" fill-opacity=".8" rx="2" transform="translate(28)"/><rect width="36" height="4" fill="#6E49CB" rx="2" transform="translate(16 8)"/><rect width="36" height="4" fill="#FFF" fill-opacity=".8" rx="2" transform="translate(16 8)"/><rect width="92" height="4" fill="#6E49CB" rx="2" transform="translate(60 8)"/><rect width="92" height="4" fill="#FFF" fill-opacity=".8" rx="2" transform="translate(60 8)"/></g><path fill="#EFEDF8" stroke="#6E49CB" stroke-width="4" d="M171 16c33.137 0 60 26.863 60 60s-26.863 60-60 60a59.867 59.867 0 01-21.16-3.838L138 144l-4-4-13 13h-16v5h-5v13H90v10H80v15h-5v5H53l-11-11v-9l76.002-76.846C113.532 95.758 111 86.174 111 76c0-33.137 26.863-60 60-60z"/><circle cx="171" cy="76" r="47" fill="#FFF" fill-rule="nonzero" stroke="#C2B7E6" stroke-width="2"/><path stroke="#F2F2F2" stroke-linecap="round" stroke-width="8" d="M110.44 37.188A71.801 71.801 0 00103 52.617m50.53 93.26A71.705 71.705 0 00170.897 148c25.096 0 47.183-12.923 60.01-32.497M242 66.165C237.22 31.054 207.208 4 170.897 4c-17.967 0-34.392 6.624-46.98 17.57"/><circle cx="187" cy="60" r="11" stroke="#6E49CB" stroke-linecap="round" stroke-width="4"/><path stroke="#6E49CB" stroke-linecap="round" stroke-width="2" d="M44 189l72-71h10l-76 77z"/><use fill="#6E49CB" xlink:href="#a"/><use fill="#FFF" fill-opacity=".8" xlink:href="#a"/><path stroke="#C2B7E6" stroke-linecap="round" stroke-width="4" d="M251 102h45c14.912 0 27-12.088 27-27s-12.088-27-27-27-27 12.088-27 27a26.903 26.903 0 007.104 18.253M251.55 102h14.95c10.217 0 18.5 8.283 18.5 18.5s-8.283 18.5-18.5 18.5-18.5-8.283-18.5-18.5c0-2.445.474-4.78 1.336-6.917"/><path fill="#6E49CB" d="M32 82v-4a8 8 0 1116 0v4h4v20H28V82h4zm4 0h8v-4a4 4 0 10-8 0v4zm-4 4v12h16V86H32zm6 4h4v4h-4v-4z"/><rect width="52" height="16" x="132" y="82" fill="#EFEDF8" fill-rule="nonzero" rx="8" transform="rotate(45 158 90)"/><path fill="#FC6D26" d="M261.5 113.5h6.172a2 2 0 011.284.467l.13.119 2.828 2.828a2 2 0 01.578 1.239l.008.175v8.172a1 1 0 01-.883.993l-.117.007h-10a1 1 0 01-.993-.883l-.007-.117v-12a1 1 0 01.883-.993l.117-.007h6.172-6.172zm6 2h-5v10h8v-7h-2a1 1 0 01-.993-.883l-.007-.117v-2zm-3 7h2a1 1 0 01.117 1.993l-.117.007h-2a1 1 0 01-.117-1.993l.117-.007zm4-3a1 1 0 110 2h-4a1 1 0 010-2h4zM290 89h-8v-8l18.828-18.828a4 4 0 015.657 0l2.343 2.343a4 4 0 010 5.657L290 89zm-3.32-7.023l2.343 2.343 11.808-11.808-2.343-2.343-11.808 11.808zM306 67.344l-2.34 2.34-2.343-2.344 2.34-2.34 2.342 2.344z"/></g></svg>