<svg width="253" height="372" viewBox="0 0 253 372" fill="none" xmlns="http://www.w3.org/2000/svg"><path d="M189.465 58.705L79.545 43.257c-5.469-.769-10.526 3.042-11.294 8.51L48.488 192.387c-.768 5.469 3.042 10.526 8.511 11.294l109.92 15.448c5.469.769 10.526-3.041 11.294-8.511l19.763-140.618c.769-5.469-3.042-10.525-8.511-11.294z" fill="#fff" stroke="#E5E5E5" stroke-width="8"/><path d="M95.035 76.739l-7.922-1.114a2 2 0 10-.556 3.961l7.922 1.114a2 2 0 10.556-3.961zM134.647 82.305l-7.922-1.113a2 2 0 00-.557 3.961l7.922 1.114a2 2 0 00.557-3.962z" fill="#FC8A51"/><path d="M118.803 80.079l-15.844-2.227a2 2 0 00-.557 3.961l15.845 2.227a2 2 0 00.556-3.961z" fill="#FDE5D8"/><path d="M98.227 111.521l-15.844-2.227a2 2 0 00-.557 3.961l15.845 2.227a2 2 0 10.556-3.961z" fill="#6B4FBB"/><path d="M121.993 114.861l-15.844-2.226a2 2 0 10-.557 3.961l15.844 2.226a2 2 0 10.557-3.961z" fill="#FDE5D8"/><path d="M111.983 128.602l-15.844-2.227a2 2 0 10-.557 3.961l15.844 2.227a2 2 0 00.557-3.961z" fill="#FC8A51"/><path d="M88.217 125.262l-7.922-1.114a2.001 2.001 0 00-.557 3.962l7.922 1.113a2 2 0 10.557-3.961zM92.67 93.573l-7.922-1.113a2 2 0 00-.557 3.96l7.923 1.114a2 2 0 00.556-3.96z" fill="#FDE5D8"/><path d="M108.514 95.8l-7.922-1.114a2 2 0 00-.557 3.962l7.922 1.113a2 2 0 00.557-3.961z" fill="#FC8A51"/><path d="M127.828 130.829l-7.922-1.114a2.001 2.001 0 00-.556 3.961l7.922 1.114a2 2 0 10.556-3.961z" fill="#FDE5D8"/><path d="M124.36 98.027l-7.922-1.114a2 2 0 10-.557 3.961l7.922 1.114a2 2 0 00.557-3.961z" fill="#6B4FBB"/><path d="M140.203 100.254l-7.922-1.114a2 2 0 10-.556 3.961l7.922 1.114a2.001 2.001 0 00.556-3.961z" fill="#FDE5D8"/><path d="M228.901 132.555l1.655-18.926c.385-4.399-2.873-8.282-7.277-8.667l-23.894-2.091c-2.767-.242-6.132 1.486-7.545 3.858l-5.965 10.018-49.574-4.337a10.002 10.002 0 00-7.298 2.299 9.987 9.987 0 00-3.531 6.788l-4.62 52.804c-.48 5.492 3.587 10.349 9.087 10.83l83.69 7.322c5.504.481 10.346-3.589 10.827-9.089l4.446-50.81-.001.001z" fill="#fff" stroke="#B5A7DD" stroke-width="8"/><path fill-rule="evenodd" clip-rule="evenodd" d="M62 132c0-9.94 8.06-18 18-18s18 8.06 18 18-8.06 18-18 18-18-8.06-18-18z" fill="#C1E7D0"/><path fill-rule="evenodd" clip-rule="evenodd" d="M94.143 132c0-7.81-6.332-14.143-14.143-14.143-7.81 0-14.143 6.332-14.143 14.143 0 7.81 6.332 14.143 14.143 14.143 7.81 0 14.143-6.332 14.143-14.143z" fill="#fff"/><path fill-rule="evenodd" clip-rule="evenodd" d="M78.685 133.875l-3.18-3.18a.755.755 0 00-1.06-.005l-1.55 1.55a.754.754 0 00.004 1.06l4.92 4.92c.504.504 1.32.504 1.823 0l.654-.653 7.804-7.804c.3-.3.29-.77-.005-1.067l-1.578-1.58a.756.756 0 00-.533-.225.756.756 0 00-.535.221l-6.764 6.763z" fill="#31AF64"/><path fill-rule="evenodd" clip-rule="evenodd" d="M8 66c0-9.94 8.06-18 18-18s18 8.06 18 18-8.06 18-18 18S8 75.94 8 66z" fill="#D5ECF7"/><path fill-rule="evenodd" clip-rule="evenodd" d="M40.143 66c0-7.81-6.332-14.143-14.143-14.143-7.81 0-14.143 6.332-14.143 14.143 0 7.81 6.332 14.143 14.143 14.143 7.81 0 14.143-6.332 14.143-14.143z" fill="#fff"/><path fill-rule="evenodd" clip-rule="evenodd" d="M26 55.714c5.68 0 10.287 4.605 10.287 10.286 0 5.68-4.605 10.286-10.286 10.286-3.45 0-6.505-1.7-8.37-4.307L26 66V55.714z" fill="#2D9FD8"/><path d="M58.782 122.568l.986-.139c5.47-.769 10.529 3.036 11.297 8.501l2.786 19.825c.768 5.462-3.046 10.516-8.516 11.285l-37.622 5.287c-5.47.769-10.53-3.036-11.297-8.5l-2.787-19.825c-.767-5.463 3.046-10.516 8.517-11.285l.986-.139-.974-6.932c-1.384-9.843 5.476-18.946 15.32-20.33 9.843-1.383 18.946 5.477 20.33 15.32l.974 6.932zm-5.942.835l-23.766 3.34-.975-6.932c-.922-6.562 3.651-12.631 10.214-13.553 6.562-.922 12.63 3.651 13.553 10.213l.974 6.932z" fill="#fff" stroke="#FDE5D8" stroke-width="8"/><path fill-rule="evenodd" clip-rule="evenodd" d="M45.941 146.168a4.999 4.999 0 002.082-5.951 5.004 5.004 0 00-5.396-3.261 5.004 5.004 0 00-3.381 7.842 4.999 4.999 0 002.734 1.927l.476 3.387a2 2 0 002.258 1.698 1.994 1.994 0 001.703-2.256l-.476-3.387v.001z" fill="#FC8A51"/><path d="M4 164.008C4 158.48 8.476 154 14 154h218c5.523 0 10 4.473 10 10.008v140.94c0 5.53-4.062 11.882-9.08 14.196l-100.84 46.5c-5.015 2.31-13.142 2.312-18.16 0l-100.84-46.5C8.064 316.832 4 310.484 4 304.95V164.007v.001z" fill="#fff" stroke="#E5E5E5" stroke-width="8"/><path opacity=".3" fill-rule="evenodd" clip-rule="evenodd" d="M145.838 258.53l-2.56-7.993-5.074-15.843c-.26-.815-1.398-.815-1.66 0l-5.074 15.843h-16.85l-5.075-15.843c-.26-.815-1.398-.815-1.66 0l-5.073 15.843-2.56 7.993c-.234.73.022 1.528.633 1.98l22.16 16.33 22.16-16.33c.61-.452.866-1.25.632-1.98" fill="#A1A1A1"/><path opacity=".3" fill-rule="evenodd" clip-rule="evenodd" d="M123.044 276.84l8.425-26.303h-16.85l8.424 26.304" fill="#5C5C5C"/><path opacity=".3" fill-rule="evenodd" clip-rule="evenodd" d="M123.045 276.84l-8.425-26.303h-11.809l20.232 26.304" fill="#787878"/><path opacity=".3" fill-rule="evenodd" clip-rule="evenodd" d="M123.044 276.84l8.425-26.303h11.807l-20.233 26.304" fill="#787878"/><path opacity=".3" fill-rule="evenodd" clip-rule="evenodd" d="M102.812 250.537l-2.56 7.993c-.234.73.022 1.528.633 1.98l22.16 16.33-20.235-26.302.002-.001z" fill="#A1A1A1"/><path opacity=".3" fill-rule="evenodd" clip-rule="evenodd" d="M102.812 250.537h11.807l-5.075-15.843c-.26-.815-1.398-.815-1.66 0l-5.073 15.843h.001z" fill="#5C5C5C"/><path opacity=".3" fill-rule="evenodd" clip-rule="evenodd" d="M143.277 250.537l2.56 7.993a1.786 1.786 0 01-.634 1.98l-22.16 16.33 20.234-26.303z" fill="#A1A1A1"/><path opacity=".3" fill-rule="evenodd" clip-rule="evenodd" d="M143.278 250.537h-11.807l5.074-15.843c.26-.815 1.398-.815 1.66 0l5.073 15.843z" fill="#5C5C5C"/><path fill-rule="evenodd" clip-rule="evenodd" d="M61 172.29c1.105 0 2-.818 2-1.828 0-1.01-.895-1.83-2-1.83H45c-1.105 0-2 .82-2 1.83 0 1.01.895 1.83 2 1.83h16v-.002zm36 0c1.105 0 2-.818 2-1.828 0-1.01-.895-1.83-2-1.83H81c-1.105 0-2 .82-2 1.83 0 1.01.895 1.83 2 1.83h16v-.002zm36 0c1.105 0 2-.818 2-1.828 0-1.01-.895-1.83-2-1.83h-16c-1.105 0-2 .82-2 1.83 0 1.01.895 1.83 2 1.83h16v-.002zm36 0c1.105 0 2-.818 2-1.828 0-1.01-.895-1.83-2-1.83h-16c-1.105 0-2 .82-2 1.83 0 1.01.895 1.83 2 1.83h16v-.002zm36 0c1.105 0 2-.818 2-1.828 0-1.01-.895-1.83-2-1.83h-16c-1.105 0-2 .82-2 1.83 0 1.01.895 1.83 2 1.83h16v-.002zm17 24.693c0 1.01.895 1.83 2 1.83s2-.82 2-1.83V182.35c0-1.01-.895-1.83-2-1.83s-2 .82-2 1.83v14.633zm-202 0c0 1.01.895 1.83 2 1.83s2-.82 2-1.83V182.35c0-1.01-.895-1.83-2-1.83s-2 .82-2 1.83v14.633zm202 32.923c0 1.01.895 1.83 2 1.83s2-.82 2-1.83v-14.632c0-1.01-.895-1.83-2-1.83s-2 .82-2 1.83v14.632zm-202 0c0 1.01.895 1.83 2 1.83s2-.82 2-1.83v-14.632c0-1.01-.895-1.83-2-1.83s-2 .82-2 1.83v14.632zm202 32.923c0 1.01.895 1.828 2 1.828s2-.82 2-1.83V248.2c0-1.012-.895-1.83-2-1.83s-2 .818-2 1.83v14.63-.001zm-202 0c0 1.01.895 1.828 2 1.828s2-.82 2-1.83V248.2c0-1.012-.895-1.83-2-1.83s-2 .818-2 1.83v14.63-.001zm202 32.922c0 1.01.895 1.83 2 1.83s2-.82 2-1.83V281.12c0-1.01-.895-1.83-2-1.83s-2 .82-2 1.83v14.632-.001zm-202 0c0 1.01.895 1.83 2 1.83s2-.82 2-1.83V281.12c0-1.01-.895-1.83-2-1.83s-2 .82-2 1.83v14.632-.001zm179.023 19.555c-.988.452-1.388 1.55-.894 2.454.493.904 1.694 1.27 2.682.82l14.31-6.545c.99-.452 1.39-1.55.896-2.454-.494-.902-1.696-1.27-2.684-.817l-14.31 6.544v-.002zm-32.2 14.723c-.987.452-1.388 1.55-.894 2.454.493.904 1.695 1.27 2.683.818l14.31-6.544c.99-.45 1.39-1.55.895-2.454-.494-.903-1.695-1.27-2.683-.818l-14.31 6.544h-.001zm-32.2 14.724c-.987.45-1.387 1.55-.893 2.454.494.903 1.695 1.27 2.683.818l14.31-6.544c.99-.452 1.39-1.55.896-2.454-.495-.904-1.697-1.27-2.685-.818l-14.31 6.544h-.001zm-23.67-2.023l-12.186-5.57c-.987-.452-2.19-.086-2.683.817-.494.904-.093 2.003.895 2.454l12.185 5.573c.754.345 1.57.645 2.438.898 1.052.307 2.177-.224 2.513-1.187.335-.962-.246-1.99-1.298-2.298a13.594 13.594 0 01-1.864-.684v-.003zM66.57 322.437c-.988-.452-2.19-.086-2.683.818-.494.903-.094 2.002.894 2.454l14.31 6.544c.988.45 2.19.085 2.683-.818.494-.904.094-2.003-.894-2.454l-14.312-6.544h.002zm-32.2-14.723c-.988-.452-2.19-.086-2.683.818-.494.904-.093 2.003.895 2.454l14.31 6.544c.988.452 2.19.086 2.684-.818.494-.903.093-2.002-.895-2.454l-14.312-6.543.001-.001z" fill="#EEE"/><path fill-rule="evenodd" clip-rule="evenodd" d="M108 18c0-9.94 8.06-18 18-18s18 8.06 18 18-8.06 18-18 18-18-8.06-18-18z" fill="#FADFD9"/><path fill-rule="evenodd" clip-rule="evenodd" d="M140.143 18c0-7.81-6.332-14.143-14.143-14.143-7.81 0-14.143 6.332-14.143 14.143 0 7.81 6.332 14.143 14.143 14.143 7.81 0 14.143-6.332 14.143-14.143z" fill="#fff"/><path fill-rule="evenodd" clip-rule="evenodd" d="M123.43 8.994c0-.707.57-1.28 1.283-1.28h2.574c.71 0 1.284.57 1.284 1.28v10.298c0 .706-.57 1.28-1.283 1.28h-2.574a1.275 1.275 0 01-1.186-.79 1.273 1.273 0 01-.098-.49V8.994zm0 15.433c0-.71.57-1.284 1.283-1.284h2.574c.71 0 1.284.57 1.284 1.284V27c0 .71-.57 1.286-1.283 1.286h-2.574a1.287 1.287 0 01-.91-.375 1.282 1.282 0 01-.374-.91v-2.573z" fill="#E75E40"/><path fill-rule="evenodd" clip-rule="evenodd" d="M217 89c0-9.94 8.06-18 18-18s18 8.06 18 18-8.06 18-18 18-18-8.06-18-18z" fill="#F6D4DC"/><path fill-rule="evenodd" clip-rule="evenodd" d="M249.143 89c0-7.81-6.332-14.143-14.143-14.143-7.81 0-14.143 6.332-14.143 14.143 0 7.81 6.332 14.143 14.143 14.143 7.81 0 14.143-6.332 14.143-14.143z" fill="#fff"/><path fill-rule="evenodd" clip-rule="evenodd" d="M234.999 86.348l-3.603-3.602a.751.751 0 00-1.063.01l-1.578 1.578a.764.764 0 00-.226.53.75.75 0 00.216.533L232.347 89l-3.602 3.603a.753.753 0 00.01 1.063l1.578 1.578c.302.3.773.3 1.063.01l3.603-3.602 3.603 3.602a.755.755 0 001.063-.01l1.578-1.578a.748.748 0 00.01-1.063L237.651 89l3.602-3.603a.75.75 0 00-.01-1.063l-1.578-1.578a.747.747 0 00-1.063-.01l-3.603 3.602z" fill="#D22852"/></svg>