<svg xmlns="http://www.w3.org/2000/svg" xmlns:xlink="http://www.w3.org/1999/xlink" width="255" height="211" viewBox="0 0 255 211"><defs><rect id="f" width="20" height="4" x="0" y="0" rx="2"/><rect id="g" width="32" height="4" x="112" y="0" rx="2"/><rect id="h" width="76" height="4" x="28" y="0" rx="2"/><rect id="i" width="36" height="4" x="6" y="10" rx="2"/><rect id="j" width="100" height="4" x="50" y="10" rx="2"/><circle id="a" cx="6" cy="6" r="6"/><circle id="b" cx="13.5" cy="13.5" r="13.5"/><circle id="c" cx="13.5" cy="13.5" r="8.5"/><path id="d" d="M47.24 84.18c-.134-2.026-.321-4.04-.559-6.05a1.5 1.5 0 00-2.979.353c.232 1.956.414 3.922.545 5.896a1.5 1.5 0 102.993-.199"/><path id="e" d="M44.62 66.14c-.449-1.98-.949-3.945-1.5-5.894a1.499 1.499 0 10-2.886.816 112.202 112.202 0 011.461 5.742 1.5 1.5 0 002.925-.663"/></defs><g fill="none" fill-rule="evenodd"><path stroke="#EEE" stroke-linecap="round" stroke-width="3" d="M235.69 208.73C222.978 160.54 179.09 125 126.9 125c-52.35 0-96.35 35.757-108.91 84.18"/><g fill="#F2F2F2" fill-rule="nonzero" transform="translate(16 123)"><path d="M111.12 3.5c50.613.098 94.39 34.36 107.12 82.61a1.5 1.5 0 002.901-.765c-13.07-49.558-58.03-84.74-110.01-84.85a1.5 1.5 0 00-.006 3m64.11 82.09c-7.683-49.66-33.691-84.992-64.11-85.09a1.5 1.5 0 00-.01 3c28.581.096 53.665 34.17 61.15 82.55a1.5 1.5 0 102.965-.459M110.96.496C58.65.496 13.47 35.938.54 85.796a1.5 1.5 0 102.903.753c12.588-48.547 56.58-83.06 107.45-83.06.888 0 1.56-.671 1.56-1.499 0-.828-.671-1.5-1.499-1.501m-61.28 85.81c7.442-48.563 32.608-82.79 61.28-82.81a1.501 1.501 0 00-.002-3c-30.512.028-56.6 35.51-64.24 85.36a1.5 1.5 0 002.965.455"/><path d="M33.06 33.907C54.758 45.85 82.1 52.5 110.998 52.5c28.84 0 56.14-6.624 77.82-18.527a1.5 1.5 0 00-1.444-2.63c-21.23 11.653-48.03 18.16-76.37 18.16-28.402 0-55.25-6.529-76.49-18.221a1.5 1.5 0 10-1.446 2.628"/><rect width="3" height="86" x="110" y="2" rx="1.5"/></g><g transform="translate(197 150)"><use fill="#FC6D26" xlink:href="#a"/><use fill="#FFF" fill-opacity=".8" xlink:href="#a"/><circle cx="6" cy="6" r="3" fill="#FFF" fill-rule="nonzero" stroke="#FC6D26" stroke-width="2"/></g><g transform="translate(54 173)"><use fill="#6E49CB" xlink:href="#b"/><use fill="#FFF" fill-opacity=".9" xlink:href="#b"/><use fill="#6E49CB" xlink:href="#c"/><use fill="#FFF" fill-opacity=".6" xlink:href="#c"/><circle cx="13.5" cy="13.5" r="3.5" fill="#FFF" fill-rule="nonzero" stroke="#6E49CB" stroke-width="2"/></g><g transform="scale(1 -1) rotate(15 673.99 721.895)"><use fill="#FC6D26" xlink:href="#d"/><use fill="#FFF" fill-opacity=".8" xlink:href="#d"/><use fill="#FC6D26" xlink:href="#e"/><use fill="#FFF" fill-opacity=".6" xlink:href="#e"/><path fill="#FC6D26" d="M39.2 48.74a116.05 116.05 0 00-2.405-5.581 1.5 1.5 0 10-2.723 1.259 113.475 113.475 0 012.343 5.436 1.5 1.5 0 002.785-1.115M31.11 32.38a116.137 116.137 0 00-3.249-5.135 1.5 1.5 0 00-2.493 1.669 115.22 115.22 0 013.165 5 1.5 1.5 0 102.576-1.538M20.55 17.478a116.541 116.541 0 00-4.01-4.566 1.501 1.501 0 00-2.203 2.037 114.487 114.487 0 013.906 4.449 1.5 1.5 0 102.305-1.921M7.89 4.473A117.234 117.234 0 003.224.581a1.5 1.5 0 10-1.861 2.353 113.499 113.499 0 014.546 3.792A1.5 1.5 0 007.89 4.473"/></g><g fill="#6E49CB"><path d="M22.173 122.966c.469 1.969.99 3.928 1.565 5.875a1.501 1.501 0 002.878-.848 113.506 113.506 0 01-1.525-5.722 1.499 1.499 0 10-2.918.697m5.599 17.317c.77 1.867 1.589 3.719 2.46 5.555a1.5 1.5 0 102.71-1.286 114.683 114.683 0 01-2.398-5.415 1.5 1.5 0 10-2.773 1.144m8.17 16.168a117.249 117.249 0 003.284 5.118 1.5 1.5 0 102.483-1.686 113.608 113.608 0 01-3.2-4.988 1.5 1.5 0 10-2.567 1.555m10.634 14.813a116.166 116.166 0 004.04 4.538 1.5 1.5 0 102.189-2.053 113.343 113.343 0 01-3.936-4.42 1.5 1.5 0 10-2.293 1.935"/><path d="M46.575 171.263a116.166 116.166 0 004.04 4.538 1.5 1.5 0 102.189-2.053 113.343 113.343 0 01-3.936-4.42 1.5 1.5 0 10-2.293 1.935"/></g><g transform="translate(43 84)"><use fill="#6E49CB" xlink:href="#f"/><use fill="#FFF" fill-opacity=".8" xlink:href="#f"/><use fill="#6E49CB" xlink:href="#g"/><use fill="#FFF" fill-opacity=".8" xlink:href="#g"/><use fill="#6E49CB" xlink:href="#h"/><use fill="#FFF" fill-opacity=".8" xlink:href="#h"/><use fill="#FC6D26" xlink:href="#i"/><use fill="#FFF" fill-opacity=".8" xlink:href="#i"/><use fill="#FC6D26" xlink:href="#j"/><use fill="#FFF" fill-opacity=".8" xlink:href="#j"/></g><path fill="#FFF" stroke="#FDC4A8" stroke-linecap="round" stroke-width="4" d="M204.18 96H226c14.912 0 27-12.088 27-27s-12.088-27-27-27-27 12.088-27 27c0 3.569.692 6.976 1.95 10.095"/><path fill="#FC6D26" d="M214.643 59.617l1.347 5.062a9 9 0 003.929 5.318l10.853 6.78 2.866-2.866-6.78-10.853a9 9 0 00-5.318-3.929l-5.062-1.347a1.5 1.5 0 00-1.835 1.835zm3.565 1.73l2.56.681a6 6 0 013.545 2.62l4.67 7.475-7.475-4.67a6 6 0 01-2.619-3.546l-.681-2.56zM229 78l-7.5-4.5V75a6 6 0 006 6h1.5v-3zm6-6h3v-1.5a6 6 0 00-6-6h-1.5L235 72z"/><g><path fill="#FFF" stroke="#C2B7E6" stroke-linecap="round" stroke-width="4" d="M34.547 86H20c-9.941 0-18 8.059-18 18s8.059 18 18 18 18-8.059 18-18c0-2.38-.462-4.65-1.3-6.73"/><path fill="#6E49CB" d="M28.072 98.245l-.899 3.374a6 6 0 01-2.619 3.546l-7.235 4.52-1.911-1.91 4.52-7.236a6 6 0 013.545-2.62l3.375-.898a1 1 0 011.224 1.224zm-2.377 1.153l-1.707.454a4 4 0 00-2.364 1.746l-3.113 4.984 4.984-3.114a4 4 0 001.746-2.363l.454-1.707zM18.5 110.5l5-3v1a4 4 0 01-4 4h-1v-2zm-4-4h-2v-1a4 4 0 014-4h1l-3 5z"/></g><g transform="translate(57)"><rect width="126" height="72" x="2" y="2" fill="#FFF" stroke="#DFDFDF" stroke-width="4" rx="8"/><g stroke-linecap="round"><path stroke="#C2B7E6" stroke-linejoin="round" stroke-width="2" d="M14 16.5h5M14 48.5h5M14 26.5h5M14 58.5h5"/><path stroke="#DFDFDF" stroke-width="4" d="M34 16.5h16M34 26.5h9M34 58.5h9M54 26.5h21M54 58.5h21M86 58.5h14"/><path stroke="#FC6D26" stroke-width="4" d="M35 37.5h22M93 37.5h22"/><path stroke="#F4C6AC" stroke-width="4" d="M67 37.5h14"/><path stroke="#DFDFDF" stroke-width="4" d="M34 48.5h16M86 26.5h14M61 16.5h8M79 48.5h21"/><path stroke="#F4C6AC" stroke-width="2" d="M14 37.5h5"/><path stroke="#DFDFDF" stroke-width="4" d="M61 48.5h8M79 16.5h21"/></g></g></g></svg>