<svg width="334" height="138" xmlns="http://www.w3.org/2000/svg"><path d="M191.961 104a2.006 2.006 0 01-2.006-2.009 2.008 2.008 0 012.006-2.008c2.551 0 5.059-.306 7.488-.908a2.003 2.003 0 012.429 1.468 1.997 1.997 0 01-.23 1.52 2.013 2.013 0 01-1.236.913 35.188 35.188 0 01-8.451 1.024zm18.269-5.127a2.003 2.003 0 01-2.79-.648 2.009 2.009 0 01.701-2.78 31.276 31.276 0 005.915-4.685 2 2 0 012.184-.446 2.004 2.004 0 011.248 1.85 2.022 2.022 0 01-.581 1.423 35.276 35.276 0 01-6.676 5.286h-.001zm12.937-13.895a2.008 2.008 0 01-2.688.83 2.008 2.008 0 01-.876-2.675 30.925 30.925 0 002.621-7.073 2.015 2.015 0 01.894-1.263 2.005 2.005 0 013.01 2.19 34.946 34.946 0 01-2.961 7.992zm3.828-18.512a2.016 2.016 0 01-.489 1.46 2.02 2.02 0 01-1.378.684 2.007 2.007 0 01-2.137-1.875 31.025 31.025 0 00-1.411-7.411 2.011 2.011 0 011.305-2.499 2.005 2.005 0 012.515 1.27 35.043 35.043 0 011.595 8.371zm-6.366-17.919a2.014 2.014 0 01-.487 2.788 2.005 2.005 0 01-2.788-.466 31.31 31.31 0 00-5.07-5.588 2.01 2.01 0 011.165-3.523 2.004 2.004 0 011.458.483 35.333 35.333 0 015.722 6.306zm-14.728-11.969a2.012 2.012 0 01-.072 3.695 2.004 2.004 0 01-1.523-.01 30.828 30.828 0 00-7.229-2.128 2.003 2.003 0 01-1.651-1.524 2.019 2.019 0 01.253-1.529 2.005 2.005 0 012.053-.91 34.832 34.832 0 018.169 2.406zm-18.692-2.56a2.004 2.004 0 012.258 1.721 2.006 2.006 0 01-1.719 2.26c-2.513.34-4.956.985-7.29 1.915a2 2 0 01-2.192-.456 2.009 2.009 0 01.708-3.276 34.844 34.844 0 018.235-2.164zm-17.412 7.568a2.006 2.006 0 012.535 3.113 31.274 31.274 0 00-5.229 5.44 2.009 2.009 0 01-2.811.396 2.012 2.012 0 01-.396-2.813 35.334 35.334 0 015.901-6.136zm-10.953 15.556a2.008 2.008 0 012.556-1.215 2.007 2.007 0 011.228 2.552 30.999 30.999 0 00-1.624 7.368 2.019 2.019 0 01-.72 1.359 2.002 2.002 0 01-2.825-.27 2.018 2.018 0 01-.45-1.47c.27-2.84.886-5.635 1.835-8.325v.001zm-1.274 18.825a2.003 2.003 0 01.269-1.534 2.002 2.002 0 012.809-.579 2.01 2.01 0 01.852 1.303 30.89 30.89 0 002.407 7.15 2.016 2.016 0 01.116 1.556 2.007 2.007 0 01-2.591 1.246 2 2 0 01-1.141-1.065 34.894 34.894 0 01-2.722-8.077h.001zm8.703 16.846a2.001 2.001 0 01-.538-1.44 2.006 2.006 0 013.473-1.3 31.31 31.31 0 005.77 4.862 2.01 2.01 0 01-1.466 3.663 2.002 2.002 0 01-.728-.3 35.263 35.263 0 01-6.511-5.485zm16.297 9.916a2.02 2.02 0 01-1.218-.944 2.016 2.016 0 01.163-2.233 2 2 0 011.343-.757c.262-.031.528-.01.783.062a31.042 31.042 0 007.458 1.115 2.001 2.001 0 011.847 1.284 2.012 2.012 0 01-.503 2.194 2.015 2.015 0 01-1.455.537 35.106 35.106 0 01-8.418-1.258z" fill="#F2F2F2"/><path d="M192 87c-9.941 0-18-8.059-18-18s8.059-18 18-18 18 8.059 18 18-8.059 18-18 18zm0-4c7.732 0 14-6.268 14-14s-6.268-14-14-14-14 6.268-14 14 6.268 14 14 14z" fill="#DFDFDF"/><path fill-rule="evenodd" clip-rule="evenodd" d="M194 67h5a2 2 0 010 4h-7a2 2 0 01-2-2v-8a2 2 0 014 0v6z" fill="#DFDFDF"/><path d="M12 4a8 8 0 00-8 8v114a8 8 0 008 8h96a8 8 0 008-8V12a8.001 8.001 0 00-8-8H12zm0-4h96c6.627 0 12 5.373 12 12v114c0 6.627-5.373 12-12 12H12c-6.627 0-12-5.373-12-12V12C0 5.373 5.373 0 12 0z" fill="#DBDBDB"/><path d="M34 25H22a2 2 0 100 4h12a2 2 0 100-4zm32 12H54a2 2 0 100 4h12a2 2 0 100-4z" fill="#F0EDFA"/><path d="M78 25H66a2 2 0 100 4h12a2 2 0 100-4z" fill="#F0F0F0"/><path d="M46 49H34a2 2 0 100 4h12a2 2 0 100-4z" fill="#F0EDFA"/><path d="M98 61H86a2 2 0 100 4h12a2 2 0 100-4zM46 25h-4a2 2 0 100 4h4a2 2 0 100-4z" fill="#FEE2D4"/><path d="M58 61h-4a2 2 0 100 4h4a2 2 0 100-4z" fill="#FC6D26"/><path d="M78 37h-4a2 2 0 100 4h4a2 2 0 100-4zm12-12h-4a2 2 0 100 4h4a2 2 0 100-4z" fill="#FEE2D4"/><path d="M46 73h-8a2 2 0 100 4h8a2 2 0 100-4z" fill="#E2DBF5"/><path d="M70 61h-4a2 2 0 100 4h4a2 2 0 100-4z" fill="#FC6D26"/><path d="M80 63a2 2 0 10-4 0 2 2 0 004 0zm8 24a2 2 0 10-4 0 2 2 0 004 0z" fill="#F0EDFA"/><path d="M96 87a2 2 0 10-4 0 2 2 0 004 0zM58 25h-4a2 2 0 100 4h4a2 2 0 100-4z" fill="#FC6D26"/><path d="M46 61H22a2 2 0 100 4h24a2 2 0 100-4zm44 12H66a2 2 0 100 4h24a2 2 0 100-4z" fill="#F0F0F0"/><path d="M78 85H54a2 2 0 100 4h24a2 2 0 100-4z" fill="#F0EDFA"/><path d="M46 37H22a2 2 0 100 4h24a2 2 0 100-4z" fill="#6E49CB"/><path d="M78 49H54a2 2 0 100 4h24a2 2 0 100-4z" fill="#E2DBF5"/><path d="M26 49h-4a2 2 0 100 4h4a2 2 0 100-4z" fill="#FEE2D4"/><path d="M58 73h-4a2 2 0 100 4h4a2 2 0 100-4z" fill="#6B4FBB"/><path d="M30 73h-8a2 2 0 100 4h8a2 2 0 100-4z" fill="#FC6D26"/><path d="M30 85h-8a2 2 0 100 4h8a2 2 0 100-4zm16 0h-8a2 2 0 100 4h8a2 2 0 100-4z" fill="#FEE2D4"/><path d="M34 97H22a2 2 0 100 4h12a2 2 0 100-4z" fill="#F0EDFA"/><path d="M52 109H40a2 2 0 100 4h12a2 2 0 100-4z" fill="#FC6D26"/><path d="M78 97H66a2 2 0 100 4h12a2 2 0 100-4z" fill="#6B4FBB"/><path d="M46 97h-4a2 2 0 100 4h4a2 2 0 100-4z" fill="#FEE1D3"/><path d="M64 109h-4a2 2 0 100 4h4a2 2 0 100-4zm26-12h-4a2 2 0 100 4h4a2 2 0 100-4z" fill="#FEE2D4"/><path d="M58 97h-4a2 2 0 100 4h4a2 2 0 100-4z" fill="#FC6D26"/><path d="M32 109H22a2 2 0 100 4h10a2 2 0 100-4z" fill="#F0F0F0"/><path d="M299 104c-19.33 0-35-15.67-35-35s15.67-35 35-35 35 15.67 35 35-15.67 35-35 35zm0-4c17.12 0 31-13.88 31-31 0-17.12-13.88-31-31-31-17.12 0-31 13.88-31 31 0 17.12 13.88 31 31 31z" fill="#E0DBF2"/><path fill-rule="evenodd" clip-rule="evenodd" d="M299 54l14 4v7.373a16 16 0 01-4.686 11.313L299 86l-9.314-9.314A16 16 0 01285 65.373V58l14-4zm0 4.16l-10 2.857v4.356a12 12 0 003.515 8.485L299 80.343l6.485-6.485A11.998 11.998 0 00309 65.373v-4.356l-10-2.857zm0 3.84v12.719l-3.635-3.606a8 8 0 01-2.365-5.68V64l6-2z" fill="#6E49CB"/><path d="M128 68.5h21m86 0h21" stroke="#F2F2F2" stroke-width="4" stroke-linecap="round" stroke-dasharray="8 12"/></svg>