<svg xmlns="http://www.w3.org/2000/svg" width="120" height="123"><g fill="none"><g fill="#F0EDF9"><circle cx="60" cy="60" r="60" opacity=".5"/><circle cx="60" cy="60" r="48"/></g><circle cx="60" cy="59" r="34" fill="#FFF"/><g transform="translate(24 24)"><rect width="14" height="55" x="67.025" y="48.646" fill="#AB9AD9" rx="6" transform="rotate(-45 74.025 76.146)"/><path fill="#6B4FBB" d="M61.455 61.456c-14.057 14.059-36.852 14.059-50.912 0-14.057-14.06-14.057-36.852 0-50.912 14.06-14.059 36.855-14.059 50.912 0 14.06 14.06 14.06 36.852 0 50.912zm-6.781-44.13c-10.312-10.315-27.036-10.315-37.35 0-10.312 10.311-10.312 27.035 0 37.349 10.314 10.314 27.038 10.314 37.352 0 10.314-10.312 10.314-27.036-.002-37.35z"/><path fill="#FB722E" d="M39.844 36.039l4.45-4.45a2.676 2.676 0 00-.01-3.795 2.675 2.675 0 00-3.795-.01l-4.45 4.45-4.45-4.45a2.676 2.676 0 00-3.795.01 2.675 2.675 0 00-.01 3.794l4.45 4.45-4.45 4.451a2.676 2.676 0 00.01 3.794 2.675 2.675 0 003.794.011l4.45-4.45 4.451 4.45a2.676 2.676 0 003.794-.01 2.675 2.675 0 00.011-3.795l-4.45-4.45"/></g></g></svg>